{"asset": {"version": "2.0", "generator": "GLTFExporter"}, "scenes": [{"name": "AuxScene", "nodes": [1]}], "scene": 0, "nodes": [{"mesh": 0}, {"children": [0]}], "bufferViews": [{"buffer": 0, "byteOffset": 0, "byteLength": 6768}, {"buffer": 0, "byteOffset": 6768, "byteLength": 11088}, {"buffer": 0, "byteOffset": 17856, "byteLength": 11088}, {"buffer": 0, "byteOffset": 28944, "byteLength": 11088}, {"buffer": 0, "byteOffset": 40032, "byteLength": 7392}], "buffers": [{"byteLength": 47424, "uri": "data:application/octet-stream;base64,"}], "accessors": [{"componentType": 5123, "type": "SCALAR", "bufferView": 0, "count": 3384, "max": [923], "min": [0]}, {"componentType": 5126, "type": "VEC3", "bufferView": 1, "byteOffset": 0, "count": 924, "max": [0.764805018901825, 2.85014009475708, 0.764805018901825], "min": [-0.764805018901825, 0.0170655008405447, -0.764805018901825]}, {"componentType": 5126, "type": "VEC3", "bufferView": 2, "byteOffset": 0, "count": 924, "max": [1.0, 0.9856560230255127, 0.9999079704284668], "min": [-1.0, -0.8406320214271545, -0.9999079704284668]}, {"componentType": 5126, "type": "VEC3", "bufferView": 3, "byteOffset": 0, "count": 924, "max": [1.0, 1.0, 1.0], "min": [1.0, 1.0, 1.0]}, {"componentType": 5126, "type": "VEC2", "bufferView": 4, "byteOffset": 0, "count": 924, "max": [1.0, 0.9861400127410889], "min": [0.0008414689800702035, 0.01898919977247715]}], "materials": [{"pbrMetallicRoughness": {"baseColorFactor": [0.8, 0.8, 0.8, 1], "metallicFactor": 0, "roughnessFactor": 1}}], "meshes": [{"primitives": [{"mode": 4, "attributes": {"POSITION": 1, "NORMAL": 2, "COLOR_0": 3, "TEXCOORD_0": 4}, "material": 0, "indices": 0}]}]}