{"asset": {"version": "2.0", "generator": "GLTFExporter"}, "scenes": [{"name": "AuxScene", "nodes": [1]}], "scene": 0, "nodes": [{"mesh": 0}, {"children": [0]}], "bufferViews": [{"buffer": 0, "byteOffset": 0, "byteLength": 7176}, {"buffer": 0, "byteOffset": 7176, "byteLength": 9852}, {"buffer": 0, "byteOffset": 17028, "byteLength": 9852}, {"buffer": 0, "byteOffset": 26880, "byteLength": 9852}, {"buffer": 0, "byteOffset": 36732, "byteLength": 6568}], "buffers": [{"byteLength": 43300, "uri": "data:application/octet-stream;base64,"}], "accessors": [{"componentType": 5123, "type": "SCALAR", "bufferView": 0, "count": 3588, "max": [820], "min": [0]}, {"componentType": 5126, "type": "VEC3", "bufferView": 1, "byteOffset": 0, "count": 821, "max": [0.8790109157562256, 3.2405364513397217, 0.8790109157562256], "min": [-0.8790109157562256, 0.005624945275485516, -0.8790109157562256]}, {"componentType": 5126, "type": "VEC3", "bufferView": 2, "byteOffset": 0, "count": 821, "max": [0.9995399117469788, 0.9784657955169678, 0.9995399117469788], "min": [-0.9995399117469788, -0.9983623623847961, -0.9995399117469788]}, {"componentType": 5126, "type": "VEC3", "bufferView": 3, "byteOffset": 0, "count": 821, "max": [1.0, 1.0, 1.0], "min": [1.0, 1.0, 1.0]}, {"componentType": 5126, "type": "VEC2", "bufferView": 4, "byteOffset": 0, "count": 821, "max": [0.9947800040245056, 0.9845690131187439], "min": [0.011266999877989292, 0.008894000202417374]}], "materials": [{"pbrMetallicRoughness": {"baseColorFactor": [0.8, 0.8, 0.8, 1], "metallicFactor": 0, "roughnessFactor": 1}}], "meshes": [{"primitives": [{"mode": 4, "attributes": {"POSITION": 1, "NORMAL": 2, "COLOR_0": 3, "TEXCOORD_0": 4}, "material": 0, "indices": 0}]}]}