{"asset": {"version": "2.0", "generator": "jocly khans horse-pawn"}, "scene": 0, "scenes": [{"nodes": [1]}], "nodes": [{"mesh": 0}, {"children": [0]}], "buffers": [{"byteLength": 63008, "uri": "data:application/octet-stream;base64,"}], "bufferViews": [{"buffer": 0, "byteOffset": 0, "byteLength": 14196, "target": 34962}, {"buffer": 0, "byteOffset": 14196, "byteLength": 14196, "target": 34962}, {"buffer": 0, "byteOffset": 28392, "byteLength": 9464, "target": 34962}, {"buffer": 0, "byteOffset": 37856, "byteLength": 25152, "target": 34963}], "accessors": [{"bufferView": 0, "componentType": 5126, "count": 1183, "type": "VEC3", "min": [-0.75, 0.0, -0.75], "max": [0.75, 2.4954633712768555, 0.75]}, {"bufferView": 1, "componentType": 5126, "count": 1183, "type": "VEC3"}, {"bufferView": 2, "componentType": 5126, "count": 1183, "type": "VEC2"}, {"bufferView": 3, "componentType": 5125, "count": 6288, "type": "SCALAR"}], "materials": [{"name": "mat0", "pbrMetallicRoughness": {"baseColorFactor": [0.8, 0.8, 0.8, 1], "metallicFactor": 0, "roughnessFactor": 1}}], "meshes": [{"primitives": [{"attributes": {"POSITION": 0, "NORMAL": 1, "TEXCOORD_0": 2}, "indices": 3, "material": 0, "mode": 4}]}]}