{"asset": {"version": "2.0", "generator": "GLTFExporter"}, "scenes": [{"name": "AuxScene", "nodes": [1]}], "scene": 0, "nodes": [{"mesh": 0}, {"children": [0]}], "bufferViews": [{"buffer": 0, "byteOffset": 0, "byteLength": 9288}, {"buffer": 0, "byteOffset": 9288, "byteLength": 12408}, {"buffer": 0, "byteOffset": 21696, "byteLength": 12408}, {"buffer": 0, "byteOffset": 34104, "byteLength": 12408}, {"buffer": 0, "byteOffset": 46512, "byteLength": 8272}], "buffers": [{"byteLength": 54784, "uri": "data:application/octet-stream;base64,"}], "accessors": [{"componentType": 5123, "type": "SCALAR", "bufferView": 0, "count": 4644, "max": [1033], "min": [0]}, {"componentType": 5126, "type": "VEC3", "bufferView": 1, "byteOffset": 0, "count": 1034, "max": [0.8586549758911133, 3.5822699069976807, 0.8586549758911133], "min": [-0.8586549758911133, -0.014064700342714787, -0.8586549758911133]}, {"componentType": 5126, "type": "VEC3", "bufferView": 2, "byteOffset": 0, "count": 1034, "max": [0.9985960125923157, 0.9913939833641052, 0.9972839951515198], "min": [-0.9985960125923157, -0.9993289709091187, -0.9999390244483948]}, {"componentType": 5126, "type": "VEC3", "bufferView": 3, "byteOffset": 0, "count": 1034, "max": [1.0, 1.0, 1.0], "min": [1.0, 1.0, 1.0]}, {"componentType": 5126, "type": "VEC2", "bufferView": 4, "byteOffset": 0, "count": 1034, "max": [0.9903119802474976, 0.9910500049591064], "min": [0.007369339931756258, 0.006906319875270128]}], "materials": [{"pbrMetallicRoughness": {"baseColorFactor": [0.8, 0.8, 0.8, 1], "metallicFactor": 0, "roughnessFactor": 1}}], "meshes": [{"primitives": [{"mode": 4, "attributes": {"POSITION": 1, "NORMAL": 2, "COLOR_0": 3, "TEXCOORD_0": 4}, "material": 0, "indices": 0}]}]}