{"asset": {"version": "2.0", "generator": "GLTFExporter"}, "scenes": [{"name": "AuxScene", "nodes": [1]}], "scene": 0, "nodes": [{"extras": {"mapFilename": null}, "mesh": 0}, {"children": [0]}], "bufferViews": [{"buffer": 0, "byteOffset": 0, "byteLength": 29592}, {"buffer": 0, "byteOffset": 29592, "byteLength": 99168}, {"buffer": 0, "byteOffset": 128760, "byteLength": 99168}, {"buffer": 0, "byteOffset": 227928, "byteLength": 99168}], "buffers": [{"byteLength": 327096, "uri": "data:application/octet-stream;base64,"}], "accessors": [{"componentType": 5123, "type": "SCALAR", "bufferView": 0, "count": 14796, "max": [8263], "min": [0]}, {"componentType": 5126, "type": "VEC3", "bufferView": 1, "byteOffset": 0, "count": 8264, "max": [5.113353252410889, 2.6133551597595215, 1.8222737312316895], "min": [-5.113353252410889, -0.009886222891509533, -6.590959072113037]}, {"componentType": 5126, "type": "VEC3", "bufferView": 2, "byteOffset": 0, "count": 8264, "max": [0.9998623132705688, 0.9999778270721436, 0.9999638199806213], "min": [-0.999908983707428, -0.9999757409095764, -0.999867856502533]}, {"componentType": 5126, "type": "VEC3", "bufferView": 3, "byteOffset": 0, "count": 8264, "max": [1.0, 1.0, 1.0], "min": [1.0, 1.0, 1.0]}], "materials": [{"pbrMetallicRoughness": {"baseColorFactor": [0, 0, 0, 1], "metallicFactor": 0, "roughnessFactor": 1}, "name": "Material"}], "meshes": [{"primitives": [{"mode": 4, "attributes": {"POSITION": 1, "NORMAL": 2, "COLOR_0": 3}, "material": 0, "indices": 0}]}]}