{"asset": {"version": "2.0", "generator": "GLTFExporter"}, "scenes": [{"name": "AuxScene", "nodes": [1]}], "scene": 0, "nodes": [{"extras": {"mapFilename": "slt-black.jpg"}, "mesh": 0}, {"children": [0]}], "bufferViews": [{"buffer": 0, "byteOffset": 0, "byteLength": 16128}, {"buffer": 0, "byteOffset": 16128, "byteLength": 18228}, {"buffer": 0, "byteOffset": 34356, "byteLength": 18228}, {"buffer": 0, "byteOffset": 52584, "byteLength": 18228}, {"buffer": 0, "byteOffset": 70812, "byteLength": 12152}], "buffers": [{"byteLength": 82964, "uri": "data:application/octet-stream;base64,"}], "accessors": [{"componentType": 5123, "type": "SCALAR", "bufferView": 0, "count": 8064, "max": [1518], "min": [0]}, {"componentType": 5126, "type": "VEC3", "bufferView": 1, "byteOffset": 0, "count": 1519, "max": [1.0431100130081177, 2.026360034942627, 1.0431100130081177], "min": [-1.0431100130081177, 0.014236800372600555, -1.0431100130081177]}, {"componentType": 5126, "type": "VEC3", "bufferView": 2, "byteOffset": 0, "count": 1519, "max": [0.9972839951515198, 1.0, 0.9972839951515198], "min": [-0.9972839951515198, -1.0, -0.9972839951515198]}, {"componentType": 5126, "type": "VEC3", "bufferView": 3, "byteOffset": 0, "count": 1519, "max": [1.0, 1.0, 1.0], "min": [1.0, 1.0, 1.0]}, {"componentType": 5126, "type": "VEC2", "bufferView": 4, "byteOffset": 0, "count": 1519, "max": [0.9808589816093445, 0.9886239767074585], "min": [0.0, 0.0]}], "materials": [{"pbrMetallicRoughness": {"baseColorFactor": [0.6392156862745098, 0.6392156862745098, 0.6392156862745098, 1], "metallicFactor": 0, "roughnessFactor": 1, "baseColorTexture": {"index": 0}}, "name": "Material.002"}], "meshes": [{"primitives": [{"mode": 4, "attributes": {"POSITION": 1, "NORMAL": 2, "COLOR_0": 3, "TEXCOORD_0": 4}, "material": 0, "indices": 0}]}], "images": [{"uri": "slt-black.jpg"}], "textures": [{"source": 0}]}