{"asset": {"version": "2.0", "generator": "GLTFExporter"}, "scenes": [{"name": "AuxScene", "nodes": [1]}], "scene": 0, "nodes": [{"mesh": 0}, {"children": [0]}], "bufferViews": [{"buffer": 0, "byteOffset": 0, "byteLength": 1080}, {"buffer": 0, "byteOffset": 1080, "byteLength": 1716}, {"buffer": 0, "byteOffset": 2796, "byteLength": 1716}, {"buffer": 0, "byteOffset": 4512, "byteLength": 1716}, {"buffer": 0, "byteOffset": 6228, "byteLength": 1144}], "buffers": [{"byteLength": 7372, "uri": "data:application/octet-stream;base64,"}], "accessors": [{"componentType": 5123, "type": "SCALAR", "bufferView": 0, "count": 540, "max": [142], "min": [0]}, {"componentType": 5126, "type": "VEC3", "bufferView": 1, "byteOffset": 0, "count": 143, "max": [0.576869010925293, 1.1435199975967407, 0.3295679986476898], "min": [-0.576869010925293, -1.4405899584346571e-08, -0.3295679986476898]}, {"componentType": 5126, "type": "VEC3", "bufferView": 2, "byteOffset": 0, "count": 143, "max": [1.0, 1.0, 1.0], "min": [-1.0, -1.0, -1.0]}, {"componentType": 5126, "type": "VEC3", "bufferView": 3, "byteOffset": 0, "count": 143, "max": [1.0, 1.0, 1.0], "min": [1.0, 1.0, 1.0]}, {"componentType": 5126, "type": "VEC2", "bufferView": 4, "byteOffset": 0, "count": 143, "max": [1.0, 0.800000011920929], "min": [0.0, 0.0]}], "materials": [{"pbrMetallicRoughness": {"baseColorFactor": [0.8, 0.8, 0.8, 1], "metallicFactor": 0, "roughnessFactor": 1}}], "meshes": [{"primitives": [{"mode": 4, "attributes": {"POSITION": 1, "NORMAL": 2, "COLOR_0": 3, "TEXCOORD_0": 4}, "material": 0, "indices": 0}]}]}