{"scene": 0, "scenes": [{"nodes": [0]}], "asset": {"version": "2.0", "generator": "gltf-fix-normals.py"}, "accessors": [{"componentType": 5123, "type": "SCALAR", "bufferView": 0, "count": 1860, "max": [534], "min": [0]}, {"componentType": 5126, "type": "VEC3", "bufferView": 1, "byteOffset": 0, "count": 535, "max": [0.764805018901825, 2.4275898933410645, 0.764805018901825], "min": [-0.764805018901825, 0.0170655008405447, -0.764805018901825]}, {"componentType": 5126, "type": "VEC2", "bufferView": 2, "byteOffset": 0, "count": 535, "max": [1.0, 0.961696982383728], "min": [0.0008410000009462237, 0.0]}, {"componentType": 5126, "type": "VEC3", "bufferView": 3, "byteOffset": 0, "count": 535, "max": [0.9998949766159058, 0.9963372349739075, 0.998554527759552], "min": [-0.9998949766159058, -0.9989170432090759, -0.9985545873641968]}], "meshes": [{"name": "geometry_0", "extras": {}, "primitives": [{"attributes": {"POSITION": 1, "TEXCOORD_0": 2, "NORMAL": 3}, "indices": 0, "mode": 4, "material": 0}]}], "materials": [{"pbrMetallicRoughness": {"baseColorFactor": [0.8, 0.8, 0.8, 1], "metallicFactor": 0, "roughnessFactor": 1}}], "nodes": [{"mesh": 0}, {"children": [0]}], "buffers": [{"byteLength": 20840, "uri": "data:application/octet-stream;base64,"}], "bufferViews": [{"buffer": 0, "byteOffset": 0, "byteLength": 3720}, {"buffer": 0, "byteOffset": 3720, "byteLength": 6420}, {"buffer": 0, "byteOffset": 10140, "byteLength": 4280}, {"buffer": 0, "byteOffset": 14420, "byteLength": 6420}]}