{"asset": {"version": "2.0", "generator": "GLTFExporter"}, "scenes": [{"name": "AuxScene", "nodes": [1]}], "scene": 0, "nodes": [{"mesh": 0}, {"children": [0]}], "bufferViews": [{"buffer": 0, "byteOffset": 0, "byteLength": 6168}, {"buffer": 0, "byteOffset": 6168, "byteLength": 11532}, {"buffer": 0, "byteOffset": 17700, "byteLength": 11532}, {"buffer": 0, "byteOffset": 29232, "byteLength": 11532}, {"buffer": 0, "byteOffset": 40764, "byteLength": 7688}], "buffers": [{"byteLength": 48452, "uri": "data:application/octet-stream;base64,"}], "accessors": [{"componentType": 5123, "type": "SCALAR", "bufferView": 0, "count": 3084, "max": [960], "min": [0]}, {"componentType": 5126, "type": "VEC3", "bufferView": 1, "byteOffset": 0, "count": 961, "max": [0.711745023727417, 3.163670063018799, 0.711745023727417], "min": [-0.711745023727417, 0.036104001104831696, -0.7414349913597107]}, {"componentType": 5126, "type": "VEC3", "bufferView": 2, "byteOffset": 0, "count": 961, "max": [0.9998781681060791, 0.9999088048934937, 0.9998626708984375], "min": [-0.9998781085014343, -1.0, -0.9984736442565918]}, {"componentType": 5126, "type": "VEC3", "bufferView": 3, "byteOffset": 0, "count": 961, "max": [1.0, 1.0, 1.0], "min": [1.0, 1.0, 1.0]}, {"componentType": 5126, "type": "VEC2", "bufferView": 4, "byteOffset": 0, "count": 961, "max": [1.0, 0.9949380159378052], "min": [0.002454000059515238, 0.0]}], "materials": [{"pbrMetallicRoughness": {"baseColorFactor": [0.8, 0.8, 0.8, 1], "metallicFactor": 0, "roughnessFactor": 1}}], "meshes": [{"primitives": [{"mode": 4, "attributes": {"POSITION": 1, "NORMAL": 2, "COLOR_0": 3, "TEXCOORD_0": 4}, "material": 0, "indices": 0}]}]}