{"scene": 0, "scenes": [{"nodes": [0]}], "asset": {"version": "2.0", "generator": "gltf-fix-normals.py"}, "accessors": [{"componentType": 5123, "type": "SCALAR", "bufferView": 0, "count": 3084, "max": [960], "min": [0]}, {"componentType": 5126, "type": "VEC3", "bufferView": 1, "byteOffset": 0, "count": 961, "max": [0.7607349753379822, 2.663670063018799, 0.7452489733695984], "min": [-0.7616130113601685, 0.021662700921297073, -0.7762479782104492]}, {"componentType": 5126, "type": "VEC2", "bufferView": 2, "byteOffset": 0, "count": 961, "max": [1.0, 0.9949380159378052], "min": [0.002454000059515238, 0.0]}, {"componentType": 5126, "type": "VEC3", "bufferView": 3, "byteOffset": 0, "count": 961, "max": [0.9998781681060791, 0.9999088048934937, 0.9998626708984375], "min": [-0.9998781085014343, -1.0, -0.998948335647583]}], "meshes": [{"name": "geometry_0", "extras": {}, "primitives": [{"attributes": {"POSITION": 1, "TEXCOORD_0": 2, "NORMAL": 3}, "indices": 0, "mode": 4, "material": 0}]}], "materials": [{"pbrMetallicRoughness": {"baseColorFactor": [0.8, 0.8, 0.8, 1], "metallicFactor": 0, "roughnessFactor": 1}}], "nodes": [{"mesh": 0}, {"children": [0]}], "buffers": [{"byteLength": 36920, "uri": "data:application/octet-stream;base64,"}], "bufferViews": [{"buffer": 0, "byteOffset": 0, "byteLength": 6168}, {"buffer": 0, "byteOffset": 6168, "byteLength": 11532}, {"buffer": 0, "byteOffset": 17700, "byteLength": 7688}, {"buffer": 0, "byteOffset": 25388, "byteLength": 11532}]}