{"asset": {"version": "2.0", "generator": "GLTFExporter"}, "scenes": [{"name": "AuxScene", "nodes": [4]}], "scene": 0, "nodes": [{"extras": {"mapFilename": null}, "mesh": 0}, {"extras": {"mapFilename": "wood.jpg"}, "mesh": 1}, {"extras": {"mapFilename": null}, "mesh": 2}, {"extras": {"mapFilename": "wood.jpg"}, "mesh": 3}, {"children": [0, 1, 2, 3]}], "bufferViews": [{"buffer": 0, "byteOffset": 0, "byteLength": 72}, {"buffer": 0, "byteOffset": 72, "byteLength": 72}, {"buffer": 0, "byteOffset": 144, "byteLength": 72}, {"buffer": 0, "byteOffset": 216, "byteLength": 48}, {"buffer": 0, "byteOffset": 264, "byteLength": 12}, {"buffer": 0, "byteOffset": 276, "byteLength": 192}, {"buffer": 0, "byteOffset": 468, "byteLength": 192}, {"buffer": 0, "byteOffset": 660, "byteLength": 192}, {"buffer": 0, "byteOffset": 852, "byteLength": 128}, {"buffer": 0, "byteOffset": 980, "byteLength": 48}, {"buffer": 0, "byteOffset": 1028, "byteLength": 576}, {"buffer": 0, "byteOffset": 1604, "byteLength": 576}, {"buffer": 0, "byteOffset": 2180, "byteLength": 576}, {"buffer": 0, "byteOffset": 2756, "byteLength": 384}, {"buffer": 0, "byteOffset": 3140, "byteLength": 264}, {"buffer": 0, "byteOffset": 3404, "byteLength": 3048}, {"buffer": 0, "byteOffset": 6452, "byteLength": 3048}, {"buffer": 0, "byteOffset": 9500, "byteLength": 3048}, {"buffer": 0, "byteOffset": 12548, "byteLength": 2032}, {"buffer": 0, "byteOffset": 14580, "byteLength": 1380}], "buffers": [{"byteLength": 15960, "uri": "data:application/octet-stream;base64,"}], "accessors": [{"componentType": 5126, "type": "VEC3", "bufferView": 0, "byteOffset": 0, "count": 6, "max": [0.5019500255584717, 0.2562600076198578, 0.651170015335083], "min": [-0.5172640085220337, 0.2562600076198578, 0.19845899939537048]}, {"componentType": 5126, "type": "VEC3", "bufferView": 1, "byteOffset": 0, "count": 6, "max": [0.3812370002269745, 0.9181489944458008, 0.41023001074790955], "min": [-0.3812370002269745, 0.907010018825531, -0.1716970056295395]}, {"componentType": 5126, "type": "VEC3", "bufferView": 2, "byteOffset": 0, "count": 6, "max": [1.0, 1.0, 1.0], "min": [1.0, 1.0, 1.0]}, {"componentType": 5126, "type": "VEC2", "bufferView": 3, "byteOffset": 0, "count": 6, "max": [0.9731889963150024, 0.37435999512672424], "min": [0.8700169920921326, 0.09939999878406525]}, {"componentType": 5123, "type": "SCALAR", "bufferView": 4, "byteOffset": 0, "count": 6, "max": [5.0], "min": [0.0]}, {"componentType": 5126, "type": "VEC3", "bufferView": 5, "byteOffset": 0, "count": 16, "max": [0.45738500356674194, 0.2562600076198578, 0.6661700010299683], "min": [-0.2415509968996048, 0.0012602700153365731, -0.6702240109443665]}, {"componentType": 5126, "type": "VEC3", "bufferView": 6, "byteOffset": 0, "count": 16, "max": [0.8881800174713135, 0.9120460152626038, 0.9238560199737549], "min": [-0.7547529935836792, -0.707082986831665, -0.756401002407074]}, {"componentType": 5126, "type": "VEC3", "bufferView": 7, "byteOffset": 0, "count": 16, "max": [1.0, 1.0, 1.0], "min": [1.0, 1.0, 1.0]}, {"componentType": 5126, "type": "VEC2", "bufferView": 8, "byteOffset": 0, "count": 16, "max": [0.7858589887619019, 0.806755006313324], "min": [0.589942991733551, 0.5006300210952759]}, {"componentType": 5123, "type": "SCALAR", "bufferView": 9, "byteOffset": 0, "count": 24, "max": [15.0], "min": [0.0]}, {"componentType": 5126, "type": "VEC3", "bufferView": 10, "byteOffset": 0, "count": 48, "max": [0.5342540144920349, 0.2562600076198578, 0.651170015335083], "min": [-0.5495679974555969, 0.2562600076198578, -0.7064539790153503]}, {"componentType": 5126, "type": "VEC3", "bufferView": 11, "byteOffset": 0, "count": 48, "max": [0.4081850051879883, 0.976652979850769, 0.9238870143890381], "min": [-0.4081850051879883, 0.3826409876346588, -0.40769699215888977]}, {"componentType": 5126, "type": "VEC3", "bufferView": 12, "byteOffset": 0, "count": 48, "max": [1.0, 1.0, 1.0], "min": [1.0, 1.0, 1.0]}, {"componentType": 5126, "type": "VEC2", "bufferView": 13, "byteOffset": 0, "count": 48, "max": [0.9764590263366699, 0.9239709973335266], "min": [0.8667470216751099, 0.09939999878406525]}, {"componentType": 5123, "type": "SCALAR", "bufferView": 14, "byteOffset": 0, "count": 132, "max": [47.0], "min": [0.0]}, {"componentType": 5126, "type": "VEC3", "bufferView": 15, "byteOffset": 0, "count": 254, "max": [0.5493199825286865, 0.2562600076198578, 0.6661700010299683], "min": [-0.5646349787712097, 0.001260260003618896, -0.721589982509613]}, {"componentType": 5126, "type": "VEC3", "bufferView": 16, "byteOffset": 0, "count": 254, "max": [0.9274269938468933, 0.976652979850769, 0.9238870143890381], "min": [-0.9273049831390381, -0.707082986831665, -0.9275799989700317]}, {"componentType": 5126, "type": "VEC3", "bufferView": 17, "byteOffset": 0, "count": 254, "max": [1.0, 1.0, 1.0], "min": [1.0, 1.0, 1.0]}, {"componentType": 5126, "type": "VEC2", "bufferView": 18, "byteOffset": 0, "count": 254, "max": [0.7858589887619019, 0.8607950210571289], "min": [0.21600200235843658, 0.16691499948501587]}, {"componentType": 5123, "type": "SCALAR", "bufferView": 19, "byteOffset": 0, "count": 690, "max": [253.0], "min": [0.0]}], "materials": [{"pbrMetallicRoughness": {"baseColorFactor": [0.8, 0.8, 0.8, 1], "metallicFactor": 0, "roughnessFactor": 1}, "name": "face"}, {"pbrMetallicRoughness": {"baseColorFactor": [0.6392156862745098, 0.6392156862745098, 0.6392156862745098, 1], "metallicFactor": 0, "roughnessFactor": 1, "baseColorTexture": {"index": 0}}, "name": "wood"}], "meshes": [{"primitives": [{"mode": 4, "attributes": {"POSITION": 0, "NORMAL": 1, "COLOR_0": 2, "TEXCOORD_0": 3}, "material": 0, "indices": 4}]}, {"primitives": [{"mode": 4, "attributes": {"POSITION": 5, "NORMAL": 6, "COLOR_0": 7, "TEXCOORD_0": 8}, "material": 1, "indices": 9}]}, {"primitives": [{"mode": 4, "attributes": {"POSITION": 10, "NORMAL": 11, "COLOR_0": 12, "TEXCOORD_0": 13}, "material": 0, "indices": 14}]}, {"primitives": [{"mode": 4, "attributes": {"POSITION": 15, "NORMAL": 16, "COLOR_0": 17, "TEXCOORD_0": 18}, "material": 1, "indices": 19}]}], "images": [{"uri": "wood.jpg"}], "textures": [{"source": 0}]}