{"asset": {"version": "2.0", "generator": "GLTFExporter"}, "scenes": [{"name": "AuxScene", "nodes": [4]}], "scene": 0, "nodes": [{"extras": {"mapFilename": null}, "mesh": 0}, {"extras": {"mapFilename": "wood.jpg"}, "mesh": 1}, {"extras": {"mapFilename": null}, "mesh": 2}, {"extras": {"mapFilename": "wood.jpg"}, "mesh": 3}, {"children": [0, 1, 2, 3]}], "bufferViews": [{"buffer": 0, "byteOffset": 0, "byteLength": 168}, {"buffer": 0, "byteOffset": 168, "byteLength": 168}, {"buffer": 0, "byteOffset": 336, "byteLength": 168}, {"buffer": 0, "byteOffset": 504, "byteLength": 112}, {"buffer": 0, "byteOffset": 616, "byteLength": 48}, {"buffer": 0, "byteOffset": 664, "byteLength": 1344}, {"buffer": 0, "byteOffset": 2008, "byteLength": 1344}, {"buffer": 0, "byteOffset": 3352, "byteLength": 1344}, {"buffer": 0, "byteOffset": 4696, "byteLength": 896}, {"buffer": 0, "byteOffset": 5592, "byteLength": 516}, {"buffer": 0, "byteOffset": 6108, "byteLength": 564}, {"buffer": 0, "byteOffset": 6672, "byteLength": 564}, {"buffer": 0, "byteOffset": 7236, "byteLength": 564}, {"buffer": 0, "byteOffset": 7800, "byteLength": 376}, {"buffer": 0, "byteOffset": 8176, "byteLength": 264}, {"buffer": 0, "byteOffset": 8440, "byteLength": 2736}, {"buffer": 0, "byteOffset": 11176, "byteLength": 2736}, {"buffer": 0, "byteOffset": 13912, "byteLength": 2736}, {"buffer": 0, "byteOffset": 16648, "byteLength": 1824}, {"buffer": 0, "byteOffset": 18472, "byteLength": 1092}], "buffers": [{"byteLength": 19564, "uri": "data:application/octet-stream;base64,"}], "accessors": [{"componentType": 5126, "type": "VEC3", "bufferView": 0, "byteOffset": 0, "count": 14, "max": [0.4813709855079651, 0.259878009557724, 0.7121610045433044], "min": [-0.508450984954834, 0.259878009557724, -0.7546510100364685]}, {"componentType": 5126, "type": "VEC3", "bufferView": 1, "byteOffset": 0, "count": 14, "max": [0.39414700865745544, 0.9238560199737549, 0.39625200629234314], "min": [-0.39152199029922485, 0.8973050117492676, -0.40189799666404724]}, {"componentType": 5126, "type": "VEC3", "bufferView": 2, "byteOffset": 0, "count": 14, "max": [1.0, 1.0, 1.0], "min": [1.0, 1.0, 1.0]}, {"componentType": 5126, "type": "VEC2", "bufferView": 3, "byteOffset": 0, "count": 14, "max": [0.13056500256061554, 0.9515219926834106], "min": [0.03354699909687042, 0.08889999985694885]}, {"componentType": 5123, "type": "SCALAR", "bufferView": 4, "byteOffset": 0, "count": 24, "max": [13.0], "min": [0.0]}, {"componentType": 5126, "type": "VEC3", "bufferView": 5, "byteOffset": 0, "count": 112, "max": [0.7404990196228027, 0.259878009557724, 0.7271919846534729], "min": [-0.7471519708633423, 0.0048784902319312096, -0.7792329788208008]}, {"componentType": 5126, "type": "VEC3", "bufferView": 6, "byteOffset": 0, "count": 112, "max": [0.9237040281295776, 0.9630730152130127, 0.7210000157356262], "min": [-0.8349859714508057, -0.707082986831665, -0.9283120036125183]}, {"componentType": 5126, "type": "VEC3", "bufferView": 7, "byteOffset": 0, "count": 112, "max": [1.0, 1.0, 1.0], "min": [1.0, 1.0, 1.0]}, {"componentType": 5126, "type": "VEC2", "bufferView": 8, "byteOffset": 0, "count": 112, "max": [0.9607750177383423, 0.9820669889450073], "min": [0.12642399966716766, 0.2288540005683899]}, {"componentType": 5123, "type": "SCALAR", "bufferView": 9, "byteOffset": 0, "count": 258, "max": [111.0], "min": [0.0]}, {"componentType": 5126, "type": "VEC3", "bufferView": 10, "byteOffset": 0, "count": 47, "max": [0.7252410054206848, 0.259878009557724, 0.5536540150642395], "min": [-0.7319909930229187, 0.259878009557724, -0.7639880180358887]}, {"componentType": 5126, "type": "VEC3", "bufferView": 11, "byteOffset": 0, "count": 47, "max": [0.41770699620246887, 0.9886170029640198, 0.25852200388908386], "min": [-0.41499099135398865, 0.8973050117492676, -0.4148080050945282]}, {"componentType": 5126, "type": "VEC3", "bufferView": 12, "byteOffset": 0, "count": 47, "max": [1.0, 1.0, 1.0], "min": [1.0, 1.0, 1.0]}, {"componentType": 5126, "type": "VEC2", "bufferView": 13, "byteOffset": 0, "count": 47, "max": [0.15446799993515015, 0.9570140242576599], "min": [0.011636000126600266, 0.18211700022220612]}, {"componentType": 5123, "type": "SCALAR", "bufferView": 14, "byteOffset": 0, "count": 132, "max": [46.0], "min": [0.0]}, {"componentType": 5126, "type": "VEC3", "bufferView": 15, "byteOffset": 0, "count": 228, "max": [0.7404990196228027, 0.259878009557724, 0.7271919846534729], "min": [-0.7471519708633423, 0.0048784902319312096, -0.7792329788208008]}, {"componentType": 5126, "type": "VEC3", "bufferView": 16, "byteOffset": 0, "count": 228, "max": [0.9240390062332153, 0.9886170029640198, 0.9259009957313538], "min": [-0.9240090250968933, -0.707082986831665, -0.9283120036125183]}, {"componentType": 5126, "type": "VEC3", "bufferView": 17, "byteOffset": 0, "count": 228, "max": [1.0, 1.0, 1.0], "min": [1.0, 1.0, 1.0]}, {"componentType": 5126, "type": "VEC2", "bufferView": 18, "byteOffset": 0, "count": 228, "max": [0.9627969861030579, 0.9820669889450073], "min": [0.12642399966716766, 4.70000013592653e-05]}, {"componentType": 5123, "type": "SCALAR", "bufferView": 19, "byteOffset": 0, "count": 546, "max": [227.0], "min": [0.0]}], "materials": [{"pbrMetallicRoughness": {"baseColorFactor": [0.8, 0.8, 0.8, 1], "metallicFactor": 0, "roughnessFactor": 1}, "name": "face"}, {"pbrMetallicRoughness": {"baseColorFactor": [0.6392156862745098, 0.6392156862745098, 0.6392156862745098, 1], "metallicFactor": 0, "roughnessFactor": 1, "baseColorTexture": {"index": 0}}, "name": "wood"}], "meshes": [{"primitives": [{"mode": 4, "attributes": {"POSITION": 0, "NORMAL": 1, "COLOR_0": 2, "TEXCOORD_0": 3}, "material": 0, "indices": 4}]}, {"primitives": [{"mode": 4, "attributes": {"POSITION": 5, "NORMAL": 6, "COLOR_0": 7, "TEXCOORD_0": 8}, "material": 1, "indices": 9}]}, {"primitives": [{"mode": 4, "attributes": {"POSITION": 10, "NORMAL": 11, "COLOR_0": 12, "TEXCOORD_0": 13}, "material": 0, "indices": 14}]}, {"primitives": [{"mode": 4, "attributes": {"POSITION": 15, "NORMAL": 16, "COLOR_0": 17, "TEXCOORD_0": 18}, "material": 1, "indices": 19}]}], "images": [{"uri": "wood.jpg"}], "textures": [{"source": 0}]}