{"asset": {"version": "2.0", "generator": "GLTFExporter"}, "scenes": [{"name": "AuxScene", "nodes": [1]}], "scene": 0, "nodes": [{"mesh": 0}, {"children": [0]}], "bufferViews": [{"buffer": 0, "byteOffset": 0, "byteLength": 6312}, {"buffer": 0, "byteOffset": 6312, "byteLength": 8076}, {"buffer": 0, "byteOffset": 14388, "byteLength": 8076}, {"buffer": 0, "byteOffset": 22464, "byteLength": 8076}, {"buffer": 0, "byteOffset": 30540, "byteLength": 5384}], "buffers": [{"byteLength": 35924, "uri": "data:application/octet-stream;base64,"}], "accessors": [{"componentType": 5123, "type": "SCALAR", "bufferView": 0, "count": 3156, "max": [672], "min": [0]}, {"componentType": 5126, "type": "VEC3", "bufferView": 1, "byteOffset": 0, "count": 673, "max": [1.117550015449524, 3.4400100708007812, 1.053820013999939], "min": [-1.117550015449524, 0.0022727299947291613, -1.053820013999939]}, {"componentType": 5126, "type": "VEC3", "bufferView": 2, "byteOffset": 0, "count": 673, "max": [0.9983944892883301, 0.9973081350326538, 0.9983944892883301], "min": [-0.9983944892883301, -0.9916444420814514, -0.9983944892883301]}, {"componentType": 5126, "type": "VEC3", "bufferView": 3, "byteOffset": 0, "count": 673, "max": [1.0, 1.0, 1.0], "min": [1.0, 1.0, 1.0]}, {"componentType": 5126, "type": "VEC2", "bufferView": 4, "byteOffset": 0, "count": 673, "max": [0.9928110241889954, 0.9918389916419983], "min": [0.010389000177383423, 0.027341999113559723]}], "materials": [{"pbrMetallicRoughness": {"baseColorFactor": [0.8, 0.8, 0.8, 1], "metallicFactor": 0, "roughnessFactor": 1}}], "meshes": [{"primitives": [{"mode": 4, "attributes": {"POSITION": 1, "NORMAL": 2, "COLOR_0": 3, "TEXCOORD_0": 4}, "material": 0, "indices": 0}]}]}