{"asset": {"version": "2.0", "generator": "GLTFExporter"}, "scenes": [{"name": "AuxScene", "nodes": [1]}], "scene": 0, "nodes": [{"extras": {"mapFilename": null}, "mesh": 0}, {"children": [0]}], "bufferViews": [{"buffer": 0, "byteOffset": 0, "byteLength": 3072}, {"buffer": 0, "byteOffset": 3072, "byteLength": 3096}, {"buffer": 0, "byteOffset": 6168, "byteLength": 3096}, {"buffer": 0, "byteOffset": 9264, "byteLength": 3096}], "buffers": [{"byteLength": 12360, "uri": "data:application/octet-stream;base64,"}], "accessors": [{"componentType": 5123, "type": "SCALAR", "bufferView": 0, "count": 1536, "max": [257], "min": [0]}, {"componentType": 5126, "type": "VEC3", "bufferView": 1, "byteOffset": 0, "count": 258, "max": [0.38497599959373474, 3.5304698944091797, 0.3684859871864319], "min": [-0.38116300106048584, 0.9378719925880432, -0.3976530134677887]}, {"componentType": 5126, "type": "VEC3", "bufferView": 2, "byteOffset": 0, "count": 258, "max": [1.0, 1.0, 0.9999690055847168], "min": [-1.0, -1.0, -0.9999690055847168]}, {"componentType": 5126, "type": "VEC3", "bufferView": 3, "byteOffset": 0, "count": 258, "max": [1.0, 1.0, 1.0], "min": [1.0, 1.0, 1.0]}], "materials": [{"pbrMetallicRoughness": {"baseColorFactor": [0.6392156862745098, 0.6392156862745098, 0.6392156862745098, 1], "metallicFactor": 0, "roughnessFactor": 1}, "name": "manamat"}], "meshes": [{"primitives": [{"mode": 4, "attributes": {"POSITION": 1, "NORMAL": 2, "COLOR_0": 3}, "material": 0, "indices": 0}]}]}