{"asset": {"version": "2.0", "generator": "GLTFExporter"}, "scenes": [{"name": "AuxScene", "nodes": [3]}], "scene": 0, "nodes": [{"extras": {"mapFilename": null}, "mesh": 0}, {"extras": {"mapFilename": null}, "mesh": 1}, {"extras": {"mapFilename": null}, "mesh": 2}, {"children": [0, 1, 2]}], "bufferViews": [{"buffer": 0, "byteOffset": 0, "byteLength": 6912}, {"buffer": 0, "byteOffset": 6912, "byteLength": 6912}, {"buffer": 0, "byteOffset": 13824, "byteLength": 6912}, {"buffer": 0, "byteOffset": 20736, "byteLength": 6912}, {"buffer": 0, "byteOffset": 27648, "byteLength": 168}, {"buffer": 0, "byteOffset": 27816, "byteLength": 168}, {"buffer": 0, "byteOffset": 27984, "byteLength": 168}, {"buffer": 0, "byteOffset": 28152, "byteLength": 144}, {"buffer": 0, "byteOffset": 28296, "byteLength": 96}, {"buffer": 0, "byteOffset": 28392, "byteLength": 96}, {"buffer": 0, "byteOffset": 28488, "byteLength": 96}, {"buffer": 0, "byteOffset": 28584, "byteLength": 72}], "buffers": [{"byteLength": 28656, "uri": "data:application/octet-stream;base64,"}], "accessors": [{"componentType": 5126, "type": "VEC3", "bufferView": 0, "byteOffset": 0, "count": 576, "max": [0.7699999809265137, 0.03999999910593033, 0.7699999809265137], "min": [-0.7699999809265137, -0.03999999910593033, -0.7699999809265137]}, {"componentType": 5126, "type": "VEC3", "bufferView": 1, "byteOffset": 0, "count": 576, "max": [1.0, 0.9999390244483948, 1.0], "min": [-1.0, -0.9999390244483948, -1.0]}, {"componentType": 5126, "type": "VEC3", "bufferView": 2, "byteOffset": 0, "count": 576, "max": [1.0, 1.0, 1.0], "min": [1.0, 1.0, 1.0]}, {"componentType": 5123, "type": "SCALAR", "bufferView": 3, "byteOffset": 0, "count": 3456, "max": [575.0], "min": [0.0]}, {"componentType": 5126, "type": "VEC3", "bufferView": 4, "byteOffset": 0, "count": 14, "max": [0.40428900718688965, 0.16255800426006317, 0.3840480148792267], "min": [-0.40146100521087646, 0.10680600255727768, -0.5769979953765869]}, {"componentType": 5126, "type": "VEC3", "bufferView": 5, "byteOffset": 0, "count": 14, "max": [0.7722399830818176, 0.8929719924926758, 0.5773490071296692], "min": [-0.7722399830818176, -0.8929719924926758, -0.8223519921302795]}, {"componentType": 5126, "type": "VEC3", "bufferView": 6, "byteOffset": 0, "count": 14, "max": [1.0, 1.0, 1.0], "min": [1.0, 1.0, 1.0]}, {"componentType": 5123, "type": "SCALAR", "bufferView": 7, "byteOffset": 0, "count": 72, "max": [13.0], "min": [0.0]}, {"componentType": 5126, "type": "VEC3", "bufferView": 8, "byteOffset": 0, "count": 8, "max": [0.850383996963501, -0.04891590029001236, 0.850383996963501], "min": [-0.850383996963501, -0.10144700109958649, -0.850383996963501]}, {"componentType": 5126, "type": "VEC3", "bufferView": 9, "byteOffset": 0, "count": 8, "max": [0.5773490071296692, 0.5773490071296692, 0.5773490071296692], "min": [-0.5773490071296692, -0.5773490071296692, -0.5773490071296692]}, {"componentType": 5126, "type": "VEC3", "bufferView": 10, "byteOffset": 0, "count": 8, "max": [1.0, 1.0, 1.0], "min": [1.0, 1.0, 1.0]}, {"componentType": 5123, "type": "SCALAR", "bufferView": 11, "byteOffset": 0, "count": 36, "max": [7.0], "min": [0.0]}], "materials": [{"pbrMetallicRoughness": {"baseColorFactor": [0.6392156862745098, 0.6078431372549019, 0.6235294117647059, 1], "metallicFactor": 0, "roughnessFactor": 1}, "name": "ring"}, {"pbrMetallicRoughness": {"baseColorFactor": [0, 0, 0, 1], "metallicFactor": 0, "roughnessFactor": 1}, "name": "mat.arrow"}, {"pbrMetallicRoughness": {"baseColorFactor": [0.8, 0.8, 0.8, 1], "metallicFactor": 0, "roughnessFactor": 1}, "name": "square"}], "meshes": [{"primitives": [{"mode": 4, "attributes": {"POSITION": 0, "NORMAL": 1, "COLOR_0": 2}, "material": 0, "indices": 3}]}, {"primitives": [{"mode": 4, "attributes": {"POSITION": 4, "NORMAL": 5, "COLOR_0": 6}, "material": 1, "indices": 7}]}, {"primitives": [{"mode": 4, "attributes": {"POSITION": 8, "NORMAL": 9, "COLOR_0": 10}, "material": 2, "indices": 11}]}]}