{"asset": {"version": "2.0", "generator": "GLTFExporter"}, "scenes": [{"name": "AuxScene", "nodes": [3]}], "scene": 0, "nodes": [{"extras": {"mapFilename": null}, "mesh": 0}, {"extras": {"mapFilename": null}, "mesh": 1}, {"extras": {"mapFilename": null}, "mesh": 2}, {"children": [0, 1, 2]}], "bufferViews": [{"buffer": 0, "byteOffset": 0, "byteLength": 6912}, {"buffer": 0, "byteOffset": 6912, "byteLength": 6912}, {"buffer": 0, "byteOffset": 13824, "byteLength": 6912}, {"buffer": 0, "byteOffset": 20736, "byteLength": 6912}, {"buffer": 0, "byteOffset": 27648, "byteLength": 8856}, {"buffer": 0, "byteOffset": 36504, "byteLength": 8856}, {"buffer": 0, "byteOffset": 45360, "byteLength": 8856}, {"buffer": 0, "byteOffset": 54216, "byteLength": 8832}, {"buffer": 0, "byteOffset": 63048, "byteLength": 96}, {"buffer": 0, "byteOffset": 63144, "byteLength": 96}, {"buffer": 0, "byteOffset": 63240, "byteLength": 96}, {"buffer": 0, "byteOffset": 63336, "byteLength": 72}], "buffers": [{"byteLength": 63408, "uri": "data:application/octet-stream;base64,"}], "accessors": [{"componentType": 5126, "type": "VEC3", "bufferView": 0, "byteOffset": 0, "count": 576, "max": [0.7699999809265137, 0.03999999910593033, 0.7699999809265137], "min": [-0.7699999809265137, -0.03999999910593033, -0.7699999809265137]}, {"componentType": 5126, "type": "VEC3", "bufferView": 1, "byteOffset": 0, "count": 576, "max": [1.0, 0.9999390244483948, 1.0], "min": [-1.0, -0.9999390244483948, -1.0]}, {"componentType": 5126, "type": "VEC3", "bufferView": 2, "byteOffset": 0, "count": 576, "max": [1.0, 1.0, 1.0], "min": [1.0, 1.0, 1.0]}, {"componentType": 5123, "type": "SCALAR", "bufferView": 3, "byteOffset": 0, "count": 3456, "max": [575.0], "min": [0.0]}, {"componentType": 5126, "type": "VEC3", "bufferView": 4, "byteOffset": 0, "count": 738, "max": [0.8855379819869995, 0.9046339988708496, -0.4362269937992096], "min": [0.4743019938468933, 0.0681959018111229, -0.8474640250205994]}, {"componentType": 5126, "type": "VEC3", "bufferView": 5, "byteOffset": 0, "count": 738, "max": [0.9664300084114075, 0.9971010088920593, 0.9825739860534668], "min": [-0.9763479828834534, -0.9996340274810791, -0.9567549824714661]}, {"componentType": 5126, "type": "VEC3", "bufferView": 6, "byteOffset": 0, "count": 738, "max": [1.0, 1.0, 1.0], "min": [1.0, 1.0, 1.0]}, {"componentType": 5123, "type": "SCALAR", "bufferView": 7, "byteOffset": 0, "count": 4416, "max": [737.0], "min": [0.0]}, {"componentType": 5126, "type": "VEC3", "bufferView": 8, "byteOffset": 0, "count": 8, "max": [0.850383996963501, -0.04891590029001236, 0.850383996963501], "min": [-0.850383996963501, -0.10144700109958649, -0.850383996963501]}, {"componentType": 5126, "type": "VEC3", "bufferView": 9, "byteOffset": 0, "count": 8, "max": [0.5773490071296692, 0.5773490071296692, 0.5773490071296692], "min": [-0.5773490071296692, -0.5773490071296692, -0.5773490071296692]}, {"componentType": 5126, "type": "VEC3", "bufferView": 10, "byteOffset": 0, "count": 8, "max": [1.0, 1.0, 1.0], "min": [1.0, 1.0, 1.0]}, {"componentType": 5123, "type": "SCALAR", "bufferView": 11, "byteOffset": 0, "count": 36, "max": [7.0], "min": [0.0]}], "materials": [{"pbrMetallicRoughness": {"baseColorFactor": [0.6392156862745098, 0.6078431372549019, 0.6235294117647059, 1], "metallicFactor": 0, "roughnessFactor": 1}, "name": "ring"}, {"pbrMetallicRoughness": {"baseColorFactor": [0.6392156862745098, 0.00392156862745098, 0, 1], "metallicFactor": 0, "roughnessFactor": 1}, "name": "Material"}, {"pbrMetallicRoughness": {"baseColorFactor": [0.8, 0.8, 0.8, 1], "metallicFactor": 0, "roughnessFactor": 1}, "name": "square"}], "meshes": [{"primitives": [{"mode": 4, "attributes": {"POSITION": 0, "NORMAL": 1, "COLOR_0": 2}, "material": 0, "indices": 3}]}, {"primitives": [{"mode": 4, "attributes": {"POSITION": 4, "NORMAL": 5, "COLOR_0": 6}, "material": 1, "indices": 7}]}, {"primitives": [{"mode": 4, "attributes": {"POSITION": 8, "NORMAL": 9, "COLOR_0": 10}, "material": 2, "indices": 11}]}]}