{"asset": {"version": "2.0", "generator": "GLTFExporter"}, "scenes": [{"name": "AuxScene", "nodes": [1]}], "scene": 0, "nodes": [{"extras": {"mapFilename": null}, "mesh": 0}, {"children": [0]}], "bufferViews": [{"buffer": 0, "byteOffset": 0, "byteLength": 408}, {"buffer": 0, "byteOffset": 408, "byteLength": 432}, {"buffer": 0, "byteOffset": 840, "byteLength": 432}, {"buffer": 0, "byteOffset": 1272, "byteLength": 432}], "buffers": [{"byteLength": 1704, "uri": "data:application/octet-stream;base64,"}], "accessors": [{"componentType": 5123, "type": "SCALAR", "bufferView": 0, "count": 204, "max": [35], "min": [0]}, {"componentType": 5126, "type": "VEC3", "bufferView": 1, "byteOffset": 0, "count": 36, "max": [0.17203499376773834, 0.029675399884581566, 1.053339958190918], "min": [-0.1487790048122406, -0.029675399884581566, -0.9922419786453247]}, {"componentType": 5126, "type": "VEC3", "bufferView": 2, "byteOffset": 0, "count": 36, "max": [0.7242649793624878, 0.7403789758682251, 0.7870720028877258], "min": [-0.7523729801177979, -0.7403789758682251, -0.6824550032615662]}, {"componentType": 5126, "type": "VEC3", "bufferView": 3, "byteOffset": 0, "count": 36, "max": [1.0, 1.0, 1.0], "min": [1.0, 1.0, 1.0]}], "materials": [{"pbrMetallicRoughness": {"baseColorFactor": [0, 0, 0, 1], "metallicFactor": 0, "roughnessFactor": 1}, "name": "Material"}], "meshes": [{"primitives": [{"mode": 4, "attributes": {"POSITION": 1, "NORMAL": 2, "COLOR_0": 3}, "material": 0, "indices": 0}]}]}