{"asset": {"version": "2.0", "generator": "GLTFExporter"}, "scenes": [{"name": "AuxScene", "nodes": [1]}], "scene": 0, "nodes": [{"mesh": 0}, {"children": [0]}], "bufferViews": [{"buffer": 0, "byteOffset": 0, "byteLength": 7560}, {"buffer": 0, "byteOffset": 7560, "byteLength": 7560}, {"buffer": 0, "byteOffset": 15120, "byteLength": 7560}, {"buffer": 0, "byteOffset": 22680, "byteLength": 5040}, {"buffer": 0, "byteOffset": 27720, "byteLength": 6204}, {"buffer": 0, "byteOffset": 33924, "byteLength": 7560}, {"buffer": 0, "byteOffset": 41484, "byteLength": 7560}], "buffers": [{"byteLength": 49044, "uri": "data:application/octet-stream;base64,"}], "accessors": [{"componentType": 5126, "type": "VEC3", "bufferView": 0, "byteOffset": 0, "count": 630, "max": [1.2589000463485718, 3.1504499912261963, 0.8596910238265991], "min": [-1.2589000463485718, 0.020871199667453766, -1.4960700273513794]}, {"componentType": 5126, "type": "VEC3", "bufferView": 1, "byteOffset": 0, "count": 630, "max": [0.9939988255500793, 0.9997345209121704, 0.9997920393943787], "min": [-0.994189977645874, -0.9993147253990173, -0.9993517994880676]}, {"componentType": 5126, "type": "VEC3", "bufferView": 2, "byteOffset": 0, "count": 630, "max": [1.0, 1.0, 1.0], "min": [1.0, 1.0, 1.0]}, {"componentType": 5126, "type": "VEC2", "bufferView": 3, "byteOffset": 0, "count": 630, "max": [1.0014699697494507, 0.9723610281944275], "min": [0.00184299994725734, 0.0019209999591112137]}, {"componentType": 5123, "type": "SCALAR", "bufferView": 4, "byteOffset": 0, "count": 3102, "max": [629.0], "min": [0.0]}, {"componentType": 5126, "type": "VEC3", "bufferView": 5, "byteOffset": 0, "count": 630, "max": [0.0, 0.0, 0.0], "min": [0.0, 0.0, 0.0]}, {"componentType": 5126, "type": "VEC3", "bufferView": 6, "byteOffset": 0, "count": 630, "max": [1.093579888343811, 1.7483940124511719, 1.223343014717102], "min": [-1.11680006980896, -1.4517600536346436, -2.891618013381958]}], "materials": [{"pbrMetallicRoughness": {"baseColorFactor": [0.8, 0.8, 0.8, 1], "metallicFactor": 0, "roughnessFactor": 1}}], "meshes": [{"weights": [0, 0], "extras": {"targetNames": ["animation_000000", "animation_000001"]}, "primitives": [{"mode": 4, "attributes": {"POSITION": 0, "NORMAL": 1, "COLOR_0": 2, "TEXCOORD_0": 3}, "targets": [{"POSITION": 5}, {"POSITION": 6}], "material": 0, "indices": 4}]}]}