{"asset": {"version": "2.0", "generator": "GLTFExporter"}, "scenes": [{"name": "AuxScene", "nodes": [1]}], "scene": 0, "nodes": [{"mesh": 0}, {"children": [0]}], "bufferViews": [{"buffer": 0, "byteOffset": 0, "byteLength": 1080}, {"buffer": 0, "byteOffset": 1080, "byteLength": 1440}, {"buffer": 0, "byteOffset": 2520, "byteLength": 1440}, {"buffer": 0, "byteOffset": 3960, "byteLength": 1440}], "buffers": [{"byteLength": 5400, "uri": "data:application/octet-stream;base64,"}], "accessors": [{"componentType": 5123, "type": "SCALAR", "bufferView": 0, "count": 540, "max": [119], "min": [0]}, {"componentType": 5126, "type": "VEC3", "bufferView": 1, "byteOffset": 0, "count": 120, "max": [7.845839977264404, 0.2635810077190399, 7.311349868774414], "min": [-8.10293960571289, -1.043660044670105, -7.007909774780273]}, {"componentType": 5126, "type": "VEC3", "bufferView": 2, "byteOffset": 0, "count": 120, "max": [0.9827749133110046, 1.0, 0.9745661616325378], "min": [-0.9825259447097778, -0.27480724453926086, -0.9792283177375793]}, {"componentType": 5126, "type": "VEC3", "bufferView": 3, "byteOffset": 0, "count": 120, "max": [1.0, 1.0, 1.0], "min": [1.0, 1.0, 1.0]}], "materials": [{"pbrMetallicRoughness": {"baseColorFactor": [0.8, 0.8, 0.8, 1], "metallicFactor": 0, "roughnessFactor": 1}}], "meshes": [{"primitives": [{"mode": 4, "attributes": {"POSITION": 1, "NORMAL": 2, "COLOR_0": 3}, "material": 0, "indices": 0}]}]}