{"asset": {"version": "2.0", "generator": "GLTFExporter"}, "scenes": [{"name": "AuxScene", "nodes": [1]}], "scene": 0, "nodes": [{"mesh": 0}, {"children": [0]}], "bufferViews": [{"buffer": 0, "byteOffset": 0, "byteLength": 4956}, {"buffer": 0, "byteOffset": 4956, "byteLength": 4956}, {"buffer": 0, "byteOffset": 9912, "byteLength": 4956}, {"buffer": 0, "byteOffset": 14868, "byteLength": 3304}, {"buffer": 0, "byteOffset": 18172, "byteLength": 3780}, {"buffer": 0, "byteOffset": 21952, "byteLength": 4956}, {"buffer": 0, "byteOffset": 26908, "byteLength": 4956}], "buffers": [{"byteLength": 31864, "uri": "data:application/octet-stream;base64,"}], "accessors": [{"componentType": 5126, "type": "VEC3", "bufferView": 0, "byteOffset": 0, "count": 413, "max": [1.6147799491882324, 4.673099994659424, 1.5529500246047974], "min": [-1.6147799491882324, 0.024315400049090385, -1.9801000356674194]}, {"componentType": 5126, "type": "VEC3", "bufferView": 1, "byteOffset": 0, "count": 413, "max": [0.995979905128479, 0.9981977343559265, 0.9998821020126343], "min": [-0.9898448586463928, -0.9981610178947449, -0.9806584119796753]}, {"componentType": 5126, "type": "VEC3", "bufferView": 2, "byteOffset": 0, "count": 413, "max": [1.0, 1.0, 1.0], "min": [1.0, 1.0, 1.0]}, {"componentType": 5126, "type": "VEC2", "bufferView": 3, "byteOffset": 0, "count": 413, "max": [0.994288980960846, 0.9920520186424255], "min": [0.011381999589502811, 0.01810700073838234]}, {"componentType": 5123, "type": "SCALAR", "bufferView": 4, "byteOffset": 0, "count": 1890, "max": [412.0], "min": [0.0]}, {"componentType": 5126, "type": "VEC3", "bufferView": 5, "byteOffset": 0, "count": 413, "max": [0.0, 0.0, 0.0], "min": [0.0, 0.0, 0.0]}, {"componentType": 5126, "type": "VEC3", "bufferView": 6, "byteOffset": 0, "count": 413, "max": [1.4921199083328247, 2.1450631618499756, 1.7362520694732666], "min": [-1.3415900468826294, -2.301500082015991, -4.5727739334106445]}], "materials": [{"pbrMetallicRoughness": {"baseColorFactor": [0.8, 0.8, 0.8, 1], "metallicFactor": 0, "roughnessFactor": 1}}], "meshes": [{"weights": [0, 0], "extras": {"targetNames": ["animation_000000", "animation_000001"]}, "primitives": [{"mode": 4, "attributes": {"POSITION": 0, "NORMAL": 1, "COLOR_0": 2, "TEXCOORD_0": 3}, "targets": [{"POSITION": 5}, {"POSITION": 6}], "material": 0, "indices": 4}]}]}