{"asset": {"version": "2.0", "generator": "GLTFExporter"}, "scenes": [{"name": "AuxScene", "nodes": [2]}], "scene": 0, "nodes": [{"extras": {"mapFilename": null}, "mesh": 0}, {"extras": {"mapFilename": null}, "mesh": 1}, {"children": [0, 1]}], "bufferViews": [{"buffer": 0, "byteOffset": 0, "byteLength": 4320}, {"buffer": 0, "byteOffset": 4320, "byteLength": 4320}, {"buffer": 0, "byteOffset": 8640, "byteLength": 4320}, {"buffer": 0, "byteOffset": 12960, "byteLength": 3576}, {"buffer": 0, "byteOffset": 16536, "byteLength": 2208}, {"buffer": 0, "byteOffset": 18744, "byteLength": 2208}, {"buffer": 0, "byteOffset": 20952, "byteLength": 2208}, {"buffer": 0, "byteOffset": 23160, "byteLength": 1560}], "buffers": [{"byteLength": 24720, "uri": "data:application/octet-stream;base64,"}], "accessors": [{"componentType": 5126, "type": "VEC3", "bufferView": 0, "byteOffset": 0, "count": 360, "max": [0.7013329863548279, 1.009369969367981, 0.6480249762535095], "min": [-0.7013329863548279, -0.011792199686169624, -0.011488799937069416]}, {"componentType": 5126, "type": "VEC3", "bufferView": 1, "byteOffset": 0, "count": 360, "max": [1.0, 0.873652994632721, 0.9508649706840515], "min": [0.0, 0.0, 0.0]}, {"componentType": 5126, "type": "VEC3", "bufferView": 2, "byteOffset": 0, "count": 360, "max": [1.0, 1.0, 1.0], "min": [1.0, 1.0, 1.0]}, {"componentType": 5123, "type": "SCALAR", "bufferView": 3, "byteOffset": 0, "count": 1788, "max": [359.0], "min": [0.0]}, {"componentType": 5126, "type": "VEC3", "bufferView": 4, "byteOffset": 0, "count": 184, "max": [0.7501929998397827, 1.0992300510406494, 0.6892179846763611], "min": [-0.745943009853363, -0.01578179933130741, -0.045016899704933167]}, {"componentType": 5126, "type": "VEC3", "bufferView": 5, "byteOffset": 0, "count": 184, "max": [1.0, 0.9999690055847168, 1.0], "min": [-0.9999690055847168, -1.0, -1.0]}, {"componentType": 5126, "type": "VEC3", "bufferView": 6, "byteOffset": 0, "count": 184, "max": [1.0, 1.0, 1.0], "min": [1.0, 1.0, 1.0]}, {"componentType": 5123, "type": "SCALAR", "bufferView": 7, "byteOffset": 0, "count": 780, "max": [183.0], "min": [0.0]}], "materials": [{"pbrMetallicRoughness": {"baseColorFactor": [0.6392156862745098, 0.6392156862745098, 0.6392156862745098, 1], "metallicFactor": 0, "roughnessFactor": 1}, "name": "filet"}, {"pbrMetallicRoughness": {"baseColorFactor": [0.8, 0, 0.054901960784313725, 1], "metallicFactor": 0, "roughnessFactor": 1}, "name": "Material.004"}], "meshes": [{"primitives": [{"mode": 4, "attributes": {"POSITION": 0, "NORMAL": 1, "COLOR_0": 2}, "material": 0, "indices": 3}]}, {"primitives": [{"mode": 4, "attributes": {"POSITION": 4, "NORMAL": 5, "COLOR_0": 6}, "material": 1, "indices": 7}]}]}