{"asset": {"version": "2.0", "generator": "GLTFExporter"}, "scenes": [{"name": "AuxScene", "nodes": [1]}], "scene": 0, "nodes": [{"extras": {"mapFilename": null}, "mesh": 0}, {"children": [0]}], "bufferViews": [{"buffer": 0, "byteOffset": 0, "byteLength": 768}, {"buffer": 0, "byteOffset": 768, "byteLength": 792}, {"buffer": 0, "byteOffset": 1560, "byteLength": 792}, {"buffer": 0, "byteOffset": 2352, "byteLength": 792}], "buffers": [{"byteLength": 3144, "uri": "data:application/octet-stream;base64,"}], "accessors": [{"componentType": 5123, "type": "SCALAR", "bufferView": 0, "count": 384, "max": [65], "min": [0]}, {"componentType": 5126, "type": "VEC3", "bufferView": 1, "byteOffset": 0, "count": 66, "max": [1.599869966506958, 1.234570026397705, 1.8819600343704224], "min": [-1.4694299697875977, -1.454800009727478, -1.9385900497436523]}, {"componentType": 5126, "type": "VEC3", "bufferView": 2, "byteOffset": 0, "count": 66, "max": [0.9914799928665161, 0.9964587688446045, 0.9924076199531555], "min": [-0.9975275993347168, -0.9988391995429993, -0.9880889058113098]}, {"componentType": 5126, "type": "VEC3", "bufferView": 3, "byteOffset": 0, "count": 66, "max": [1.0, 1.0, 1.0], "min": [1.0, 1.0, 1.0]}], "materials": [{"pbrMetallicRoughness": {"metallicFactor": 0, "roughnessFactor": 1}, "name": "Material.003"}], "meshes": [{"primitives": [{"mode": 4, "attributes": {"POSITION": 1, "NORMAL": 2, "COLOR_0": 3}, "material": 0, "indices": 0}]}]}