{"asset": {"version": "2.0", "generator": "GLTFExporter"}, "scenes": [{"name": "AuxScene", "nodes": [1]}], "scene": 0, "nodes": [{"mesh": 0}, {"children": [0]}], "bufferViews": [{"buffer": 0, "byteOffset": 0, "byteLength": 7284}, {"buffer": 0, "byteOffset": 7284, "byteLength": 7284}, {"buffer": 0, "byteOffset": 14568, "byteLength": 7284}, {"buffer": 0, "byteOffset": 21852, "byteLength": 4856}, {"buffer": 0, "byteOffset": 26708, "byteLength": 6132}, {"buffer": 0, "byteOffset": 32840, "byteLength": 7284}, {"buffer": 0, "byteOffset": 40124, "byteLength": 7284}], "buffers": [{"byteLength": 47408, "uri": "data:application/octet-stream;base64,"}], "accessors": [{"componentType": 5126, "type": "VEC3", "bufferView": 0, "byteOffset": 0, "count": 607, "max": [1.7246099710464478, 5.332550048828125, 1.545680046081543], "min": [-1.6340899467468262, 0.03277299925684929, -2.1135001182556152]}, {"componentType": 5126, "type": "VEC3", "bufferView": 1, "byteOffset": 0, "count": 607, "max": [0.999248206615448, 0.9988095760345459, 0.9998750686645508], "min": [-0.999248206615448, -0.9999970197677612, -0.9948601722717285]}, {"componentType": 5126, "type": "VEC3", "bufferView": 2, "byteOffset": 0, "count": 607, "max": [1.0, 1.0, 1.0], "min": [1.0, 1.0, 1.0]}, {"componentType": 5126, "type": "VEC2", "bufferView": 3, "byteOffset": 0, "count": 607, "max": [0.9948149919509888, 0.9982569813728333], "min": [-0.0012789999600499868, 0.00684100016951561]}, {"componentType": 5123, "type": "SCALAR", "bufferView": 4, "byteOffset": 0, "count": 3066, "max": [606.0], "min": [0.0]}, {"componentType": 5126, "type": "VEC3", "bufferView": 5, "byteOffset": 0, "count": 607, "max": [0.0, 0.0, 0.0], "min": [0.0, 0.0, 0.0]}, {"componentType": 5126, "type": "VEC3", "bufferView": 6, "byteOffset": 0, "count": 607, "max": [1.7296301126480103, 2.1637351512908936, 1.6274369955062866], "min": [-1.644879937171936, -2.7451491355895996, -3.796293020248413]}], "materials": [{"pbrMetallicRoughness": {"baseColorFactor": [0.8, 0.8, 0.8, 1], "metallicFactor": 0, "roughnessFactor": 1}}], "meshes": [{"weights": [0, 0], "extras": {"targetNames": ["animation_000000", "animation_000001"]}, "primitives": [{"mode": 4, "attributes": {"POSITION": 0, "NORMAL": 1, "COLOR_0": 2, "TEXCOORD_0": 3}, "targets": [{"POSITION": 5}, {"POSITION": 6}], "material": 0, "indices": 4}]}]}