{"asset": {"version": "2.0", "generator": "GLTFExporter"}, "scenes": [{"name": "AuxScene", "nodes": [1]}], "scene": 0, "nodes": [{"extras": {"mapFilename": null}, "mesh": 0}, {"children": [0]}], "bufferViews": [{"buffer": 0, "byteOffset": 0, "byteLength": 20304}, {"buffer": 0, "byteOffset": 20304, "byteLength": 27204}, {"buffer": 0, "byteOffset": 47508, "byteLength": 27204}, {"buffer": 0, "byteOffset": 74712, "byteLength": 27204}, {"buffer": 0, "byteOffset": 101916, "byteLength": 18136}], "buffers": [{"byteLength": 120052, "uri": "data:application/octet-stream;base64,"}], "accessors": [{"componentType": 5123, "type": "SCALAR", "bufferView": 0, "count": 10152, "max": [2266], "min": [0]}, {"componentType": 5126, "type": "VEC3", "bufferView": 1, "byteOffset": 0, "count": 2267, "max": [7.649980068206787, 0.27038198709487915, 7.311349868774414], "min": [-7.2769999504089355, -1.1094599962234497, -7.007909774780273]}, {"componentType": 5126, "type": "VEC3", "bufferView": 2, "byteOffset": 0, "count": 2267, "max": [0.9789103269577026, 0.9999997019767761, 0.9809972047805786], "min": [-0.9805892109870911, -0.33531489968299866, -0.9829577207565308]}, {"componentType": 5126, "type": "VEC3", "bufferView": 3, "byteOffset": 0, "count": 2267, "max": [1.0, 1.0, 1.0], "min": [1.0, 1.0, 1.0]}, {"componentType": 5126, "type": "VEC2", "bufferView": 4, "byteOffset": 0, "count": 2267, "max": [1.0, 0.988681972026825], "min": [0.003022999968379736, 0.0]}], "materials": [{"pbrMetallicRoughness": {"metallicFactor": 0, "roughnessFactor": 1}, "name": "default"}], "meshes": [{"primitives": [{"mode": 4, "attributes": {"POSITION": 1, "NORMAL": 2, "COLOR_0": 3, "TEXCOORD_0": 4}, "material": 0, "indices": 0}]}]}