{"asset": {"version": "2.0", "generator": "GLTFExporter"}, "scenes": [{"name": "AuxScene", "nodes": [1]}], "scene": 0, "nodes": [{"mesh": 0}, {"children": [0]}], "bufferViews": [{"buffer": 0, "byteOffset": 0, "byteLength": 2880}, {"buffer": 0, "byteOffset": 2880, "byteLength": 3084}, {"buffer": 0, "byteOffset": 5964, "byteLength": 3084}, {"buffer": 0, "byteOffset": 9048, "byteLength": 3084}, {"buffer": 0, "byteOffset": 12132, "byteLength": 2056}], "buffers": [{"byteLength": 14188, "uri": "data:application/octet-stream;base64,"}], "accessors": [{"componentType": 5123, "type": "SCALAR", "bufferView": 0, "count": 1440, "max": [256], "min": [0]}, {"componentType": 5126, "type": "VEC3", "bufferView": 1, "byteOffset": 0, "count": 257, "max": [0.9187390208244324, 0.9187390208244324, 0.9187390208244324], "min": [-0.9187390208244324, -0.9187390208244324, -0.9187390208244324]}, {"componentType": 5126, "type": "VEC3", "bufferView": 2, "byteOffset": 0, "count": 257, "max": [1.0, 1.0, 1.0], "min": [-1.0, -1.0, -1.0]}, {"componentType": 5126, "type": "VEC3", "bufferView": 3, "byteOffset": 0, "count": 257, "max": [1.0, 1.0, 1.0], "min": [1.0, 1.0, 1.0]}, {"componentType": 5126, "type": "VEC2", "bufferView": 4, "byteOffset": 0, "count": 257, "max": [0.9999189972877502, 0.7889620065689087], "min": [8.099999831756577e-05, 0.1397790014743805]}], "materials": [{"pbrMetallicRoughness": {"baseColorFactor": [0.8, 0.8, 0.8, 1], "metallicFactor": 0, "roughnessFactor": 1}}], "meshes": [{"primitives": [{"mode": 4, "attributes": {"POSITION": 1, "NORMAL": 2, "COLOR_0": 3, "TEXCOORD_0": 4}, "material": 0, "indices": 0}]}]}