{"scene": 0, "scenes": [{"nodes": [0]}], "asset": {"version": "2.0", "generator": "jocly2 3dpieces toolchain"}, "accessors": [{"componentType": 5125, "type": "SCALAR", "bufferView": 0, "count": 18900, "max": [5242], "min": [0]}, {"componentType": 5126, "type": "VEC3", "byteOffset": 0, "bufferView": 1, "count": 5243, "max": [0.8370000123977661, 3.3027889728546143, 0.8370000123977661], "min": [-0.8370000123977661, 0.0, -0.8370000123977661]}, {"componentType": 5126, "type": "VEC2", "byteOffset": 0, "bufferView": 2, "count": 5243, "max": [0.9926756024360657, 0.9934400320053101], "min": [0.005859375, 0.005859375]}, {"componentType": 5126, "type": "VEC3", "byteOffset": 0, "bufferView": 3, "count": 5243, "max": [0.999841034412384, 1.0, 0.9997473955154419], "min": [-0.9997729659080505, -1.0, -0.9998092651367188]}], "meshes": [{"name": "geometry_0", "extras": {}, "primitives": [{"attributes": {"POSITION": 1, "TEXCOORD_0": 2, "NORMAL": 3}, "indices": 0, "mode": 4, "material": 0}]}], "materials": [{"pbrMetallicRoughness": {"baseColorFactor": [0.8, 0.8, 0.8, 1.0], "roughnessFactor": 1.0, "metallicFactor": 0.0}, "doubleSided": false}], "nodes": [{"name": "world", "children": [1]}, {"name": "geometry_0", "mesh": 0}], "buffers": [{"byteLength": 243376, "uri": "data:application/octet-stream;base64,"}], "bufferViews": [{"buffer": 0, "byteOffset": 0, "byteLength": 75600}, {"buffer": 0, "byteOffset": 75600, "byteLength": 62916}, {"buffer": 0, "byteOffset": 138516, "byteLength": 41944}, {"buffer": 0, "byteOffset": 180460, "byteLength": 62916}]}