{"scene":0,"scenes":[{"nodes":[0]}],"asset":{"version":"2.0","generator":"https://github.com/mikedh/trimesh"},"accessors":[{"componentType":5125,"type":"SCALAR","bufferView":0,"count":43764,"max":[7644],"min":[0]},{"componentType":5126,"type":"VEC3","byteOffset":0,"bufferView":1,"count":7645,"max":[0.7790120244026184,3.3027889728546143,0.7790120244026184],"min":[-0.7790120244026184,0.010758399963378906,-0.7790120244026184]},{"componentType":5126,"type":"VEC2","byteOffset":0,"bufferView":2,"count":7645,"max":[1.2790759801864624,0.9967426061630249],"min":[1.9939825346426687e-09,1.455725051613399e-08]},{"componentType":5126,"count":7645,"type":"VEC3","byteOffset":0,"bufferView":3,"max":[0.99997478723526,1.0,0.9999402761459351],"min":[-0.9997963309288025,-1.0,-0.9993316531181335]}],"meshes":[{"name":"geometry_0","extras":{},"primitives":[{"attributes":{"POSITION":1,"TEXCOORD_0":2,"NORMAL":3},"indices":0,"mode":4,"material":0}]}],"materials":[{"pbrMetallicRoughness":{"baseColorFactor":[0.8,0.8,0.8,1.0],"roughnessFactor":1.0,"metallicFactor":0.0},"doubleSided":false}],"nodes":[{"name":"world","children":[1]},{"name":"geometry_0","mesh":0}],"buffers":[{"uri":"data:application/octet-stream;base64,","byteLength":419696}],"bufferViews":[{"buffer":0,"byteOffset":0,"byteLength":175056},{"buffer":0,"byteOffset":175056,"byteLength":91740},{"buffer":0,"byteOffset":266796,"byteLength":61160},{"buffer":0,"byteOffset":327956,"byteLength":91740}]}