{"scene":0,"scenes":[{"nodes":[0]}],"asset":{"version":"2.0","generator":"https://github.com/mikedh/trimesh"},"accessors":[{"componentType":5125,"type":"SCALAR","bufferView":0,"count":38226,"max":[6648],"min":[0]},{"componentType":5126,"type":"VEC3","byteOffset":0,"bufferView":1,"count":6649,"max":[0.7790120244026184,3.3027889728546143,0.8137361407279968],"min":[-0.7790120244026184,0.010758399963378906,-0.7790120244026184]},{"componentType":5126,"type":"VEC2","byteOffset":0,"bufferView":2,"count":6649,"max":[1.2790759801864624,0.9967426061630249],"min":[1.9939825346426687e-09,1.455725051613399e-08]},{"componentType":5126,"count":6649,"type":"VEC3","byteOffset":0,"bufferView":3,"max":[0.9999330043792725,1.0,0.9999266862869263],"min":[-0.999776303768158,-1.0,-0.9991850256919861]}],"meshes":[{"name":"geometry_0","extras":{},"primitives":[{"attributes":{"POSITION":1,"TEXCOORD_0":2,"NORMAL":3},"indices":0,"mode":4,"material":0}]}],"materials":[{"pbrMetallicRoughness":{"baseColorFactor":[0.8,0.8,0.8,1.0],"roughnessFactor":1.0,"metallicFactor":0.0},"doubleSided":false}],"nodes":[{"name":"world","children":[1]},{"name":"geometry_0","mesh":0}],"buffers":[{"uri":"data:application/octet-stream;base64,","byteLength":365672}],"bufferViews":[{"buffer":0,"byteOffset":0,"byteLength":152904},{"buffer":0,"byteOffset":152904,"byteLength":79788},{"buffer":0,"byteOffset":232692,"byteLength":53192},{"buffer":0,"byteOffset":285884,"byteLength":79788}]}