{"asset": {"version": "2.0", "generator": "GLTFExporter"}, "scenes": [{"name": "AuxScene", "nodes": [1]}], "scene": 0, "nodes": [{"mesh": 0}, {"children": [0]}], "bufferViews": [{"buffer": 0, "byteOffset": 0, "byteLength": 5712}, {"buffer": 0, "byteOffset": 5712, "byteLength": 7608}, {"buffer": 0, "byteOffset": 13320, "byteLength": 7608}, {"buffer": 0, "byteOffset": 20928, "byteLength": 7608}, {"buffer": 0, "byteOffset": 28536, "byteLength": 5072}], "buffers": [{"byteLength": 33608, "uri": "data:application/octet-stream;base64,"}], "accessors": [{"componentType": 5123, "type": "SCALAR", "bufferView": 0, "count": 2856, "max": [633], "min": [0]}, {"componentType": 5126, "type": "VEC3", "bufferView": 1, "byteOffset": 0, "count": 634, "max": [0.9319660067558289, 3.264699935913086, 0.8158109784126282], "min": [-0.9212610125541687, 0.019047999754548073, -0.7708479762077332]}, {"componentType": 5126, "type": "VEC3", "bufferView": 2, "byteOffset": 0, "count": 634, "max": [1.0, 0.9998779892921448, 0.9999690055847168], "min": [-0.9999690055847168, -0.9513530135154724, -1.0]}, {"componentType": 5126, "type": "VEC3", "bufferView": 3, "byteOffset": 0, "count": 634, "max": [1.0, 1.0, 1.0], "min": [1.0, 1.0, 1.0]}, {"componentType": 5126, "type": "VEC2", "bufferView": 4, "byteOffset": 0, "count": 634, "max": [0.9952849745750427, 0.9947130084037781], "min": [0.0012929999502375722, 0.0065750000067055225]}], "materials": [{"pbrMetallicRoughness": {"baseColorFactor": [0.8, 0.8, 0.8, 1], "metallicFactor": 0, "roughnessFactor": 1}}], "meshes": [{"primitives": [{"mode": 4, "attributes": {"POSITION": 1, "NORMAL": 2, "COLOR_0": 3, "TEXCOORD_0": 4}, "material": 0, "indices": 0}]}]}