{"asset": {"version": "2.0", "generator": "GLTFExporter"}, "scenes": [{"name": "AuxScene", "nodes": [1]}], "scene": 0, "nodes": [{"mesh": 0}, {"children": [0]}], "bufferViews": [{"buffer": 0, "byteOffset": 0, "byteLength": 3156}, {"buffer": 0, "byteOffset": 3156, "byteLength": 4380}, {"buffer": 0, "byteOffset": 7536, "byteLength": 4380}, {"buffer": 0, "byteOffset": 11916, "byteLength": 4380}, {"buffer": 0, "byteOffset": 16296, "byteLength": 2920}], "buffers": [{"byteLength": 19216, "uri": "data:application/octet-stream;base64,"}], "accessors": [{"componentType": 5123, "type": "SCALAR", "bufferView": 0, "count": 1578, "max": [364], "min": [0]}, {"componentType": 5126, "type": "VEC3", "bufferView": 1, "byteOffset": 0, "count": 365, "max": [0.6858095526695251, 2.7332000732421875, 0.8608695864677429], "min": [-0.6858095526695251, -0.002192843472585082, -0.7540008425712585]}, {"componentType": 5126, "type": "VEC3", "bufferView": 2, "byteOffset": 0, "count": 365, "max": [0.9853567481040955, 0.997966468334198, 0.9959673285484314], "min": [-0.9853567481040955, -0.9999864101409912, -0.992024838924408]}, {"componentType": 5126, "type": "VEC3", "bufferView": 3, "byteOffset": 0, "count": 365, "max": [1.0, 1.0, 1.0], "min": [1.0, 1.0, 1.0]}, {"componentType": 5126, "type": "VEC2", "bufferView": 4, "byteOffset": 0, "count": 365, "max": [0.9943860173225403, 0.9940400123596191], "min": [0.010424000211060047, 0.007025000173598528]}], "materials": [{"pbrMetallicRoughness": {"baseColorFactor": [0.8, 0.8, 0.8, 1], "metallicFactor": 0, "roughnessFactor": 1}}], "meshes": [{"primitives": [{"mode": 4, "attributes": {"POSITION": 1, "NORMAL": 2, "COLOR_0": 3, "TEXCOORD_0": 4}, "material": 0, "indices": 0}]}]}