{"asset": {"version": "2.0", "generator": "GLTFExporter"}, "scenes": [{"name": "AuxScene", "nodes": [1]}], "scene": 0, "nodes": [{"mesh": 0}, {"children": [0]}], "bufferViews": [{"buffer": 0, "byteOffset": 0, "byteLength": 3156}, {"buffer": 0, "byteOffset": 3156, "byteLength": 4380}, {"buffer": 0, "byteOffset": 7536, "byteLength": 4380}, {"buffer": 0, "byteOffset": 11916, "byteLength": 4380}, {"buffer": 0, "byteOffset": 16296, "byteLength": 2920}], "buffers": [{"byteLength": 19216, "uri": "data:application/octet-stream;base64,"}], "accessors": [{"componentType": 5123, "type": "SCALAR", "bufferView": 0, "count": 1578, "max": [364], "min": [0]}, {"componentType": 5126, "type": "VEC3", "bufferView": 1, "byteOffset": 0, "count": 365, "max": [0.7886809706687927, 3.1431798934936523, 0.7729830145835876], "min": [-0.7886809706687927, -0.0025217700749635696, -0.8671010136604309]}, {"componentType": 5126, "type": "VEC3", "bufferView": 2, "byteOffset": 0, "count": 365, "max": [0.9853568077087402, 0.9979664087295532, 0.9994184374809265], "min": [-0.9853568077087402, -0.9971501231193542, -0.992024838924408]}, {"componentType": 5126, "type": "VEC3", "bufferView": 3, "byteOffset": 0, "count": 365, "max": [1.0, 1.0, 1.0], "min": [1.0, 1.0, 1.0]}, {"componentType": 5126, "type": "VEC2", "bufferView": 4, "byteOffset": 0, "count": 365, "max": [0.9943860173225403, 0.9940400123596191], "min": [0.010424000211060047, 0.007025000173598528]}], "materials": [{"pbrMetallicRoughness": {"baseColorFactor": [0.8, 0.8, 0.8, 1], "metallicFactor": 0, "roughnessFactor": 1}}], "meshes": [{"primitives": [{"mode": 4, "attributes": {"POSITION": 1, "NORMAL": 2, "COLOR_0": 3, "TEXCOORD_0": 4}, "material": 0, "indices": 0}]}]}