{"asset": {"version": "2.0", "generator": "GLTFExporter"}, "scenes": [{"name": "AuxScene", "nodes": [3]}], "scene": 0, "nodes": [{"extras": {"mapFilename": null}, "mesh": 0}, {"extras": {"mapFilename": null}, "mesh": 1}, {"extras": {"mapFilename": null}, "mesh": 2}, {"children": [0, 1, 2]}], "bufferViews": [{"buffer": 0, "byteOffset": 0, "byteLength": 576}, {"buffer": 0, "byteOffset": 576, "byteLength": 576}, {"buffer": 0, "byteOffset": 1152, "byteLength": 576}, {"buffer": 0, "byteOffset": 1728, "byteLength": 384}, {"buffer": 0, "byteOffset": 2112, "byteLength": 168}, {"buffer": 0, "byteOffset": 2280, "byteLength": 48}, {"buffer": 0, "byteOffset": 2328, "byteLength": 48}, {"buffer": 0, "byteOffset": 2376, "byteLength": 48}, {"buffer": 0, "byteOffset": 2424, "byteLength": 32}, {"buffer": 0, "byteOffset": 2456, "byteLength": 12}, {"buffer": 0, "byteOffset": 2468, "byteLength": 144}, {"buffer": 0, "byteOffset": 2612, "byteLength": 144}, {"buffer": 0, "byteOffset": 2756, "byteLength": 144}, {"buffer": 0, "byteOffset": 2900, "byteLength": 96}, {"buffer": 0, "byteOffset": 2996, "byteLength": 36}], "buffers": [{"byteLength": 3032, "uri": "data:application/octet-stream;base64,"}], "accessors": [{"componentType": 5126, "type": "VEC3", "bufferView": 0, "byteOffset": 0, "count": 48, "max": [5.0, 0.004179699812084436, 5.0], "min": [-5.0, -0.4880000054836273, -5.0]}, {"componentType": 5126, "type": "VEC3", "bufferView": 1, "byteOffset": 0, "count": 48, "max": [1.0, 1.0, 1.0], "min": [-1.0, -1.0, -1.0]}, {"componentType": 5126, "type": "VEC3", "bufferView": 2, "byteOffset": 0, "count": 48, "max": [1.0, 1.0, 1.0], "min": [1.0, 1.0, 1.0]}, {"componentType": 5126, "type": "VEC2", "bufferView": 3, "byteOffset": 0, "count": 48, "max": [0.0, 0.0], "min": [0.0, 0.0]}, {"componentType": 5123, "type": "SCALAR", "bufferView": 4, "byteOffset": 0, "count": 84, "max": [47.0], "min": [0.0]}, {"componentType": 5126, "type": "VEC3", "bufferView": 5, "byteOffset": 0, "count": 4, "max": [4.551760196685791, -0.08189310133457184, 4.551760196685791], "min": [-4.551760196685791, -0.08189350366592407, -4.551760196685791]}, {"componentType": 5126, "type": "VEC3", "bufferView": 6, "byteOffset": 0, "count": 4, "max": [0.0, 1.0, -4.3939046179275465e-08], "min": [0.0, 1.0, -4.3939046179275465e-08]}, {"componentType": 5126, "type": "VEC3", "bufferView": 7, "byteOffset": 0, "count": 4, "max": [1.0, 1.0, 1.0], "min": [1.0, 1.0, 1.0]}, {"componentType": 5126, "type": "VEC2", "bufferView": 8, "byteOffset": 0, "count": 4, "max": [0.9998999834060669, 0.9998999834060669], "min": [9.999999747378752e-05, 9.999999747378752e-05]}, {"componentType": 5123, "type": "SCALAR", "bufferView": 9, "byteOffset": 0, "count": 6, "max": [3.0], "min": [0.0]}, {"componentType": 5126, "type": "VEC3", "bufferView": 10, "byteOffset": 0, "count": 12, "max": [4.595590114593506, 0.004179679788649082, 4.595590114593506], "min": [-4.595590114593506, -0.08189350366592407, -4.595590114593506]}, {"componentType": 5126, "type": "VEC3", "bufferView": 11, "byteOffset": 0, "count": 12, "max": [0.8911164999008179, 0.4537745714187622, -1.9748259916241295e-08], "min": [-0.8911164999008179, 0.4537745416164398, -0.8911164999008179]}, {"componentType": 5126, "type": "VEC3", "bufferView": 12, "byteOffset": 0, "count": 12, "max": [1.0, 1.0, 1.0], "min": [1.0, 1.0, 1.0]}, {"componentType": 5126, "type": "VEC2", "bufferView": 13, "byteOffset": 0, "count": 12, "max": [0.0, 0.0], "min": [0.0, 0.0]}, {"componentType": 5123, "type": "SCALAR", "bufferView": 14, "byteOffset": 0, "count": 18, "max": [11.0], "min": [0.0]}], "materials": [{"pbrMetallicRoughness": {"baseColorFactor": [0, 0, 0, 1], "metallicFactor": 0, "roughnessFactor": 1}, "name": "board"}, {"pbrMetallicRoughness": {"baseColorFactor": [0.6392156862745098, 0.6392156862745098, 0.6392156862745098, 1], "metallicFactor": 0, "roughnessFactor": 1}, "name": "boardsquare"}], "meshes": [{"primitives": [{"mode": 4, "attributes": {"POSITION": 0, "NORMAL": 1, "COLOR_0": 2, "TEXCOORD_0": 3}, "material": 0, "indices": 4}]}, {"primitives": [{"mode": 4, "attributes": {"POSITION": 5, "NORMAL": 6, "COLOR_0": 7, "TEXCOORD_0": 8}, "material": 1, "indices": 9}]}, {"primitives": [{"mode": 4, "attributes": {"POSITION": 10, "NORMAL": 11, "COLOR_0": 12, "TEXCOORD_0": 13}, "material": 0, "indices": 14}]}]}