{"asset": {"version": "2.0", "generator": "GLTFExporter"}, "scenes": [{"name": "AuxScene", "nodes": [2]}], "scene": 0, "nodes": [{"extras": {"mapFilename": null}, "mesh": 0}, {"extras": {"mapFilename": "woodtoken-diffuse.jpg"}, "mesh": 1}, {"children": [0, 1]}], "bufferViews": [{"buffer": 0, "byteOffset": 0, "byteLength": 132}, {"buffer": 0, "byteOffset": 132, "byteLength": 132}, {"buffer": 0, "byteOffset": 264, "byteLength": 132}, {"buffer": 0, "byteOffset": 396, "byteLength": 88}, {"buffer": 0, "byteOffset": 484, "byteLength": 108}, {"buffer": 0, "byteOffset": 592, "byteLength": 1728}, {"buffer": 0, "byteOffset": 2320, "byteLength": 1728}, {"buffer": 0, "byteOffset": 4048, "byteLength": 1728}, {"buffer": 0, "byteOffset": 5776, "byteLength": 1152}, {"buffer": 0, "byteOffset": 6928, "byteLength": 1128}], "buffers": [{"byteLength": 8056, "uri": "data:application/octet-stream;base64,"}], "accessors": [{"componentType": 5126, "type": "VEC3", "bufferView": 0, "byteOffset": 0, "count": 11, "max": [0.4885070025920868, 2.2764899730682373, 0.41554901003837585], "min": [-0.4885070025920868, 2.053679943084717, -0.5136470198631287]}, {"componentType": 5126, "type": "VEC3", "bufferView": 1, "byteOffset": 0, "count": 11, "max": [0.9413740038871765, 1.0, 0.9716479778289795], "min": [-0.9413740038871765, -0.14221599698066711, -0.9898070096969604]}, {"componentType": 5126, "type": "VEC3", "bufferView": 2, "byteOffset": 0, "count": 11, "max": [1.0, 1.0, 1.0], "min": [1.0, 1.0, 1.0]}, {"componentType": 5126, "type": "VEC2", "bufferView": 3, "byteOffset": 0, "count": 11, "max": [0.0, 0.0], "min": [0.0, 0.0]}, {"componentType": 5123, "type": "SCALAR", "bufferView": 4, "byteOffset": 0, "count": 54, "max": [10.0], "min": [0.0]}, {"componentType": 5126, "type": "VEC3", "bufferView": 5, "byteOffset": 0, "count": 144, "max": [0.9596189856529236, 2.0334200859069824, 0.9596189856529236], "min": [-0.9596189856529236, 0.03342150151729584, -0.9596189856529236]}, {"componentType": 5126, "type": "VEC3", "bufferView": 6, "byteOffset": 0, "count": 144, "max": [0.9783009886741638, 0.8777430057525635, 0.9783009886741638], "min": [-0.9783009886741638, -0.8777430057525635, -0.9783009886741638]}, {"componentType": 5126, "type": "VEC3", "bufferView": 7, "byteOffset": 0, "count": 144, "max": [1.0, 1.0, 1.0], "min": [1.0, 1.0, 1.0]}, {"componentType": 5126, "type": "VEC2", "bufferView": 8, "byteOffset": 0, "count": 144, "max": [0.9947630167007446, 0.9959859848022461], "min": [0.0, 0.0]}, {"componentType": 5123, "type": "SCALAR", "bufferView": 9, "byteOffset": 0, "count": 564, "max": [143.0], "min": [0.0]}], "materials": [{"pbrMetallicRoughness": {"baseColorFactor": [0.6392156862745098, 0.0196078431372549, 0, 1], "metallicFactor": 0, "roughnessFactor": 1}, "name": "redstar"}, {"pbrMetallicRoughness": {"baseColorFactor": [0.6392156862745098, 0.6392156862745098, 0.6392156862745098, 1], "metallicFactor": 0, "roughnessFactor": 1, "baseColorTexture": {"index": 0}}, "name": "wood"}], "meshes": [{"primitives": [{"mode": 4, "attributes": {"POSITION": 0, "NORMAL": 1, "COLOR_0": 2, "TEXCOORD_0": 3}, "material": 0, "indices": 4}]}, {"primitives": [{"mode": 4, "attributes": {"POSITION": 5, "NORMAL": 6, "COLOR_0": 7, "TEXCOORD_0": 8}, "material": 1, "indices": 9}]}], "images": [{"uri": "woodtoken-diffuse.jpg"}], "textures": [{"source": 0}]}