{"asset": {"version": "2.0", "generator": "GLTFExporter"}, "scenes": [{"name": "AuxScene", "nodes": [1]}], "scene": 0, "nodes": [{"mesh": 0}, {"children": [0]}], "bufferViews": [{"buffer": 0, "byteOffset": 0, "byteLength": 7764}, {"buffer": 0, "byteOffset": 7764, "byteLength": 9696}, {"buffer": 0, "byteOffset": 17460, "byteLength": 9696}, {"buffer": 0, "byteOffset": 27156, "byteLength": 9696}, {"buffer": 0, "byteOffset": 36852, "byteLength": 6464}], "buffers": [{"byteLength": 43316, "uri": "data:application/octet-stream;base64,"}], "accessors": [{"componentType": 5123, "type": "SCALAR", "bufferView": 0, "count": 3882, "max": [807], "min": [0]}, {"componentType": 5126, "type": "VEC3", "bufferView": 1, "byteOffset": 0, "count": 808, "max": [0.9182029962539673, 3.9827799797058105, 0.9456380009651184], "min": [-0.9326819777488708, 0.007149000186473131, -0.9372339844703674]}, {"componentType": 5126, "type": "VEC3", "bufferView": 2, "byteOffset": 0, "count": 808, "max": [1.0, 0.999114990234375, 0.9998779892921448], "min": [-1.0, -0.9931640028953552, -0.9999690055847168]}, {"componentType": 5126, "type": "VEC3", "bufferView": 3, "byteOffset": 0, "count": 808, "max": [1.0, 1.0, 1.0], "min": [1.0, 1.0, 1.0]}, {"componentType": 5126, "type": "VEC2", "bufferView": 4, "byteOffset": 0, "count": 808, "max": [0.9975360035896301, 0.9976800084114075], "min": [0.002756000030785799, 0.0006520000169984996]}], "materials": [{"pbrMetallicRoughness": {"baseColorFactor": [0.8, 0.8, 0.8, 1], "metallicFactor": 0, "roughnessFactor": 1}}], "meshes": [{"primitives": [{"mode": 4, "attributes": {"POSITION": 1, "NORMAL": 2, "COLOR_0": 3, "TEXCOORD_0": 4}, "material": 0, "indices": 0}]}]}