{"asset": {"version": "2.0", "generator": "GLTFExporter"}, "scenes": [{"name": "AuxScene", "nodes": [3]}], "scene": 0, "nodes": [{"extras": {"mapFilename": null}, "mesh": 0}, {"extras": {"mapFilename": null}, "mesh": 1}, {"extras": {"mapFilename": null}, "mesh": 2}, {"children": [0, 1, 2]}], "bufferViews": [{"buffer": 0, "byteOffset": 0, "byteLength": 144}, {"buffer": 0, "byteOffset": 144, "byteLength": 144}, {"buffer": 0, "byteOffset": 288, "byteLength": 144}, {"buffer": 0, "byteOffset": 432, "byteLength": 96}, {"buffer": 0, "byteOffset": 528, "byteLength": 36}, {"buffer": 0, "byteOffset": 564, "byteLength": 48}, {"buffer": 0, "byteOffset": 612, "byteLength": 48}, {"buffer": 0, "byteOffset": 660, "byteLength": 48}, {"buffer": 0, "byteOffset": 708, "byteLength": 32}, {"buffer": 0, "byteOffset": 740, "byteLength": 12}, {"buffer": 0, "byteOffset": 752, "byteLength": 288}, {"buffer": 0, "byteOffset": 1040, "byteLength": 288}, {"buffer": 0, "byteOffset": 1328, "byteLength": 288}, {"buffer": 0, "byteOffset": 1616, "byteLength": 192}, {"buffer": 0, "byteOffset": 1808, "byteLength": 216}], "buffers": [{"byteLength": 2024, "uri": "data:application/octet-stream;base64,"}], "accessors": [{"componentType": 5126, "type": "VEC3", "bufferView": 0, "byteOffset": 0, "count": 12, "max": [4.872200012207031, -0.05791980028152466, 5.0], "min": [-5.0, -0.4476960003376007, -5.0]}, {"componentType": 5126, "type": "VEC3", "bufferView": 1, "byteOffset": 0, "count": 12, "max": [0.33887800574302673, 0.431196004152298, 0.868861973285675], "min": [-0.868861973285675, -0.3607900142669678, -0.868861973285675]}, {"componentType": 5126, "type": "VEC3", "bufferView": 2, "byteOffset": 0, "count": 12, "max": [1.0, 1.0, 1.0], "min": [1.0, 1.0, 1.0]}, {"componentType": 5126, "type": "VEC2", "bufferView": 3, "byteOffset": 0, "count": 12, "max": [0.0, 0.0], "min": [0.0, 0.0]}, {"componentType": 5123, "type": "SCALAR", "bufferView": 4, "byteOffset": 0, "count": 18, "max": [11.0], "min": [0.0]}, {"componentType": 5126, "type": "VEC3", "bufferView": 5, "byteOffset": 0, "count": 4, "max": [4.902900218963623, -0.0016334699466824532, 4.902900218963623], "min": [-4.902900218963623, -0.0016338999848812819, -4.902900218963623]}, {"componentType": 5126, "type": "VEC3", "bufferView": 6, "byteOffset": 0, "count": 4, "max": [0.2961519956588745, 0.9080479741096497, 0.2961519956588745], "min": [-0.2961519956588745, 0.9080479741096497, -0.2961519956588745]}, {"componentType": 5126, "type": "VEC3", "bufferView": 7, "byteOffset": 0, "count": 4, "max": [1.0, 1.0, 1.0], "min": [1.0, 1.0, 1.0]}, {"componentType": 5126, "type": "VEC2", "bufferView": 8, "byteOffset": 0, "count": 4, "max": [0.9998999834060669, 0.9998999834060669], "min": [9.999999747378752e-05, 9.999999747378752e-05]}, {"componentType": 5123, "type": "SCALAR", "bufferView": 9, "byteOffset": 0, "count": 6, "max": [3.0], "min": [0.0]}, {"componentType": 5126, "type": "VEC3", "bufferView": 10, "byteOffset": 0, "count": 24, "max": [5.0, -0.0016334699466824532, 5.0], "min": [-5.0, -0.5638790130615234, -5.0]}, {"componentType": 5126, "type": "VEC3", "bufferView": 11, "byteOffset": 0, "count": 24, "max": [0.868861973285675, 0.9080479741096497, 0.868861973285675], "min": [-0.868861973285675, -0.8882719874382019, -0.868861973285675]}, {"componentType": 5126, "type": "VEC3", "bufferView": 12, "byteOffset": 0, "count": 24, "max": [1.0, 1.0, 1.0], "min": [1.0, 1.0, 1.0]}, {"componentType": 5126, "type": "VEC2", "bufferView": 13, "byteOffset": 0, "count": 24, "max": [0.0, 0.0], "min": [0.0, 0.0]}, {"componentType": 5123, "type": "SCALAR", "bufferView": 14, "byteOffset": 0, "count": 108, "max": [23.0], "min": [0.0]}], "materials": [{"pbrMetallicRoughness": {"baseColorFactor": [0.6392156862745098, 0.6392156862745098, 0.6392156862745098, 1], "metallicFactor": 0, "roughnessFactor": 1}, "name": "mat.board"}, {"pbrMetallicRoughness": {"baseColorFactor": [0.6941176470588235, 0.6941176470588235, 0.6941176470588235, 1], "metallicFactor": 0, "roughnessFactor": 1}, "name": "mat.board.top"}], "meshes": [{"primitives": [{"mode": 4, "attributes": {"POSITION": 0, "NORMAL": 1, "COLOR_0": 2, "TEXCOORD_0": 3}, "material": 0, "indices": 4}]}, {"primitives": [{"mode": 4, "attributes": {"POSITION": 5, "NORMAL": 6, "COLOR_0": 7, "TEXCOORD_0": 8}, "material": 1, "indices": 9}]}, {"primitives": [{"mode": 4, "attributes": {"POSITION": 10, "NORMAL": 11, "COLOR_0": 12, "TEXCOORD_0": 13}, "material": 0, "indices": 14}]}]}