{"asset": {"version": "2.0", "generator": "GLTFExporter"}, "scenes": [{"name": "AuxScene", "nodes": [2]}], "scene": 0, "nodes": [{"extras": {"mapFilename": null}, "mesh": 0}, {"extras": {"mapFilename": null}, "mesh": 1}, {"children": [0, 1]}], "bufferViews": [{"buffer": 0, "byteOffset": 0, "byteLength": 1728}, {"buffer": 0, "byteOffset": 1728, "byteLength": 1728}, {"buffer": 0, "byteOffset": 3456, "byteLength": 1728}, {"buffer": 0, "byteOffset": 5184, "byteLength": 1632}, {"buffer": 0, "byteOffset": 6816, "byteLength": 96}, {"buffer": 0, "byteOffset": 6912, "byteLength": 96}, {"buffer": 0, "byteOffset": 7008, "byteLength": 96}, {"buffer": 0, "byteOffset": 7104, "byteLength": 72}], "buffers": [{"byteLength": 7176, "uri": "data:application/octet-stream;base64,"}], "accessors": [{"componentType": 5126, "type": "VEC3", "bufferView": 0, "byteOffset": 0, "count": 144, "max": [0.7191179990768433, 0.3441149890422821, 0.7191179990768433], "min": [-0.7191179990768433, 0.09229619801044464, -0.7191179990768433]}, {"componentType": 5126, "type": "VEC3", "bufferView": 1, "byteOffset": 0, "count": 144, "max": [0.9750360250473022, 0.9868770241737366, 0.9750360250473022], "min": [-0.9750360250473022, -0.9994509816169739, -0.9750360250473022]}, {"componentType": 5126, "type": "VEC3", "bufferView": 2, "byteOffset": 0, "count": 144, "max": [1.0, 1.0, 1.0], "min": [1.0, 1.0, 1.0]}, {"componentType": 5123, "type": "SCALAR", "bufferView": 3, "byteOffset": 0, "count": 816, "max": [143.0], "min": [0.0]}, {"componentType": 5126, "type": "VEC3", "bufferView": 4, "byteOffset": 0, "count": 8, "max": [1.0, -0.04250510036945343, 1.0], "min": [-1.0, -0.10605400055646896, -1.0]}, {"componentType": 5126, "type": "VEC3", "bufferView": 5, "byteOffset": 0, "count": 8, "max": [0.5773490071296692, 0.5773490071296692, 0.5773490071296692], "min": [-0.5773490071296692, -0.5773490071296692, -0.5773490071296692]}, {"componentType": 5126, "type": "VEC3", "bufferView": 6, "byteOffset": 0, "count": 8, "max": [1.0, 1.0, 1.0], "min": [1.0, 1.0, 1.0]}, {"componentType": 5123, "type": "SCALAR", "bufferView": 7, "byteOffset": 0, "count": 36, "max": [7.0], "min": [0.0]}], "materials": [{"pbrMetallicRoughness": {"baseColorFactor": [0.6392156862745098, 0.6392156862745098, 0.6392156862745098, 1], "metallicFactor": 0, "roughnessFactor": 1}, "name": "ring"}, {"pbrMetallicRoughness": {"baseColorFactor": [0.6392156862745098, 0.6392156862745098, 0.6392156862745098, 1], "metallicFactor": 0, "roughnessFactor": 1}, "name": "square"}], "meshes": [{"primitives": [{"mode": 4, "attributes": {"POSITION": 0, "NORMAL": 1, "COLOR_0": 2}, "material": 0, "indices": 3}]}, {"primitives": [{"mode": 4, "attributes": {"POSITION": 4, "NORMAL": 5, "COLOR_0": 6}, "material": 1, "indices": 7}]}]}