{"asset": {"version": "2.0", "generator": "GLTFExporter"}, "scenes": [{"name": "AuxScene", "nodes": [1]}], "scene": 0, "nodes": [{"mesh": 0}, {"children": [0]}], "bufferViews": [{"buffer": 0, "byteOffset": 0, "byteLength": 4968}, {"buffer": 0, "byteOffset": 4968, "byteLength": 5700}, {"buffer": 0, "byteOffset": 10668, "byteLength": 5700}, {"buffer": 0, "byteOffset": 16368, "byteLength": 5700}, {"buffer": 0, "byteOffset": 22068, "byteLength": 3800}], "buffers": [{"byteLength": 25868, "uri": "data:application/octet-stream;base64,"}], "accessors": [{"componentType": 5123, "type": "SCALAR", "bufferView": 0, "count": 2484, "max": [474], "min": [0]}, {"componentType": 5126, "type": "VEC3", "bufferView": 1, "byteOffset": 0, "count": 475, "max": [0.9174900054931641, 4.398839950561523, 0.9174900054931641], "min": [-0.9174900054931641, 0.002542939968407154, -0.9174900054931641]}, {"componentType": 5126, "type": "VEC3", "bufferView": 2, "byteOffset": 0, "count": 475, "max": [0.999276340007782, 0.9939608573913574, 0.9992765188217163], "min": [-0.9992765188217163, -0.9990866184234619, -0.999276340007782]}, {"componentType": 5126, "type": "VEC3", "bufferView": 3, "byteOffset": 0, "count": 475, "max": [1.0, 1.0, 1.0], "min": [1.0, 1.0, 1.0]}, {"componentType": 5126, "type": "VEC2", "bufferView": 4, "byteOffset": 0, "count": 475, "max": [0.9878150224685669, 0.9909229874610901], "min": [0.023754000663757324, 0.00624299980700016]}], "materials": [{"pbrMetallicRoughness": {"baseColorFactor": [0.8, 0.8, 0.8, 1], "metallicFactor": 0, "roughnessFactor": 1}}], "meshes": [{"primitives": [{"mode": 4, "attributes": {"POSITION": 1, "NORMAL": 2, "COLOR_0": 3, "TEXCOORD_0": 4}, "material": 0, "indices": 0}]}]}