{"asset": {"version": "2.0", "generator": "GLTFExporter"}, "scenes": [{"name": "AuxScene", "nodes": [1]}], "scene": 0, "nodes": [{"extras": {"mapFilename": null}, "mesh": 0}, {"children": [0]}], "bufferViews": [{"buffer": 0, "byteOffset": 0, "byteLength": 1320}, {"buffer": 0, "byteOffset": 1320, "byteLength": 1344}, {"buffer": 0, "byteOffset": 2664, "byteLength": 1344}, {"buffer": 0, "byteOffset": 4008, "byteLength": 1344}], "buffers": [{"byteLength": 5352, "uri": "data:application/octet-stream;base64,"}], "accessors": [{"componentType": 5123, "type": "SCALAR", "bufferView": 0, "count": 660, "max": [111], "min": [0]}, {"componentType": 5126, "type": "VEC3", "bufferView": 1, "byteOffset": 0, "count": 112, "max": [0.6457309722900391, 0.4994800090789795, 0.6457309722900391], "min": [-0.6457309722900391, 0.0006338519742712379, -0.6457309722900391]}, {"componentType": 5126, "type": "VEC3", "bufferView": 2, "byteOffset": 0, "count": 112, "max": [1.0, 0.9978640079498291, 1.0], "min": [-1.0, -1.0, -1.0]}, {"componentType": 5126, "type": "VEC3", "bufferView": 3, "byteOffset": 0, "count": 112, "max": [1.0, 1.0, 1.0], "min": [1.0, 1.0, 1.0]}], "materials": [{"pbrMetallicRoughness": {"metallicFactor": 0, "roughnessFactor": 1}, "name": "default"}], "meshes": [{"primitives": [{"mode": 4, "attributes": {"POSITION": 1, "NORMAL": 2, "COLOR_0": 3}, "material": 0, "indices": 0}]}]}