{"asset": {"version": "2.0", "generator": "GLTFExporter"}, "scenes": [{"name": "AuxScene", "nodes": [2]}], "scene": 0, "nodes": [{"extras": {"mapFilename": null}, "mesh": 0}, {"extras": {"mapFilename": null}, "mesh": 1}, {"children": [0, 1]}], "bufferViews": [{"buffer": 0, "byteOffset": 0, "byteLength": 576}, {"buffer": 0, "byteOffset": 576, "byteLength": 576}, {"buffer": 0, "byteOffset": 1152, "byteLength": 576}, {"buffer": 0, "byteOffset": 1728, "byteLength": 576}, {"buffer": 0, "byteOffset": 2304, "byteLength": 1152}, {"buffer": 0, "byteOffset": 3456, "byteLength": 1152}, {"buffer": 0, "byteOffset": 4608, "byteLength": 1152}, {"buffer": 0, "byteOffset": 5760, "byteLength": 1128}], "buffers": [{"byteLength": 6888, "uri": "data:application/octet-stream;base64,"}], "accessors": [{"componentType": 5126, "type": "VEC3", "bufferView": 0, "byteOffset": 0, "count": 48, "max": [4.357399940490723, 0.2465669959783554, 4.357399940490723], "min": [-4.357399940490723, 0.1881610006093979, -4.357399940490723]}, {"componentType": 5126, "type": "VEC3", "bufferView": 1, "byteOffset": 0, "count": 48, "max": [0.7260555624961853, 0.9967243671417236, 0.8225234150886536], "min": [-0.7260398864746094, -1.0, -1.0]}, {"componentType": 5126, "type": "VEC3", "bufferView": 2, "byteOffset": 0, "count": 48, "max": [1.0, 1.0, 1.0], "min": [1.0, 1.0, 1.0]}, {"componentType": 5123, "type": "SCALAR", "bufferView": 3, "byteOffset": 0, "count": 288, "max": [47.0], "min": [0.0]}, {"componentType": 5126, "type": "VEC3", "bufferView": 4, "byteOffset": 0, "count": 96, "max": [4.912149906158447, 0.22694000601768494, 4.912149906158447], "min": [-4.912149906158447, -0.22694000601768494, -4.912149906158447]}, {"componentType": 5126, "type": "VEC3", "bufferView": 5, "byteOffset": 0, "count": 96, "max": [0.9987558722496033, 1.0, 0.9990602731704712], "min": [-0.9991179704666138, -1.0, -0.9989953637123108]}, {"componentType": 5126, "type": "VEC3", "bufferView": 6, "byteOffset": 0, "count": 96, "max": [1.0, 1.0, 1.0], "min": [1.0, 1.0, 1.0]}, {"componentType": 5123, "type": "SCALAR", "bufferView": 7, "byteOffset": 0, "count": 564, "max": [95.0], "min": [0.0]}], "materials": [{"pbrMetallicRoughness": {"baseColorFactor": [0.6392156862745098, 0.6392156862745098, 0.6392156862745098, 1], "metallicFactor": 0, "roughnessFactor": 1}, "name": "deco"}, {"pbrMetallicRoughness": {"baseColorFactor": [0.6392156862745098, 0.6392156862745098, 0.6392156862745098, 1], "metallicFactor": 0, "roughnessFactor": 1}, "name": "mainframe"}], "meshes": [{"primitives": [{"mode": 4, "attributes": {"POSITION": 0, "NORMAL": 1, "COLOR_0": 2}, "material": 0, "indices": 3}]}, {"primitives": [{"mode": 4, "attributes": {"POSITION": 4, "NORMAL": 5, "COLOR_0": 6}, "material": 1, "indices": 7}]}]}