{"asset": {"version": "2.0", "generator": "GLTFExporter"}, "scenes": [{"name": "AuxScene", "nodes": [1]}], "scene": 0, "nodes": [{"extras": {"mapFilename": "wood-texture.jpg"}, "mesh": 0}, {"children": [0]}], "bufferViews": [{"buffer": 0, "byteOffset": 0, "byteLength": 216}, {"buffer": 0, "byteOffset": 216, "byteLength": 396}, {"buffer": 0, "byteOffset": 612, "byteLength": 396}, {"buffer": 0, "byteOffset": 1008, "byteLength": 396}, {"buffer": 0, "byteOffset": 1404, "byteLength": 264}], "buffers": [{"byteLength": 1668, "uri": "data:application/octet-stream;base64,"}], "accessors": [{"componentType": 5123, "type": "SCALAR", "bufferView": 0, "count": 108, "max": [32], "min": [0]}, {"componentType": 5126, "type": "VEC3", "bufferView": 1, "byteOffset": 0, "count": 33, "max": [2.5, 0.15037399530410767, 2.5], "min": [-2.5, -0.12677599489688873, -2.5]}, {"componentType": 5126, "type": "VEC3", "bufferView": 2, "byteOffset": 0, "count": 33, "max": [0.6794340014457703, 0.8520159721374512, 0.6794340014457703], "min": [-0.6794340014457703, -0.851069986820221, -0.6794340014457703]}, {"componentType": 5126, "type": "VEC3", "bufferView": 3, "byteOffset": 0, "count": 33, "max": [1.0, 1.0, 1.0], "min": [1.0, 1.0, 1.0]}, {"componentType": 5126, "type": "VEC2", "bufferView": 4, "byteOffset": 0, "count": 33, "max": [0.9999390244483948, 0.9920139908790588], "min": [0.0034719998948276043, 0.006783000193536282]}], "materials": [{"pbrMetallicRoughness": {"baseColorFactor": [0.6392156862745098, 0.6392156862745098, 0.6392156862745098, 1], "metallicFactor": 0, "roughnessFactor": 1, "baseColorTexture": {"index": 0}}, "name": "Material"}], "meshes": [{"primitives": [{"mode": 4, "attributes": {"POSITION": 1, "NORMAL": 2, "COLOR_0": 3, "TEXCOORD_0": 4}, "material": 0, "indices": 0}]}], "images": [{"uri": "wood-texture.jpg"}], "textures": [{"source": 0}]}