{"asset": {"version": "2.0", "generator": "GLTFExporter"}, "scenes": [{"name": "AuxScene", "nodes": [1]}], "scene": 0, "nodes": [{"mesh": 0}, {"children": [0]}], "bufferViews": [{"buffer": 0, "byteOffset": 0, "byteLength": 5676}, {"buffer": 0, "byteOffset": 5676, "byteLength": 9816}, {"buffer": 0, "byteOffset": 15492, "byteLength": 9816}, {"buffer": 0, "byteOffset": 25308, "byteLength": 9816}, {"buffer": 0, "byteOffset": 35124, "byteLength": 6544}], "buffers": [{"byteLength": 41668, "uri": "data:application/octet-stream;base64,"}], "accessors": [{"componentType": 5123, "type": "SCALAR", "bufferView": 0, "count": 2838, "max": [817], "min": [0]}, {"componentType": 5126, "type": "VEC3", "bufferView": 1, "byteOffset": 0, "count": 818, "max": [0.8681409955024719, 3.091949939727783, 1.0483800172805786], "min": [-0.8681409955024719, 0.0036140000447630882, -0.8681399822235107]}, {"componentType": 5126, "type": "VEC3", "bufferView": 2, "byteOffset": 0, "count": 818, "max": [0.9970399737358093, 0.9919130206108093, 0.9985659718513489], "min": [-0.9970399737358093, -0.9997860193252563, -0.9970399737358093]}, {"componentType": 5126, "type": "VEC3", "bufferView": 3, "byteOffset": 0, "count": 818, "max": [1.0, 1.0, 1.0], "min": [1.0, 1.0, 1.0]}, {"componentType": 5126, "type": "VEC2", "bufferView": 4, "byteOffset": 0, "count": 818, "max": [1.0, 1.0], "min": [0.0, 0.0]}], "materials": [{"pbrMetallicRoughness": {"baseColorFactor": [0.8, 0.8, 0.8, 1], "metallicFactor": 0, "roughnessFactor": 1}}], "meshes": [{"primitives": [{"mode": 4, "attributes": {"POSITION": 1, "NORMAL": 2, "COLOR_0": 3, "TEXCOORD_0": 4}, "material": 0, "indices": 0}]}]}