{"scene": 0, "scenes": [{"nodes": [0]}], "asset": {"version": "2.0", "generator": "gltf-make-textures.py"}, "accessors": [{"componentType": 5123, "type": "SCALAR", "bufferView": 0, "count": 18000, "max": [4661], "min": [0]}, {"componentType": 5126, "type": "VEC3", "byteOffset": 0, "bufferView": 1, "count": 4662, "max": [0.6868939995765686, 2.799999952316284, 1.1362839937210083], "min": [-0.6884424686431885, 0.0, -0.6876106858253479]}, {"componentType": 5126, "type": "VEC2", "byteOffset": 0, "bufferView": 2, "count": 4662, "max": [0.9836678504943848, 0.9934282302856445], "min": [0.005859375, 0.005859375]}, {"componentType": 5126, "type": "VEC3", "byteOffset": 0, "bufferView": 3, "count": 4662, "max": [1.0, 0.999264121055603, 1.0], "min": [-1.0, -0.9973456859588623, -1.0]}], "meshes": [{"name": "geometry_0", "extras": {}, "primitives": [{"attributes": {"POSITION": 1, "TEXCOORD_0": 2, "NORMAL": 3}, "indices": 0, "mode": 4, "material": 0}]}], "materials": [{"pbrMetallicRoughness": {"baseColorFactor": [0.8, 0.8, 0.8, 1.0], "roughnessFactor": 1.0, "metallicFactor": 0.0}, "doubleSided": false}], "nodes": [{"name": "world", "children": [1]}, {"name": "geometry_0", "mesh": 0}], "buffers": [{"byteLength": 185184, "uri": "data:application/octet-stream;base64,"}], "bufferViews": [{"buffer": 0, "byteOffset": 0, "byteLength": 36000}, {"buffer": 0, "byteOffset": 36000, "byteLength": 55944}, {"buffer": 0, "byteOffset": 91944, "byteLength": 37296}, {"buffer": 0, "byteOffset": 129240, "byteLength": 55944}]}