{"asset": {"version": "2.0", "generator": "GLTFExporter"}, "scenes": [{"name": "AuxScene", "nodes": [1]}], "scene": 0, "nodes": [{"mesh": 0}, {"children": [0]}], "bufferViews": [{"buffer": 0, "byteOffset": 0, "byteLength": 6288}, {"buffer": 0, "byteOffset": 6288, "byteLength": 11916}, {"buffer": 0, "byteOffset": 18204, "byteLength": 11916}, {"buffer": 0, "byteOffset": 30120, "byteLength": 11916}, {"buffer": 0, "byteOffset": 42036, "byteLength": 7944}], "buffers": [{"byteLength": 49980, "uri": "data:application/octet-stream;base64,"}], "accessors": [{"componentType": 5123, "type": "SCALAR", "bufferView": 0, "count": 3144, "max": [992], "min": [0]}, {"componentType": 5126, "type": "VEC3", "bufferView": 1, "byteOffset": 0, "count": 993, "max": [0.7607349753379822, 3.081480026245117, 0.7647510170936584], "min": [-0.7616130113601685, 0.021662700921297073, -0.7567459940910339]}, {"componentType": 5126, "type": "VEC3", "bufferView": 2, "byteOffset": 0, "count": 993, "max": [0.9998781681060791, 0.9989722967147827, 0.9998515844345093], "min": [-0.9998781085014343, -1.0, -0.999178946018219]}, {"componentType": 5126, "type": "VEC3", "bufferView": 3, "byteOffset": 0, "count": 993, "max": [1.0, 1.0, 1.0], "min": [1.0, 1.0, 1.0]}, {"componentType": 5126, "type": "VEC2", "bufferView": 4, "byteOffset": 0, "count": 993, "max": [1.0, 0.9949380159378052], "min": [0.002454000059515238, 0.0]}], "materials": [{"pbrMetallicRoughness": {"baseColorFactor": [0.8, 0.8, 0.8, 1], "metallicFactor": 0, "roughnessFactor": 1}}], "meshes": [{"primitives": [{"mode": 4, "attributes": {"POSITION": 1, "NORMAL": 2, "COLOR_0": 3, "TEXCOORD_0": 4}, "material": 0, "indices": 0}]}]}