{"asset": {"version": "2.0", "generator": "GLTFExporter"}, "scenes": [{"name": "AuxScene", "nodes": [1]}], "scene": 0, "nodes": [{"mesh": 0}, {"children": [0]}], "bufferViews": [{"buffer": 0, "byteOffset": 0, "byteLength": 4584}, {"buffer": 0, "byteOffset": 4584, "byteLength": 5244}, {"buffer": 0, "byteOffset": 9828, "byteLength": 5244}, {"buffer": 0, "byteOffset": 15072, "byteLength": 5244}, {"buffer": 0, "byteOffset": 20316, "byteLength": 3496}], "buffers": [{"byteLength": 23812, "uri": "data:application/octet-stream;base64,"}], "accessors": [{"componentType": 5123, "type": "SCALAR", "bufferView": 0, "count": 2292, "max": [436], "min": [0]}, {"componentType": 5126, "type": "VEC3", "bufferView": 1, "byteOffset": 0, "count": 437, "max": [0.7501130104064941, 2.506809949874878, 0.7501130104064941], "min": [-0.7501130104064941, -0.0014483899576589465, -0.7501130104064941]}, {"componentType": 5126, "type": "VEC3", "bufferView": 2, "byteOffset": 0, "count": 437, "max": [0.9892765283584595, 0.9986743927001953, 0.9810562133789062], "min": [-0.9892761707305908, -0.9986706972122192, -0.9810567498207092]}, {"componentType": 5126, "type": "VEC3", "bufferView": 3, "byteOffset": 0, "count": 437, "max": [1.0, 1.0, 1.0], "min": [1.0, 1.0, 1.0]}, {"componentType": 5126, "type": "VEC2", "bufferView": 4, "byteOffset": 0, "count": 437, "max": [0.9916769862174988, 0.996533989906311], "min": [-0.00021300000662449747, 0.005890999920666218]}], "materials": [{"pbrMetallicRoughness": {"baseColorFactor": [0.8, 0.8, 0.8, 1], "metallicFactor": 0, "roughnessFactor": 1}}], "meshes": [{"primitives": [{"mode": 4, "attributes": {"POSITION": 1, "NORMAL": 2, "COLOR_0": 3, "TEXCOORD_0": 4}, "material": 0, "indices": 0}]}]}