{"asset": {"version": "2.0", "generator": "GLTFExporter"}, "scenes": [{"name": "AuxScene", "nodes": [1]}], "scene": 0, "nodes": [{"mesh": 0}, {"children": [0]}], "bufferViews": [{"buffer": 0, "byteOffset": 0, "byteLength": 4968}, {"buffer": 0, "byteOffset": 4968, "byteLength": 5700}, {"buffer": 0, "byteOffset": 10668, "byteLength": 5700}, {"buffer": 0, "byteOffset": 16368, "byteLength": 5700}, {"buffer": 0, "byteOffset": 22068, "byteLength": 3800}], "buffers": [{"byteLength": 25868, "uri": "data:application/octet-stream;base64,"}], "accessors": [{"componentType": 5123, "type": "SCALAR", "bufferView": 0, "count": 2484, "max": [474], "min": [0]}, {"componentType": 5126, "type": "VEC3", "bufferView": 1, "byteOffset": 0, "count": 475, "max": [0.5888440012931824, 2.2801899909973145, 0.5888440012931824], "min": [-0.5888440012931824, -0.006138649769127369, -0.5888440012931824]}, {"componentType": 5126, "type": "VEC3", "bufferView": 2, "byteOffset": 0, "count": 475, "max": [0.9977614283561707, 0.9396787285804749, 0.9977617263793945], "min": [-0.9977617263793945, -0.9905286431312561, -0.9977614283561707]}, {"componentType": 5126, "type": "VEC3", "bufferView": 3, "byteOffset": 0, "count": 475, "max": [1.0, 1.0, 1.0], "min": [1.0, 1.0, 1.0]}, {"componentType": 5126, "type": "VEC2", "bufferView": 4, "byteOffset": 0, "count": 475, "max": [0.9867240190505981, 0.9919530153274536], "min": [0.013129999861121178, 0.010797999799251556]}], "materials": [{"pbrMetallicRoughness": {"baseColorFactor": [0.8, 0.8, 0.8, 1], "metallicFactor": 0, "roughnessFactor": 1}}], "meshes": [{"primitives": [{"mode": 4, "attributes": {"POSITION": 1, "NORMAL": 2, "COLOR_0": 3, "TEXCOORD_0": 4}, "material": 0, "indices": 0}]}]}