{"asset": {"version": "2.0", "generator": "GLTFExporter"}, "scenes": [{"name": "AuxScene", "nodes": [1]}], "scene": 0, "nodes": [{"mesh": 0}, {"children": [0]}], "bufferViews": [{"buffer": 0, "byteOffset": 0, "byteLength": 2088}, {"buffer": 0, "byteOffset": 2088, "byteLength": 2640}, {"buffer": 0, "byteOffset": 4728, "byteLength": 2640}, {"buffer": 0, "byteOffset": 7368, "byteLength": 2640}, {"buffer": 0, "byteOffset": 10008, "byteLength": 1760}], "buffers": [{"byteLength": 11768, "uri": "data:application/octet-stream;base64,"}], "accessors": [{"componentType": 5123, "type": "SCALAR", "bufferView": 0, "count": 1044, "max": [219], "min": [0]}, {"componentType": 5126, "type": "VEC3", "bufferView": 1, "byteOffset": 0, "count": 220, "max": [0.3971959948539734, 0.9385190010070801, 0.3971959948539734], "min": [-0.3971959948539734, 0.0018609799444675446, -0.3971959948539734]}, {"componentType": 5126, "type": "VEC3", "bufferView": 2, "byteOffset": 0, "count": 220, "max": [0.9997249841690063, 0.9695730209350586, 0.9997249841690063], "min": [-0.9997249841690063, -0.6501359939575195, -0.9997249841690063]}, {"componentType": 5126, "type": "VEC3", "bufferView": 3, "byteOffset": 0, "count": 220, "max": [1.0, 1.0, 1.0], "min": [1.0, 1.0, 1.0]}, {"componentType": 5126, "type": "VEC2", "bufferView": 4, "byteOffset": 0, "count": 220, "max": [0.9732409715652466, 0.8161410093307495], "min": [0.02269900031387806, 0.07289399951696396]}], "materials": [{"pbrMetallicRoughness": {"baseColorFactor": [0.8, 0.8, 0.8, 1], "metallicFactor": 0, "roughnessFactor": 1}}], "meshes": [{"primitives": [{"mode": 4, "attributes": {"POSITION": 1, "NORMAL": 2, "COLOR_0": 3, "TEXCOORD_0": 4}, "material": 0, "indices": 0}]}]}