{"asset": {"version": "2.0", "generator": "GLTFExporter"}, "scenes": [{"name": "AuxScene", "nodes": [1]}], "scene": 0, "nodes": [{"mesh": 0}, {"children": [0]}], "bufferViews": [{"buffer": 0, "byteOffset": 0, "byteLength": 8136}, {"buffer": 0, "byteOffset": 8136, "byteLength": 12972}, {"buffer": 0, "byteOffset": 21108, "byteLength": 12972}, {"buffer": 0, "byteOffset": 34080, "byteLength": 12972}, {"buffer": 0, "byteOffset": 47052, "byteLength": 8648}], "buffers": [{"byteLength": 55700, "uri": "data:application/octet-stream;base64,"}], "accessors": [{"componentType": 5123, "type": "SCALAR", "bufferView": 0, "count": 4068, "max": [1080], "min": [0]}, {"componentType": 5126, "type": "VEC3", "bufferView": 1, "byteOffset": 0, "count": 1081, "max": [0.7698119878768921, 3.6923699378967285, 0.840258002281189], "min": [-0.7698119878768921, -0.0029279999434947968, -0.7698119878768921]}, {"componentType": 5126, "type": "VEC3", "bufferView": 2, "byteOffset": 0, "count": 1081, "max": [0.9999690055847168, 0.9911800026893616, 1.0], "min": [-0.9999690055847168, -0.9911800026893616, -1.0]}, {"componentType": 5126, "type": "VEC3", "bufferView": 3, "byteOffset": 0, "count": 1081, "max": [1.0, 1.0, 1.0], "min": [1.0, 1.0, 1.0]}, {"componentType": 5126, "type": "VEC2", "bufferView": 4, "byteOffset": 0, "count": 1081, "max": [0.9960209727287292, 0.9907349944114685], "min": [0.0027389999013394117, 0.014856000430881977]}], "materials": [{"pbrMetallicRoughness": {"baseColorFactor": [0.8, 0.8, 0.8, 1], "metallicFactor": 0, "roughnessFactor": 1}}], "meshes": [{"primitives": [{"mode": 4, "attributes": {"POSITION": 1, "NORMAL": 2, "COLOR_0": 3, "TEXCOORD_0": 4}, "material": 0, "indices": 0}]}]}