{"asset": {"version": "2.0", "generator": "GLTFExporter"}, "scenes": [{"name": "AuxScene", "nodes": [1]}], "scene": 0, "nodes": [{"mesh": 0}, {"children": [0]}], "bufferViews": [{"buffer": 0, "byteOffset": 0, "byteLength": 2880}, {"buffer": 0, "byteOffset": 2880, "byteLength": 3864}, {"buffer": 0, "byteOffset": 6744, "byteLength": 3864}, {"buffer": 0, "byteOffset": 10608, "byteLength": 3864}, {"buffer": 0, "byteOffset": 14472, "byteLength": 2576}], "buffers": [{"byteLength": 17048, "uri": "data:application/octet-stream;base64,"}], "accessors": [{"componentType": 5123, "type": "SCALAR", "bufferView": 0, "count": 1440, "max": [321], "min": [0]}, {"componentType": 5126, "type": "VEC3", "bufferView": 1, "byteOffset": 0, "count": 322, "max": [0.5847160220146179, 1.2160099744796753, 0.5847160220146179], "min": [-0.5847160220146179, 0.0037147500552237034, -0.5847160220146179]}, {"componentType": 5126, "type": "VEC3", "bufferView": 2, "byteOffset": 0, "count": 322, "max": [1.0, 0.9920349717140198, 0.9999690055847168], "min": [-1.0, -0.6856899857521057, -1.0]}, {"componentType": 5126, "type": "VEC3", "bufferView": 3, "byteOffset": 0, "count": 322, "max": [1.0, 1.0, 1.0], "min": [1.0, 1.0, 1.0]}, {"componentType": 5126, "type": "VEC2", "bufferView": 4, "byteOffset": 0, "count": 322, "max": [0.9826850295066833, 0.9779580235481262], "min": [0.011064999736845493, 0.01081900019198656]}], "materials": [{"pbrMetallicRoughness": {"baseColorFactor": [0.8, 0.8, 0.8, 1], "metallicFactor": 0, "roughnessFactor": 1}}], "meshes": [{"primitives": [{"mode": 4, "attributes": {"POSITION": 1, "NORMAL": 2, "COLOR_0": 3, "TEXCOORD_0": 4}, "material": 0, "indices": 0}]}]}