{"asset": {"version": "2.0", "generator": "GLTFExporter"}, "scenes": [{"name": "AuxScene", "nodes": [1]}], "scene": 0, "nodes": [{"mesh": 0}, {"children": [0]}], "bufferViews": [{"buffer": 0, "byteOffset": 0, "byteLength": 4968}, {"buffer": 0, "byteOffset": 4968, "byteLength": 5700}, {"buffer": 0, "byteOffset": 10668, "byteLength": 5700}, {"buffer": 0, "byteOffset": 16368, "byteLength": 5700}, {"buffer": 0, "byteOffset": 22068, "byteLength": 3800}], "buffers": [{"byteLength": 25868, "uri": "data:application/octet-stream;base64,"}], "accessors": [{"componentType": 5123, "type": "SCALAR", "bufferView": 0, "count": 2484, "max": [474], "min": [0]}, {"componentType": 5126, "type": "VEC3", "bufferView": 1, "byteOffset": 0, "count": 475, "max": [0.8301529884338379, 3.7649500370025635, 0.8301529884338379], "min": [-0.8301529884338379, 0.014221499674022198, -0.8301529884338379]}, {"componentType": 5126, "type": "VEC3", "bufferView": 2, "byteOffset": 0, "count": 475, "max": [0.9970694780349731, 0.9631358981132507, 0.9970695376396179], "min": [-0.9970695376396179, -0.9789415597915649, -0.9970695376396179]}, {"componentType": 5126, "type": "VEC3", "bufferView": 3, "byteOffset": 0, "count": 475, "max": [1.0, 1.0, 1.0], "min": [1.0, 1.0, 1.0]}, {"componentType": 5126, "type": "VEC2", "bufferView": 4, "byteOffset": 0, "count": 475, "max": [0.9905310273170471, 0.991802990436554], "min": [0.025232000276446342, 0.008444000035524368]}], "materials": [{"pbrMetallicRoughness": {"baseColorFactor": [0.8, 0.8, 0.8, 1], "metallicFactor": 0, "roughnessFactor": 1}}], "meshes": [{"primitives": [{"mode": 4, "attributes": {"POSITION": 1, "NORMAL": 2, "COLOR_0": 3, "TEXCOORD_0": 4}, "material": 0, "indices": 0}]}]}