{"asset": {"version": "2.0", "generator": "GLTFExporter"}, "scenes": [{"name": "AuxScene", "nodes": [1]}], "scene": 0, "nodes": [{"mesh": 0}, {"children": [0]}], "bufferViews": [{"buffer": 0, "byteOffset": 0, "byteLength": 2664}, {"buffer": 0, "byteOffset": 2664, "byteLength": 3276}, {"buffer": 0, "byteOffset": 5940, "byteLength": 3276}, {"buffer": 0, "byteOffset": 9216, "byteLength": 3276}, {"buffer": 0, "byteOffset": 12492, "byteLength": 2184}], "buffers": [{"byteLength": 14676, "uri": "data:application/octet-stream;base64,"}], "accessors": [{"componentType": 5123, "type": "SCALAR", "bufferView": 0, "count": 1332, "max": [272], "min": [0]}, {"componentType": 5126, "type": "VEC3", "bufferView": 1, "byteOffset": 0, "count": 273, "max": [0.9370869994163513, 2.6345698833465576, 0.9370869994163513], "min": [-0.9370869994163513, 0.0030287099070847034, -0.9370869994163513]}, {"componentType": 5126, "type": "VEC3", "bufferView": 2, "byteOffset": 0, "count": 273, "max": [0.9996675252914429, 0.9944223165512085, 0.9996675252914429], "min": [-0.9996675252914429, -0.9956604242324829, -0.9996675252914429]}, {"componentType": 5126, "type": "VEC3", "bufferView": 3, "byteOffset": 0, "count": 273, "max": [1.0, 1.0, 1.0], "min": [1.0, 1.0, 1.0]}, {"componentType": 5126, "type": "VEC2", "bufferView": 4, "byteOffset": 0, "count": 273, "max": [0.9334959983825684, 0.9820399880409241], "min": [0.028591999784111977, 0.012690999545156956]}], "materials": [{"pbrMetallicRoughness": {"baseColorFactor": [0.8, 0.8, 0.8, 1], "metallicFactor": 0, "roughnessFactor": 1}}], "meshes": [{"primitives": [{"mode": 4, "attributes": {"POSITION": 1, "NORMAL": 2, "COLOR_0": 3, "TEXCOORD_0": 4}, "material": 0, "indices": 0}]}]}