{"asset": {"version": "2.0", "generator": "GLTFExporter"}, "scenes": [{"name": "AuxScene", "nodes": [3]}], "scene": 0, "nodes": [{"extras": {"mapFilename": "woodcell1x512.jpg"}, "mesh": 0}, {"extras": {"mapFilename": null}, "mesh": 1}, {"extras": {"mapFilename": "woodcell1x512.jpg"}, "mesh": 2}, {"children": [0, 1, 2]}], "bufferViews": [{"buffer": 0, "byteOffset": 0, "byteLength": 7848}, {"buffer": 0, "byteOffset": 7848, "byteLength": 7848}, {"buffer": 0, "byteOffset": 15696, "byteLength": 7848}, {"buffer": 0, "byteOffset": 23544, "byteLength": 5232}, {"buffer": 0, "byteOffset": 28776, "byteLength": 3756}, {"buffer": 0, "byteOffset": 32532, "byteLength": 1152}, {"buffer": 0, "byteOffset": 33684, "byteLength": 1152}, {"buffer": 0, "byteOffset": 34836, "byteLength": 1152}, {"buffer": 0, "byteOffset": 35988, "byteLength": 768}, {"buffer": 0, "byteOffset": 36756, "byteLength": 384}, {"buffer": 0, "byteOffset": 37140, "byteLength": 14808}, {"buffer": 0, "byteOffset": 51948, "byteLength": 14808}, {"buffer": 0, "byteOffset": 66756, "byteLength": 14808}, {"buffer": 0, "byteOffset": 81564, "byteLength": 9872}, {"buffer": 0, "byteOffset": 91436, "byteLength": 3708}], "buffers": [{"byteLength": 95144, "uri": "data:application/octet-stream;base64,"}], "accessors": [{"componentType": 5126, "type": "VEC3", "bufferView": 0, "byteOffset": 0, "count": 654, "max": [5.668300151824951, 0.27583301067352295, 5.668300151824951], "min": [-5.668300151824951, -0.27583301067352295, -5.668300151824951]}, {"componentType": 5126, "type": "VEC3", "bufferView": 1, "byteOffset": 0, "count": 654, "max": [0.6835839748382568, 0.9996640086174011, 0.6910309791564941], "min": [-0.6910309791564941, -0.7298499941825867, -0.6910309791564941]}, {"componentType": 5126, "type": "VEC3", "bufferView": 2, "byteOffset": 0, "count": 654, "max": [1.0, 1.0, 1.0], "min": [1.0, 1.0, 1.0]}, {"componentType": 5126, "type": "VEC2", "bufferView": 3, "byteOffset": 0, "count": 654, "max": [1.0, 0.9998999834060669], "min": [0.0, 9.999999747378752e-05]}, {"componentType": 5123, "type": "SCALAR", "bufferView": 4, "byteOffset": 0, "count": 1878, "max": [653.0], "min": [0.0]}, {"componentType": 5126, "type": "VEC3", "bufferView": 5, "byteOffset": 0, "count": 96, "max": [4.0654401779174805, 0.27583301067352295, 4.0654401779174805], "min": [-4.0654401779174805, 0.25018998980522156, -4.0654401779174805]}, {"componentType": 5126, "type": "VEC3", "bufferView": 6, "byteOffset": 0, "count": 96, "max": [0.6910309791564941, 0.7206640243530273, 0.6910309791564941], "min": [-0.6910309791564941, 0.4517039954662323, -0.6910309791564941]}, {"componentType": 5126, "type": "VEC3", "bufferView": 7, "byteOffset": 0, "count": 96, "max": [1.0, 1.0, 1.0], "min": [1.0, 1.0, 1.0]}, {"componentType": 5126, "type": "VEC2", "bufferView": 8, "byteOffset": 0, "count": 96, "max": [0.8363590240478516, 0.8455380201339722], "min": [0.1527629941701889, 0.15844100713729858]}, {"componentType": 5123, "type": "SCALAR", "bufferView": 9, "byteOffset": 0, "count": 192, "max": [95.0], "min": [0.0]}, {"componentType": 5126, "type": "VEC3", "bufferView": 10, "byteOffset": 0, "count": 1234, "max": [4.210509777069092, 0.27583301067352295, 4.210509777069092], "min": [-4.210509777069092, -0.27583301067352295, -4.210509777069092]}, {"componentType": 5126, "type": "VEC3", "bufferView": 11, "byteOffset": 0, "count": 1234, "max": [0.6910309791564941, 0.7298499941825867, 0.6910309791564941], "min": [-0.6910309791564941, -0.7298499941825867, -0.6910309791564941]}, {"componentType": 5126, "type": "VEC3", "bufferView": 12, "byteOffset": 0, "count": 1234, "max": [1.0, 1.0, 1.0], "min": [1.0, 1.0, 1.0]}, {"componentType": 5126, "type": "VEC2", "bufferView": 13, "byteOffset": 0, "count": 1234, "max": [1.0, 1.0], "min": [0.0, 0.0]}, {"componentType": 5123, "type": "SCALAR", "bufferView": 14, "byteOffset": 0, "count": 1854, "max": [1233.0], "min": [0.0]}], "materials": [{"pbrMetallicRoughness": {"baseColorFactor": [0.6392156862745098, 0.6392156862745098, 0.6392156862745098, 1], "metallicFactor": 0, "roughnessFactor": 1, "baseColorTexture": {"index": 0}}, "name": "mainframe"}, {"pbrMetallicRoughness": {"baseColorFactor": [0.8, 0.7843137254901961, 0.796078431372549, 1], "metallicFactor": 0, "roughnessFactor": 1}, "name": "mat.bevel"}], "meshes": [{"primitives": [{"mode": 4, "attributes": {"POSITION": 0, "NORMAL": 1, "COLOR_0": 2, "TEXCOORD_0": 3}, "material": 0, "indices": 4}]}, {"primitives": [{"mode": 4, "attributes": {"POSITION": 5, "NORMAL": 6, "COLOR_0": 7, "TEXCOORD_0": 8}, "material": 1, "indices": 9}]}, {"primitives": [{"mode": 4, "attributes": {"POSITION": 10, "NORMAL": 11, "COLOR_0": 12, "TEXCOORD_0": 13}, "material": 0, "indices": 14}]}], "images": [{"uri": "woodcell1x512.jpg"}], "textures": [{"source": 0}]}