{"asset": {"version": "2.0", "generator": "GLTFExporter"}, "scenes": [{"name": "AuxScene", "nodes": [1]}], "scene": 0, "nodes": [{"extras": {"mapFilename": null}, "mesh": 0}, {"children": [0]}], "bufferViews": [{"buffer": 0, "byteOffset": 0, "byteLength": 1128}, {"buffer": 0, "byteOffset": 1128, "byteLength": 1152}, {"buffer": 0, "byteOffset": 2280, "byteLength": 1152}, {"buffer": 0, "byteOffset": 3432, "byteLength": 1152}], "buffers": [{"byteLength": 4584, "uri": "data:application/octet-stream;base64,"}], "accessors": [{"componentType": 5123, "type": "SCALAR", "bufferView": 0, "count": 564, "max": [95], "min": [0]}, {"componentType": 5126, "type": "VEC3", "bufferView": 1, "byteOffset": 0, "count": 96, "max": [0.20643000304698944, 0.26637300848960876, 0.20643000304698944], "min": [-0.20643000304698944, -0.014136300422251225, -0.20643000304698944]}, {"componentType": 5126, "type": "VEC3", "bufferView": 2, "byteOffset": 0, "count": 96, "max": [1.0, 0.9317299723625183, 1.0], "min": [-1.0, -0.6657000184059143, -1.0]}, {"componentType": 5126, "type": "VEC3", "bufferView": 3, "byteOffset": 0, "count": 96, "max": [1.0, 1.0, 1.0], "min": [1.0, 1.0, 1.0]}], "materials": [{"pbrMetallicRoughness": {"baseColorFactor": [0, 0, 0, 1], "metallicFactor": 0, "roughnessFactor": 1}, "name": "mat.slot"}], "meshes": [{"primitives": [{"mode": 4, "attributes": {"POSITION": 1, "NORMAL": 2, "COLOR_0": 3}, "material": 0, "indices": 0}]}]}