{"asset": {"version": "2.0", "generator": "GLTFExporter"}, "scenes": [{"name": "AuxScene", "nodes": [1]}], "scene": 0, "nodes": [{"extras": {"mapFilename": "woodcell1x512.jpg"}, "mesh": 0}, {"children": [0]}], "bufferViews": [{"buffer": 0, "byteOffset": 0, "byteLength": 624}, {"buffer": 0, "byteOffset": 624, "byteLength": 1320}, {"buffer": 0, "byteOffset": 1944, "byteLength": 1320}, {"buffer": 0, "byteOffset": 3264, "byteLength": 1320}, {"buffer": 0, "byteOffset": 4584, "byteLength": 880}], "buffers": [{"byteLength": 5464, "uri": "data:application/octet-stream;base64,"}], "accessors": [{"componentType": 5123, "type": "SCALAR", "bufferView": 0, "count": 312, "max": [109], "min": [0]}, {"componentType": 5126, "type": "VEC3", "bufferView": 1, "byteOffset": 0, "count": 110, "max": [1.8511500358581543, 0.2800000011920929, -0.14885100722312927], "min": [0.0, -8.662709660711698e-08, -2.0]}, {"componentType": 5126, "type": "VEC3", "bufferView": 2, "byteOffset": 0, "count": 110, "max": [0.9646599888801575, 0.7298200130462646, 0.9605090022087097], "min": [-0.757224977016449, -0.7298200130462646, -0.757224977016449]}, {"componentType": 5126, "type": "VEC3", "bufferView": 3, "byteOffset": 0, "count": 110, "max": [1.0, 1.0, 1.0], "min": [1.0, 1.0, 1.0]}, {"componentType": 5126, "type": "VEC2", "bufferView": 4, "byteOffset": 0, "count": 110, "max": [0.9552689790725708, 0.8476570248603821], "min": [0.0, 0.0]}], "materials": [{"pbrMetallicRoughness": {"baseColorFactor": [0.6392156862745098, 0.6392156862745098, 0.6392156862745098, 1], "metallicFactor": 0, "roughnessFactor": 1, "baseColorTexture": {"index": 0}}, "name": "mainframe"}], "meshes": [{"primitives": [{"mode": 4, "attributes": {"POSITION": 1, "NORMAL": 2, "COLOR_0": 3, "TEXCOORD_0": 4}, "material": 0, "indices": 0}]}], "images": [{"uri": "woodcell1x512.jpg"}], "textures": [{"source": 0}]}