{"asset": {"version": "2.0", "generator": "GLTFExporter"}, "scenes": [{"name": "AuxScene", "nodes": [4]}], "scene": 0, "nodes": [{"extras": {"mapFilename": null}, "mesh": 0}, {"extras": {"mapFilename": null}, "mesh": 1}, {"extras": {"mapFilename": null}, "mesh": 2}, {"extras": {"mapFilename": null}, "mesh": 3}, {"children": [0, 1, 2, 3]}], "bufferViews": [{"buffer": 0, "byteOffset": 0, "byteLength": 96}, {"buffer": 0, "byteOffset": 96, "byteLength": 96}, {"buffer": 0, "byteOffset": 192, "byteLength": 96}, {"buffer": 0, "byteOffset": 288, "byteLength": 64}, {"buffer": 0, "byteOffset": 352, "byteLength": 72}, {"buffer": 0, "byteOffset": 424, "byteLength": 96}, {"buffer": 0, "byteOffset": 520, "byteLength": 96}, {"buffer": 0, "byteOffset": 616, "byteLength": 96}, {"buffer": 0, "byteOffset": 712, "byteLength": 64}, {"buffer": 0, "byteOffset": 776, "byteLength": 72}, {"buffer": 0, "byteOffset": 848, "byteLength": 48}, {"buffer": 0, "byteOffset": 896, "byteLength": 48}, {"buffer": 0, "byteOffset": 944, "byteLength": 48}, {"buffer": 0, "byteOffset": 992, "byteLength": 32}, {"buffer": 0, "byteOffset": 1024, "byteLength": 12}, {"buffer": 0, "byteOffset": 1036, "byteLength": 240}, {"buffer": 0, "byteOffset": 1276, "byteLength": 240}, {"buffer": 0, "byteOffset": 1516, "byteLength": 240}, {"buffer": 0, "byteOffset": 1756, "byteLength": 160}, {"buffer": 0, "byteOffset": 1916, "byteLength": 204}], "buffers": [{"byteLength": 2120, "uri": "data:application/octet-stream;base64,"}], "accessors": [{"componentType": 5126, "type": "VEC3", "bufferView": 0, "byteOffset": 0, "count": 8, "max": [-2.8189499378204346, 2.016249895095825, 0.0795975998044014], "min": [-3.68245005607605, -2.012120008468628, 0.05245169997215271]}, {"componentType": 5126, "type": "VEC3", "bufferView": 1, "byteOffset": 0, "count": 8, "max": [0.5773490071296692, 0.5773490071296692, 0.5773490071296692], "min": [-0.5773490071296692, -0.5773490071296692, -0.5773490071296692]}, {"componentType": 5126, "type": "VEC3", "bufferView": 2, "byteOffset": 0, "count": 8, "max": [1.0, 1.0, 1.0], "min": [1.0, 1.0, 1.0]}, {"componentType": 5126, "type": "VEC2", "bufferView": 3, "byteOffset": 0, "count": 8, "max": [0.0, 0.0], "min": [0.0, 0.0]}, {"componentType": 5123, "type": "SCALAR", "bufferView": 4, "byteOffset": 0, "count": 36, "max": [7.0], "min": [0.0]}, {"componentType": 5126, "type": "VEC3", "bufferView": 5, "byteOffset": 0, "count": 8, "max": [3.6738998889923096, 2.016249895095825, 0.0795975998044014], "min": [2.810389995574951, -2.012120008468628, 0.05245169997215271]}, {"componentType": 5126, "type": "VEC3", "bufferView": 6, "byteOffset": 0, "count": 8, "max": [0.5773490071296692, 0.5773490071296692, 0.5773490071296692], "min": [-0.5773490071296692, -0.5773490071296692, -0.5773490071296692]}, {"componentType": 5126, "type": "VEC3", "bufferView": 7, "byteOffset": 0, "count": 8, "max": [1.0, 1.0, 1.0], "min": [1.0, 1.0, 1.0]}, {"componentType": 5126, "type": "VEC2", "bufferView": 8, "byteOffset": 0, "count": 8, "max": [0.0, 0.0], "min": [0.0, 0.0]}, {"componentType": 5123, "type": "SCALAR", "bufferView": 9, "byteOffset": 0, "count": 36, "max": [7.0], "min": [0.0]}, {"componentType": 5126, "type": "VEC3", "bufferView": 10, "byteOffset": 0, "count": 4, "max": [2.640000104904175, 1.9800000190734863, 2.360339976803516e-07], "min": [-2.640000104904175, -1.9800000190734863, -2.360339976803516e-07]}, {"componentType": 5126, "type": "VEC3", "bufferView": 11, "byteOffset": 0, "count": 4, "max": [0.0, 0.0, 1.0], "min": [0.0, 0.0, 1.0]}, {"componentType": 5126, "type": "VEC3", "bufferView": 12, "byteOffset": 0, "count": 4, "max": [1.0, 1.0, 1.0], "min": [1.0, 1.0, 1.0]}, {"componentType": 5126, "type": "VEC2", "bufferView": 13, "byteOffset": 0, "count": 4, "max": [1.0, 1.0], "min": [0.0, 0.0]}, {"componentType": 5123, "type": "SCALAR", "bufferView": 14, "byteOffset": 0, "count": 6, "max": [3.0], "min": [0.0]}, {"componentType": 5126, "type": "VEC3", "bufferView": 15, "byteOffset": 0, "count": 20, "max": [3.8262500762939453, 2.1355700492858887, 0.059964198619127274], "min": [-3.8262500762939453, -2.1355700492858887, -0.28924500942230225]}, {"componentType": 5126, "type": "VEC3", "bufferView": 16, "byteOffset": 0, "count": 20, "max": [0.707082986831665, 0.707082986831665, 0.9045079946517944], "min": [-0.707082986831665, -0.707082986831665, 0.0]}, {"componentType": 5126, "type": "VEC3", "bufferView": 17, "byteOffset": 0, "count": 20, "max": [1.0, 1.0, 1.0], "min": [1.0, 1.0, 1.0]}, {"componentType": 5126, "type": "VEC2", "bufferView": 18, "byteOffset": 0, "count": 20, "max": [0.0, 0.0], "min": [0.0, 0.0]}, {"componentType": 5123, "type": "SCALAR", "bufferView": 19, "byteOffset": 0, "count": 102, "max": [19.0], "min": [0.0]}], "materials": [{"pbrMetallicRoughness": {"baseColorFactor": [0, 0, 0, 0.2], "metallicFactor": 0, "roughnessFactor": 1}, "alphaMode": "BLEND", "name": "boomer"}, {"pbrMetallicRoughness": {"baseColorFactor": [0, 0, 0, 0.2], "metallicFactor": 0, "roughnessFactor": 1}, "alphaMode": "BLEND", "name": "boomer"}, {"pbrMetallicRoughness": {"baseColorFactor": [0.6392156862745098, 0.6392156862745098, 0.6392156862745098, 1], "metallicFactor": 0, "roughnessFactor": 1}, "name": "screen"}, {"pbrMetallicRoughness": {"baseColorFactor": [0.596078431372549, 0.596078431372549, 0.596078431372549, 1], "metallicFactor": 0, "roughnessFactor": 1}, "name": "tv"}], "meshes": [{"primitives": [{"mode": 4, "attributes": {"POSITION": 0, "NORMAL": 1, "COLOR_0": 2, "TEXCOORD_0": 3}, "material": 0, "indices": 4}]}, {"primitives": [{"mode": 4, "attributes": {"POSITION": 5, "NORMAL": 6, "COLOR_0": 7, "TEXCOORD_0": 8}, "material": 1, "indices": 9}]}, {"primitives": [{"mode": 4, "attributes": {"POSITION": 10, "NORMAL": 11, "COLOR_0": 12, "TEXCOORD_0": 13}, "material": 2, "indices": 14}]}, {"primitives": [{"mode": 4, "attributes": {"POSITION": 15, "NORMAL": 16, "COLOR_0": 17, "TEXCOORD_0": 18}, "material": 3, "indices": 19}]}]}