{"asset": {"version": "2.0", "generator": "GLTFExporter"}, "scenes": [{"name": "AuxScene", "nodes": [4]}], "scene": 0, "nodes": [{"extras": {"mapFilename": null}, "mesh": 0}, {"extras": {"mapFilename": null}, "mesh": 1}, {"extras": {"mapFilename": null}, "mesh": 2}, {"extras": {"mapFilename": null}, "mesh": 3}, {"children": [0, 1, 2, 3]}], "bufferViews": [{"buffer": 0, "byteOffset": 0, "byteLength": 504}, {"buffer": 0, "byteOffset": 504, "byteLength": 504}, {"buffer": 0, "byteOffset": 1008, "byteLength": 504}, {"buffer": 0, "byteOffset": 1512, "byteLength": 432}, {"buffer": 0, "byteOffset": 1944, "byteLength": 504}, {"buffer": 0, "byteOffset": 2448, "byteLength": 504}, {"buffer": 0, "byteOffset": 2952, "byteLength": 504}, {"buffer": 0, "byteOffset": 3456, "byteLength": 432}, {"buffer": 0, "byteOffset": 3888, "byteLength": 576}, {"buffer": 0, "byteOffset": 4464, "byteLength": 576}, {"buffer": 0, "byteOffset": 5040, "byteLength": 576}, {"buffer": 0, "byteOffset": 5616, "byteLength": 576}, {"buffer": 0, "byteOffset": 6192, "byteLength": 1152}, {"buffer": 0, "byteOffset": 7344, "byteLength": 1152}, {"buffer": 0, "byteOffset": 8496, "byteLength": 1152}, {"buffer": 0, "byteOffset": 9648, "byteLength": 1128}], "buffers": [{"byteLength": 10776, "uri": "data:application/octet-stream;base64,"}], "accessors": [{"componentType": 5126, "type": "VEC3", "bufferView": 0, "byteOffset": 0, "count": 42, "max": [0.2909489870071411, 0.09804289788007736, 4.985310077667236], "min": [-0.28893300890922546, -0.09766720235347748, 4.853919982910156]}, {"componentType": 5126, "type": "VEC3", "bufferView": 1, "byteOffset": 0, "count": 42, "max": [1.0, 1.0, 1.0], "min": [-1.0, -1.0, -1.0]}, {"componentType": 5126, "type": "VEC3", "bufferView": 2, "byteOffset": 0, "count": 42, "max": [1.0, 1.0, 1.0], "min": [1.0, 1.0, 1.0]}, {"componentType": 5123, "type": "SCALAR", "bufferView": 3, "byteOffset": 0, "count": 216, "max": [41.0], "min": [0.0]}, {"componentType": 5126, "type": "VEC3", "bufferView": 4, "byteOffset": 0, "count": 42, "max": [0.2909489870071411, 0.09804250299930573, -4.856170177459717], "min": [-0.28893300890922546, -0.09766770154237747, -4.987559795379639]}, {"componentType": 5126, "type": "VEC3", "bufferView": 5, "byteOffset": 0, "count": 42, "max": [1.0, 1.0, 1.0], "min": [-1.0, -1.0, -1.0]}, {"componentType": 5126, "type": "VEC3", "bufferView": 6, "byteOffset": 0, "count": 42, "max": [1.0, 1.0, 1.0], "min": [1.0, 1.0, 1.0]}, {"componentType": 5123, "type": "SCALAR", "bufferView": 7, "byteOffset": 0, "count": 216, "max": [41.0], "min": [0.0]}, {"componentType": 5126, "type": "VEC3", "bufferView": 8, "byteOffset": 0, "count": 48, "max": [4.357399940490723, 0.2465669959783554, 4.357399940490723], "min": [-4.357399940490723, 0.1881610006093979, -4.357399940490723]}, {"componentType": 5126, "type": "VEC3", "bufferView": 9, "byteOffset": 0, "count": 48, "max": [1.0, 1.0, 1.0], "min": [-1.0, -1.0, -1.0]}, {"componentType": 5126, "type": "VEC3", "bufferView": 10, "byteOffset": 0, "count": 48, "max": [1.0, 1.0, 1.0], "min": [1.0, 1.0, 1.0]}, {"componentType": 5123, "type": "SCALAR", "bufferView": 11, "byteOffset": 0, "count": 288, "max": [47.0], "min": [0.0]}, {"componentType": 5126, "type": "VEC3", "bufferView": 12, "byteOffset": 0, "count": 96, "max": [4.912149906158447, 0.22694000601768494, 4.912149906158447], "min": [-4.912149906158447, -0.22694000601768494, -4.912149906158447]}, {"componentType": 5126, "type": "VEC3", "bufferView": 13, "byteOffset": 0, "count": 96, "max": [0.707082986831665, 1.0, 0.707082986831665], "min": [-0.707082986831665, -1.0, -0.707082986831665]}, {"componentType": 5126, "type": "VEC3", "bufferView": 14, "byteOffset": 0, "count": 96, "max": [1.0, 1.0, 1.0], "min": [1.0, 1.0, 1.0]}, {"componentType": 5123, "type": "SCALAR", "bufferView": 15, "byteOffset": 0, "count": 564, "max": [95.0], "min": [0.0]}], "materials": [{"pbrMetallicRoughness": {"baseColorFactor": [0.6392156862745098, 0.6392156862745098, 0.6392156862745098, 1], "metallicFactor": 0, "roughnessFactor": 1}, "name": "playera"}, {"pbrMetallicRoughness": {"baseColorFactor": [0.6392156862745098, 0.6392156862745098, 0.6392156862745098, 1], "metallicFactor": 0, "roughnessFactor": 1}, "name": "playerb"}, {"pbrMetallicRoughness": {"baseColorFactor": [0.6392156862745098, 0.6392156862745098, 0.6392156862745098, 1], "metallicFactor": 0, "roughnessFactor": 1}, "name": "deco"}, {"pbrMetallicRoughness": {"baseColorFactor": [0.6392156862745098, 0.6392156862745098, 0.6392156862745098, 1], "metallicFactor": 0, "roughnessFactor": 1}, "name": "mainframe"}], "meshes": [{"primitives": [{"mode": 4, "attributes": {"POSITION": 0, "NORMAL": 1, "COLOR_0": 2}, "material": 0, "indices": 3}]}, {"primitives": [{"mode": 4, "attributes": {"POSITION": 4, "NORMAL": 5, "COLOR_0": 6}, "material": 1, "indices": 7}]}, {"primitives": [{"mode": 4, "attributes": {"POSITION": 8, "NORMAL": 9, "COLOR_0": 10}, "material": 2, "indices": 11}]}, {"primitives": [{"mode": 4, "attributes": {"POSITION": 12, "NORMAL": 13, "COLOR_0": 14}, "material": 3, "indices": 15}]}]}