{"asset": {"version": "2.0", "generator": "GLTFExporter"}, "scenes": [{"name": "AuxScene", "nodes": [2]}], "scene": 0, "nodes": [{"extras": {"mapFilename": null}, "mesh": 0}, {"extras": {"mapFilename": null}, "mesh": 1}, {"children": [0, 1]}], "bufferViews": [{"buffer": 0, "byteOffset": 0, "byteLength": 1152}, {"buffer": 0, "byteOffset": 1152, "byteLength": 1152}, {"buffer": 0, "byteOffset": 2304, "byteLength": 1152}, {"buffer": 0, "byteOffset": 3456, "byteLength": 1152}, {"buffer": 0, "byteOffset": 4608, "byteLength": 1056}, {"buffer": 0, "byteOffset": 5664, "byteLength": 1056}, {"buffer": 0, "byteOffset": 6720, "byteLength": 1056}, {"buffer": 0, "byteOffset": 7776, "byteLength": 1032}], "buffers": [{"byteLength": 8808, "uri": "data:application/octet-stream;base64,"}], "accessors": [{"componentType": 5126, "type": "VEC3", "bufferView": 0, "byteOffset": 0, "count": 96, "max": [0.3869369924068451, 0.2651349902153015, 0.3869369924068451], "min": [-0.3869369924068451, 0.15292499959468842, -0.3869369924068451]}, {"componentType": 5126, "type": "VEC3", "bufferView": 1, "byteOffset": 0, "count": 96, "max": [1.0, 0.9914849996566772, 1.0], "min": [-1.0, -0.9990230202674866, -1.0]}, {"componentType": 5126, "type": "VEC3", "bufferView": 2, "byteOffset": 0, "count": 96, "max": [1.0, 1.0, 1.0], "min": [1.0, 1.0, 1.0]}, {"componentType": 5123, "type": "SCALAR", "bufferView": 3, "byteOffset": 0, "count": 576, "max": [95.0], "min": [0.0]}, {"componentType": 5126, "type": "VEC3", "bufferView": 4, "byteOffset": 0, "count": 88, "max": [0.6891639828681946, 0.28728100657463074, 0.6891639828681946], "min": [-0.6891639828681946, 0.0030821599066257477, -0.6891639828681946]}, {"componentType": 5126, "type": "VEC3", "bufferView": 5, "byteOffset": 0, "count": 88, "max": [0.9953309893608093, 0.9999690055847168, 0.9953309893608093], "min": [-0.9953309893608093, -0.702750027179718, -0.9953309893608093]}, {"componentType": 5126, "type": "VEC3", "bufferView": 6, "byteOffset": 0, "count": 88, "max": [1.0, 1.0, 1.0], "min": [1.0, 1.0, 1.0]}, {"componentType": 5123, "type": "SCALAR", "bufferView": 7, "byteOffset": 0, "count": 516, "max": [87.0], "min": [0.0]}], "materials": [{"pbrMetallicRoughness": {"baseColorFactor": [0.7372549019607844, 0.49019607843137253, 0.25098039215686274, 1], "metallicFactor": 0, "roughnessFactor": 1}, "name": "queen"}, {"pbrMetallicRoughness": {"baseColorFactor": [0.6392156862745098, 0.6392156862745098, 0.6392156862745098, 1], "metallicFactor": 0, "roughnessFactor": 1}, "name": "base"}], "meshes": [{"primitives": [{"mode": 4, "attributes": {"POSITION": 0, "NORMAL": 1, "COLOR_0": 2}, "material": 0, "indices": 3}]}, {"primitives": [{"mode": 4, "attributes": {"POSITION": 4, "NORMAL": 5, "COLOR_0": 6}, "material": 1, "indices": 7}]}]}