{"asset": {"version": "2.0", "generator": "GLTFExporter"}, "scenes": [{"name": "AuxScene", "nodes": [4]}], "scene": 0, "nodes": [{"extras": {"mapFilename": null}, "mesh": 0}, {"extras": {"mapFilename": null}, "mesh": 1}, {"extras": {"mapFilename": null}, "mesh": 2}, {"extras": {"mapFilename": null}, "mesh": 3}, {"children": [0, 1, 2, 3]}], "bufferViews": [{"buffer": 0, "byteOffset": 0, "byteLength": 936}, {"buffer": 0, "byteOffset": 936, "byteLength": 936}, {"buffer": 0, "byteOffset": 1872, "byteLength": 936}, {"buffer": 0, "byteOffset": 2808, "byteLength": 624}, {"buffer": 0, "byteOffset": 3432, "byteLength": 672}, {"buffer": 0, "byteOffset": 4104, "byteLength": 1800}, {"buffer": 0, "byteOffset": 5904, "byteLength": 1800}, {"buffer": 0, "byteOffset": 7704, "byteLength": 1800}, {"buffer": 0, "byteOffset": 9504, "byteLength": 1200}, {"buffer": 0, "byteOffset": 10704, "byteLength": 1320}, {"buffer": 0, "byteOffset": 12024, "byteLength": 672}, {"buffer": 0, "byteOffset": 12696, "byteLength": 672}, {"buffer": 0, "byteOffset": 13368, "byteLength": 672}, {"buffer": 0, "byteOffset": 14040, "byteLength": 448}, {"buffer": 0, "byteOffset": 14488, "byteLength": 276}, {"buffer": 0, "byteOffset": 14764, "byteLength": 1440}, {"buffer": 0, "byteOffset": 16204, "byteLength": 1440}, {"buffer": 0, "byteOffset": 17644, "byteLength": 1440}, {"buffer": 0, "byteOffset": 19084, "byteLength": 960}, {"buffer": 0, "byteOffset": 20044, "byteLength": 780}], "buffers": [{"byteLength": 20824, "uri": "data:application/octet-stream;base64,"}], "accessors": [{"componentType": 5126, "type": "VEC3", "bufferView": 0, "byteOffset": 0, "count": 78, "max": [1.0, 0.40796399116516113, 1.0], "min": [-0.9807850122451782, 0.35308700799942017, -0.9618819952011108]}, {"componentType": 5126, "type": "VEC3", "bufferView": 1, "byteOffset": 0, "count": 78, "max": [0.8930630087852478, 0.9920349717140198, 0.8930630087852478], "min": [-0.8759120106697083, 0.4498730003833771, -0.742546021938324]}, {"componentType": 5126, "type": "VEC3", "bufferView": 2, "byteOffset": 0, "count": 78, "max": [1.0, 1.0, 1.0], "min": [1.0, 1.0, 1.0]}, {"componentType": 5126, "type": "VEC2", "bufferView": 3, "byteOffset": 0, "count": 78, "max": [0.981909990310669, 0.9659199714660645], "min": [0.02430099993944168, 0.01744999922811985]}, {"componentType": 5123, "type": "SCALAR", "bufferView": 4, "byteOffset": 0, "count": 336, "max": [77.0], "min": [0.0]}, {"componentType": 5126, "type": "VEC3", "bufferView": 5, "byteOffset": 0, "count": 150, "max": [1.0, 0.38138800859451294, 1.0], "min": [-1.0, 0.004885340109467506, -1.0]}, {"componentType": 5126, "type": "VEC3", "bufferView": 6, "byteOffset": 0, "count": 150, "max": [1.0, 0.4498730003833771, 1.0], "min": [-1.0, -0.9424120187759399, -1.0]}, {"componentType": 5126, "type": "VEC3", "bufferView": 7, "byteOffset": 0, "count": 150, "max": [1.0, 1.0, 1.0], "min": [1.0, 1.0, 1.0]}, {"componentType": 5126, "type": "VEC2", "bufferView": 8, "byteOffset": 0, "count": 150, "max": [0.9929590225219727, 0.9534580111503601], "min": [0.02232700027525425, 0.06060599908232689]}, {"componentType": 5123, "type": "SCALAR", "bufferView": 9, "byteOffset": 0, "count": 660, "max": [149.0], "min": [0.0]}, {"componentType": 5126, "type": "VEC3", "bufferView": 10, "byteOffset": 0, "count": 56, "max": [0.9807850122451782, 0.40796399116516113, 1.0], "min": [-1.0, 0.38138800859451294, -1.0]}, {"componentType": 5126, "type": "VEC3", "bufferView": 11, "byteOffset": 0, "count": 56, "max": [0.8759120106697083, 0.9778739809989929, 0.8930630087852478], "min": [-0.8930630087852478, 0.4498730003833771, -0.8930630087852478]}, {"componentType": 5126, "type": "VEC3", "bufferView": 12, "byteOffset": 0, "count": 56, "max": [1.0, 1.0, 1.0], "min": [1.0, 1.0, 1.0]}, {"componentType": 5126, "type": "VEC2", "bufferView": 13, "byteOffset": 0, "count": 56, "max": [0.9726210236549377, 0.9843479990959167], "min": [0.015011999756097794, 0.01744999922811985]}, {"componentType": 5123, "type": "SCALAR", "bufferView": 14, "byteOffset": 0, "count": 138, "max": [55.0], "min": [0.0]}, {"componentType": 5126, "type": "VEC3", "bufferView": 15, "byteOffset": 0, "count": 120, "max": [1.0, 0.38138800859451294, 1.0], "min": [-1.0, 0.004885329864919186, -1.0]}, {"componentType": 5126, "type": "VEC3", "bufferView": 16, "byteOffset": 0, "count": 120, "max": [0.9999690055847168, 0.4498730003833771, 0.9999690055847168], "min": [-0.9999690055847168, -0.9424120187759399, -0.9999690055847168]}, {"componentType": 5126, "type": "VEC3", "bufferView": 17, "byteOffset": 0, "count": 120, "max": [1.0, 1.0, 1.0], "min": [1.0, 1.0, 1.0]}, {"componentType": 5126, "type": "VEC2", "bufferView": 18, "byteOffset": 0, "count": 120, "max": [0.9929590225219727, 0.9534580111503601], "min": [0.02232700027525425, 0.05206099897623062]}, {"componentType": 5123, "type": "SCALAR", "bufferView": 19, "byteOffset": 0, "count": 390, "max": [119.0], "min": [0.0]}], "materials": [{"pbrMetallicRoughness": {"baseColorFactor": [0.2980392156862745, 0.2980392156862745, 0.2980392156862745, 1], "metallicFactor": 0, "roughnessFactor": 1}, "name": "piecetop"}, {"pbrMetallicRoughness": {"baseColorFactor": [0.6392156862745098, 0.6392156862745098, 0.6392156862745098, 1], "metallicFactor": 0, "roughnessFactor": 1}, "name": "pieceborders"}], "meshes": [{"primitives": [{"mode": 4, "attributes": {"POSITION": 0, "NORMAL": 1, "COLOR_0": 2, "TEXCOORD_0": 3}, "material": 0, "indices": 4}]}, {"primitives": [{"mode": 4, "attributes": {"POSITION": 5, "NORMAL": 6, "COLOR_0": 7, "TEXCOORD_0": 8}, "material": 1, "indices": 9}]}, {"primitives": [{"mode": 4, "attributes": {"POSITION": 10, "NORMAL": 11, "COLOR_0": 12, "TEXCOORD_0": 13}, "material": 0, "indices": 14}]}, {"primitives": [{"mode": 4, "attributes": {"POSITION": 15, "NORMAL": 16, "COLOR_0": 17, "TEXCOORD_0": 18}, "material": 1, "indices": 19}]}]}