{"asset": {"version": "2.0", "generator": "GLTFExporter"}, "scenes": [{"name": "AuxScene", "nodes": [1]}], "scene": 0, "nodes": [{"extras": {"mapFilename": "rainbow.png"}, "mesh": 0}, {"children": [0]}], "bufferViews": [{"buffer": 0, "byteOffset": 0, "byteLength": 1896}, {"buffer": 0, "byteOffset": 1896, "byteLength": 3816}, {"buffer": 0, "byteOffset": 5712, "byteLength": 3816}, {"buffer": 0, "byteOffset": 9528, "byteLength": 3816}, {"buffer": 0, "byteOffset": 13344, "byteLength": 2544}], "buffers": [{"byteLength": 15888, "uri": "data:application/octet-stream;base64,"}], "accessors": [{"componentType": 5123, "type": "SCALAR", "bufferView": 0, "count": 948, "max": [317], "min": [0]}, {"componentType": 5126, "type": "VEC3", "bufferView": 1, "byteOffset": 0, "count": 318, "max": [1.2414100170135498, 1.234470009803772, 5.601900099350132e-08], "min": [-1.2414100170135498, -0.006947760004550219, -9.798980045161443e-07]}, {"componentType": 5126, "type": "VEC3", "bufferView": 2, "byteOffset": 0, "count": 318, "max": [0.0, 0.0, -0.9999690055847168], "min": [0.0, 0.0, -1.0]}, {"componentType": 5126, "type": "VEC3", "bufferView": 3, "byteOffset": 0, "count": 318, "max": [1.0, 1.0, 1.0], "min": [1.0, 1.0, 1.0]}, {"componentType": 5126, "type": "VEC2", "bufferView": 4, "byteOffset": 0, "count": 318, "max": [0.9999669790267944, 0.9979760050773621], "min": [3.300000025774352e-05, 0.47439301013946533]}], "materials": [{"pbrMetallicRoughness": {"baseColorFactor": [0.6392156862745098, 0.6392156862745098, 0.6392156862745098, 1], "metallicFactor": 0, "roughnessFactor": 1, "baseColorTexture": {"index": 0}}, "name": "rainbowcol"}], "meshes": [{"primitives": [{"mode": 4, "attributes": {"POSITION": 1, "NORMAL": 2, "COLOR_0": 3, "TEXCOORD_0": 4}, "material": 0, "indices": 0}]}], "images": [{"uri": "rainbow.png"}], "textures": [{"source": 0}]}