{"asset": {"version": "2.0", "generator": "GLTFExporter"}, "scenes": [{"name": "AuxScene", "nodes": [1]}], "scene": 0, "nodes": [{"extras": {"mapFilename": "rock.jpg"}, "mesh": 0}, {"children": [0]}], "bufferViews": [{"buffer": 0, "byteOffset": 0, "byteLength": 4608}, {"buffer": 0, "byteOffset": 4608, "byteLength": 5016}, {"buffer": 0, "byteOffset": 9624, "byteLength": 5016}, {"buffer": 0, "byteOffset": 14640, "byteLength": 5016}, {"buffer": 0, "byteOffset": 19656, "byteLength": 3344}], "buffers": [{"byteLength": 23000, "uri": "data:application/octet-stream;base64,"}], "accessors": [{"componentType": 5123, "type": "SCALAR", "bufferView": 0, "count": 2304, "max": [417], "min": [0]}, {"componentType": 5126, "type": "VEC3", "bufferView": 1, "byteOffset": 0, "count": 418, "max": [0.9948580265045166, 0.7691869735717773, 0.9975200295448303], "min": [-0.9933410286903381, -0.6497910022735596, -0.9838460087776184]}, {"componentType": 5126, "type": "VEC3", "bufferView": 2, "byteOffset": 0, "count": 418, "max": [0.9998469948768616, 0.9981080293655396, 0.9995729923248291], "min": [-0.9999690055847168, -1.0, -0.9971619844436646]}, {"componentType": 5126, "type": "VEC3", "bufferView": 3, "byteOffset": 0, "count": 418, "max": [1.0, 1.0, 1.0], "min": [1.0, 1.0, 1.0]}, {"componentType": 5126, "type": "VEC2", "bufferView": 4, "byteOffset": 0, "count": 418, "max": [0.9998990297317505, 0.9833719730377197], "min": [0.014275999739766121, 0.00010099999781232327]}], "materials": [{"pbrMetallicRoughness": {"baseColorFactor": [0.6392156862745098, 0.6392156862745098, 0.6392156862745098, 1], "metallicFactor": 0, "roughnessFactor": 1, "baseColorTexture": {"index": 0}}, "name": "mat.rock"}], "meshes": [{"primitives": [{"mode": 4, "attributes": {"POSITION": 1, "NORMAL": 2, "COLOR_0": 3, "TEXCOORD_0": 4}, "material": 0, "indices": 0}]}], "images": [{"uri": "rock.jpg"}], "textures": [{"source": 0}]}