{"asset": {"version": "2.0", "generator": "GLTFExporter"}, "scenes": [{"name": "AuxScene", "nodes": [1]}], "scene": 0, "nodes": [{"extras": {"mapFilename": null}, "mesh": 0}, {"children": [0]}], "bufferViews": [{"buffer": 0, "byteOffset": 0, "byteLength": 4968}, {"buffer": 0, "byteOffset": 4968, "byteLength": 4992}, {"buffer": 0, "byteOffset": 9960, "byteLength": 4992}, {"buffer": 0, "byteOffset": 14952, "byteLength": 4992}], "buffers": [{"byteLength": 19944, "uri": "data:application/octet-stream;base64,"}], "accessors": [{"componentType": 5123, "type": "SCALAR", "bufferView": 0, "count": 2484, "max": [415], "min": [0]}, {"componentType": 5126, "type": "VEC3", "bufferView": 1, "byteOffset": 0, "count": 416, "max": [0.5333729982376099, 2.712820053100586, 0.5333729982376099], "min": [-0.5333729982376099, 0.01424300018697977, -0.5333729982376099]}, {"componentType": 5126, "type": "VEC3", "bufferView": 2, "byteOffset": 0, "count": 416, "max": [0.9996029734611511, 0.9857779741287231, 0.9996029734611511], "min": [-0.9996029734611511, -0.8281199932098389, -0.9996029734611511]}, {"componentType": 5126, "type": "VEC3", "bufferView": 3, "byteOffset": 0, "count": 416, "max": [1.0, 1.0, 1.0], "min": [1.0, 1.0, 1.0]}], "materials": [{"pbrMetallicRoughness": {"baseColorFactor": [0.6392156862745098, 0, 0.01568627450980392, 1], "metallicFactor": 0, "roughnessFactor": 1}, "name": "base"}], "meshes": [{"primitives": [{"mode": 4, "attributes": {"POSITION": 1, "NORMAL": 2, "COLOR_0": 3}, "material": 0, "indices": 0}]}]}