{"asset": {"version": "2.0", "generator": "GLTFExporter"}, "scenes": [{"name": "AuxScene", "nodes": [6]}], "scene": 0, "nodes": [{"extras": {"mapFilename": "turtle.png"}, "mesh": 0}, {"extras": {"mapFilename": null}, "mesh": 1}, {"extras": {"mapFilename": null}, "mesh": 2}, {"extras": {"mapFilename": "turtle.png"}, "mesh": 3}, {"extras": {"mapFilename": null}, "mesh": 4}, {"extras": {"mapFilename": "turtle.png"}, "mesh": 5}, {"children": [0, 1, 2, 3, 4, 5]}], "bufferViews": [{"buffer": 0, "byteOffset": 0, "byteLength": 948}, {"buffer": 0, "byteOffset": 948, "byteLength": 948}, {"buffer": 0, "byteOffset": 1896, "byteLength": 948}, {"buffer": 0, "byteOffset": 2844, "byteLength": 632}, {"buffer": 0, "byteOffset": 3476, "byteLength": 360}, {"buffer": 0, "byteOffset": 3836, "byteLength": 384}, {"buffer": 0, "byteOffset": 4220, "byteLength": 384}, {"buffer": 0, "byteOffset": 4604, "byteLength": 384}, {"buffer": 0, "byteOffset": 4988, "byteLength": 256}, {"buffer": 0, "byteOffset": 5244, "byteLength": 384}, {"buffer": 0, "byteOffset": 5628, "byteLength": 216}, {"buffer": 0, "byteOffset": 5844, "byteLength": 216}, {"buffer": 0, "byteOffset": 6060, "byteLength": 216}, {"buffer": 0, "byteOffset": 6276, "byteLength": 144}, {"buffer": 0, "byteOffset": 6420, "byteLength": 120}, {"buffer": 0, "byteOffset": 6540, "byteLength": 192}, {"buffer": 0, "byteOffset": 6732, "byteLength": 192}, {"buffer": 0, "byteOffset": 6924, "byteLength": 192}, {"buffer": 0, "byteOffset": 7116, "byteLength": 128}, {"buffer": 0, "byteOffset": 7244, "byteLength": 156}, {"buffer": 0, "byteOffset": 7400, "byteLength": 312}, {"buffer": 0, "byteOffset": 7712, "byteLength": 312}, {"buffer": 0, "byteOffset": 8024, "byteLength": 312}, {"buffer": 0, "byteOffset": 8336, "byteLength": 208}, {"buffer": 0, "byteOffset": 8544, "byteLength": 120}, {"buffer": 0, "byteOffset": 8664, "byteLength": 4512}, {"buffer": 0, "byteOffset": 13176, "byteLength": 4512}, {"buffer": 0, "byteOffset": 17688, "byteLength": 4512}, {"buffer": 0, "byteOffset": 22200, "byteLength": 3008}, {"buffer": 0, "byteOffset": 25208, "byteLength": 1440}], "buffers": [{"byteLength": 26648, "uri": "data:application/octet-stream;base64,"}], "accessors": [{"componentType": 5126, "type": "VEC3", "bufferView": 0, "byteOffset": 0, "count": 79, "max": [0.4677119851112366, 1.0191400051116943, 1.4811700582504272], "min": [-0.5013089776039124, 0.22083400189876556, 0.05030030012130737]}, {"componentType": 5126, "type": "VEC3", "bufferView": 1, "byteOffset": 0, "count": 79, "max": [0.9327369928359985, 0.9310590028762817, 0.8912320137023926], "min": [-0.933804988861084, -0.9993590116500854, -0.5773490071296692]}, {"componentType": 5126, "type": "VEC3", "bufferView": 2, "byteOffset": 0, "count": 79, "max": [1.0, 1.0, 1.0], "min": [1.0, 1.0, 1.0]}, {"componentType": 5126, "type": "VEC2", "bufferView": 3, "byteOffset": 0, "count": 79, "max": [0.6730380058288574, 0.9838830232620239], "min": [0.006089999806135893, 0.5172669887542725]}, {"componentType": 5123, "type": "SCALAR", "bufferView": 4, "byteOffset": 0, "count": 180, "max": [78.0], "min": [0.0]}, {"componentType": 5126, "type": "VEC3", "bufferView": 5, "byteOffset": 0, "count": 32, "max": [0.5350340008735657, 1.2368799448013306, -0.29515498876571655], "min": [0.327908992767334, 0.7986969947814941, -0.5022799968719482]}, {"componentType": 5126, "type": "VEC3", "bufferView": 6, "byteOffset": 0, "count": 32, "max": [0.707082986831665, 1.0, 0.707082986831665], "min": [-0.707082986831665, -0.9045079946517944, -0.707082986831665]}, {"componentType": 5126, "type": "VEC3", "bufferView": 7, "byteOffset": 0, "count": 32, "max": [1.0, 1.0, 1.0], "min": [1.0, 1.0, 1.0]}, {"componentType": 5126, "type": "VEC2", "bufferView": 8, "byteOffset": 0, "count": 32, "max": [0.0, 0.0], "min": [0.0, 0.0]}, {"componentType": 5123, "type": "SCALAR", "bufferView": 9, "byteOffset": 0, "count": 192, "max": [31.0], "min": [0.0]}, {"componentType": 5126, "type": "VEC3", "bufferView": 10, "byteOffset": 0, "count": 18, "max": [0.7181370258331299, 1.2048900127410889, 0.47008201479911804], "min": [-0.7181370258331299, 0.7676730155944824, -0.9661920070648193]}, {"componentType": 5126, "type": "VEC3", "bufferView": 11, "byteOffset": 0, "count": 18, "max": [0.679830014705658, 0.7876219749450684, 0.8222600221633911], "min": [-0.679830014705658, -0.7060459852218628, -0.8222600221633911]}, {"componentType": 5126, "type": "VEC3", "bufferView": 12, "byteOffset": 0, "count": 18, "max": [1.0, 1.0, 1.0], "min": [1.0, 1.0, 1.0]}, {"componentType": 5126, "type": "VEC2", "bufferView": 13, "byteOffset": 0, "count": 18, "max": [0.9925550222396851, 0.45370298624038696], "min": [0.6971420049667358, 0.003083999967202544]}, {"componentType": 5123, "type": "SCALAR", "bufferView": 14, "byteOffset": 0, "count": 60, "max": [17.0], "min": [0.0]}, {"componentType": 5126, "type": "VEC3", "bufferView": 15, "byteOffset": 0, "count": 16, "max": [0.26556798815727234, 0.6827999949455261, -0.7010999917984009], "min": [-0.23013299703598022, 0.18709899485111237, -1.2587499618530273]}, {"componentType": 5126, "type": "VEC3", "bufferView": 16, "byteOffset": 0, "count": 16, "max": [0.7030850052833557, 0.6533709764480591, -0.29148200154304504], "min": [-0.7030850052833557, -0.6533709764480591, -0.7970520257949829]}, {"componentType": 5126, "type": "VEC3", "bufferView": 17, "byteOffset": 0, "count": 16, "max": [1.0, 1.0, 1.0], "min": [1.0, 1.0, 1.0]}, {"componentType": 5126, "type": "VEC2", "bufferView": 18, "byteOffset": 0, "count": 16, "max": [0.2023179978132248, 0.20847900211811066], "min": [0.006132000125944614, 0.01261799968779087]}, {"componentType": 5123, "type": "SCALAR", "bufferView": 19, "byteOffset": 0, "count": 78, "max": [15.0], "min": [0.0]}, {"componentType": 5126, "type": "VEC3", "bufferView": 20, "byteOffset": 0, "count": 26, "max": [0.6223220229148865, 1.1456799507141113, 0.37426701188087463], "min": [-0.6223220229148865, 0.20009900629520416, -0.8703770041465759]}, {"componentType": 5126, "type": "VEC3", "bufferView": 21, "byteOffset": 0, "count": 26, "max": [0.6764730215072632, 0.7851499915122986, 0.707082986831665], "min": [-0.6764730215072632, -0.707082986831665, -0.707082986831665]}, {"componentType": 5126, "type": "VEC3", "bufferView": 22, "byteOffset": 0, "count": 26, "max": [1.0, 1.0, 1.0], "min": [1.0, 1.0, 1.0]}, {"componentType": 5126, "type": "VEC2", "bufferView": 23, "byteOffset": 0, "count": 26, "max": [0.9999409914016724, 0.29804301261901855], "min": [0.0, 0.0]}, {"componentType": 5123, "type": "SCALAR", "bufferView": 24, "byteOffset": 0, "count": 60, "max": [25.0], "min": [0.0]}, {"componentType": 5126, "type": "VEC3", "bufferView": 25, "byteOffset": 0, "count": 376, "max": [1.1509900093078613, 0.5567229986190796, 0.7974640130996704], "min": [-1.1509900093078613, 0.008029280230402946, -1.2935700416564941]}, {"componentType": 5126, "type": "VEC3", "bufferView": 26, "byteOffset": 0, "count": 376, "max": [0.9299600124359131, 0.7954649925231934, 0.7875000238418579], "min": [-0.9299600124359131, -0.7954649925231934, -0.7875000238418579]}, {"componentType": 5126, "type": "VEC3", "bufferView": 27, "byteOffset": 0, "count": 376, "max": [1.0, 1.0, 1.0], "min": [1.0, 1.0, 1.0]}, {"componentType": 5126, "type": "VEC2", "bufferView": 28, "byteOffset": 0, "count": 376, "max": [0.9853929877281189, 0.988523006439209], "min": [0.8381829857826233, 0.7622420191764832]}, {"componentType": 5123, "type": "SCALAR", "bufferView": 29, "byteOffset": 0, "count": 720, "max": [375.0], "min": [0.0]}], "materials": [{"pbrMetallicRoughness": {"baseColorFactor": [0.6392156862745098, 0.6392156862745098, 0.6392156862745098, 1], "metallicFactor": 0, "roughnessFactor": 1, "baseColorTexture": {"index": 0}}, "name": "mat.turtle"}, {"pbrMetallicRoughness": {"baseColorFactor": [0.23137254901960785, 0.6392156862745098, 0.07058823529411765, 1], "metallicFactor": 0, "roughnessFactor": 1}, "name": "house"}, {"pbrMetallicRoughness": {"baseColorFactor": [0.0392156862745098, 0.07058823529411765, 0, 1], "metallicFactor": 0, "roughnessFactor": 1}, "name": "roof"}, {"pbrMetallicRoughness": {"baseColorFactor": [0.6392156862745098, 0.6392156862745098, 0.6392156862745098, 1], "metallicFactor": 0, "roughnessFactor": 1, "baseColorTexture": {"index": 0}}, "name": "mat.turtle"}, {"pbrMetallicRoughness": {"baseColorFactor": [0.23137254901960785, 0.6392156862745098, 0.07058823529411765, 1], "metallicFactor": 0, "roughnessFactor": 1}, "name": "house"}, {"pbrMetallicRoughness": {"baseColorFactor": [0.6392156862745098, 0.6392156862745098, 0.6392156862745098, 1], "metallicFactor": 0, "roughnessFactor": 1, "baseColorTexture": {"index": 0}}, "name": "mat.turtle"}], "meshes": [{"primitives": [{"mode": 4, "attributes": {"POSITION": 0, "NORMAL": 1, "COLOR_0": 2, "TEXCOORD_0": 3}, "material": 0, "indices": 4}]}, {"primitives": [{"mode": 4, "attributes": {"POSITION": 5, "NORMAL": 6, "COLOR_0": 7, "TEXCOORD_0": 8}, "material": 1, "indices": 9}]}, {"primitives": [{"mode": 4, "attributes": {"POSITION": 10, "NORMAL": 11, "COLOR_0": 12, "TEXCOORD_0": 13}, "material": 2, "indices": 14}]}, {"primitives": [{"mode": 4, "attributes": {"POSITION": 15, "NORMAL": 16, "COLOR_0": 17, "TEXCOORD_0": 18}, "material": 3, "indices": 19}]}, {"primitives": [{"mode": 4, "attributes": {"POSITION": 20, "NORMAL": 21, "COLOR_0": 22, "TEXCOORD_0": 23}, "material": 4, "indices": 24}]}, {"primitives": [{"mode": 4, "attributes": {"POSITION": 25, "NORMAL": 26, "COLOR_0": 27, "TEXCOORD_0": 28}, "material": 5, "indices": 29}]}], "images": [{"uri": "turtle.png"}], "textures": [{"source": 0}]}