{"asset": {"version": "2.0", "generator": "GLTFExporter"}, "scenes": [{"name": "AuxScene", "nodes": [1]}], "scene": 0, "nodes": [{"extras": {"mapFilename": "turtle.png"}, "mesh": 0}, {"children": [0]}], "bufferViews": [{"buffer": 0, "byteOffset": 0, "byteLength": 2496}, {"buffer": 0, "byteOffset": 2496, "byteLength": 2604}, {"buffer": 0, "byteOffset": 5100, "byteLength": 2604}, {"buffer": 0, "byteOffset": 7704, "byteLength": 2604}, {"buffer": 0, "byteOffset": 10308, "byteLength": 1736}], "buffers": [{"byteLength": 12044, "uri": "data:application/octet-stream;base64,"}], "accessors": [{"componentType": 5123, "type": "SCALAR", "bufferView": 0, "count": 1248, "max": [216], "min": [0]}, {"componentType": 5126, "type": "VEC3", "bufferView": 1, "byteOffset": 0, "count": 217, "max": [0.2500770092010498, 0.6673089861869812, -0.7010999917984009], "min": [-0.2146420031785965, 0.2025900036096573, -1.2526500225067139]}, {"componentType": 5126, "type": "VEC3", "bufferView": 2, "byteOffset": 0, "count": 217, "max": [0.9681689739227295, 0.9623709917068481, -0.09238000214099884], "min": [-0.9681689739227295, -0.995697021484375, -0.9999690055847168]}, {"componentType": 5126, "type": "VEC3", "bufferView": 3, "byteOffset": 0, "count": 217, "max": [1.0, 1.0, 1.0], "min": [1.0, 1.0, 1.0]}, {"componentType": 5126, "type": "VEC2", "bufferView": 4, "byteOffset": 0, "count": 217, "max": [0.9782339930534363, 0.7382709980010986], "min": [0.7953299880027771, 0.5555750131607056]}], "materials": [{"pbrMetallicRoughness": {"baseColorFactor": [0.6392156862745098, 0.6392156862745098, 0.6392156862745098, 1], "metallicFactor": 0, "roughnessFactor": 1, "baseColorTexture": {"index": 0}}, "name": "mat.turtle"}], "meshes": [{"primitives": [{"mode": 4, "attributes": {"POSITION": 1, "NORMAL": 2, "COLOR_0": 3, "TEXCOORD_0": 4}, "material": 0, "indices": 0}]}], "images": [{"uri": "turtle.png"}], "textures": [{"source": 0}]}