{"asset": {"version": "2.0", "generator": "GLTFExporter"}, "scenes": [{"name": "AuxScene", "nodes": [1]}], "scene": 0, "nodes": [{"extras": {"mapFilename": "turtle.png"}, "mesh": 0}, {"children": [0]}], "bufferViews": [{"buffer": 0, "byteOffset": 0, "byteLength": 288}, {"buffer": 0, "byteOffset": 288, "byteLength": 720}, {"buffer": 0, "byteOffset": 1008, "byteLength": 720}, {"buffer": 0, "byteOffset": 1728, "byteLength": 720}, {"buffer": 0, "byteOffset": 2448, "byteLength": 480}], "buffers": [{"byteLength": 2928, "uri": "data:application/octet-stream;base64,"}], "accessors": [{"componentType": 5123, "type": "SCALAR", "bufferView": 0, "count": 144, "max": [59], "min": [0]}, {"componentType": 5126, "type": "VEC3", "bufferView": 1, "byteOffset": 0, "count": 60, "max": [0.6223220229148865, 2.038259983062744, 0.37426701188087463], "min": [-0.6223220229148865, 0.20009900629520416, -0.8703770041465759]}, {"componentType": 5126, "type": "VEC3", "bufferView": 2, "byteOffset": 0, "count": 60, "max": [0.5773490071296692, 0.9045079946517944, 0.707082986831665], "min": [-0.707082986831665, -0.707082986831665, -0.707082986831665]}, {"componentType": 5126, "type": "VEC3", "bufferView": 3, "byteOffset": 0, "count": 60, "max": [1.0, 1.0, 1.0], "min": [1.0, 1.0, 1.0]}, {"componentType": 5126, "type": "VEC2", "bufferView": 4, "byteOffset": 0, "count": 60, "max": [0.8137630224227905, 0.6134499907493591], "min": [0.0, 0.0]}], "materials": [{"pbrMetallicRoughness": {"baseColorFactor": [0.6392156862745098, 0.6392156862745098, 0.6392156862745098, 1], "metallicFactor": 0, "roughnessFactor": 1, "baseColorTexture": {"index": 0}}, "name": "mat.buildings"}], "meshes": [{"primitives": [{"mode": 4, "attributes": {"POSITION": 1, "NORMAL": 2, "COLOR_0": 3, "TEXCOORD_0": 4}, "material": 0, "indices": 0}]}], "images": [{"uri": "turtle.png"}], "textures": [{"source": 0}]}