{"asset": {"version": "2.0", "generator": "GLTFExporter"}, "scenes": [{"name": "AuxScene", "nodes": [3]}], "scene": 0, "nodes": [{"extras": {"mapFilename": "turtle.png"}, "mesh": 0}, {"extras": {"mapFilename": "turtle.png"}, "mesh": 1}, {"extras": {"mapFilename": "turtle.png"}, "mesh": 2}, {"children": [0, 1, 2]}], "bufferViews": [{"buffer": 0, "byteOffset": 0, "byteLength": 1080}, {"buffer": 0, "byteOffset": 1080, "byteLength": 1080}, {"buffer": 0, "byteOffset": 2160, "byteLength": 1080}, {"buffer": 0, "byteOffset": 3240, "byteLength": 720}, {"buffer": 0, "byteOffset": 3960, "byteLength": 384}, {"buffer": 0, "byteOffset": 4344, "byteLength": 240}, {"buffer": 0, "byteOffset": 4584, "byteLength": 240}, {"buffer": 0, "byteOffset": 4824, "byteLength": 240}, {"buffer": 0, "byteOffset": 5064, "byteLength": 160}, {"buffer": 0, "byteOffset": 5224, "byteLength": 120}, {"buffer": 0, "byteOffset": 5344, "byteLength": 312}, {"buffer": 0, "byteOffset": 5656, "byteLength": 312}, {"buffer": 0, "byteOffset": 5968, "byteLength": 312}, {"buffer": 0, "byteOffset": 6280, "byteLength": 208}, {"buffer": 0, "byteOffset": 6488, "byteLength": 120}], "buffers": [{"byteLength": 6608, "uri": "data:application/octet-stream;base64,"}], "accessors": [{"componentType": 5126, "type": "VEC3", "bufferView": 0, "byteOffset": 0, "count": 90, "max": [0.5350340008735657, 1.2368799448013306, -0.29515498876571655], "min": [0.327908992767334, 0.7986969947814941, -0.5022799968719482]}, {"componentType": 5126, "type": "VEC3", "bufferView": 1, "byteOffset": 0, "count": 90, "max": [0.707082986831665, 1.0, 0.707082986831665], "min": [-0.707082986831665, -0.9045079946517944, -0.707082986831665]}, {"componentType": 5126, "type": "VEC3", "bufferView": 2, "byteOffset": 0, "count": 90, "max": [1.0, 1.0, 1.0], "min": [1.0, 1.0, 1.0]}, {"componentType": 5126, "type": "VEC2", "bufferView": 3, "byteOffset": 0, "count": 90, "max": [0.8303880095481873, 0.2869719862937927], "min": [0.46355700492858887, 0.024103999137878418]}, {"componentType": 5123, "type": "SCALAR", "bufferView": 4, "byteOffset": 0, "count": 192, "max": [89.0], "min": [0.0]}, {"componentType": 5126, "type": "VEC3", "bufferView": 5, "byteOffset": 0, "count": 20, "max": [0.7181370258331299, 1.2048900127410889, 0.47008201479911804], "min": [-0.7181370258331299, 0.7676730155944824, -0.9661920070648193]}, {"componentType": 5126, "type": "VEC3", "bufferView": 6, "byteOffset": 0, "count": 20, "max": [0.679830014705658, 0.7876219749450684, 0.8222600221633911], "min": [-0.679830014705658, -0.7060459852218628, -0.8222600221633911]}, {"componentType": 5126, "type": "VEC3", "bufferView": 7, "byteOffset": 0, "count": 20, "max": [1.0, 1.0, 1.0], "min": [1.0, 1.0, 1.0]}, {"componentType": 5126, "type": "VEC2", "bufferView": 8, "byteOffset": 0, "count": 20, "max": [0.8224970102310181, 0.2661939859390259], "min": [0.6955379843711853, 0.003083999967202544]}, {"componentType": 5123, "type": "SCALAR", "bufferView": 9, "byteOffset": 0, "count": 60, "max": [19.0], "min": [0.0]}, {"componentType": 5126, "type": "VEC3", "bufferView": 10, "byteOffset": 0, "count": 26, "max": [0.6223220229148865, 1.1456799507141113, 0.37426701188087463], "min": [-0.6223220229148865, 0.20009900629520416, -0.8703770041465759]}, {"componentType": 5126, "type": "VEC3", "bufferView": 11, "byteOffset": 0, "count": 26, "max": [0.6764730215072632, 0.7851499915122986, 0.707082986831665], "min": [-0.6764730215072632, -0.707082986831665, -0.707082986831665]}, {"componentType": 5126, "type": "VEC3", "bufferView": 12, "byteOffset": 0, "count": 26, "max": [1.0, 1.0, 1.0], "min": [1.0, 1.0, 1.0]}, {"componentType": 5126, "type": "VEC2", "bufferView": 13, "byteOffset": 0, "count": 26, "max": [0.9999409914016724, 0.25409701466560364], "min": [0.0, 0.0]}, {"componentType": 5123, "type": "SCALAR", "bufferView": 14, "byteOffset": 0, "count": 60, "max": [25.0], "min": [0.0]}], "materials": [{"pbrMetallicRoughness": {"baseColorFactor": [0.6392156862745098, 0.6392156862745098, 0.6392156862745098, 1], "metallicFactor": 0, "roughnessFactor": 1, "baseColorTexture": {"index": 0}}, "name": "mat.buildings"}, {"pbrMetallicRoughness": {"baseColorFactor": [0.6392156862745098, 0.6392156862745098, 0.6392156862745098, 1], "metallicFactor": 0, "roughnessFactor": 1, "baseColorTexture": {"index": 0}}, "name": "mat.buildings"}, {"pbrMetallicRoughness": {"baseColorFactor": [0.6392156862745098, 0.6392156862745098, 0.6392156862745098, 1], "metallicFactor": 0, "roughnessFactor": 1, "baseColorTexture": {"index": 0}}, "name": "mat.buildings"}], "meshes": [{"primitives": [{"mode": 4, "attributes": {"POSITION": 0, "NORMAL": 1, "COLOR_0": 2, "TEXCOORD_0": 3}, "material": 0, "indices": 4}]}, {"primitives": [{"mode": 4, "attributes": {"POSITION": 5, "NORMAL": 6, "COLOR_0": 7, "TEXCOORD_0": 8}, "material": 1, "indices": 9}]}, {"primitives": [{"mode": 4, "attributes": {"POSITION": 10, "NORMAL": 11, "COLOR_0": 12, "TEXCOORD_0": 13}, "material": 2, "indices": 14}]}], "images": [{"uri": "turtle.png"}], "textures": [{"source": 0}]}