{"asset": {"version": "2.0", "generator": "GLTFExporter"}, "scenes": [{"name": "AuxScene", "nodes": [1]}], "scene": 0, "nodes": [{"extras": {"mapFilename": "turtle.png"}, "mesh": 0}, {"children": [0]}], "bufferViews": [{"buffer": 0, "byteOffset": 0, "byteLength": 23040}, {"buffer": 0, "byteOffset": 23040, "byteLength": 33456}, {"buffer": 0, "byteOffset": 56496, "byteLength": 33456}, {"buffer": 0, "byteOffset": 89952, "byteLength": 33456}, {"buffer": 0, "byteOffset": 123408, "byteLength": 22304}], "buffers": [{"byteLength": 145712, "uri": "data:application/octet-stream;base64,"}], "accessors": [{"componentType": 5123, "type": "SCALAR", "bufferView": 0, "count": 11520, "max": [2787], "min": [0]}, {"componentType": 5126, "type": "VEC3", "bufferView": 1, "byteOffset": 0, "count": 2788, "max": [1.1286799907684326, 0.5477330088615417, 0.7705910205841064], "min": [-1.1286799907684326, 0.011256200261414051, -1.266700029373169]}, {"componentType": 5126, "type": "VEC3", "bufferView": 2, "byteOffset": 0, "count": 2788, "max": [1.0, 0.9999690055847168, 0.9989010095596313], "min": [-1.0, -0.9999690055847168, -0.9989010095596313]}, {"componentType": 5126, "type": "VEC3", "bufferView": 3, "byteOffset": 0, "count": 2788, "max": [1.0, 1.0, 1.0], "min": [1.0, 1.0, 1.0]}, {"componentType": 5126, "type": "VEC2", "bufferView": 4, "byteOffset": 0, "count": 2788, "max": [0.9853929877281189, 0.988523006439209], "min": [0.8441870212554932, 0.766228973865509]}], "materials": [{"pbrMetallicRoughness": {"baseColorFactor": [0.6392156862745098, 0.6392156862745098, 0.6392156862745098, 1], "metallicFactor": 0, "roughnessFactor": 1, "baseColorTexture": {"index": 0}}, "name": "mat.turtle"}], "meshes": [{"primitives": [{"mode": 4, "attributes": {"POSITION": 1, "NORMAL": 2, "COLOR_0": 3, "TEXCOORD_0": 4}, "material": 0, "indices": 0}]}], "images": [{"uri": "turtle.png"}], "textures": [{"source": 0}]}