{"asset": {"version": "2.0", "generator": "GLTFExporter"}, "scenes": [{"name": "AuxScene", "nodes": [1]}], "scene": 0, "nodes": [{"extras": {"mapFilename": null}, "mesh": 0}, {"children": [0]}], "bufferViews": [{"buffer": 0, "byteOffset": 0, "byteLength": 504}, {"buffer": 0, "byteOffset": 504, "byteLength": 624}, {"buffer": 0, "byteOffset": 1128, "byteLength": 624}, {"buffer": 0, "byteOffset": 1752, "byteLength": 624}], "buffers": [{"byteLength": 2376, "uri": "data:application/octet-stream;base64,"}], "accessors": [{"componentType": 5123, "type": "SCALAR", "bufferView": 0, "count": 252, "max": [51], "min": [0]}, {"componentType": 5126, "type": "VEC3", "bufferView": 1, "byteOffset": 0, "count": 52, "max": [5.088290214538574, 1.4810800552368164, -3.494270086288452], "min": [3.4780399799346924, -0.016945699229836464, -5.09935998916626]}, {"componentType": 5126, "type": "VEC3", "bufferView": 2, "byteOffset": 0, "count": 52, "max": [0.9545270204544067, 0.8105409741401672, 0.9545270204544067], "min": [-0.9544360041618347, -0.707082986831665, -0.9544360041618347]}, {"componentType": 5126, "type": "VEC3", "bufferView": 3, "byteOffset": 0, "count": 52, "max": [1.0, 1.0, 1.0], "min": [1.0, 1.0, 1.0]}], "materials": [{"pbrMetallicRoughness": {"baseColorFactor": [0.7372549019607844, 0.7176470588235294, 0.7372549019607844, 1], "metallicFactor": 0, "roughnessFactor": 1}, "name": "mat.fences"}], "meshes": [{"primitives": [{"mode": 4, "attributes": {"POSITION": 1, "NORMAL": 2, "COLOR_0": 3}, "material": 0, "indices": 0}]}]}