{"asset": {"version": "2.0", "generator": "GLTFExporter"}, "scenes": [{"name": "AuxScene", "nodes": [1]}], "scene": 0, "nodes": [{"extras": {"mapFilename": "turtle.png"}, "mesh": 0}, {"children": [0]}], "bufferViews": [{"buffer": 0, "byteOffset": 0, "byteLength": 5760}, {"buffer": 0, "byteOffset": 5760, "byteLength": 7716}, {"buffer": 0, "byteOffset": 13476, "byteLength": 7716}, {"buffer": 0, "byteOffset": 21192, "byteLength": 7716}, {"buffer": 0, "byteOffset": 28908, "byteLength": 5144}], "buffers": [{"byteLength": 34052, "uri": "data:application/octet-stream;base64,"}], "accessors": [{"componentType": 5123, "type": "SCALAR", "bufferView": 0, "count": 2880, "max": [642], "min": [0]}, {"componentType": 5126, "type": "VEC3", "bufferView": 1, "byteOffset": 0, "count": 643, "max": [0.3575870096683502, 0.8359320163726807, 1.489799976348877], "min": [-0.39027899503707886, 0.19277599453926086, 0.06040219962596893]}, {"componentType": 5126, "type": "VEC3", "bufferView": 2, "byteOffset": 0, "count": 643, "max": [1.0, 1.0, 0.9941400289535522], "min": [-0.9999690055847168, -1.0, -1.0]}, {"componentType": 5126, "type": "VEC3", "bufferView": 3, "byteOffset": 0, "count": 643, "max": [1.0, 1.0, 1.0], "min": [1.0, 1.0, 1.0]}, {"componentType": 5126, "type": "VEC2", "bufferView": 4, "byteOffset": 0, "count": 643, "max": [0.9768000245094299, 0.9838830232620239], "min": [0.03664499893784523, 0.5706729888916016]}], "materials": [{"pbrMetallicRoughness": {"baseColorFactor": [0.6392156862745098, 0.6392156862745098, 0.6392156862745098, 1], "metallicFactor": 0, "roughnessFactor": 1, "baseColorTexture": {"index": 0}}, "name": "mat.turtle"}], "meshes": [{"primitives": [{"mode": 4, "attributes": {"POSITION": 1, "NORMAL": 2, "COLOR_0": 3, "TEXCOORD_0": 4}, "material": 0, "indices": 0}]}], "images": [{"uri": "turtle.png"}], "textures": [{"source": 0}]}