{"asset": {"version": "2.0", "generator": "GLTFExporter"}, "scenes": [{"name": "AuxScene", "nodes": [1]}], "scene": 0, "nodes": [{"mesh": 0}, {"children": [0]}], "bufferViews": [{"buffer": 0, "byteOffset": 0, "byteLength": 13392}, {"buffer": 0, "byteOffset": 13392, "byteLength": 18672}, {"buffer": 0, "byteOffset": 32064, "byteLength": 18672}, {"buffer": 0, "byteOffset": 50736, "byteLength": 18672}, {"buffer": 0, "byteOffset": 69408, "byteLength": 12448}], "buffers": [{"byteLength": 81856, "uri": "data:application/octet-stream;base64,"}], "accessors": [{"componentType": 5123, "type": "SCALAR", "bufferView": 0, "count": 6696, "max": [1555], "min": [0]}, {"componentType": 5126, "type": "VEC3", "bufferView": 1, "byteOffset": 0, "count": 1556, "max": [0.8300880193710327, 2.4353699684143066, 0.8300880193710327], "min": [-0.8300880193710327, 0.010218500159680843, -0.8300880193710327]}, {"componentType": 5126, "type": "VEC3", "bufferView": 2, "byteOffset": 0, "count": 1556, "max": [0.9980003237724304, 0.9978087544441223, 0.9978097677230835], "min": [-0.9980003237724304, -0.998887300491333, -0.9978097677230835]}, {"componentType": 5126, "type": "VEC3", "bufferView": 3, "byteOffset": 0, "count": 1556, "max": [1.0, 1.0, 1.0], "min": [1.0, 1.0, 1.0]}, {"componentType": 5126, "type": "VEC2", "bufferView": 4, "byteOffset": 0, "count": 1556, "max": [1.0006599426269531, 1.0066800117492676], "min": [0.001979999942705035, 0.008702999912202358]}], "materials": [{"pbrMetallicRoughness": {"baseColorFactor": [0.8, 0.8, 0.8, 1], "metallicFactor": 0, "roughnessFactor": 1}}], "meshes": [{"primitives": [{"mode": 4, "attributes": {"POSITION": 1, "NORMAL": 2, "COLOR_0": 3, "TEXCOORD_0": 4}, "material": 0, "indices": 0}]}]}