{"asset": {"version": "2.0", "generator": "GLTFExporter"}, "scenes": [{"name": "AuxScene", "nodes": [1]}], "scene": 0, "nodes": [{"mesh": 0}, {"children": [0]}], "bufferViews": [{"buffer": 0, "byteOffset": 0, "byteLength": 5712}, {"buffer": 0, "byteOffset": 5712, "byteLength": 7536}, {"buffer": 0, "byteOffset": 13248, "byteLength": 7536}, {"buffer": 0, "byteOffset": 20784, "byteLength": 7536}, {"buffer": 0, "byteOffset": 28320, "byteLength": 5024}], "buffers": [{"byteLength": 33344, "uri": "data:application/octet-stream;base64,"}], "accessors": [{"componentType": 5123, "type": "SCALAR", "bufferView": 0, "count": 2856, "max": [627], "min": [0]}, {"componentType": 5126, "type": "VEC3", "bufferView": 1, "byteOffset": 0, "count": 628, "max": [0.7684615254402161, 2.858461618423462, 0.7684615254402161], "min": [-0.7684615254402161, 0.0, -1.2869230508804321]}, {"componentType": 5126, "type": "VEC3", "bufferView": 2, "byteOffset": 0, "count": 628, "max": [0.9962694644927979, 0.9988406300544739, 0.9997024536132812], "min": [-0.9999991059303284, -0.9469071626663208, -0.9990511536598206]}, {"componentType": 5126, "type": "VEC3", "bufferView": 3, "byteOffset": 0, "count": 628, "max": [1.0, 1.0, 1.0], "min": [1.0, 1.0, 1.0]}, {"componentType": 5126, "type": "VEC2", "bufferView": 4, "byteOffset": 0, "count": 628, "max": [0.8125, 0.8125], "min": [0.0, 0.0]}], "materials": [{"pbrMetallicRoughness": {"baseColorFactor": [0.8, 0.8, 0.8, 1], "metallicFactor": 0, "roughnessFactor": 1}}], "meshes": [{"primitives": [{"mode": 4, "attributes": {"POSITION": 1, "NORMAL": 2, "COLOR_0": 3, "TEXCOORD_0": 4}, "material": 0, "indices": 0}]}]}