{"scene": 0, "scenes": [{"nodes": [0]}], "asset": {"version": "2.0", "generator": "gltf-make-textures.py"}, "accessors": [{"componentType": 5123, "type": "SCALAR", "bufferView": 0, "count": 4650, "max": [1378], "min": [0]}, {"componentType": 5126, "type": "VEC3", "byteOffset": 0, "bufferView": 1, "count": 1379, "max": [0.8572277426719666, 2.5999999046325684, 0.9541914463043213], "min": [-0.8572277426719666, 0.0, -1.1086468696594238]}, {"componentType": 5126, "type": "VEC2", "byteOffset": 0, "bufferView": 2, "count": 1379, "max": [0.9844903945922852, 0.994001030921936], "min": [0.005859375, 0.005859375]}, {"componentType": 5126, "type": "VEC3", "byteOffset": 0, "bufferView": 3, "count": 1379, "max": [0.9984191656112671, 0.9991509914398193, 0.9999653100967407], "min": [-0.9984191656112671, -0.999574601650238, -0.9999398589134216]}], "meshes": [{"name": "geometry_0", "extras": {}, "primitives": [{"attributes": {"POSITION": 1, "TEXCOORD_0": 2, "NORMAL": 3}, "indices": 0, "mode": 4, "material": 0}]}], "materials": [{"pbrMetallicRoughness": {"baseColorFactor": [0.8, 0.8, 0.8, 1.0], "roughnessFactor": 1.0, "metallicFactor": 0.0}, "doubleSided": false}], "nodes": [{"name": "world", "children": [1]}, {"name": "geometry_0", "mesh": 0}], "buffers": [{"byteLength": 53428, "uri": "data:application/octet-stream;base64,"}], "bufferViews": [{"buffer": 0, "byteOffset": 0, "byteLength": 9300}, {"buffer": 0, "byteOffset": 9300, "byteLength": 16548}, {"buffer": 0, "byteOffset": 25848, "byteLength": 11032}, {"buffer": 0, "byteOffset": 36880, "byteLength": 16548}]}