{"asset": {"version": "2.0", "generator": "GLTFExporter"}, "scenes": [{"name": "AuxScene", "nodes": [5]}], "scene": 0, "nodes": [{"extras": {"mapFilename": "baril-256.jpg"}, "mesh": 0}, {"extras": {"mapFilename": null}, "mesh": 1}, {"extras": {"mapFilename": "web cam exp.png"}, "mesh": 2}, {"extras": {"mapFilename": null}, "mesh": 3}, {"extras": {"mapFilename": "baril-256.jpg"}, "mesh": 4}, {"children": [0, 1, 2, 3, 4]}], "bufferViews": [{"buffer": 0, "byteOffset": 0, "byteLength": 1200}, {"buffer": 0, "byteOffset": 1200, "byteLength": 1200}, {"buffer": 0, "byteOffset": 2400, "byteLength": 1200}, {"buffer": 0, "byteOffset": 3600, "byteLength": 800}, {"buffer": 0, "byteOffset": 4400, "byteLength": 744}, {"buffer": 0, "byteOffset": 5144, "byteLength": 192}, {"buffer": 0, "byteOffset": 5336, "byteLength": 192}, {"buffer": 0, "byteOffset": 5528, "byteLength": 192}, {"buffer": 0, "byteOffset": 5720, "byteLength": 128}, {"buffer": 0, "byteOffset": 5848, "byteLength": 168}, {"buffer": 0, "byteOffset": 6016, "byteLength": 48}, {"buffer": 0, "byteOffset": 6064, "byteLength": 48}, {"buffer": 0, "byteOffset": 6112, "byteLength": 48}, {"buffer": 0, "byteOffset": 6160, "byteLength": 32}, {"buffer": 0, "byteOffset": 6192, "byteLength": 12}, {"buffer": 0, "byteOffset": 6204, "byteLength": 192}, {"buffer": 0, "byteOffset": 6396, "byteLength": 192}, {"buffer": 0, "byteOffset": 6588, "byteLength": 192}, {"buffer": 0, "byteOffset": 6780, "byteLength": 128}, {"buffer": 0, "byteOffset": 6908, "byteLength": 168}, {"buffer": 0, "byteOffset": 7076, "byteLength": 1200}, {"buffer": 0, "byteOffset": 8276, "byteLength": 1200}, {"buffer": 0, "byteOffset": 9476, "byteLength": 1200}, {"buffer": 0, "byteOffset": 10676, "byteLength": 800}, {"buffer": 0, "byteOffset": 11476, "byteLength": 744}], "buffers": [{"byteLength": 12220, "uri": "data:application/octet-stream;base64,"}], "accessors": [{"componentType": 5126, "type": "VEC3", "bufferView": 0, "byteOffset": 0, "count": 100, "max": [0.31932199001312256, 0.37211400270462036, -0.8335070013999939], "min": [-0.31932199001312256, -0.2607080042362213, -1.478600025177002]}, {"componentType": 5126, "type": "VEC3", "bufferView": 1, "byteOffset": 0, "count": 100, "max": [0.993133008480072, 0.7501749992370605, 0.9930109977722168], "min": [-0.993133008480072, -0.7501749992370605, -0.9930109977722168]}, {"componentType": 5126, "type": "VEC3", "bufferView": 2, "byteOffset": 0, "count": 100, "max": [1.0, 1.0, 1.0], "min": [1.0, 1.0, 1.0]}, {"componentType": 5126, "type": "VEC2", "bufferView": 3, "byteOffset": 0, "count": 100, "max": [0.9881809949874878, 0.9858899712562561], "min": [0.013869999907910824, 0.008701999671757221]}, {"componentType": 5123, "type": "SCALAR", "bufferView": 4, "byteOffset": 0, "count": 372, "max": [99.0], "min": [0.0]}, {"componentType": 5126, "type": "VEC3", "bufferView": 5, "byteOffset": 0, "count": 16, "max": [0.02245360054075718, 2.2181899547576904, -1.1335999965667725], "min": [-0.02245360054075718, 0.31629499793052673, -1.1785099506378174]}, {"componentType": 5126, "type": "VEC3", "bufferView": 6, "byteOffset": 0, "count": 16, "max": [0.7763599753379822, 0.6302379965782166, 0.7763599753379822], "min": [-0.7763599753379822, -0.6302379965782166, -0.7763599753379822]}, {"componentType": 5126, "type": "VEC3", "bufferView": 7, "byteOffset": 0, "count": 16, "max": [1.0, 1.0, 1.0], "min": [1.0, 1.0, 1.0]}, {"componentType": 5126, "type": "VEC2", "bufferView": 8, "byteOffset": 0, "count": 16, "max": [0.0, 0.0], "min": [0.0, 0.0]}, {"componentType": 5123, "type": "SCALAR", "bufferView": 9, "byteOffset": 0, "count": 84, "max": [15.0], "min": [0.0]}, {"componentType": 5126, "type": "VEC3", "bufferView": 10, "byteOffset": 0, "count": 4, "max": [1.5557300514501549e-07, 2.211359977722168, 1.200700044631958], "min": [-1.5557300514501549e-07, 0.44511300325393677, -1.154289960861206]}, {"componentType": 5126, "type": "VEC3", "bufferView": 11, "byteOffset": 0, "count": 4, "max": [1.0, 0.0, 0.0], "min": [1.0, 0.0, 0.0]}, {"componentType": 5126, "type": "VEC3", "bufferView": 12, "byteOffset": 0, "count": 4, "max": [1.0, 1.0, 1.0], "min": [1.0, 1.0, 1.0]}, {"componentType": 5126, "type": "VEC2", "bufferView": 13, "byteOffset": 0, "count": 4, "max": [0.9959570169448853, 0.9999129772186279], "min": [8.70000003487803e-05, 8.70000003487803e-05]}, {"componentType": 5123, "type": "SCALAR", "bufferView": 14, "byteOffset": 0, "count": 6, "max": [3.0], "min": [0.0]}, {"componentType": 5126, "type": "VEC3", "bufferView": 15, "byteOffset": 0, "count": 16, "max": [0.02245360054075718, 2.2181899547576904, 1.2267500162124634], "min": [-0.02245360054075718, 0.31629499793052673, 1.181839942932129]}, {"componentType": 5126, "type": "VEC3", "bufferView": 16, "byteOffset": 0, "count": 16, "max": [0.7763599753379822, 0.6302379965782166, 0.7763599753379822], "min": [-0.7763599753379822, -0.6302379965782166, -0.7763599753379822]}, {"componentType": 5126, "type": "VEC3", "bufferView": 17, "byteOffset": 0, "count": 16, "max": [1.0, 1.0, 1.0], "min": [1.0, 1.0, 1.0]}, {"componentType": 5126, "type": "VEC2", "bufferView": 18, "byteOffset": 0, "count": 16, "max": [0.0, 0.0], "min": [0.0, 0.0]}, {"componentType": 5123, "type": "SCALAR", "bufferView": 19, "byteOffset": 0, "count": 84, "max": [15.0], "min": [0.0]}, {"componentType": 5126, "type": "VEC3", "bufferView": 20, "byteOffset": 0, "count": 100, "max": [0.31932199001312256, 0.37211400270462036, 1.5268499851226807], "min": [-0.31932199001312256, -0.2607080042362213, 0.8817499876022339]}, {"componentType": 5126, "type": "VEC3", "bufferView": 21, "byteOffset": 0, "count": 100, "max": [0.993133008480072, 0.7501749992370605, 0.9930109977722168], "min": [-0.993133008480072, -0.7501749992370605, -0.9930109977722168]}, {"componentType": 5126, "type": "VEC3", "bufferView": 22, "byteOffset": 0, "count": 100, "max": [1.0, 1.0, 1.0], "min": [1.0, 1.0, 1.0]}, {"componentType": 5126, "type": "VEC2", "bufferView": 23, "byteOffset": 0, "count": 100, "max": [0.9881809949874878, 0.9858899712562561], "min": [0.013869999907910824, 0.008701999671757221]}, {"componentType": 5123, "type": "SCALAR", "bufferView": 24, "byteOffset": 0, "count": 372, "max": [99.0], "min": [0.0]}], "materials": [{"pbrMetallicRoughness": {"baseColorFactor": [0.8, 0.8, 0.8, 1], "metallicFactor": 0, "roughnessFactor": 1, "baseColorTexture": {"index": 0}}, "name": "Material.003"}, {"pbrMetallicRoughness": {"baseColorFactor": [0.10196078431372549, 0.027450980392156862, 0.011764705882352941, 1], "metallicFactor": 0, "roughnessFactor": 1}, "name": "Material.002"}, {"pbrMetallicRoughness": {"metallicFactor": 0, "roughnessFactor": 1, "baseColorTexture": {"index": 1}}, "name": "screen"}, {"pbrMetallicRoughness": {"baseColorFactor": [0.10196078431372549, 0.027450980392156862, 0.011764705882352941, 1], "metallicFactor": 0, "roughnessFactor": 1}, "name": "Material.002"}, {"pbrMetallicRoughness": {"baseColorFactor": [0.8, 0.8, 0.8, 1], "metallicFactor": 0, "roughnessFactor": 1, "baseColorTexture": {"index": 0}}, "name": "Material.003"}], "meshes": [{"primitives": [{"mode": 4, "attributes": {"POSITION": 0, "NORMAL": 1, "COLOR_0": 2, "TEXCOORD_0": 3}, "material": 0, "indices": 4}]}, {"primitives": [{"mode": 4, "attributes": {"POSITION": 5, "NORMAL": 6, "COLOR_0": 7, "TEXCOORD_0": 8}, "material": 1, "indices": 9}]}, {"primitives": [{"mode": 4, "attributes": {"POSITION": 10, "NORMAL": 11, "COLOR_0": 12, "TEXCOORD_0": 13}, "material": 2, "indices": 14}]}, {"primitives": [{"mode": 4, "attributes": {"POSITION": 15, "NORMAL": 16, "COLOR_0": 17, "TEXCOORD_0": 18}, "material": 3, "indices": 19}]}, {"primitives": [{"mode": 4, "attributes": {"POSITION": 20, "NORMAL": 21, "COLOR_0": 22, "TEXCOORD_0": 23}, "material": 4, "indices": 24}]}], "images": [{"uri": "baril-256.jpg"}, {"uri": "web cam exp.png"}], "textures": [{"source": 0}, {"source": 1}]}