{"asset": {"version": "2.0", "generator": "GLTFExporter"}, "scenes": [{"name": "AuxScene", "nodes": [3]}], "scene": 0, "nodes": [{"extras": {"mapFilename": null}, "mesh": 0}, {"extras": {"mapFilename": null}, "mesh": 1}, {"extras": {"mapFilename": "baril-256.jpg"}, "mesh": 2}, {"children": [0, 1, 2]}], "bufferViews": [{"buffer": 0, "byteOffset": 0, "byteLength": 240}, {"buffer": 0, "byteOffset": 240, "byteLength": 240}, {"buffer": 0, "byteOffset": 480, "byteLength": 240}, {"buffer": 0, "byteOffset": 720, "byteLength": 160}, {"buffer": 0, "byteOffset": 880, "byteLength": 216}, {"buffer": 0, "byteOffset": 1096, "byteLength": 192}, {"buffer": 0, "byteOffset": 1288, "byteLength": 192}, {"buffer": 0, "byteOffset": 1480, "byteLength": 192}, {"buffer": 0, "byteOffset": 1672, "byteLength": 128}, {"buffer": 0, "byteOffset": 1800, "byteLength": 168}, {"buffer": 0, "byteOffset": 1968, "byteLength": 1200}, {"buffer": 0, "byteOffset": 3168, "byteLength": 1200}, {"buffer": 0, "byteOffset": 4368, "byteLength": 1200}, {"buffer": 0, "byteOffset": 5568, "byteLength": 800}, {"buffer": 0, "byteOffset": 6368, "byteLength": 744}], "buffers": [{"byteLength": 7112, "uri": "data:application/octet-stream;base64,"}], "accessors": [{"componentType": 5126, "type": "VEC3", "bufferView": 0, "byteOffset": 0, "count": 20, "max": [0.014610799960792065, 1.8394700288772583, -0.02500689961016178], "min": [-0.019286399707198143, 1.4176599979400635, -0.6822469830513]}, {"componentType": 5126, "type": "VEC3", "bufferView": 1, "byteOffset": 0, "count": 20, "max": [0.7417830228805542, 0.7397379875183105, 0.6158329844474792], "min": [-0.7307659983634949, -0.7335429787635803, -0.6822720170021057]}, {"componentType": 5126, "type": "VEC3", "bufferView": 2, "byteOffset": 0, "count": 20, "max": [1.0, 1.0, 1.0], "min": [1.0, 1.0, 1.0]}, {"componentType": 5126, "type": "VEC2", "bufferView": 3, "byteOffset": 0, "count": 20, "max": [0.0, 0.0], "min": [0.0, 0.0]}, {"componentType": 5123, "type": "SCALAR", "bufferView": 4, "byteOffset": 0, "count": 108, "max": [19.0], "min": [0.0]}, {"componentType": 5126, "type": "VEC3", "bufferView": 5, "byteOffset": 0, "count": 16, "max": [0.02245360054075718, 1.87663996219635, 0.015882600098848343], "min": [-0.02245360054075718, -0.41286900639533997, -0.029024800285696983]}, {"componentType": 5126, "type": "VEC3", "bufferView": 6, "byteOffset": 0, "count": 16, "max": [0.7763599753379822, 0.6302379965782166, 0.7763599753379822], "min": [-0.7763599753379822, -0.6302379965782166, -0.7763599753379822]}, {"componentType": 5126, "type": "VEC3", "bufferView": 7, "byteOffset": 0, "count": 16, "max": [1.0, 1.0, 1.0], "min": [1.0, 1.0, 1.0]}, {"componentType": 5126, "type": "VEC2", "bufferView": 8, "byteOffset": 0, "count": 16, "max": [0.0, 0.0], "min": [0.0, 0.0]}, {"componentType": 5123, "type": "SCALAR", "bufferView": 9, "byteOffset": 0, "count": 84, "max": [15.0], "min": [0.0]}, {"componentType": 5126, "type": "VEC3", "bufferView": 10, "byteOffset": 0, "count": 100, "max": [0.4561749994754791, 0.5077189803123474, 0.4542109966278076], "min": [-0.4561749994754791, -0.39631301164627075, -0.4673529863357544]}, {"componentType": 5126, "type": "VEC3", "bufferView": 11, "byteOffset": 0, "count": 100, "max": [0.993133008480072, 0.7501749992370605, 0.9930109977722168], "min": [-0.993133008480072, -0.7501749992370605, -0.9930109977722168]}, {"componentType": 5126, "type": "VEC3", "bufferView": 12, "byteOffset": 0, "count": 100, "max": [1.0, 1.0, 1.0], "min": [1.0, 1.0, 1.0]}, {"componentType": 5126, "type": "VEC2", "bufferView": 13, "byteOffset": 0, "count": 100, "max": [0.9881809949874878, 0.9858899712562561], "min": [0.013869999907910824, 0.008701999671757221]}, {"componentType": 5123, "type": "SCALAR", "bufferView": 14, "byteOffset": 0, "count": 372, "max": [99.0], "min": [0.0]}], "materials": [{"pbrMetallicRoughness": {"baseColorFactor": [0.6392156862745098, 0.058823529411764705, 0, 1], "metallicFactor": 0, "roughnessFactor": 1}, "name": "Material.001"}, {"pbrMetallicRoughness": {"baseColorFactor": [0.10196078431372549, 0.027450980392156862, 0.011764705882352941, 1], "metallicFactor": 0, "roughnessFactor": 1}, "name": "Material.002"}, {"pbrMetallicRoughness": {"baseColorFactor": [0.8, 0.8, 0.8, 1], "metallicFactor": 0, "roughnessFactor": 1, "baseColorTexture": {"index": 0}}, "name": "Material.003"}], "meshes": [{"primitives": [{"mode": 4, "attributes": {"POSITION": 0, "NORMAL": 1, "COLOR_0": 2, "TEXCOORD_0": 3}, "material": 0, "indices": 4}]}, {"primitives": [{"mode": 4, "attributes": {"POSITION": 5, "NORMAL": 6, "COLOR_0": 7, "TEXCOORD_0": 8}, "material": 1, "indices": 9}]}, {"primitives": [{"mode": 4, "attributes": {"POSITION": 10, "NORMAL": 11, "COLOR_0": 12, "TEXCOORD_0": 13}, "material": 2, "indices": 14}]}], "images": [{"uri": "baril-256.jpg"}], "textures": [{"source": 0}]}