{"asset": {"version": "2.0", "generator": "GLTFExporter"}, "scenes": [{"name": "AuxScene", "nodes": [7]}], "scene": 0, "nodes": [{"extras": {"mapFilename": "jarmada-gallion-uvs-512.jpg"}, "mesh": 0}, {"extras": {"mapFilename": "jarmada-admiral-voiles-uvs-512.jpg"}, "mesh": 1}, {"extras": {"mapFilename": null}, "mesh": 2}, {"extras": {"mapFilename": null}, "mesh": 3}, {"extras": {"mapFilename": null}, "mesh": 4}, {"extras": {"mapFilename": null}, "mesh": 5}, {"extras": {"mapFilename": null}, "mesh": 6}, {"children": [0, 1, 2, 3, 4, 5, 6]}], "bufferViews": [{"buffer": 0, "byteOffset": 0, "byteLength": 1920}, {"buffer": 0, "byteOffset": 1920, "byteLength": 1920}, {"buffer": 0, "byteOffset": 3840, "byteLength": 1920}, {"buffer": 0, "byteOffset": 5760, "byteLength": 1280}, {"buffer": 0, "byteOffset": 7040, "byteLength": 1296}, {"buffer": 0, "byteOffset": 8336, "byteLength": 624}, {"buffer": 0, "byteOffset": 8960, "byteLength": 624}, {"buffer": 0, "byteOffset": 9584, "byteLength": 624}, {"buffer": 0, "byteOffset": 10208, "byteLength": 416}, {"buffer": 0, "byteOffset": 10624, "byteLength": 552}, {"buffer": 0, "byteOffset": 11176, "byteLength": 192}, {"buffer": 0, "byteOffset": 11368, "byteLength": 192}, {"buffer": 0, "byteOffset": 11560, "byteLength": 192}, {"buffer": 0, "byteOffset": 11752, "byteLength": 128}, {"buffer": 0, "byteOffset": 11880, "byteLength": 168}, {"buffer": 0, "byteOffset": 12048, "byteLength": 192}, {"buffer": 0, "byteOffset": 12240, "byteLength": 192}, {"buffer": 0, "byteOffset": 12432, "byteLength": 192}, {"buffer": 0, "byteOffset": 12624, "byteLength": 128}, {"buffer": 0, "byteOffset": 12752, "byteLength": 168}, {"buffer": 0, "byteOffset": 12920, "byteLength": 192}, {"buffer": 0, "byteOffset": 13112, "byteLength": 192}, {"buffer": 0, "byteOffset": 13304, "byteLength": 192}, {"buffer": 0, "byteOffset": 13496, "byteLength": 128}, {"buffer": 0, "byteOffset": 13624, "byteLength": 168}, {"buffer": 0, "byteOffset": 13792, "byteLength": 192}, {"buffer": 0, "byteOffset": 13984, "byteLength": 192}, {"buffer": 0, "byteOffset": 14176, "byteLength": 192}, {"buffer": 0, "byteOffset": 14368, "byteLength": 128}, {"buffer": 0, "byteOffset": 14496, "byteLength": 168}, {"buffer": 0, "byteOffset": 14664, "byteLength": 192}, {"buffer": 0, "byteOffset": 14856, "byteLength": 192}, {"buffer": 0, "byteOffset": 15048, "byteLength": 192}, {"buffer": 0, "byteOffset": 15240, "byteLength": 128}, {"buffer": 0, "byteOffset": 15368, "byteLength": 168}], "buffers": [{"byteLength": 15536, "uri": "data:application/octet-stream;base64,"}], "accessors": [{"componentType": 5126, "type": "VEC3", "bufferView": 0, "byteOffset": 0, "count": 160, "max": [0.2689000070095062, 0.47152000665664673, 0.9227830171585083], "min": [-0.20845599472522736, -0.154462993144989, -0.9182010293006897]}, {"componentType": 5126, "type": "VEC3", "bufferView": 1, "byteOffset": 0, "count": 160, "max": [0.9859610199928284, 1.0, 0.9534590244293213], "min": [-0.9859610199928284, -1.0, -0.9257479906082153]}, {"componentType": 5126, "type": "VEC3", "bufferView": 2, "byteOffset": 0, "count": 160, "max": [1.0, 1.0, 1.0], "min": [1.0, 1.0, 1.0]}, {"componentType": 5126, "type": "VEC2", "bufferView": 3, "byteOffset": 0, "count": 160, "max": [0.9916080236434937, 0.9615150094032288], "min": [0.00021899999410379678, 0.04654200002551079]}, {"componentType": 5123, "type": "SCALAR", "bufferView": 4, "byteOffset": 0, "count": 648, "max": [159.0], "min": [0.0]}, {"componentType": 5126, "type": "VEC3", "bufferView": 5, "byteOffset": 0, "count": 52, "max": [0.4799099862575531, 1.0626599788665771, 0.7431660294532776], "min": [-0.42309099435806274, 0.41220200061798096, -0.8628420233726501]}, {"componentType": 5126, "type": "VEC3", "bufferView": 6, "byteOffset": 0, "count": 52, "max": [0.9689930081367493, 0.9137849807739258, 0.9985349774360657], "min": [-0.9877930283546448, -0.8317509889602661, -0.9985349774360657]}, {"componentType": 5126, "type": "VEC3", "bufferView": 7, "byteOffset": 0, "count": 52, "max": [1.0, 1.0, 1.0], "min": [1.0, 1.0, 1.0]}, {"componentType": 5126, "type": "VEC2", "bufferView": 8, "byteOffset": 0, "count": 52, "max": [0.8390370011329651, 0.3932360112667084], "min": [0.19058899581432343, 0.0038209999911487103]}, {"componentType": 5123, "type": "SCALAR", "bufferView": 9, "byteOffset": 0, "count": 276, "max": [51.0], "min": [0.0]}, {"componentType": 5126, "type": "VEC3", "bufferView": 10, "byteOffset": 0, "count": 16, "max": [0.3283959925174713, 0.8417350053787231, 0.7465879917144775], "min": [-0.2666099965572357, 0.8332129716873169, 0.7380660176277161]}, {"componentType": 5126, "type": "VEC3", "bufferView": 11, "byteOffset": 0, "count": 16, "max": [0.6302379965782166, 0.7645800113677979, 0.7645800113677979], "min": [-0.6302379965782166, -0.7645800113677979, -0.7645800113677979]}, {"componentType": 5126, "type": "VEC3", "bufferView": 12, "byteOffset": 0, "count": 16, "max": [1.0, 1.0, 1.0], "min": [1.0, 1.0, 1.0]}, {"componentType": 5126, "type": "VEC2", "bufferView": 13, "byteOffset": 0, "count": 16, "max": [0.0, 0.0], "min": [0.0, 0.0]}, {"componentType": 5123, "type": "SCALAR", "bufferView": 14, "byteOffset": 0, "count": 84, "max": [15.0], "min": [0.0]}, {"componentType": 5126, "type": "VEC3", "bufferView": 15, "byteOffset": 0, "count": 16, "max": [0.5027530193328857, 0.9673129916191101, -0.024538200348615646], "min": [-0.44096699357032776, 0.949222981929779, -0.04262790083885193]}, {"componentType": 5126, "type": "VEC3", "bufferView": 16, "byteOffset": 0, "count": 16, "max": [0.6302379965782166, 0.7763599753379822, 0.7763599753379822], "min": [-0.6302379965782166, -0.7763599753379822, -0.7763599753379822]}, {"componentType": 5126, "type": "VEC3", "bufferView": 17, "byteOffset": 0, "count": 16, "max": [1.0, 1.0, 1.0], "min": [1.0, 1.0, 1.0]}, {"componentType": 5126, "type": "VEC2", "bufferView": 18, "byteOffset": 0, "count": 16, "max": [0.0, 0.0], "min": [0.0, 0.0]}, {"componentType": 5123, "type": "SCALAR", "bufferView": 19, "byteOffset": 0, "count": 84, "max": [15.0], "min": [0.0]}, {"componentType": 5126, "type": "VEC3", "bufferView": 20, "byteOffset": 0, "count": 16, "max": [0.03993780165910721, 0.9783200025558472, -0.5737910270690918], "min": [0.021848000586032867, 0.058442000299692154, -0.8204479813575745]}, {"componentType": 5126, "type": "VEC3", "bufferView": 21, "byteOffset": 0, "count": 16, "max": [0.7763599753379822, 0.7998899817466736, 0.9061560034751892], "min": [-0.7763599753379822, -0.7998899817466736, -0.9061560034751892]}, {"componentType": 5126, "type": "VEC3", "bufferView": 22, "byteOffset": 0, "count": 16, "max": [1.0, 1.0, 1.0], "min": [1.0, 1.0, 1.0]}, {"componentType": 5126, "type": "VEC2", "bufferView": 23, "byteOffset": 0, "count": 16, "max": [0.0, 0.0], "min": [0.0, 0.0]}, {"componentType": 5123, "type": "SCALAR", "bufferView": 24, "byteOffset": 0, "count": 84, "max": [15.0], "min": [0.0]}, {"componentType": 5126, "type": "VEC3", "bufferView": 25, "byteOffset": 0, "count": 16, "max": [0.036745499819517136, 0.8748850226402283, 0.7713490128517151], "min": [0.025040600448846817, 0.2707740068435669, 0.6584740281105042]}, {"componentType": 5126, "type": "VEC3", "bufferView": 26, "byteOffset": 0, "count": 16, "max": [0.7763599753379822, 0.7503589987754822, 0.8702049851417542], "min": [-0.7763599753379822, -0.7503589987754822, -0.8702049851417542]}, {"componentType": 5126, "type": "VEC3", "bufferView": 27, "byteOffset": 0, "count": 16, "max": [1.0, 1.0, 1.0], "min": [1.0, 1.0, 1.0]}, {"componentType": 5126, "type": "VEC2", "bufferView": 28, "byteOffset": 0, "count": 16, "max": [0.0, 0.0], "min": [0.0, 0.0]}, {"componentType": 5123, "type": "SCALAR", "bufferView": 29, "byteOffset": 0, "count": 84, "max": [15.0], "min": [0.0]}, {"componentType": 5126, "type": "VEC3", "bufferView": 30, "byteOffset": 0, "count": 16, "max": [0.044823601841926575, 1.1049100160598755, 0.012474199756979942], "min": [0.0162563007324934, 0.10757099837064743, -0.05099809914827347]}, {"componentType": 5126, "type": "VEC3", "bufferView": 31, "byteOffset": 0, "count": 16, "max": [0.7783750295639038, 0.6643270254135132, 0.7999510169029236], "min": [-0.7783750295639038, -0.6596270203590393, -0.8037350177764893]}, {"componentType": 5126, "type": "VEC3", "bufferView": 32, "byteOffset": 0, "count": 16, "max": [1.0, 1.0, 1.0], "min": [1.0, 1.0, 1.0]}, {"componentType": 5126, "type": "VEC2", "bufferView": 33, "byteOffset": 0, "count": 16, "max": [0.0, 0.0], "min": [0.0, 0.0]}, {"componentType": 5123, "type": "SCALAR", "bufferView": 34, "byteOffset": 0, "count": 84, "max": [15.0], "min": [0.0]}], "materials": [{"pbrMetallicRoughness": {"baseColorFactor": [0.6392156862745098, 0.6392156862745098, 0.6392156862745098, 1], "metallicFactor": 0, "roughnessFactor": 1, "baseColorTexture": {"index": 0}}, "name": "coque"}, {"pbrMetallicRoughness": {"baseColorFactor": [0.6392156862745098, 0.6392156862745098, 0.6392156862745098, 1], "metallicFactor": 0, "roughnessFactor": 1, "baseColorTexture": {"index": 1}}, "name": "voiles"}, {"pbrMetallicRoughness": {"baseColorFactor": [0.12941176470588237, 0.0392156862745098, 0.01568627450980392, 1], "metallicFactor": 0, "roughnessFactor": 1}, "name": "bois"}, {"pbrMetallicRoughness": {"baseColorFactor": [0.12941176470588237, 0.0392156862745098, 0.01568627450980392, 1], "metallicFactor": 0, "roughnessFactor": 1}, "name": "bois"}, {"pbrMetallicRoughness": {"baseColorFactor": [0.12941176470588237, 0.0392156862745098, 0.01568627450980392, 1], "metallicFactor": 0, "roughnessFactor": 1}, "name": "bois"}, {"pbrMetallicRoughness": {"baseColorFactor": [0.12941176470588237, 0.0392156862745098, 0.01568627450980392, 1], "metallicFactor": 0, "roughnessFactor": 1}, "name": "bois"}, {"pbrMetallicRoughness": {"baseColorFactor": [0.12941176470588237, 0.0392156862745098, 0.01568627450980392, 1], "metallicFactor": 0, "roughnessFactor": 1}, "name": "bois"}], "meshes": [{"primitives": [{"mode": 4, "attributes": {"POSITION": 0, "NORMAL": 1, "COLOR_0": 2, "TEXCOORD_0": 3}, "material": 0, "indices": 4}]}, {"primitives": [{"mode": 4, "attributes": {"POSITION": 5, "NORMAL": 6, "COLOR_0": 7, "TEXCOORD_0": 8}, "material": 1, "indices": 9}]}, {"primitives": [{"mode": 4, "attributes": {"POSITION": 10, "NORMAL": 11, "COLOR_0": 12, "TEXCOORD_0": 13}, "material": 2, "indices": 14}]}, {"primitives": [{"mode": 4, "attributes": {"POSITION": 15, "NORMAL": 16, "COLOR_0": 17, "TEXCOORD_0": 18}, "material": 3, "indices": 19}]}, {"primitives": [{"mode": 4, "attributes": {"POSITION": 20, "NORMAL": 21, "COLOR_0": 22, "TEXCOORD_0": 23}, "material": 4, "indices": 24}]}, {"primitives": [{"mode": 4, "attributes": {"POSITION": 25, "NORMAL": 26, "COLOR_0": 27, "TEXCOORD_0": 28}, "material": 5, "indices": 29}]}, {"primitives": [{"mode": 4, "attributes": {"POSITION": 30, "NORMAL": 31, "COLOR_0": 32, "TEXCOORD_0": 33}, "material": 6, "indices": 34}]}], "images": [{"uri": "jarmada-gallion-uvs-512.jpg"}, {"uri": "jarmada-admiral-voiles-uvs-512.jpg"}], "textures": [{"source": 0}, {"source": 1}]}