{"asset": {"version": "2.0", "generator": "GLTFExporter"}, "scenes": [{"name": "AuxScene", "nodes": [7]}], "scene": 0, "nodes": [{"extras": {"mapFilename": null}, "mesh": 0}, {"extras": {"mapFilename": null}, "mesh": 1}, {"extras": {"mapFilename": null}, "mesh": 2}, {"extras": {"mapFilename": null}, "mesh": 3}, {"extras": {"mapFilename": null}, "mesh": 4}, {"extras": {"mapFilename": null}, "mesh": 5}, {"extras": {"mapFilename": null}, "mesh": 6}, {"children": [0, 1, 2, 3, 4, 5, 6]}], "bufferViews": [{"buffer": 0, "byteOffset": 0, "byteLength": 3120}, {"buffer": 0, "byteOffset": 3120, "byteLength": 3120}, {"buffer": 0, "byteOffset": 6240, "byteLength": 3120}, {"buffer": 0, "byteOffset": 9360, "byteLength": 2880}, {"buffer": 0, "byteOffset": 12240, "byteLength": 672}, {"buffer": 0, "byteOffset": 12912, "byteLength": 672}, {"buffer": 0, "byteOffset": 13584, "byteLength": 672}, {"buffer": 0, "byteOffset": 14256, "byteLength": 576}, {"buffer": 0, "byteOffset": 14832, "byteLength": 672}, {"buffer": 0, "byteOffset": 15504, "byteLength": 672}, {"buffer": 0, "byteOffset": 16176, "byteLength": 672}, {"buffer": 0, "byteOffset": 16848, "byteLength": 576}, {"buffer": 0, "byteOffset": 17424, "byteLength": 3120}, {"buffer": 0, "byteOffset": 20544, "byteLength": 3120}, {"buffer": 0, "byteOffset": 23664, "byteLength": 3120}, {"buffer": 0, "byteOffset": 26784, "byteLength": 2880}, {"buffer": 0, "byteOffset": 29664, "byteLength": 3120}, {"buffer": 0, "byteOffset": 32784, "byteLength": 3120}, {"buffer": 0, "byteOffset": 35904, "byteLength": 3120}, {"buffer": 0, "byteOffset": 39024, "byteLength": 2880}, {"buffer": 0, "byteOffset": 41904, "byteLength": 672}, {"buffer": 0, "byteOffset": 42576, "byteLength": 672}, {"buffer": 0, "byteOffset": 43248, "byteLength": 672}, {"buffer": 0, "byteOffset": 43920, "byteLength": 576}, {"buffer": 0, "byteOffset": 44496, "byteLength": 300}, {"buffer": 0, "byteOffset": 44796, "byteLength": 300}, {"buffer": 0, "byteOffset": 45096, "byteLength": 300}, {"buffer": 0, "byteOffset": 45396, "byteLength": 192}], "buffers": [{"byteLength": 45588, "uri": "data:application/octet-stream;base64,"}], "accessors": [{"componentType": 5126, "type": "VEC3", "bufferView": 0, "byteOffset": 0, "count": 260, "max": [0.1796489953994751, 0.8048629760742188, 0.1814199984073639], "min": [-0.6195420026779175, 0.4803279936313629, -0.5218700170516968]}, {"componentType": 5126, "type": "VEC3", "bufferView": 1, "byteOffset": 0, "count": 260, "max": [0.9776909947395325, 0.8740500211715698, 0.9951480031013489], "min": [-0.9997559785842896, -0.9931640028953552, -0.9760429859161377]}, {"componentType": 5126, "type": "VEC3", "bufferView": 2, "byteOffset": 0, "count": 260, "max": [1.0, 1.0, 1.0], "min": [1.0, 1.0, 1.0]}, {"componentType": 5123, "type": "SCALAR", "bufferView": 3, "byteOffset": 0, "count": 1440, "max": [259.0], "min": [0.0]}, {"componentType": 5126, "type": "VEC3", "bufferView": 4, "byteOffset": 0, "count": 56, "max": [0.017957400530576706, 0.6141229867935181, -0.023420099169015884], "min": [-0.1989240050315857, 0.0379876010119915, -0.15349499881267548]}, {"componentType": 5126, "type": "VEC3", "bufferView": 5, "byteOffset": 0, "count": 56, "max": [0.9552599787712097, 0.5909600257873535, 0.9872130155563354], "min": [-0.9714040160179138, -0.5403000116348267, -0.985289990901947]}, {"componentType": 5126, "type": "VEC3", "bufferView": 6, "byteOffset": 0, "count": 56, "max": [1.0, 1.0, 1.0], "min": [1.0, 1.0, 1.0]}, {"componentType": 5123, "type": "SCALAR", "bufferView": 7, "byteOffset": 0, "count": 288, "max": [55.0], "min": [0.0]}, {"componentType": 5126, "type": "VEC3", "bufferView": 8, "byteOffset": 0, "count": 56, "max": [0.11950699985027313, 0.524662971496582, 0.3141399919986725], "min": [0.034439701586961746, 0.09278000146150589, 0.14629900455474854]}, {"componentType": 5126, "type": "VEC3", "bufferView": 9, "byteOffset": 0, "count": 56, "max": [0.9684739708900452, 0.5909600257873535, 0.974058985710144], "min": [-0.9598069787025452, -0.5403000116348267, -0.9517199993133545]}, {"componentType": 5126, "type": "VEC3", "bufferView": 10, "byteOffset": 0, "count": 56, "max": [1.0, 1.0, 1.0], "min": [1.0, 1.0, 1.0]}, {"componentType": 5123, "type": "SCALAR", "bufferView": 11, "byteOffset": 0, "count": 288, "max": [55.0], "min": [0.0]}, {"componentType": 5126, "type": "VEC3", "bufferView": 12, "byteOffset": 0, "count": 260, "max": [0.35872599482536316, 0.6676459908485413, 0.5538970232009888], "min": [-0.2201559990644455, 0.4243670105934143, 0.06593459844589233]}, {"componentType": 5126, "type": "VEC3", "bufferView": 13, "byteOffset": 0, "count": 260, "max": [0.9761350154876709, 0.8740500211715698, 0.9979550242424011], "min": [-0.9810479879379272, -0.9931640028953552, -0.9290440082550049]}, {"componentType": 5126, "type": "VEC3", "bufferView": 14, "byteOffset": 0, "count": 260, "max": [1.0, 1.0, 1.0], "min": [1.0, 1.0, 1.0]}, {"componentType": 5123, "type": "SCALAR", "bufferView": 15, "byteOffset": 0, "count": 1440, "max": [259.0], "min": [0.0]}, {"componentType": 5126, "type": "VEC3", "bufferView": 16, "byteOffset": 0, "count": 260, "max": [0.8065279722213745, 1.0064599514007568, 0.3046799898147583], "min": [-0.009646180085837841, 0.6186180114746094, -0.692637026309967]}, {"componentType": 5126, "type": "VEC3", "bufferView": 17, "byteOffset": 0, "count": 260, "max": [0.9572129845619202, 0.8740500211715698, 0.982695996761322], "min": [-0.9919130206108093, -0.9931640028953552, -0.9869080185890198]}, {"componentType": 5126, "type": "VEC3", "bufferView": 18, "byteOffset": 0, "count": 260, "max": [1.0, 1.0, 1.0], "min": [1.0, 1.0, 1.0]}, {"componentType": 5123, "type": "SCALAR", "bufferView": 19, "byteOffset": 0, "count": 1440, "max": [259.0], "min": [0.0]}, {"componentType": 5126, "type": "VEC3", "bufferView": 20, "byteOffset": 0, "count": 56, "max": [0.41301101446151733, 0.7785109877586365, -0.043807998299598694], "min": [0.17710399627685547, 0.08999329805374146, -0.23545099794864655]}, {"componentType": 5126, "type": "VEC3", "bufferView": 21, "byteOffset": 0, "count": 56, "max": [0.9588000178337097, 0.5909600257873535, 0.9779350161552429], "min": [-0.9526050090789795, -0.5403000116348267, -0.9694200158119202]}, {"componentType": 5126, "type": "VEC3", "bufferView": 22, "byteOffset": 0, "count": 56, "max": [1.0, 1.0, 1.0], "min": [1.0, 1.0, 1.0]}, {"componentType": 5123, "type": "SCALAR", "bufferView": 23, "byteOffset": 0, "count": 288, "max": [55.0], "min": [0.0]}, {"componentType": 5126, "type": "VEC3", "bufferView": 24, "byteOffset": 0, "count": 25, "max": [0.550915002822876, 0.21255899965763092, 0.5136479735374451], "min": [-0.4281339943408966, 0.0011428899597376585, -0.4654009938240051]}, {"componentType": 5126, "type": "VEC3", "bufferView": 25, "byteOffset": 0, "count": 25, "max": [0.49931299686431885, 1.0, 0.49931299686431885], "min": [-0.49931299686431885, 0.8636130094528198, -0.49931299686431885]}, {"componentType": 5126, "type": "VEC3", "bufferView": 26, "byteOffset": 0, "count": 25, "max": [1.0, 1.0, 1.0], "min": [1.0, 1.0, 1.0]}, {"componentType": 5123, "type": "SCALAR", "bufferView": 27, "byteOffset": 0, "count": 96, "max": [24.0], "min": [0.0]}], "materials": [{"pbrMetallicRoughness": {"baseColorFactor": [0.4235294117647059, 0.6392156862745098, 0.24705882352941178, 1], "metallicFactor": 0, "roughnessFactor": 1}, "name": "leaves"}, {"pbrMetallicRoughness": {"baseColorFactor": [0.16862745098039217, 0.058823529411764705, 0.00784313725490196, 1], "metallicFactor": 0, "roughnessFactor": 1}, "name": "wood"}, {"pbrMetallicRoughness": {"baseColorFactor": [0.16862745098039217, 0.058823529411764705, 0.00784313725490196, 1], "metallicFactor": 0, "roughnessFactor": 1}, "name": "wood"}, {"pbrMetallicRoughness": {"baseColorFactor": [0.4235294117647059, 0.6392156862745098, 0.24705882352941178, 1], "metallicFactor": 0, "roughnessFactor": 1}, "name": "leaves"}, {"pbrMetallicRoughness": {"baseColorFactor": [0.4235294117647059, 0.6392156862745098, 0.24705882352941178, 1], "metallicFactor": 0, "roughnessFactor": 1}, "name": "leaves"}, {"pbrMetallicRoughness": {"baseColorFactor": [0.16862745098039217, 0.058823529411764705, 0.00784313725490196, 1], "metallicFactor": 0, "roughnessFactor": 1}, "name": "wood"}, {"pbrMetallicRoughness": {"baseColorFactor": [0.6392156862745098, 0.4549019607843137, 0.20392156862745098, 1], "metallicFactor": 0, "roughnessFactor": 1}, "name": "sand"}], "meshes": [{"primitives": [{"mode": 4, "attributes": {"POSITION": 0, "NORMAL": 1, "COLOR_0": 2}, "material": 0, "indices": 3}]}, {"primitives": [{"mode": 4, "attributes": {"POSITION": 4, "NORMAL": 5, "COLOR_0": 6}, "material": 1, "indices": 7}]}, {"primitives": [{"mode": 4, "attributes": {"POSITION": 8, "NORMAL": 9, "COLOR_0": 10}, "material": 2, "indices": 11}]}, {"primitives": [{"mode": 4, "attributes": {"POSITION": 12, "NORMAL": 13, "COLOR_0": 14}, "material": 3, "indices": 15}]}, {"primitives": [{"mode": 4, "attributes": {"POSITION": 16, "NORMAL": 17, "COLOR_0": 18}, "material": 4, "indices": 19}]}, {"primitives": [{"mode": 4, "attributes": {"POSITION": 20, "NORMAL": 21, "COLOR_0": 22}, "material": 5, "indices": 23}]}, {"primitives": [{"mode": 4, "attributes": {"POSITION": 24, "NORMAL": 25, "COLOR_0": 26}, "material": 6, "indices": 27}]}]}