{"asset": {"version": "2.0", "generator": "GLTFExporter"}, "scenes": [{"name": "AuxScene", "nodes": [6]}], "scene": 0, "nodes": [{"extras": {"mapFilename": "jarmada-admiral-voiles-uvs-512.jpg"}, "mesh": 0}, {"extras": {"mapFilename": null}, "mesh": 1}, {"extras": {"mapFilename": null}, "mesh": 2}, {"extras": {"mapFilename": null}, "mesh": 3}, {"extras": {"mapFilename": null}, "mesh": 4}, {"extras": {"mapFilename": "jarmada-frigate-uvs-512.jpg"}, "mesh": 5}, {"children": [0, 1, 2, 3, 4, 5]}], "bufferViews": [{"buffer": 0, "byteOffset": 0, "byteLength": 408}, {"buffer": 0, "byteOffset": 408, "byteLength": 408}, {"buffer": 0, "byteOffset": 816, "byteLength": 408}, {"buffer": 0, "byteOffset": 1224, "byteLength": 272}, {"buffer": 0, "byteOffset": 1496, "byteLength": 360}, {"buffer": 0, "byteOffset": 1856, "byteLength": 192}, {"buffer": 0, "byteOffset": 2048, "byteLength": 192}, {"buffer": 0, "byteOffset": 2240, "byteLength": 192}, {"buffer": 0, "byteOffset": 2432, "byteLength": 128}, {"buffer": 0, "byteOffset": 2560, "byteLength": 168}, {"buffer": 0, "byteOffset": 2728, "byteLength": 192}, {"buffer": 0, "byteOffset": 2920, "byteLength": 192}, {"buffer": 0, "byteOffset": 3112, "byteLength": 192}, {"buffer": 0, "byteOffset": 3304, "byteLength": 128}, {"buffer": 0, "byteOffset": 3432, "byteLength": 168}, {"buffer": 0, "byteOffset": 3600, "byteLength": 192}, {"buffer": 0, "byteOffset": 3792, "byteLength": 192}, {"buffer": 0, "byteOffset": 3984, "byteLength": 192}, {"buffer": 0, "byteOffset": 4176, "byteLength": 128}, {"buffer": 0, "byteOffset": 4304, "byteLength": 168}, {"buffer": 0, "byteOffset": 4472, "byteLength": 192}, {"buffer": 0, "byteOffset": 4664, "byteLength": 192}, {"buffer": 0, "byteOffset": 4856, "byteLength": 192}, {"buffer": 0, "byteOffset": 5048, "byteLength": 128}, {"buffer": 0, "byteOffset": 5176, "byteLength": 168}, {"buffer": 0, "byteOffset": 5344, "byteLength": 1092}, {"buffer": 0, "byteOffset": 6436, "byteLength": 1092}, {"buffer": 0, "byteOffset": 7528, "byteLength": 1092}, {"buffer": 0, "byteOffset": 8620, "byteLength": 728}, {"buffer": 0, "byteOffset": 9348, "byteLength": 624}], "buffers": [{"byteLength": 9972, "uri": "data:application/octet-stream;base64,"}], "accessors": [{"componentType": 5126, "type": "VEC3", "bufferView": 0, "byteOffset": 0, "count": 34, "max": [0.278425008058548, 0.7868130207061768, 0.31894001364707947], "min": [-0.2305070012807846, 0.16136500239372253, -0.32801899313926697]}, {"componentType": 5126, "type": "VEC3", "bufferView": 1, "byteOffset": 0, "count": 34, "max": [0.9689930081367493, 0.9137849807739258, 0.9985349774360657], "min": [-0.9877930283546448, -0.8317509889602661, -0.9985349774360657]}, {"componentType": 5126, "type": "VEC3", "bufferView": 2, "byteOffset": 0, "count": 34, "max": [1.0, 1.0, 1.0], "min": [1.0, 1.0, 1.0]}, {"componentType": 5126, "type": "VEC2", "bufferView": 3, "byteOffset": 0, "count": 34, "max": [0.8390370011329651, 0.3932360112667084], "min": [0.19058899581432343, 0.0038209999911487103]}, {"componentType": 5123, "type": "SCALAR", "bufferView": 4, "byteOffset": 0, "count": 180, "max": [33.0], "min": [0.0]}, {"componentType": 5126, "type": "VEC3", "bufferView": 5, "byteOffset": 0, "count": 16, "max": [0.13832299411296844, 0.39380601048469543, 0.3256469964981079], "min": [-0.14202600717544556, 0.38787999749183655, 0.3197219967842102]}, {"componentType": 5126, "type": "VEC3", "bufferView": 6, "byteOffset": 0, "count": 16, "max": [0.6302379965782166, 0.7645800113677979, 0.7645800113677979], "min": [-0.6302379965782166, -0.7645800113677979, -0.7645800113677979]}, {"componentType": 5126, "type": "VEC3", "bufferView": 7, "byteOffset": 0, "count": 16, "max": [1.0, 1.0, 1.0], "min": [1.0, 1.0, 1.0]}, {"componentType": 5126, "type": "VEC2", "bufferView": 8, "byteOffset": 0, "count": 16, "max": [0.0, 0.0], "min": [0.0, 0.0]}, {"componentType": 5123, "type": "SCALAR", "bufferView": 9, "byteOffset": 0, "count": 84, "max": [15.0], "min": [0.0]}, {"componentType": 5126, "type": "VEC3", "bufferView": 10, "byteOffset": 0, "count": 16, "max": [0.0022175100166350603, 0.41685599088668823, 0.3428640067577362], "min": [-0.0059210797771811485, -0.003193330019712448, 0.26438000798225403]}, {"componentType": 5126, "type": "VEC3", "bufferView": 11, "byteOffset": 0, "count": 16, "max": [0.7763599753379822, 0.7503589987754822, 0.8702049851417542], "min": [-0.7763599753379822, -0.7503589987754822, -0.8702049851417542]}, {"componentType": 5126, "type": "VEC3", "bufferView": 12, "byteOffset": 0, "count": 16, "max": [1.0, 1.0, 1.0], "min": [1.0, 1.0, 1.0]}, {"componentType": 5126, "type": "VEC2", "bufferView": 13, "byteOffset": 0, "count": 16, "max": [0.0, 0.0], "min": [0.0, 0.0]}, {"componentType": 5123, "type": "SCALAR", "bufferView": 14, "byteOffset": 0, "count": 84, "max": [15.0], "min": [0.0]}, {"componentType": 5126, "type": "VEC3", "bufferView": 15, "byteOffset": 0, "count": 16, "max": [0.017571499571204185, 0.6836810111999512, -0.10630299896001816], "min": [0.0049934000708162785, 0.04407380148768425, -0.2778080105781555]}, {"componentType": 5126, "type": "VEC3", "bufferView": 16, "byteOffset": 0, "count": 16, "max": [0.7763599753379822, 0.7998899817466736, 0.9061560034751892], "min": [-0.7763599753379822, -0.7998899817466736, -0.9061560034751892]}, {"componentType": 5126, "type": "VEC3", "bufferView": 17, "byteOffset": 0, "count": 16, "max": [1.0, 1.0, 1.0], "min": [1.0, 1.0, 1.0]}, {"componentType": 5126, "type": "VEC2", "bufferView": 18, "byteOffset": 0, "count": 16, "max": [0.0, 0.0], "min": [0.0, 0.0]}, {"componentType": 5123, "type": "SCALAR", "bufferView": 19, "byteOffset": 0, "count": 84, "max": [15.0], "min": [0.0]}, {"componentType": 5126, "type": "VEC3", "bufferView": 20, "byteOffset": 0, "count": 16, "max": [0.28116199374198914, 0.8023250102996826, -0.1807509958744049], "min": [-0.2063630074262619, 0.21417100727558136, -0.3391689956188202]}, {"componentType": 5126, "type": "VEC3", "bufferView": 21, "byteOffset": 0, "count": 16, "max": [0.9994509816169739, 0.9551680088043213, 0.8764920234680176], "min": [-0.9994509816169739, -0.9551680088043213, -0.8764920234680176]}, {"componentType": 5126, "type": "VEC3", "bufferView": 22, "byteOffset": 0, "count": 16, "max": [1.0, 1.0, 1.0], "min": [1.0, 1.0, 1.0]}, {"componentType": 5126, "type": "VEC2", "bufferView": 23, "byteOffset": 0, "count": 16, "max": [0.0, 0.0], "min": [0.0, 0.0]}, {"componentType": 5123, "type": "SCALAR", "bufferView": 24, "byteOffset": 0, "count": 84, "max": [15.0], "min": [0.0]}, {"componentType": 5126, "type": "VEC3", "bufferView": 25, "byteOffset": 0, "count": 91, "max": [0.17872899770736694, 0.09656839817762375, 0.3495410084724426], "min": [-0.16968700289726257, -0.03511299937963486, -0.3504999876022339]}, {"componentType": 5126, "type": "VEC3", "bufferView": 26, "byteOffset": 0, "count": 91, "max": [0.9938660264015198, 1.0, 0.9817500114440918], "min": [-0.9938660264015198, -1.0, -0.9839469790458679]}, {"componentType": 5126, "type": "VEC3", "bufferView": 27, "byteOffset": 0, "count": 91, "max": [1.0, 1.0, 1.0], "min": [1.0, 1.0, 1.0]}, {"componentType": 5126, "type": "VEC2", "bufferView": 28, "byteOffset": 0, "count": 91, "max": [0.9950649738311768, 0.9862279891967773], "min": [0.012109000235795975, 0.009189000353217125]}, {"componentType": 5123, "type": "SCALAR", "bufferView": 29, "byteOffset": 0, "count": 312, "max": [90.0], "min": [0.0]}], "materials": [{"pbrMetallicRoughness": {"baseColorFactor": [0.6392156862745098, 0.6392156862745098, 0.6392156862745098, 1], "metallicFactor": 0, "roughnessFactor": 1, "baseColorTexture": {"index": 0}}, "name": "voiles"}, {"pbrMetallicRoughness": {"baseColorFactor": [0.12941176470588237, 0.0392156862745098, 0.01568627450980392, 1], "metallicFactor": 0, "roughnessFactor": 1}, "name": "bois"}, {"pbrMetallicRoughness": {"baseColorFactor": [0.12941176470588237, 0.0392156862745098, 0.01568627450980392, 1], "metallicFactor": 0, "roughnessFactor": 1}, "name": "bois"}, {"pbrMetallicRoughness": {"baseColorFactor": [0.12941176470588237, 0.0392156862745098, 0.01568627450980392, 1], "metallicFactor": 0, "roughnessFactor": 1}, "name": "bois"}, {"pbrMetallicRoughness": {"baseColorFactor": [0.12941176470588237, 0.0392156862745098, 0.01568627450980392, 1], "metallicFactor": 0, "roughnessFactor": 1}, "name": "bois"}, {"pbrMetallicRoughness": {"baseColorFactor": [0.6392156862745098, 0.6392156862745098, 0.6392156862745098, 1], "metallicFactor": 0, "roughnessFactor": 1, "baseColorTexture": {"index": 1}}, "name": "coque"}], "meshes": [{"primitives": [{"mode": 4, "attributes": {"POSITION": 0, "NORMAL": 1, "COLOR_0": 2, "TEXCOORD_0": 3}, "material": 0, "indices": 4}]}, {"primitives": [{"mode": 4, "attributes": {"POSITION": 5, "NORMAL": 6, "COLOR_0": 7, "TEXCOORD_0": 8}, "material": 1, "indices": 9}]}, {"primitives": [{"mode": 4, "attributes": {"POSITION": 10, "NORMAL": 11, "COLOR_0": 12, "TEXCOORD_0": 13}, "material": 2, "indices": 14}]}, {"primitives": [{"mode": 4, "attributes": {"POSITION": 15, "NORMAL": 16, "COLOR_0": 17, "TEXCOORD_0": 18}, "material": 3, "indices": 19}]}, {"primitives": [{"mode": 4, "attributes": {"POSITION": 20, "NORMAL": 21, "COLOR_0": 22, "TEXCOORD_0": 23}, "material": 4, "indices": 24}]}, {"primitives": [{"mode": 4, "attributes": {"POSITION": 25, "NORMAL": 26, "COLOR_0": 27, "TEXCOORD_0": 28}, "material": 5, "indices": 29}]}], "images": [{"uri": "jarmada-admiral-voiles-uvs-512.jpg"}, {"uri": "jarmada-frigate-uvs-512.jpg"}], "textures": [{"source": 0}, {"source": 1}]}