{"asset": {"version": "2.0", "generator": "GLTFExporter"}, "scenes": [{"name": "AuxScene", "nodes": [10]}], "scene": 0, "nodes": [{"extras": {"mapFilename": "jarmada-admiral-voiles-uvs-512.jpg"}, "mesh": 0}, {"extras": {"mapFilename": null}, "mesh": 1}, {"extras": {"mapFilename": null}, "mesh": 2}, {"extras": {"mapFilename": null}, "mesh": 3}, {"extras": {"mapFilename": null}, "mesh": 4}, {"extras": {"mapFilename": null}, "mesh": 5}, {"extras": {"mapFilename": null}, "mesh": 6}, {"extras": {"mapFilename": null}, "mesh": 7}, {"extras": {"mapFilename": null}, "mesh": 8}, {"extras": {"mapFilename": "jarmada-admiral-uvs-512.jpg"}, "mesh": 9}, {"children": [0, 1, 2, 3, 4, 5, 6, 7, 8, 9]}], "bufferViews": [{"buffer": 0, "byteOffset": 0, "byteLength": 1056}, {"buffer": 0, "byteOffset": 1056, "byteLength": 1056}, {"buffer": 0, "byteOffset": 2112, "byteLength": 1056}, {"buffer": 0, "byteOffset": 3168, "byteLength": 704}, {"buffer": 0, "byteOffset": 3872, "byteLength": 936}, {"buffer": 0, "byteOffset": 4808, "byteLength": 192}, {"buffer": 0, "byteOffset": 5000, "byteLength": 192}, {"buffer": 0, "byteOffset": 5192, "byteLength": 192}, {"buffer": 0, "byteOffset": 5384, "byteLength": 128}, {"buffer": 0, "byteOffset": 5512, "byteLength": 168}, {"buffer": 0, "byteOffset": 5680, "byteLength": 192}, {"buffer": 0, "byteOffset": 5872, "byteLength": 192}, {"buffer": 0, "byteOffset": 6064, "byteLength": 192}, {"buffer": 0, "byteOffset": 6256, "byteLength": 128}, {"buffer": 0, "byteOffset": 6384, "byteLength": 168}, {"buffer": 0, "byteOffset": 6552, "byteLength": 192}, {"buffer": 0, "byteOffset": 6744, "byteLength": 192}, {"buffer": 0, "byteOffset": 6936, "byteLength": 192}, {"buffer": 0, "byteOffset": 7128, "byteLength": 128}, {"buffer": 0, "byteOffset": 7256, "byteLength": 168}, {"buffer": 0, "byteOffset": 7424, "byteLength": 192}, {"buffer": 0, "byteOffset": 7616, "byteLength": 192}, {"buffer": 0, "byteOffset": 7808, "byteLength": 192}, {"buffer": 0, "byteOffset": 8000, "byteLength": 128}, {"buffer": 0, "byteOffset": 8128, "byteLength": 168}, {"buffer": 0, "byteOffset": 8296, "byteLength": 192}, {"buffer": 0, "byteOffset": 8488, "byteLength": 192}, {"buffer": 0, "byteOffset": 8680, "byteLength": 192}, {"buffer": 0, "byteOffset": 8872, "byteLength": 128}, {"buffer": 0, "byteOffset": 9000, "byteLength": 168}, {"buffer": 0, "byteOffset": 9168, "byteLength": 192}, {"buffer": 0, "byteOffset": 9360, "byteLength": 192}, {"buffer": 0, "byteOffset": 9552, "byteLength": 192}, {"buffer": 0, "byteOffset": 9744, "byteLength": 128}, {"buffer": 0, "byteOffset": 9872, "byteLength": 168}, {"buffer": 0, "byteOffset": 10040, "byteLength": 192}, {"buffer": 0, "byteOffset": 10232, "byteLength": 192}, {"buffer": 0, "byteOffset": 10424, "byteLength": 192}, {"buffer": 0, "byteOffset": 10616, "byteLength": 128}, {"buffer": 0, "byteOffset": 10744, "byteLength": 168}, {"buffer": 0, "byteOffset": 10912, "byteLength": 192}, {"buffer": 0, "byteOffset": 11104, "byteLength": 192}, {"buffer": 0, "byteOffset": 11296, "byteLength": 192}, {"buffer": 0, "byteOffset": 11488, "byteLength": 128}, {"buffer": 0, "byteOffset": 11616, "byteLength": 168}, {"buffer": 0, "byteOffset": 11784, "byteLength": 2076}, {"buffer": 0, "byteOffset": 13860, "byteLength": 2076}, {"buffer": 0, "byteOffset": 15936, "byteLength": 2076}, {"buffer": 0, "byteOffset": 18012, "byteLength": 1384}, {"buffer": 0, "byteOffset": 19396, "byteLength": 1368}], "buffers": [{"byteLength": 20764, "uri": "data:application/octet-stream;base64,"}], "accessors": [{"componentType": 5126, "type": "VEC3", "bufferView": 0, "byteOffset": 0, "count": 88, "max": [0.5120279788970947, 1.484089970588684, 0.7021309733390808], "min": [-0.5085669755935669, 0.42872801423072815, -0.7539460062980652]}, {"componentType": 5126, "type": "VEC3", "bufferView": 1, "byteOffset": 0, "count": 88, "max": [0.9689630270004272, 0.8314160108566284, 0.9999690055847168], "min": [-0.9877930283546448, -0.7722709774971008, -0.9999690055847168]}, {"componentType": 5126, "type": "VEC3", "bufferView": 2, "byteOffset": 0, "count": 88, "max": [1.0, 1.0, 1.0], "min": [1.0, 1.0, 1.0]}, {"componentType": 5126, "type": "VEC2", "bufferView": 3, "byteOffset": 0, "count": 88, "max": [0.9900760054588318, 0.9975079894065857], "min": [0.0026000000070780516, 0.0038209999911487103]}, {"componentType": 5123, "type": "SCALAR", "bufferView": 4, "byteOffset": 0, "count": 468, "max": [87.0], "min": [0.0]}, {"componentType": 5126, "type": "VEC3", "bufferView": 5, "byteOffset": 0, "count": 16, "max": [0.2627590000629425, 1.2062300443649292, 0.7136309742927551], "min": [-0.25711899995803833, 0.6665650010108948, 0.3448149859905243]}, {"componentType": 5126, "type": "VEC3", "bufferView": 6, "byteOffset": 0, "count": 16, "max": [0.9994509816169739, 0.9996950030326843, 0.9296240210533142], "min": [-0.9994509816169739, -0.9996950030326843, -0.9296240210533142]}, {"componentType": 5126, "type": "VEC3", "bufferView": 7, "byteOffset": 0, "count": 16, "max": [1.0, 1.0, 1.0], "min": [1.0, 1.0, 1.0]}, {"componentType": 5126, "type": "VEC2", "bufferView": 8, "byteOffset": 0, "count": 16, "max": [0.0, 0.0], "min": [0.0, 0.0]}, {"componentType": 5123, "type": "SCALAR", "bufferView": 9, "byteOffset": 0, "count": 84, "max": [15.0], "min": [0.0]}, {"componentType": 5126, "type": "VEC3", "bufferView": 10, "byteOffset": 0, "count": 16, "max": [0.38615599274635315, 0.8936179876327515, -0.6985870003700256], "min": [-0.3805150091648102, 0.8732410073280334, -0.7189630270004272]}, {"componentType": 5126, "type": "VEC3", "bufferView": 11, "byteOffset": 0, "count": 16, "max": [0.6302379965782166, 0.7763599753379822, 0.7763599753379822], "min": [-0.6302379965782166, -0.7763599753379822, -0.7763599753379822]}, {"componentType": 5126, "type": "VEC3", "bufferView": 12, "byteOffset": 0, "count": 16, "max": [1.0, 1.0, 1.0], "min": [1.0, 1.0, 1.0]}, {"componentType": 5126, "type": "VEC2", "bufferView": 13, "byteOffset": 0, "count": 16, "max": [0.0, 0.0], "min": [0.0, 0.0]}, {"componentType": 5123, "type": "SCALAR", "bufferView": 14, "byteOffset": 0, "count": 84, "max": [15.0], "min": [0.0]}, {"componentType": 5126, "type": "VEC3", "bufferView": 15, "byteOffset": 0, "count": 16, "max": [0.24020600318908691, 1.2472399473190308, -0.6985870003700256], "min": [-0.23456500470638275, 1.2268600463867188, -0.7189630270004272]}, {"componentType": 5126, "type": "VEC3", "bufferView": 16, "byteOffset": 0, "count": 16, "max": [0.6302379965782166, 0.7763599753379822, 0.7763599753379822], "min": [-0.6302379965782166, -0.7763599753379822, -0.7763599753379822]}, {"componentType": 5126, "type": "VEC3", "bufferView": 17, "byteOffset": 0, "count": 16, "max": [1.0, 1.0, 1.0], "min": [1.0, 1.0, 1.0]}, {"componentType": 5126, "type": "VEC2", "bufferView": 18, "byteOffset": 0, "count": 16, "max": [0.0, 0.0], "min": [0.0, 0.0]}, {"componentType": 5123, "type": "SCALAR", "bufferView": 19, "byteOffset": 0, "count": 84, "max": [15.0], "min": [0.0]}, {"componentType": 5126, "type": "VEC3", "bufferView": 20, "byteOffset": 0, "count": 16, "max": [0.5343440175056458, 1.0997200012207031, 0.044212400913238525], "min": [-0.528702974319458, 1.0793399810791016, 0.023835700005292892]}, {"componentType": 5126, "type": "VEC3", "bufferView": 21, "byteOffset": 0, "count": 16, "max": [0.6302379965782166, 0.7763599753379822, 0.7763599753379822], "min": [-0.6302379965782166, -0.7763599753379822, -0.7763599753379822]}, {"componentType": 5126, "type": "VEC3", "bufferView": 22, "byteOffset": 0, "count": 16, "max": [1.0, 1.0, 1.0], "min": [1.0, 1.0, 1.0]}, {"componentType": 5126, "type": "VEC2", "bufferView": 23, "byteOffset": 0, "count": 16, "max": [0.0, 0.0], "min": [0.0, 0.0]}, {"componentType": 5123, "type": "SCALAR", "bufferView": 24, "byteOffset": 0, "count": 84, "max": [15.0], "min": [0.0]}, {"componentType": 5126, "type": "VEC3", "bufferView": 25, "byteOffset": 0, "count": 16, "max": [0.3021169900894165, 1.5066900253295898, 0.07516229897737503], "min": [-0.29647698998451233, 1.4863100051879883, 0.054785698652267456]}, {"componentType": 5126, "type": "VEC3", "bufferView": 26, "byteOffset": 0, "count": 16, "max": [0.6302379965782166, 0.7763599753379822, 0.7763599753379822], "min": [-0.6302379965782166, -0.7763599753379822, -0.7763599753379822]}, {"componentType": 5126, "type": "VEC3", "bufferView": 27, "byteOffset": 0, "count": 16, "max": [1.0, 1.0, 1.0], "min": [1.0, 1.0, 1.0]}, {"componentType": 5126, "type": "VEC2", "bufferView": 28, "byteOffset": 0, "count": 16, "max": [0.0, 0.0], "min": [0.0, 0.0]}, {"componentType": 5123, "type": "SCALAR", "bufferView": 29, "byteOffset": 0, "count": 84, "max": [15.0], "min": [0.0]}, {"componentType": 5126, "type": "VEC3", "bufferView": 30, "byteOffset": 0, "count": 16, "max": [0.013008699752390385, 1.1313400268554688, 0.5921329855918884], "min": [-0.00736792990937829, 0.07190509885549545, 0.4616740047931671]}, {"componentType": 5126, "type": "VEC3", "bufferView": 31, "byteOffset": 0, "count": 16, "max": [0.7763599753379822, 0.7073270082473755, 0.8375189900398254], "min": [-0.7763599753379822, -0.7073270082473755, -0.8375189900398254]}, {"componentType": 5126, "type": "VEC3", "bufferView": 32, "byteOffset": 0, "count": 16, "max": [1.0, 1.0, 1.0], "min": [1.0, 1.0, 1.0]}, {"componentType": 5126, "type": "VEC2", "bufferView": 33, "byteOffset": 0, "count": 16, "max": [0.0, 0.0], "min": [0.0, 0.0]}, {"componentType": 5123, "type": "SCALAR", "bufferView": 34, "byteOffset": 0, "count": 84, "max": [15.0], "min": [0.0]}, {"componentType": 5126, "type": "VEC3", "bufferView": 35, "byteOffset": 0, "count": 16, "max": [0.01639609970152378, 1.3609199523925781, -0.6540340185165405], "min": [-0.010755299590528011, -0.05573340132832527, -0.692255973815918]}, {"componentType": 5126, "type": "VEC3", "bufferView": 36, "byteOffset": 0, "count": 16, "max": [0.7763599753379822, 0.6362800002098083, 0.7812740206718445], "min": [-0.7763599753379822, -0.6362800002098083, -0.7812740206718445]}, {"componentType": 5126, "type": "VEC3", "bufferView": 37, "byteOffset": 0, "count": 16, "max": [1.0, 1.0, 1.0], "min": [1.0, 1.0, 1.0]}, {"componentType": 5126, "type": "VEC2", "bufferView": 38, "byteOffset": 0, "count": 16, "max": [0.0, 0.0], "min": [0.0, 0.0]}, {"componentType": 5123, "type": "SCALAR", "bufferView": 39, "byteOffset": 0, "count": 84, "max": [15.0], "min": [0.0]}, {"componentType": 5126, "type": "VEC3", "bufferView": 40, "byteOffset": 0, "count": 16, "max": [0.025316499173641205, 1.5820300579071045, 0.1098639965057373], "min": [-0.0204709991812706, -0.016936199739575386, -0.002253950107842684]}, {"componentType": 5126, "type": "VEC3", "bufferView": 41, "byteOffset": 0, "count": 16, "max": [0.7763910293579102, 0.6619769930839539, 0.801842987537384], "min": [-0.7763910293579102, -0.6619769930839539, -0.801842987537384]}, {"componentType": 5126, "type": "VEC3", "bufferView": 42, "byteOffset": 0, "count": 16, "max": [1.0, 1.0, 1.0], "min": [1.0, 1.0, 1.0]}, {"componentType": 5126, "type": "VEC2", "bufferView": 43, "byteOffset": 0, "count": 16, "max": [0.0, 0.0], "min": [0.0, 0.0]}, {"componentType": 5123, "type": "SCALAR", "bufferView": 44, "byteOffset": 0, "count": 84, "max": [15.0], "min": [0.0]}, {"componentType": 5126, "type": "VEC3", "bufferView": 45, "byteOffset": 0, "count": 173, "max": [0.41332998871803284, 0.5411159992218018, 0.9534689784049988], "min": [-0.40768900513648987, -0.1334110051393509, -1.0408999919891357]}, {"componentType": 5126, "type": "VEC3", "bufferView": 46, "byteOffset": 0, "count": 173, "max": [0.9845880270004272, 1.0, 0.9534590244293213], "min": [-0.9845880270004272, -1.0, -0.974029004573822]}, {"componentType": 5126, "type": "VEC3", "bufferView": 47, "byteOffset": 0, "count": 173, "max": [1.0, 1.0, 1.0], "min": [1.0, 1.0, 1.0]}, {"componentType": 5126, "type": "VEC2", "bufferView": 48, "byteOffset": 0, "count": 173, "max": [0.9941030144691467, 0.9892410039901733], "min": [0.006016999948769808, 0.004772999789565802]}, {"componentType": 5123, "type": "SCALAR", "bufferView": 49, "byteOffset": 0, "count": 684, "max": [172.0], "min": [0.0]}], "materials": [{"pbrMetallicRoughness": {"baseColorFactor": [0.6392156862745098, 0.6392156862745098, 0.6392156862745098, 1], "metallicFactor": 0, "roughnessFactor": 1, "baseColorTexture": {"index": 0}}, "name": "voiles"}, {"pbrMetallicRoughness": {"baseColorFactor": [0.12941176470588237, 0.0392156862745098, 0.01568627450980392, 1], "metallicFactor": 0, "roughnessFactor": 1}, "name": "bois"}, {"pbrMetallicRoughness": {"baseColorFactor": [0.12941176470588237, 0.0392156862745098, 0.01568627450980392, 1], "metallicFactor": 0, "roughnessFactor": 1}, "name": "bois"}, {"pbrMetallicRoughness": {"baseColorFactor": [0.12941176470588237, 0.0392156862745098, 0.01568627450980392, 1], "metallicFactor": 0, "roughnessFactor": 1}, "name": "bois"}, {"pbrMetallicRoughness": {"baseColorFactor": [0.12941176470588237, 0.0392156862745098, 0.01568627450980392, 1], "metallicFactor": 0, "roughnessFactor": 1}, "name": "bois"}, {"pbrMetallicRoughness": {"baseColorFactor": [0.12941176470588237, 0.0392156862745098, 0.01568627450980392, 1], "metallicFactor": 0, "roughnessFactor": 1}, "name": "bois"}, {"pbrMetallicRoughness": {"baseColorFactor": [0.12941176470588237, 0.0392156862745098, 0.01568627450980392, 1], "metallicFactor": 0, "roughnessFactor": 1}, "name": "bois"}, {"pbrMetallicRoughness": {"baseColorFactor": [0.12941176470588237, 0.0392156862745098, 0.01568627450980392, 1], "metallicFactor": 0, "roughnessFactor": 1}, "name": "bois"}, {"pbrMetallicRoughness": {"baseColorFactor": [0.12941176470588237, 0.0392156862745098, 0.01568627450980392, 1], "metallicFactor": 0, "roughnessFactor": 1}, "name": "bois"}, {"pbrMetallicRoughness": {"baseColorFactor": [0.6392156862745098, 0.6392156862745098, 0.6392156862745098, 1], "metallicFactor": 0, "roughnessFactor": 1, "baseColorTexture": {"index": 1}}, "name": "coque"}], "meshes": [{"primitives": [{"mode": 4, "attributes": {"POSITION": 0, "NORMAL": 1, "COLOR_0": 2, "TEXCOORD_0": 3}, "material": 0, "indices": 4}]}, {"primitives": [{"mode": 4, "attributes": {"POSITION": 5, "NORMAL": 6, "COLOR_0": 7, "TEXCOORD_0": 8}, "material": 1, "indices": 9}]}, {"primitives": [{"mode": 4, "attributes": {"POSITION": 10, "NORMAL": 11, "COLOR_0": 12, "TEXCOORD_0": 13}, "material": 2, "indices": 14}]}, {"primitives": [{"mode": 4, "attributes": {"POSITION": 15, "NORMAL": 16, "COLOR_0": 17, "TEXCOORD_0": 18}, "material": 3, "indices": 19}]}, {"primitives": [{"mode": 4, "attributes": {"POSITION": 20, "NORMAL": 21, "COLOR_0": 22, "TEXCOORD_0": 23}, "material": 4, "indices": 24}]}, {"primitives": [{"mode": 4, "attributes": {"POSITION": 25, "NORMAL": 26, "COLOR_0": 27, "TEXCOORD_0": 28}, "material": 5, "indices": 29}]}, {"primitives": [{"mode": 4, "attributes": {"POSITION": 30, "NORMAL": 31, "COLOR_0": 32, "TEXCOORD_0": 33}, "material": 6, "indices": 34}]}, {"primitives": [{"mode": 4, "attributes": {"POSITION": 35, "NORMAL": 36, "COLOR_0": 37, "TEXCOORD_0": 38}, "material": 7, "indices": 39}]}, {"primitives": [{"mode": 4, "attributes": {"POSITION": 40, "NORMAL": 41, "COLOR_0": 42, "TEXCOORD_0": 43}, "material": 8, "indices": 44}]}, {"primitives": [{"mode": 4, "attributes": {"POSITION": 45, "NORMAL": 46, "COLOR_0": 47, "TEXCOORD_0": 48}, "material": 9, "indices": 49}]}], "images": [{"uri": "jarmada-admiral-voiles-uvs-512.jpg"}, {"uri": "jarmada-admiral-uvs-512.jpg"}], "textures": [{"source": 0}, {"source": 1}]}