{"asset": {"version": "2.0", "generator": "GLTFExporter"}, "scenes": [{"name": "AuxScene", "nodes": [1]}], "scene": 0, "nodes": [{"extras": {"mapFilename": null}, "mesh": 0}, {"children": [0]}], "bufferViews": [{"buffer": 0, "byteOffset": 0, "byteLength": 3456}, {"buffer": 0, "byteOffset": 3456, "byteLength": 4032}, {"buffer": 0, "byteOffset": 7488, "byteLength": 4032}, {"buffer": 0, "byteOffset": 11520, "byteLength": 4032}], "buffers": [{"byteLength": 15552, "uri": "data:application/octet-stream;base64,"}], "accessors": [{"componentType": 5123, "type": "SCALAR", "bufferView": 0, "count": 1728, "max": [335], "min": [0]}, {"componentType": 5126, "type": "VEC3", "bufferView": 1, "byteOffset": 0, "count": 336, "max": [14.900400161743164, 1.4020600318908691, 14.900400161743164], "min": [-14.900400161743164, -0.38343098759651184, -14.7322998046875]}, {"componentType": 5126, "type": "VEC3", "bufferView": 2, "byteOffset": 0, "count": 336, "max": [0.8442339897155762, 0.9999690055847168, 0.762840986251831], "min": [-0.7344580292701721, 0.5359050035476685, -0.6865440011024475]}, {"componentType": 5126, "type": "VEC3", "bufferView": 3, "byteOffset": 0, "count": 336, "max": [1.0, 1.0, 1.0], "min": [1.0, 1.0, 1.0]}], "materials": [{"pbrMetallicRoughness": {"baseColorFactor": [0.6392156862745098, 0.6039215686274509, 0.3215686274509804, 1], "metallicFactor": 0, "roughnessFactor": 1}, "name": "Material.001"}], "meshes": [{"primitives": [{"mode": 4, "attributes": {"POSITION": 1, "NORMAL": 2, "COLOR_0": 3}, "material": 0, "indices": 0}]}]}