{"asset": {"version": "2.0", "generator": "GLTFExporter"}, "scenes": [{"name": "AuxScene", "nodes": [1]}], "scene": 0, "nodes": [{"extras": {"mapFilename": null}, "mesh": 0}, {"children": [0]}], "bufferViews": [{"buffer": 0, "byteOffset": 0, "byteLength": 3456}, {"buffer": 0, "byteOffset": 3456, "byteLength": 4032}, {"buffer": 0, "byteOffset": 7488, "byteLength": 4032}, {"buffer": 0, "byteOffset": 11520, "byteLength": 4032}], "buffers": [{"byteLength": 15552, "uri": "data:application/octet-stream;base64,"}], "accessors": [{"componentType": 5123, "type": "SCALAR", "bufferView": 0, "count": 1728, "max": [335], "min": [0]}, {"componentType": 5126, "type": "VEC3", "bufferView": 1, "byteOffset": 0, "count": 336, "max": [14.900400161743164, 0.7778440117835999, 26.252099990844727], "min": [-20.437700271606445, -1.358680009841919, -18.659900665283203]}, {"componentType": 5126, "type": "VEC3", "bufferView": 2, "byteOffset": 0, "count": 336, "max": [0.8774380087852478, 0.9999690055847168, 0.6882839798927307], "min": [-0.6372569799423218, 0.0016169999726116657, -0.6593829989433289]}, {"componentType": 5126, "type": "VEC3", "bufferView": 3, "byteOffset": 0, "count": 336, "max": [1.0, 1.0, 1.0], "min": [1.0, 1.0, 1.0]}], "materials": [{"pbrMetallicRoughness": {"baseColorFactor": [0.6392156862745098, 0.6039215686274509, 0.3215686274509804, 1], "metallicFactor": 0, "roughnessFactor": 1}, "name": "Material.001"}], "meshes": [{"primitives": [{"mode": 4, "attributes": {"POSITION": 1, "NORMAL": 2, "COLOR_0": 3}, "material": 0, "indices": 0}]}]}