{"asset": {"version": "2.0", "generator": "GLTFExporter"}, "scenes": [{"name": "AuxScene", "nodes": [1]}], "scene": 0, "nodes": [{"extras": {"mapFilename": null}, "mesh": 0}, {"children": [0]}], "bufferViews": [{"buffer": 0, "byteOffset": 0, "byteLength": 1008}, {"buffer": 0, "byteOffset": 1008, "byteLength": 4032}, {"buffer": 0, "byteOffset": 5040, "byteLength": 4032}, {"buffer": 0, "byteOffset": 9072, "byteLength": 4032}], "buffers": [{"byteLength": 13104, "uri": "data:application/octet-stream;base64,"}], "accessors": [{"componentType": 5123, "type": "SCALAR", "bufferView": 0, "count": 504, "max": [335], "min": [0]}, {"componentType": 5126, "type": "VEC3", "bufferView": 1, "byteOffset": 0, "count": 336, "max": [2.158590078353882, 0.5538899898529053, 0.5322679877281189], "min": [-0.0006738899974152446, -0.32178500294685364, -0.5338699817657471]}, {"componentType": 5126, "type": "VEC3", "bufferView": 2, "byteOffset": 0, "count": 336, "max": [0.8143249750137329, 0.9374979734420776, 0.6398509740829468], "min": [-0.2974640130996704, 0.3168739974498749, -0.6298099756240845]}, {"componentType": 5126, "type": "VEC3", "bufferView": 3, "byteOffset": 0, "count": 336, "max": [1.0, 1.0, 1.0], "min": [1.0, 1.0, 1.0]}], "materials": [{"pbrMetallicRoughness": {"baseColorFactor": [0.2, 0.4, 0.047058823529411764, 1], "metallicFactor": 0, "roughnessFactor": 1}, "name": "palmgreen"}], "meshes": [{"primitives": [{"mode": 4, "attributes": {"POSITION": 1, "NORMAL": 2, "COLOR_0": 3}, "material": 0, "indices": 0}]}]}