{"asset": {"version": "2.0", "generator": "GLTFExporter"}, "scenes": [{"name": "AuxScene", "nodes": [1]}], "scene": 0, "nodes": [{"extras": {"mapFilename": "palm-leaves-texture-512.png"}, "mesh": 0}, {"children": [0]}], "bufferViews": [{"buffer": 0, "byteOffset": 0, "byteLength": 1272}, {"buffer": 0, "byteOffset": 1272, "byteLength": 1692}, {"buffer": 0, "byteOffset": 2964, "byteLength": 1692}, {"buffer": 0, "byteOffset": 4656, "byteLength": 1692}, {"buffer": 0, "byteOffset": 6348, "byteLength": 1128}], "buffers": [{"byteLength": 7476, "uri": "data:application/octet-stream;base64,"}], "accessors": [{"componentType": 5123, "type": "SCALAR", "bufferView": 0, "count": 636, "max": [140], "min": [0]}, {"componentType": 5126, "type": "VEC3", "bufferView": 1, "byteOffset": 0, "count": 141, "max": [0.03857899829745293, -0.0008517500245943666, 0.3795439898967743], "min": [-0.08020409941673279, -0.87186598777771, -0.022427799180150032]}, {"componentType": 5126, "type": "VEC3", "bufferView": 2, "byteOffset": 0, "count": 141, "max": [0.9999079704284668, 0.6731160283088684, 0.9938960075378418], "min": [-0.9994199872016907, -0.8082519769668579, -0.9985349774360657]}, {"componentType": 5126, "type": "VEC3", "bufferView": 3, "byteOffset": 0, "count": 141, "max": [1.0, 1.0, 1.0], "min": [1.0, 1.0, 1.0]}, {"componentType": 5126, "type": "VEC2", "bufferView": 4, "byteOffset": 0, "count": 141, "max": [0.39336100220680237, 0.9784389734268188], "min": [0.020893000066280365, 0.01767599955201149]}], "materials": [{"pbrMetallicRoughness": {"baseColorFactor": [0.6392156862745098, 0.6392156862745098, 0.6392156862745098, 1], "metallicFactor": 0, "roughnessFactor": 1, "baseColorTexture": {"index": 0}}, "name": "palmtree-leaves"}], "meshes": [{"primitives": [{"mode": 4, "attributes": {"POSITION": 1, "NORMAL": 2, "COLOR_0": 3, "TEXCOORD_0": 4}, "material": 0, "indices": 0}]}], "images": [{"uri": "palm-leaves-texture-512.png"}], "textures": [{"source": 0}]}