{"asset": {"version": "2.0", "generator": "GLTFExporter"}, "scenes": [{"name": "AuxScene", "nodes": [2]}], "scene": 0, "nodes": [{"extras": {"mapFilename": null}, "mesh": 0}, {"extras": {"mapFilename": null}, "mesh": 1}, {"children": [0, 1]}], "bufferViews": [{"buffer": 0, "byteOffset": 0, "byteLength": 3120}, {"buffer": 0, "byteOffset": 3120, "byteLength": 3120}, {"buffer": 0, "byteOffset": 6240, "byteLength": 3120}, {"buffer": 0, "byteOffset": 9360, "byteLength": 2880}, {"buffer": 0, "byteOffset": 12240, "byteLength": 672}, {"buffer": 0, "byteOffset": 12912, "byteLength": 672}, {"buffer": 0, "byteOffset": 13584, "byteLength": 672}, {"buffer": 0, "byteOffset": 14256, "byteLength": 576}], "buffers": [{"byteLength": 14832, "uri": "data:application/octet-stream;base64,"}], "accessors": [{"componentType": 5126, "type": "VEC3", "bufferView": 0, "byteOffset": 0, "count": 260, "max": [0.5987309813499451, 0.9194080233573914, 0.3861140012741089], "min": [-0.21744300425052643, 0.5315669775009155, -0.6112030148506165]}, {"componentType": 5126, "type": "VEC3", "bufferView": 1, "byteOffset": 0, "count": 260, "max": [0.9572129845619202, 0.8740500211715698, 0.982695996761322], "min": [-0.9919130206108093, -0.9931640028953552, -0.9869080185890198]}, {"componentType": 5126, "type": "VEC3", "bufferView": 2, "byteOffset": 0, "count": 260, "max": [1.0, 1.0, 1.0], "min": [1.0, 1.0, 1.0]}, {"componentType": 5123, "type": "SCALAR", "bufferView": 3, "byteOffset": 0, "count": 1440, "max": [259.0], "min": [0.0]}, {"componentType": 5126, "type": "VEC3", "bufferView": 4, "byteOffset": 0, "count": 56, "max": [0.2052139937877655, 0.6914610266685486, 0.0376259982585907], "min": [-0.030693400651216507, 0.002943129977211356, -0.15401700139045715]}, {"componentType": 5126, "type": "VEC3", "bufferView": 5, "byteOffset": 0, "count": 56, "max": [0.9588000178337097, 0.5909600257873535, 0.9779350161552429], "min": [-0.9526050090789795, -0.5403000116348267, -0.9694200158119202]}, {"componentType": 5126, "type": "VEC3", "bufferView": 6, "byteOffset": 0, "count": 56, "max": [1.0, 1.0, 1.0], "min": [1.0, 1.0, 1.0]}, {"componentType": 5123, "type": "SCALAR", "bufferView": 7, "byteOffset": 0, "count": 288, "max": [55.0], "min": [0.0]}], "materials": [{"pbrMetallicRoughness": {"baseColorFactor": [0.4235294117647059, 0.6392156862745098, 0.24705882352941178, 1], "metallicFactor": 0, "roughnessFactor": 1}, "name": "leaves"}, {"pbrMetallicRoughness": {"baseColorFactor": [0.16862745098039217, 0.058823529411764705, 0.00784313725490196, 1], "metallicFactor": 0, "roughnessFactor": 1}, "name": "wood"}], "meshes": [{"primitives": [{"mode": 4, "attributes": {"POSITION": 0, "NORMAL": 1, "COLOR_0": 2}, "material": 0, "indices": 3}]}, {"primitives": [{"mode": 4, "attributes": {"POSITION": 4, "NORMAL": 5, "COLOR_0": 6}, "material": 1, "indices": 7}]}]}