{"asset": {"version": "2.0", "generator": "GLTFExporter"}, "scenes": [{"name": "AuxScene", "nodes": [1]}], "scene": 0, "nodes": [{"extras": {"mapFilename": null}, "mesh": 0}, {"children": [0]}], "bufferViews": [{"buffer": 0, "byteOffset": 0, "byteLength": 21492}, {"buffer": 0, "byteOffset": 21492, "byteLength": 71916}, {"buffer": 0, "byteOffset": 93408, "byteLength": 71916}, {"buffer": 0, "byteOffset": 165324, "byteLength": 71916}], "buffers": [{"byteLength": 237240, "uri": "data:application/octet-stream;base64,"}], "accessors": [{"componentType": 5123, "type": "SCALAR", "bufferView": 0, "count": 10746, "max": [5992], "min": [0]}, {"componentType": 5126, "type": "VEC3", "bufferView": 1, "byteOffset": 0, "count": 5993, "max": [1.64349365234375, 5.0504350662231445, 1.6252923011779785], "min": [-1.607088565826416, 0.0032009100541472435, -1.6252927780151367]}, {"componentType": 5126, "type": "VEC3", "bufferView": 2, "byteOffset": 0, "count": 5993, "max": [0.9999986290931702, 1.0, 1.0], "min": [-0.9999977350234985, -0.9999769926071167, -1.0]}, {"componentType": 5126, "type": "VEC3", "bufferView": 3, "byteOffset": 0, "count": 5993, "max": [1.0, 1.0, 1.0], "min": [1.0, 1.0, 1.0]}], "materials": [{"pbrMetallicRoughness": {"baseColorFactor": [0.4980392156862745, 0.4980392156862745, 0.4980392156862745, 1], "metallicFactor": 0, "roughnessFactor": 1}, "name": "ivory"}], "meshes": [{"primitives": [{"mode": 4, "attributes": {"POSITION": 1, "NORMAL": 2, "COLOR_0": 3}, "material": 0, "indices": 0}]}]}