{"asset": {"version": "2.0", "generator": "GLTFExporter"}, "scenes": [{"name": "AuxScene", "nodes": [1]}], "scene": 0, "nodes": [{"extras": {"mapFilename": null}, "mesh": 0}, {"children": [0]}], "bufferViews": [{"buffer": 0, "byteOffset": 0, "byteLength": 24840}, {"buffer": 0, "byteOffset": 24840, "byteLength": 82872}, {"buffer": 0, "byteOffset": 107712, "byteLength": 82872}, {"buffer": 0, "byteOffset": 190584, "byteLength": 82872}], "buffers": [{"byteLength": 273456, "uri": "data:application/octet-stream;base64,"}], "accessors": [{"componentType": 5123, "type": "SCALAR", "bufferView": 0, "count": 12420, "max": [6905], "min": [0]}, {"componentType": 5126, "type": "VEC3", "bufferView": 1, "byteOffset": 0, "count": 6906, "max": [1.598983645439148, 6.733977794647217, 3.2602667808532715], "min": [-1.598983645439148, 0.011615924537181854, -3.7984163761138916]}, {"componentType": 5126, "type": "VEC3", "bufferView": 2, "byteOffset": 0, "count": 6906, "max": [0.9997622966766357, 0.9999176263809204, 0.999847948551178], "min": [-0.9997619390487671, -0.9999172687530518, -0.9997603893280029]}, {"componentType": 5126, "type": "VEC3", "bufferView": 3, "byteOffset": 0, "count": 6906, "max": [1.0, 1.0, 1.0], "min": [1.0, 1.0, 1.0]}], "materials": [{"pbrMetallicRoughness": {"baseColorFactor": [0.4980392156862745, 0.4980392156862745, 0.4980392156862745, 1], "metallicFactor": 0, "roughnessFactor": 1}, "name": "ivory"}], "meshes": [{"primitives": [{"mode": 4, "attributes": {"POSITION": 1, "NORMAL": 2, "COLOR_0": 3}, "material": 0, "indices": 0}]}]}