{"asset": {"version": "2.0", "generator": "GLTFExporter"}, "scenes": [{"name": "AuxScene", "nodes": [3]}], "scene": 0, "nodes": [{"extras": {"mapFilename": null}, "mesh": 0}, {"extras": {"mapFilename": null}, "mesh": 1}, {"extras": {"mapFilename": null}, "mesh": 2}, {"children": [0, 1, 2]}], "bufferViews": [{"buffer": 0, "byteOffset": 0, "byteLength": 72}, {"buffer": 0, "byteOffset": 72, "byteLength": 72}, {"buffer": 0, "byteOffset": 144, "byteLength": 72}, {"buffer": 0, "byteOffset": 216, "byteLength": 48}, {"buffer": 0, "byteOffset": 264, "byteLength": 192}, {"buffer": 0, "byteOffset": 456, "byteLength": 192}, {"buffer": 0, "byteOffset": 648, "byteLength": 192}, {"buffer": 0, "byteOffset": 840, "byteLength": 168}, {"buffer": 0, "byteOffset": 1008, "byteLength": 600}, {"buffer": 0, "byteOffset": 1608, "byteLength": 600}, {"buffer": 0, "byteOffset": 2208, "byteLength": 600}, {"buffer": 0, "byteOffset": 2808, "byteLength": 576}], "buffers": [{"byteLength": 3384, "uri": "data:application/octet-stream;base64,"}], "accessors": [{"componentType": 5126, "type": "VEC3", "bufferView": 0, "byteOffset": 0, "count": 6, "max": [-0.004774299915879965, 2.254470109939575, 1.6390999555587769], "min": [-0.009133820421993732, 1.382580041885376, 0.04002460092306137]}, {"componentType": 5126, "type": "VEC3", "bufferView": 1, "byteOffset": 0, "count": 6, "max": [0.5646229982376099, 0.6558730006217957, 0.8406630158424377], "min": [-0.5646229982376099, -0.6558730006217957, -0.5009920001029968]}, {"componentType": 5126, "type": "VEC3", "bufferView": 2, "byteOffset": 0, "count": 6, "max": [1.0, 1.0, 1.0], "min": [1.0, 1.0, 1.0]}, {"componentType": 5123, "type": "SCALAR", "bufferView": 3, "byteOffset": 0, "count": 24, "max": [5.0], "min": [0.0]}, {"componentType": 5126, "type": "VEC3", "bufferView": 4, "byteOffset": 0, "count": 16, "max": [0.0416266992688179, 2.297919988632202, 0.0416266992688179], "min": [-0.0416266992688179, -0.1581439971923828, -0.04162679985165596]}, {"componentType": 5126, "type": "VEC3", "bufferView": 5, "byteOffset": 0, "count": 16, "max": [0.7763599753379822, 0.6302379965782166, 0.7763599753379822], "min": [-0.7763599753379822, -0.6302379965782166, -0.7763599753379822]}, {"componentType": 5126, "type": "VEC3", "bufferView": 6, "byteOffset": 0, "count": 16, "max": [1.0, 1.0, 1.0], "min": [1.0, 1.0, 1.0]}, {"componentType": 5123, "type": "SCALAR", "bufferView": 7, "byteOffset": 0, "count": 84, "max": [15.0], "min": [0.0]}, {"componentType": 5126, "type": "VEC3", "bufferView": 8, "byteOffset": 0, "count": 50, "max": [0.5262749791145325, 0.03967120125889778, 0.5262749791145325], "min": [-0.5262749791145325, -0.1433199942111969, -0.5262749791145325]}, {"componentType": 5126, "type": "VEC3", "bufferView": 9, "byteOffset": 0, "count": 50, "max": [0.9992679953575134, 1.0, 0.9992679953575134], "min": [-0.9992679953575134, -0.9999690055847168, -0.9992679953575134]}, {"componentType": 5126, "type": "VEC3", "bufferView": 10, "byteOffset": 0, "count": 50, "max": [1.0, 1.0, 1.0], "min": [1.0, 1.0, 1.0]}, {"componentType": 5123, "type": "SCALAR", "bufferView": 11, "byteOffset": 0, "count": 288, "max": [49.0], "min": [0.0]}], "materials": [{"pbrMetallicRoughness": {"baseColorFactor": [0.6392156862745098, 0.047058823529411764, 0, 1], "metallicFactor": 0, "roughnessFactor": 1}, "name": "redflag"}, {"pbrMetallicRoughness": {"baseColorFactor": [0.6392156862745098, 0.6392156862745098, 0.6392156862745098, 1], "metallicFactor": 0, "roughnessFactor": 1}, "name": "flagmat"}, {"pbrMetallicRoughness": {"baseColorFactor": [0.6392156862745098, 0.6392156862745098, 0.6392156862745098, 1], "metallicFactor": 0, "roughnessFactor": 1}, "name": "flagmat"}], "meshes": [{"primitives": [{"mode": 4, "attributes": {"POSITION": 0, "NORMAL": 1, "COLOR_0": 2}, "material": 0, "indices": 3}]}, {"primitives": [{"mode": 4, "attributes": {"POSITION": 4, "NORMAL": 5, "COLOR_0": 6}, "material": 1, "indices": 7}]}, {"primitives": [{"mode": 4, "attributes": {"POSITION": 8, "NORMAL": 9, "COLOR_0": 10}, "material": 2, "indices": 11}]}]}