{"asset": {"version": "2.0", "generator": "GLTFExporter"}, "scenes": [{"name": "AuxScene", "nodes": [1]}], "scene": 0, "nodes": [{"extras": {"mapFilename": null}, "mesh": 0}, {"children": [0]}], "bufferViews": [{"buffer": 0, "byteOffset": 0, "byteLength": 21168}, {"buffer": 0, "byteOffset": 21168, "byteLength": 70608}, {"buffer": 0, "byteOffset": 91776, "byteLength": 70608}, {"buffer": 0, "byteOffset": 162384, "byteLength": 70608}], "buffers": [{"byteLength": 232992, "uri": "data:application/octet-stream;base64,"}], "accessors": [{"componentType": 5123, "type": "SCALAR", "bufferView": 0, "count": 10584, "max": [5883], "min": [0]}, {"componentType": 5126, "type": "VEC3", "bufferView": 1, "byteOffset": 0, "count": 5884, "max": [1.1376473903656006, 4.866748332977295, 2.895810842514038], "min": [-1.1377322673797607, 0.011847100220620632, -2.8173859119415283]}, {"componentType": 5126, "type": "VEC3", "bufferView": 2, "byteOffset": 0, "count": 5884, "max": [0.9999873042106628, 0.9997869729995728, 0.9999809861183167], "min": [-0.9999591708183289, -0.9999239444732666, -0.9999938011169434]}, {"componentType": 5126, "type": "VEC3", "bufferView": 3, "byteOffset": 0, "count": 5884, "max": [1.0, 1.0, 1.0], "min": [1.0, 1.0, 1.0]}], "materials": [{"pbrMetallicRoughness": {"baseColorFactor": [0.4980392156862745, 0.4980392156862745, 0.4980392156862745, 1], "metallicFactor": 0, "roughnessFactor": 1}, "name": "ivory"}], "meshes": [{"primitives": [{"mode": 4, "attributes": {"POSITION": 1, "NORMAL": 2, "COLOR_0": 3}, "material": 0, "indices": 0}]}]}