{"asset": {"version": "2.0", "generator": "GLTFExporter"}, "scenes": [{"name": "AuxScene", "nodes": [3]}], "scene": 0, "nodes": [{"extras": {"mapFilename": null}, "mesh": 0}, {"extras": {"mapFilename": null}, "mesh": 1}, {"extras": {"mapFilename": "hunter.jpg"}, "mesh": 2}, {"children": [0, 1, 2]}], "bufferViews": [{"buffer": 0, "byteOffset": 0, "byteLength": 288}, {"buffer": 0, "byteOffset": 288, "byteLength": 288}, {"buffer": 0, "byteOffset": 576, "byteLength": 288}, {"buffer": 0, "byteOffset": 864, "byteLength": 192}, {"buffer": 0, "byteOffset": 1056, "byteLength": 264}, {"buffer": 0, "byteOffset": 1320, "byteLength": 492}, {"buffer": 0, "byteOffset": 1812, "byteLength": 492}, {"buffer": 0, "byteOffset": 2304, "byteLength": 492}, {"buffer": 0, "byteOffset": 2796, "byteLength": 328}, {"buffer": 0, "byteOffset": 3124, "byteLength": 468}, {"buffer": 0, "byteOffset": 3592, "byteLength": 6192}, {"buffer": 0, "byteOffset": 9784, "byteLength": 6192}, {"buffer": 0, "byteOffset": 15976, "byteLength": 6192}, {"buffer": 0, "byteOffset": 22168, "byteLength": 4128}, {"buffer": 0, "byteOffset": 26296, "byteLength": 4032}], "buffers": [{"byteLength": 30328, "uri": "data:application/octet-stream;base64,"}], "accessors": [{"componentType": 5126, "type": "VEC3", "bufferView": 0, "byteOffset": 0, "count": 24, "max": [0.22388200461864471, 7.802259922027588, 0.1200919970870018], "min": [-0.1324550062417984, 7.386390209197998, -0.5763069987297058]}, {"componentType": 5126, "type": "VEC3", "bufferView": 1, "byteOffset": 0, "count": 24, "max": [0.9403060078620911, 0.9704279899597168, 0.6813560128211975], "min": [-0.9186679720878601, -0.9681389927864075, -0.863673985004425]}, {"componentType": 5126, "type": "VEC3", "bufferView": 2, "byteOffset": 0, "count": 24, "max": [1.0, 1.0, 1.0], "min": [1.0, 1.0, 1.0]}, {"componentType": 5126, "type": "VEC2", "bufferView": 3, "byteOffset": 0, "count": 24, "max": [0.0, 0.0], "min": [0.0, 0.0]}, {"componentType": 5123, "type": "SCALAR", "bufferView": 4, "byteOffset": 0, "count": 132, "max": [23.0], "min": [0.0]}, {"componentType": 5126, "type": "VEC3", "bufferView": 5, "byteOffset": 0, "count": 41, "max": [0.48086801171302795, 7.6375298500061035, 0.7086939811706543], "min": [-0.3512350022792816, 6.89778995513916, -0.5526059865951538]}, {"componentType": 5126, "type": "VEC3", "bufferView": 6, "byteOffset": 0, "count": 41, "max": [0.9668570160865784, 0.987883985042572, 0.7352820038795471], "min": [-0.86455899477005, -0.823511004447937, -0.8201239705085754]}, {"componentType": 5126, "type": "VEC3", "bufferView": 7, "byteOffset": 0, "count": 41, "max": [1.0, 1.0, 1.0], "min": [1.0, 1.0, 1.0]}, {"componentType": 5126, "type": "VEC2", "bufferView": 8, "byteOffset": 0, "count": 41, "max": [0.0, 0.0], "min": [0.0, 0.0]}, {"componentType": 5123, "type": "SCALAR", "bufferView": 9, "byteOffset": 0, "count": 234, "max": [40.0], "min": [0.0]}, {"componentType": 5126, "type": "VEC3", "bufferView": 10, "byteOffset": 0, "count": 516, "max": [1.3261899948120117, 7.421380043029785, 0.8263220191001892], "min": [-1.3965200185775757, -0.021529199555516243, -0.677901029586792]}, {"componentType": 5126, "type": "VEC3", "bufferView": 11, "byteOffset": 0, "count": 516, "max": [0.9990839958190918, 0.985289990901947, 0.9995729923248291], "min": [-0.999176025390625, -0.9999079704284668, -0.999114990234375]}, {"componentType": 5126, "type": "VEC3", "bufferView": 12, "byteOffset": 0, "count": 516, "max": [1.0, 1.0, 1.0], "min": [1.0, 1.0, 1.0]}, {"componentType": 5126, "type": "VEC2", "bufferView": 13, "byteOffset": 0, "count": 516, "max": [0.9966999888420105, 0.994700014591217], "min": [0.0005729999975301325, 0.0036069999914616346]}, {"componentType": 5123, "type": "SCALAR", "bufferView": 14, "byteOffset": 0, "count": 2016, "max": [515.0], "min": [0.0]}], "materials": [{"pbrMetallicRoughness": {"baseColorFactor": [0.8, 0.8, 0.8, 1], "metallicFactor": 0, "roughnessFactor": 1}, "name": "Material"}, {"pbrMetallicRoughness": {"baseColorFactor": [0.3411764705882353, 0.5372549019607843, 0.3176470588235294, 1], "metallicFactor": 0, "roughnessFactor": 1}, "name": "mat.hat"}, {"pbrMetallicRoughness": {"metallicFactor": 0, "roughnessFactor": 1, "baseColorTexture": {"index": 0}}, "name": "mat.short"}], "meshes": [{"primitives": [{"mode": 4, "attributes": {"POSITION": 0, "NORMAL": 1, "COLOR_0": 2, "TEXCOORD_0": 3}, "material": 0, "indices": 4}]}, {"primitives": [{"mode": 4, "attributes": {"POSITION": 5, "NORMAL": 6, "COLOR_0": 7, "TEXCOORD_0": 8}, "material": 1, "indices": 9}]}, {"primitives": [{"mode": 4, "attributes": {"POSITION": 10, "NORMAL": 11, "COLOR_0": 12, "TEXCOORD_0": 13}, "material": 2, "indices": 14}]}], "images": [{"uri": "hunter.jpg"}], "textures": [{"source": 0}]}