{"asset": {"version": "2.0", "generator": "GLTFExporter"}, "scenes": [{"name": "AuxScene", "nodes": [1]}], "scene": 0, "nodes": [{"extras": {"mapFilename": "rabbitskin4.jpg"}, "mesh": 0}, {"children": [0]}], "bufferViews": [{"buffer": 0, "byteOffset": 0, "byteLength": 4068}, {"buffer": 0, "byteOffset": 4068, "byteLength": 5160}, {"buffer": 0, "byteOffset": 9228, "byteLength": 5160}, {"buffer": 0, "byteOffset": 14388, "byteLength": 5160}, {"buffer": 0, "byteOffset": 19548, "byteLength": 3440}], "buffers": [{"byteLength": 22988, "uri": "data:application/octet-stream;base64,"}], "accessors": [{"componentType": 5123, "type": "SCALAR", "bufferView": 0, "count": 2034, "max": [429], "min": [0]}, {"componentType": 5126, "type": "VEC3", "bufferView": 1, "byteOffset": 0, "count": 430, "max": [2.5796799659729004, 7.459819793701172, 4.186850070953369], "min": [-2.2828099727630615, -3.0102100372314453, -5.116390228271484]}, {"componentType": 5126, "type": "VEC3", "bufferView": 2, "byteOffset": 0, "count": 430, "max": [0.9984740018844604, 0.9977110028266907, 0.9985049962997437], "min": [-0.9997860193252563, -0.9995729923248291, -0.9911800026893616]}, {"componentType": 5126, "type": "VEC3", "bufferView": 3, "byteOffset": 0, "count": 430, "max": [1.0, 1.0, 1.0], "min": [1.0, 1.0, 1.0]}, {"componentType": 5126, "type": "VEC2", "bufferView": 4, "byteOffset": 0, "count": 430, "max": [0.9973739981651306, 0.9959989786148071], "min": [-0.0010339999571442604, 0.001408000010997057]}], "materials": [{"pbrMetallicRoughness": {"metallicFactor": 0, "roughnessFactor": 1, "baseColorTexture": {"index": 0}}, "name": "Material"}], "meshes": [{"primitives": [{"mode": 4, "attributes": {"POSITION": 1, "NORMAL": 2, "COLOR_0": 3, "TEXCOORD_0": 4}, "material": 0, "indices": 0}]}], "images": [{"uri": "rabbitskin4.jpg"}], "textures": [{"source": 0}]}