{"scene": 0, "scenes": [{"nodes": [0]}], "asset": {"version": "2.0", "generator": "gltf-make-textures.py"}, "accessors": [{"componentType": 5123, "type": "SCALAR", "bufferView": 0, "count": 11997, "max": [3310], "min": [0]}, {"componentType": 5126, "type": "VEC3", "byteOffset": 0, "bufferView": 1, "count": 3311, "max": [0.9598258137702942, 2.9700000286102295, 1.3740726709365845], "min": [-0.9114177227020264, 0.00010979237413266674, -0.8876749277114868]}, {"componentType": 5126, "type": "VEC2", "byteOffset": 0, "bufferView": 2, "count": 3311, "max": [0.9938268065452576, 0.974909245967865], "min": [0.005859375, 0.005859375]}, {"componentType": 5126, "type": "VEC3", "byteOffset": 0, "bufferView": 3, "count": 3311, "max": [1.0, 0.9997237324714661, 0.9979565143585205], "min": [-1.0, -0.9999997615814209, -1.0]}], "meshes": [{"name": "geometry_0", "extras": {}, "primitives": [{"attributes": {"POSITION": 1, "TEXCOORD_0": 2, "NORMAL": 3}, "indices": 0, "mode": 4, "material": 0}]}], "materials": [{"pbrMetallicRoughness": {"baseColorFactor": [0.8, 0.8, 0.8, 1.0], "roughnessFactor": 1.0, "metallicFactor": 0.0}, "doubleSided": false}], "nodes": [{"name": "world", "children": [1]}, {"name": "geometry_0", "mesh": 0}], "buffers": [{"byteLength": 129948, "uri": "data:application/octet-stream;base64,"}], "bufferViews": [{"buffer": 0, "byteOffset": 0, "byteLength": 23994}, {"buffer": 0, "byteOffset": 23996, "byteLength": 39732}, {"buffer": 0, "byteOffset": 63728, "byteLength": 26488}, {"buffer": 0, "byteOffset": 90216, "byteLength": 39732}]}