{"scene":0,"scenes":[{"nodes":[0]}],"asset":{"version":"2.0","generator":"https://github.com/mikedh/trimesh"},"accessors":[{"componentType":5125,"type":"SCALAR","bufferView":0,"count":11100,"max":[2001],"min":[0]},{"componentType":5126,"type":"VEC3","byteOffset":0,"bufferView":1,"count":2002,"max":[0.7488942742347717,2.6737523078918457,1.0410475730895996],"min":[-0.7479463815689087,-0.0015568009112030268,-1.0434138774871826]},{"componentType":5126,"type":"VEC2","byteOffset":0,"bufferView":2,"count":2002,"max":[1.449906587600708,1.0],"min":[0.00022115455067250878,0.0]},{"componentType":5126,"count":2002,"type":"VEC3","byteOffset":0,"bufferView":3,"max":[0.9997320771217346,0.9999013543128967,0.997103750705719],"min":[-0.9983323216438293,-1.0,-0.9998154640197754]}],"meshes":[{"name":"geometry_0","extras":{},"primitives":[{"attributes":{"POSITION":1,"TEXCOORD_0":2,"NORMAL":3},"indices":0,"mode":4,"material":0}]}],"materials":[{"pbrMetallicRoughness":{"baseColorFactor":[0.8,0.8,0.8,1.0],"roughnessFactor":1.0,"metallicFactor":0.0},"doubleSided":false}],"nodes":[{"name":"world","children":[1]},{"name":"geometry_0","mesh":0}],"buffers":[{"uri":"data:application/octet-stream;base64,","byteLength":108464}],"bufferViews":[{"buffer":0,"byteOffset":0,"byteLength":44400},{"buffer":0,"byteOffset":44400,"byteLength":24024},{"buffer":0,"byteOffset":68424,"byteLength":16016},{"buffer":0,"byteOffset":84440,"byteLength":24024}]}