{"scene":0,"scenes":[{"nodes":[0]}],"asset":{"version":"2.0","generator":"https://github.com/mikedh/trimesh"},"accessors":[{"componentType":5125,"type":"SCALAR","bufferView":0,"count":11100,"max":[1998],"min":[0]},{"componentType":5126,"type":"VEC3","byteOffset":0,"bufferView":1,"count":1999,"max":[0.8299269676208496,2.9748477935791016,1.155627965927124],"min":[-0.8348701596260071,-5.1200640882598236e-05,-1.1586402654647827]},{"componentType":5126,"type":"VEC2","byteOffset":0,"bufferView":2,"count":1999,"max":[1.3430120944976807,1.0],"min":[0.0004536878550425172,0.0]},{"componentType":5126,"count":1999,"type":"VEC3","byteOffset":0,"bufferView":3,"max":[0.9990999698638916,0.9996699094772339,0.9974067807197571],"min":[-0.9999492764472961,-1.0,-0.9996265769004822]}],"meshes":[{"name":"geometry_0","extras":{},"primitives":[{"attributes":{"POSITION":1,"TEXCOORD_0":2,"NORMAL":3},"indices":0,"mode":4,"material":0}]}],"materials":[{"pbrMetallicRoughness":{"baseColorFactor":[0.8,0.8,0.8,1.0],"roughnessFactor":1.0,"metallicFactor":0.0},"doubleSided":false}],"nodes":[{"name":"world","children":[1]},{"name":"geometry_0","mesh":0}],"buffers":[{"uri":"data:application/octet-stream;base64,","byteLength":108368}],"bufferViews":[{"buffer":0,"byteOffset":0,"byteLength":44400},{"buffer":0,"byteOffset":44400,"byteLength":23988},{"buffer":0,"byteOffset":68388,"byteLength":15992},{"buffer":0,"byteOffset":84380,"byteLength":23988}]}