{"asset": {"version": "2.0", "generator": "GLTFExporter"}, "scenes": [{"name": "AuxScene", "nodes": [1]}], "scene": 0, "nodes": [{"mesh": 0}, {"children": [0]}], "bufferViews": [{"buffer": 0, "byteOffset": 0, "byteLength": 7800}, {"buffer": 0, "byteOffset": 7800, "byteLength": 11160}, {"buffer": 0, "byteOffset": 18960, "byteLength": 11160}, {"buffer": 0, "byteOffset": 30120, "byteLength": 11160}, {"buffer": 0, "byteOffset": 41280, "byteLength": 7440}], "buffers": [{"byteLength": 48720, "uri": "data:application/octet-stream;base64,"}], "accessors": [{"componentType": 5123, "type": "SCALAR", "bufferView": 0, "count": 3900, "max": [929], "min": [0]}, {"componentType": 5126, "type": "VEC3", "bufferView": 1, "byteOffset": 0, "count": 930, "max": [0.8451169729232788, 3.5530500411987305, 0.9408270120620728], "min": [-0.8451169729232788, 0.001386999967508018, -0.9340699911117554]}, {"componentType": 5126, "type": "VEC3", "bufferView": 2, "byteOffset": 0, "count": 930, "max": [0.9995120167732239, 0.8816189765930176, 0.9997249841690063], "min": [-0.9995120167732239, -0.8946200013160706, -0.9984740018844604]}, {"componentType": 5126, "type": "VEC3", "bufferView": 3, "byteOffset": 0, "count": 930, "max": [1.0, 1.0, 1.0], "min": [1.0, 1.0, 1.0]}, {"componentType": 5126, "type": "VEC2", "bufferView": 4, "byteOffset": 0, "count": 930, "max": [1.0020500421524048, 1.0000100135803223], "min": [0.0, 0.0]}], "materials": [{"pbrMetallicRoughness": {"baseColorFactor": [0.8, 0.8, 0.8, 1], "metallicFactor": 0, "roughnessFactor": 1}}], "meshes": [{"primitives": [{"mode": 4, "attributes": {"POSITION": 1, "NORMAL": 2, "COLOR_0": 3, "TEXCOORD_0": 4}, "material": 0, "indices": 0}]}]}