{"scene":0,"scenes":[{"nodes":[0]}],"asset":{"version":"2.0","generator":"https://github.com/mikedh/trimesh"},"accessors":[{"componentType":5125,"type":"SCALAR","bufferView":0,"count":46500,"max":[8213],"min":[0]},{"componentType":5126,"type":"VEC3","byteOffset":0,"bufferView":1,"count":8214,"max":[1.2852177619934082,3.3027889728546143,0.9236613512039185],"min":[-1.2851994037628174,2.5708153052688685e-17,-0.9236053824424744]},{"componentType":5126,"type":"VEC2","byteOffset":0,"bufferView":2,"count":8214,"max":[1.298304557800293,1.0],"min":[2.5288867618655786e-05,0.0]},{"componentType":5126,"count":8214,"type":"VEC3","byteOffset":0,"bufferView":3,"max":[0.999999463558197,0.9999992847442627,0.999999463558197],"min":[-0.9999994039535522,-1.0,-0.9999994039535522]}],"meshes":[{"name":"geometry_0","extras":{},"primitives":[{"attributes":{"POSITION":1,"TEXCOORD_0":2,"NORMAL":3},"indices":0,"mode":4,"material":0}]}],"materials":[{"pbrMetallicRoughness":{"baseColorFactor":[0.8,0.8,0.8,1.0],"roughnessFactor":1.0,"metallicFactor":0.0},"doubleSided":false}],"nodes":[{"name":"world","children":[1]},{"name":"geometry_0","mesh":0}],"buffers":[{"uri":"data:application/octet-stream;base64,","byteLength":448848}],"bufferViews":[{"buffer":0,"byteOffset":0,"byteLength":186000},{"buffer":0,"byteOffset":186000,"byteLength":98568},{"buffer":0,"byteOffset":284568,"byteLength":65712},{"buffer":0,"byteOffset":350280,"byteLength":98568}]}