{"asset": {"version": "2.0", "generator": "GLTFExporter"}, "scenes": [{"name": "AuxScene", "nodes": [1]}], "scene": 0, "nodes": [{"mesh": 0}, {"children": [0]}], "bufferViews": [{"buffer": 0, "byteOffset": 0, "byteLength": 3144}, {"buffer": 0, "byteOffset": 3144, "byteLength": 4176}, {"buffer": 0, "byteOffset": 7320, "byteLength": 4176}, {"buffer": 0, "byteOffset": 11496, "byteLength": 4176}, {"buffer": 0, "byteOffset": 15672, "byteLength": 2784}], "buffers": [{"byteLength": 18456, "uri": "data:application/octet-stream;base64,"}], "accessors": [{"componentType": 5123, "type": "SCALAR", "bufferView": 0, "count": 1572, "max": [347], "min": [0]}, {"componentType": 5126, "type": "VEC3", "bufferView": 1, "byteOffset": 0, "count": 348, "max": [0.5970780253410339, 1.3609700202941895, 0.640313982963562], "min": [-0.5970780253410339, 0.01099110022187233, -0.5970780253410339]}, {"componentType": 5126, "type": "VEC3", "bufferView": 2, "byteOffset": 0, "count": 348, "max": [0.9925529956817627, 0.9996340274810791, 0.992156982421875], "min": [-0.9925529956817627, -0.9999690055847168, -0.9925529956817627]}, {"componentType": 5126, "type": "VEC3", "bufferView": 3, "byteOffset": 0, "count": 348, "max": [1.0, 1.0, 1.0], "min": [1.0, 1.0, 1.0]}, {"componentType": 5126, "type": "VEC2", "bufferView": 4, "byteOffset": 0, "count": 348, "max": [0.9844409823417664, 0.968280017375946], "min": [0.00748499995097518, 0.014097999781370163]}], "materials": [{"pbrMetallicRoughness": {"baseColorFactor": [0.8, 0.8, 0.8, 1], "metallicFactor": 0, "roughnessFactor": 1}}], "meshes": [{"primitives": [{"mode": 4, "attributes": {"POSITION": 1, "NORMAL": 2, "COLOR_0": 3, "TEXCOORD_0": 4}, "material": 0, "indices": 0}]}]}