{"asset": {"version": "2.0", "generator": "GLTFExporter"}, "scenes": [{"name": "AuxScene", "nodes": [1]}], "scene": 0, "nodes": [{"mesh": 0}, {"children": [0]}], "bufferViews": [{"buffer": 0, "byteOffset": 0, "byteLength": 1512}, {"buffer": 0, "byteOffset": 1512, "byteLength": 2340}, {"buffer": 0, "byteOffset": 3852, "byteLength": 2340}, {"buffer": 0, "byteOffset": 6192, "byteLength": 2340}, {"buffer": 0, "byteOffset": 8532, "byteLength": 1560}], "buffers": [{"byteLength": 10092, "uri": "data:application/octet-stream;base64,"}], "accessors": [{"componentType": 5123, "type": "SCALAR", "bufferView": 0, "count": 756, "max": [194], "min": [0]}, {"componentType": 5126, "type": "VEC3", "bufferView": 1, "byteOffset": 0, "count": 195, "max": [0.7592210173606873, 0.3432379961013794, 0.7592210173606873], "min": [-0.7592210173606873, -0.006415939889848232, -0.7592210173606873]}, {"componentType": 5126, "type": "VEC3", "bufferView": 2, "byteOffset": 0, "count": 195, "max": [0.9999899864196777, 0.9996522665023804, 0.9999899864196777], "min": [-0.9999899864196777, -0.9925311207771301, -0.999989926815033]}, {"componentType": 5126, "type": "VEC3", "bufferView": 3, "byteOffset": 0, "count": 195, "max": [1.0, 1.0, 1.0], "min": [1.0, 1.0, 1.0]}, {"componentType": 5126, "type": "VEC2", "bufferView": 4, "byteOffset": 0, "count": 195, "max": [0.9874759912490845, 0.9851149916648865], "min": [0.011672000400722027, 0.019920000806450844]}], "materials": [{"pbrMetallicRoughness": {"baseColorFactor": [0.8, 0.8, 0.8, 1], "metallicFactor": 0, "roughnessFactor": 1}}], "meshes": [{"primitives": [{"mode": 4, "attributes": {"POSITION": 1, "NORMAL": 2, "COLOR_0": 3, "TEXCOORD_0": 4}, "material": 0, "indices": 0}]}]}