{"asset": {"version": "2.0", "generator": "GLTFExporter"}, "scenes": [{"name": "AuxScene", "nodes": [1]}], "scene": 0, "nodes": [{"extras": {"mapFilename": "fox-texture.jpg"}, "mesh": 0}, {"children": [0]}], "bufferViews": [{"buffer": 0, "byteOffset": 0, "byteLength": 6912}, {"buffer": 0, "byteOffset": 6912, "byteLength": 7920}, {"buffer": 0, "byteOffset": 14832, "byteLength": 7920}, {"buffer": 0, "byteOffset": 22752, "byteLength": 7920}, {"buffer": 0, "byteOffset": 30672, "byteLength": 5280}], "buffers": [{"byteLength": 35952, "uri": "data:application/octet-stream;base64,"}], "accessors": [{"componentType": 5123, "type": "SCALAR", "bufferView": 0, "count": 3456, "max": [659], "min": [0]}, {"componentType": 5126, "type": "VEC3", "bufferView": 1, "byteOffset": 0, "count": 660, "max": [0.6581360101699829, 2.4431099891662598, 1.7938300371170044], "min": [-0.6581360101699829, -0.0025102500803768635, -1.1436100006103516]}, {"componentType": 5126, "type": "VEC3", "bufferView": 2, "byteOffset": 0, "count": 660, "max": [0.9975889921188354, 0.9999690055847168, 0.9989320039749146], "min": [-0.9977719783782959, -0.9991459846496582, -0.9974669814109802]}, {"componentType": 5126, "type": "VEC3", "bufferView": 3, "byteOffset": 0, "count": 660, "max": [1.0, 1.0, 1.0], "min": [1.0, 1.0, 1.0]}, {"componentType": 5126, "type": "VEC2", "bufferView": 4, "byteOffset": 0, "count": 660, "max": [0.986581027507782, 0.9729989767074585], "min": [0.016804000362753868, 0.0030720001086592674]}], "materials": [{"pbrMetallicRoughness": {"metallicFactor": 0, "roughnessFactor": 1, "baseColorTexture": {"index": 0}}, "name": "Material"}], "meshes": [{"primitives": [{"mode": 4, "attributes": {"POSITION": 1, "NORMAL": 2, "COLOR_0": 3, "TEXCOORD_0": 4}, "material": 0, "indices": 0}]}], "images": [{"uri": "fox-texture.jpg"}], "textures": [{"source": 0}]}