{"asset": {"version": "2.0", "generator": "GLTFExporter"}, "scenes": [{"name": "AuxScene", "nodes": [1]}], "scene": 0, "nodes": [{"extras": {"mapFilename": "goose-texture.jpg"}, "mesh": 0}, {"children": [0]}], "bufferViews": [{"buffer": 0, "byteOffset": 0, "byteLength": 5376}, {"buffer": 0, "byteOffset": 5376, "byteLength": 6324}, {"buffer": 0, "byteOffset": 11700, "byteLength": 6324}, {"buffer": 0, "byteOffset": 18024, "byteLength": 6324}, {"buffer": 0, "byteOffset": 24348, "byteLength": 4216}], "buffers": [{"byteLength": 28564, "uri": "data:application/octet-stream;base64,"}], "accessors": [{"componentType": 5123, "type": "SCALAR", "bufferView": 0, "count": 2688, "max": [526], "min": [0]}, {"componentType": 5126, "type": "VEC3", "bufferView": 1, "byteOffset": 0, "count": 527, "max": [0.8893679976463318, 4.2846198081970215, 2.533799886703491], "min": [-0.9142959713935852, 0.00540971988812089, -1.514140009880066]}, {"componentType": 5126, "type": "VEC3", "bufferView": 2, "byteOffset": 0, "count": 527, "max": [0.9977419972419739, 0.9995729923248291, 0.9989929795265198], "min": [-0.9977419972419739, -0.9999690055847168, -0.9999390244483948]}, {"componentType": 5126, "type": "VEC3", "bufferView": 3, "byteOffset": 0, "count": 527, "max": [1.0, 1.0, 1.0], "min": [1.0, 1.0, 1.0]}, {"componentType": 5126, "type": "VEC2", "bufferView": 4, "byteOffset": 0, "count": 527, "max": [0.9809309840202332, 0.9853150248527527], "min": [0.022816000506281853, 0.053008001297712326]}], "materials": [{"pbrMetallicRoughness": {"metallicFactor": 0, "roughnessFactor": 1, "baseColorTexture": {"index": 0}}, "name": "Material"}], "meshes": [{"primitives": [{"mode": 4, "attributes": {"POSITION": 1, "NORMAL": 2, "COLOR_0": 3, "TEXCOORD_0": 4}, "material": 0, "indices": 0}]}], "images": [{"uri": "goose-texture.jpg"}], "textures": [{"source": 0}]}