{"scene": 0, "scenes": [{"nodes": [0]}], "asset": {"version": "2.0", "generator": "gltf-make-textures.py"}, "accessors": [{"componentType": 5123, "type": "SCALAR", "bufferView": 0, "count": 12000, "max": [2901], "min": [0]}, {"componentType": 5126, "type": "VEC3", "byteOffset": 0, "bufferView": 1, "count": 2902, "max": [0.7815803289413452, 3.299999952316284, 0.7755548357963562], "min": [-0.7973657846450806, -0.00046980599290691316, -0.8019924759864807]}, {"componentType": 5126, "type": "VEC2", "byteOffset": 0, "bufferView": 2, "count": 2902, "max": [0.993780255317688, 0.9421689510345459], "min": [0.005859375, 0.005859375]}, {"componentType": 5126, "type": "VEC3", "byteOffset": 0, "bufferView": 3, "count": 2902, "max": [0.998867392539978, 0.9919340014457703, 0.9982218742370605], "min": [-0.9992966651916504, -0.9999971985816956, -0.9999741911888123]}], "meshes": [{"name": "geometry_0", "extras": {}, "primitives": [{"attributes": {"POSITION": 1, "TEXCOORD_0": 2, "NORMAL": 3}, "indices": 0, "mode": 4, "material": 0}]}], "materials": [{"pbrMetallicRoughness": {"baseColorFactor": [0.8, 0.8, 0.8, 1.0], "roughnessFactor": 1.0, "metallicFactor": 0.0}, "doubleSided": false}], "nodes": [{"name": "world", "children": [1]}, {"name": "geometry_0", "mesh": 0}], "buffers": [{"byteLength": 116864, "uri": "data:application/octet-stream;base64,"}], "bufferViews": [{"buffer": 0, "byteOffset": 0, "byteLength": 24000}, {"buffer": 0, "byteOffset": 24000, "byteLength": 34824}, {"buffer": 0, "byteOffset": 58824, "byteLength": 23216}, {"buffer": 0, "byteOffset": 82040, "byteLength": 34824}]}