{"asset": {"version": "2.0", "generator": "GLTFExporter"}, "scenes": [{"name": "AuxScene", "nodes": [2]}], "scene": 0, "nodes": [{"extras": {"mapFilename": null}, "mesh": 0}, {"extras": {"mapFilename": null}, "mesh": 1}, {"children": [0, 1]}], "bufferViews": [{"buffer": 0, "byteOffset": 0, "byteLength": 1536}, {"buffer": 0, "byteOffset": 1536, "byteLength": 1536}, {"buffer": 0, "byteOffset": 3072, "byteLength": 1536}, {"buffer": 0, "byteOffset": 4608, "byteLength": 1536}, {"buffer": 0, "byteOffset": 6144, "byteLength": 768}, {"buffer": 0, "byteOffset": 6912, "byteLength": 768}, {"buffer": 0, "byteOffset": 7680, "byteLength": 768}, {"buffer": 0, "byteOffset": 8448, "byteLength": 744}], "buffers": [{"byteLength": 9192, "uri": "data:application/octet-stream;base64,"}], "accessors": [{"componentType": 5126, "type": "VEC3", "bufferView": 0, "byteOffset": 0, "count": 128, "max": [0.8085460066795349, 0.14642900228500366, 0.8085460066795349], "min": [-0.8085460066795349, 0.0501461997628212, -0.8085460066795349]}, {"componentType": 5126, "type": "VEC3", "bufferView": 1, "byteOffset": 0, "count": 128, "max": [0.6153811812400818, 0.8211908340454102, 0.6153811812400818], "min": [-0.6153811812400818, -0.8211845755577087, -0.61538165807724]}, {"componentType": 5126, "type": "VEC3", "bufferView": 2, "byteOffset": 0, "count": 128, "max": [1.0, 1.0, 1.0], "min": [1.0, 1.0, 1.0]}, {"componentType": 5123, "type": "SCALAR", "bufferView": 3, "byteOffset": 0, "count": 768, "max": [127.0], "min": [0.0]}, {"componentType": 5126, "type": "VEC3", "bufferView": 4, "byteOffset": 0, "count": 64, "max": [0.8483819961547852, -0.1980070024728775, 0.8483819961547852], "min": [-0.8483819961547852, -0.2102469950914383, -0.8483819961547852]}, {"componentType": 5126, "type": "VEC3", "bufferView": 5, "byteOffset": 0, "count": 64, "max": [0.7475581765174866, 0.9999985694885254, 0.7475579380989075], "min": [-0.74754798412323, -0.9999985694885254, -0.7475481629371643]}, {"componentType": 5126, "type": "VEC3", "bufferView": 6, "byteOffset": 0, "count": 64, "max": [1.0, 1.0, 1.0], "min": [1.0, 1.0, 1.0]}, {"componentType": 5123, "type": "SCALAR", "bufferView": 7, "byteOffset": 0, "count": 372, "max": [63.0], "min": [0.0]}], "materials": [{"pbrMetallicRoughness": {"baseColorFactor": [0.6392156862745098, 0.6392156862745098, 0.6392156862745098, 1], "metallicFactor": 0, "roughnessFactor": 1}, "name": "ring"}, {"pbrMetallicRoughness": {"baseColorFactor": [0.6392156862745098, 0.6392156862745098, 0.6392156862745098, 1], "metallicFactor": 0, "roughnessFactor": 1}, "name": "square"}], "meshes": [{"primitives": [{"mode": 4, "attributes": {"POSITION": 0, "NORMAL": 1, "COLOR_0": 2}, "material": 0, "indices": 3}]}, {"primitives": [{"mode": 4, "attributes": {"POSITION": 4, "NORMAL": 5, "COLOR_0": 6}, "material": 1, "indices": 7}]}]}