{"asset": {"version": "2.0", "generator": "GLTFExporter"}, "scenes": [{"name": "AuxScene", "nodes": [2]}], "scene": 0, "nodes": [{"extras": {"mapFilename": null}, "mesh": 0}, {"extras": {"mapFilename": null}, "mesh": 1}, {"children": [0, 1]}], "bufferViews": [{"buffer": 0, "byteOffset": 0, "byteLength": 1440}, {"buffer": 0, "byteOffset": 1440, "byteLength": 1440}, {"buffer": 0, "byteOffset": 2880, "byteLength": 1440}, {"buffer": 0, "byteOffset": 4320, "byteLength": 1296}, {"buffer": 0, "byteOffset": 5616, "byteLength": 144}, {"buffer": 0, "byteOffset": 5760, "byteLength": 144}, {"buffer": 0, "byteOffset": 5904, "byteLength": 144}, {"buffer": 0, "byteOffset": 6048, "byteLength": 120}], "buffers": [{"byteLength": 6168, "uri": "data:application/octet-stream;base64,"}], "accessors": [{"componentType": 5126, "type": "VEC3", "bufferView": 0, "byteOffset": 0, "count": 120, "max": [0.8167160153388977, 0.1344670057296753, 0.9430559873580933], "min": [-0.8167160153388977, 0.06255479902029037, -0.9430549740791321]}, {"componentType": 5126, "type": "VEC3", "bufferView": 1, "byteOffset": 0, "count": 120, "max": [0.7886589765548706, 0.8386179804801941, 0.7923830151557922], "min": [-0.7886589765548706, -0.8386179804801941, -0.7923830151557922]}, {"componentType": 5126, "type": "VEC3", "bufferView": 2, "byteOffset": 0, "count": 120, "max": [1.0, 1.0, 1.0], "min": [1.0, 1.0, 1.0]}, {"componentType": 5123, "type": "SCALAR", "bufferView": 3, "byteOffset": 0, "count": 648, "max": [119.0], "min": [0.0]}, {"componentType": 5126, "type": "VEC3", "bufferView": 4, "byteOffset": 0, "count": 12, "max": [0.8660249710083008, 0.024776099249720573, 1.0], "min": [-0.8660249710083008, 0.011476799845695496, -1.0]}, {"componentType": 5126, "type": "VEC3", "bufferView": 5, "byteOffset": 0, "count": 12, "max": [0.6862390041351318, 0.6099730134010315, 0.7923830151557922], "min": [-0.6862390041351318, -0.6099730134010315, -0.7923830151557922]}, {"componentType": 5126, "type": "VEC3", "bufferView": 6, "byteOffset": 0, "count": 12, "max": [1.0, 1.0, 1.0], "min": [1.0, 1.0, 1.0]}, {"componentType": 5123, "type": "SCALAR", "bufferView": 7, "byteOffset": 0, "count": 60, "max": [11.0], "min": [0.0]}], "materials": [{"pbrMetallicRoughness": {"baseColorFactor": [0.6392156862745098, 0.6392156862745098, 0.6392156862745098, 1], "metallicFactor": 0, "roughnessFactor": 1}, "name": "ring"}, {"pbrMetallicRoughness": {"baseColorFactor": [0.6392156862745098, 0.6392156862745098, 0.6392156862745098, 1], "metallicFactor": 0, "roughnessFactor": 1}, "name": "square"}], "meshes": [{"primitives": [{"mode": 4, "attributes": {"POSITION": 0, "NORMAL": 1, "COLOR_0": 2}, "material": 0, "indices": 3}]}, {"primitives": [{"mode": 4, "attributes": {"POSITION": 4, "NORMAL": 5, "COLOR_0": 6}, "material": 1, "indices": 7}]}]}