{"asset": {"version": "2.0", "generator": "GLTFExporter"}, "scenes": [{"name": "AuxScene", "nodes": [1]}], "scene": 0, "nodes": [{"mesh": 0}, {"children": [0]}], "bufferViews": [{"buffer": 0, "byteOffset": 0, "byteLength": 5952}, {"buffer": 0, "byteOffset": 5952, "byteLength": 9312}, {"buffer": 0, "byteOffset": 15264, "byteLength": 9312}, {"buffer": 0, "byteOffset": 24576, "byteLength": 9312}, {"buffer": 0, "byteOffset": 33888, "byteLength": 6208}], "buffers": [{"byteLength": 40096, "uri": "data:application/octet-stream;base64,"}], "accessors": [{"componentType": 5123, "type": "SCALAR", "bufferView": 0, "count": 2976, "max": [775], "min": [0]}, {"componentType": 5126, "type": "VEC3", "bufferView": 1, "byteOffset": 0, "count": 776, "max": [0.9081818461418152, 3.081818103790283, 0.9545454382896423], "min": [-0.9081818461418152, 0.0, -0.9090909361839294]}, {"componentType": 5126, "type": "VEC3", "bufferView": 2, "byteOffset": 0, "count": 776, "max": [0.9999676942825317, 1.0, 1.0], "min": [-0.9999676942825317, -0.999988853931427, -1.0]}, {"componentType": 5126, "type": "VEC3", "bufferView": 3, "byteOffset": 0, "count": 776, "max": [1.0, 1.0, 1.0], "min": [1.0, 1.0, 1.0]}, {"componentType": 5126, "type": "VEC2", "bufferView": 4, "byteOffset": 0, "count": 776, "max": [0.8125, 0.8125], "min": [0.0, 0.0]}], "materials": [{"pbrMetallicRoughness": {"baseColorFactor": [0.8, 0.8, 0.8, 1], "metallicFactor": 0, "roughnessFactor": 1}}], "meshes": [{"primitives": [{"mode": 4, "attributes": {"POSITION": 1, "NORMAL": 2, "COLOR_0": 3, "TEXCOORD_0": 4}, "material": 0, "indices": 0}]}]}