{"asset": {"version": "2.0", "generator": "GLTFExporter"}, "scenes": [{"name": "AuxScene", "nodes": [1]}], "scene": 0, "nodes": [{"mesh": 0}, {"children": [0]}], "bufferViews": [{"buffer": 0, "byteOffset": 0, "byteLength": 5808}, {"buffer": 0, "byteOffset": 5808, "byteLength": 8280}, {"buffer": 0, "byteOffset": 14088, "byteLength": 8280}, {"buffer": 0, "byteOffset": 22368, "byteLength": 8280}, {"buffer": 0, "byteOffset": 30648, "byteLength": 5520}], "buffers": [{"byteLength": 36168, "uri": "data:application/octet-stream;base64,"}], "accessors": [{"componentType": 5123, "type": "SCALAR", "bufferView": 0, "count": 2904, "max": [689], "min": [0]}, {"componentType": 5126, "type": "VEC3", "bufferView": 1, "byteOffset": 0, "count": 690, "max": [0.7700049877166748, 3.2399799823760986, 0.770006000995636], "min": [-0.7700049877166748, -0.0026499999221414328, -0.7700049877166748]}, {"componentType": 5126, "type": "VEC3", "bufferView": 2, "byteOffset": 0, "count": 690, "max": [0.9958228468894958, 0.9626511931419373, 0.9958229064941406], "min": [-0.995823085308075, -0.9997870326042175, -0.9958230257034302]}, {"componentType": 5126, "type": "VEC3", "bufferView": 3, "byteOffset": 0, "count": 690, "max": [1.0, 1.0, 1.0], "min": [1.0, 1.0, 1.0]}, {"componentType": 5126, "type": "VEC2", "bufferView": 4, "byteOffset": 0, "count": 690, "max": [0.9918810129165649, 0.9968180060386658], "min": [0.0070409998297691345, 0.005683000199496746]}], "materials": [{"pbrMetallicRoughness": {"baseColorFactor": [0.8, 0.8, 0.8, 1], "metallicFactor": 0, "roughnessFactor": 1}}], "meshes": [{"primitives": [{"mode": 4, "attributes": {"POSITION": 1, "NORMAL": 2, "COLOR_0": 3, "TEXCOORD_0": 4}, "material": 0, "indices": 0}]}]}