{"asset": {"version": "2.0", "generator": "GLTFExporter"}, "scenes": [{"name": "AuxScene", "nodes": [1]}], "scene": 0, "nodes": [{"mesh": 0}, {"children": [0]}], "bufferViews": [{"buffer": 0, "byteOffset": 0, "byteLength": 4248}, {"buffer": 0, "byteOffset": 4248, "byteLength": 8100}, {"buffer": 0, "byteOffset": 12348, "byteLength": 8100}, {"buffer": 0, "byteOffset": 20448, "byteLength": 8100}, {"buffer": 0, "byteOffset": 28548, "byteLength": 5400}], "buffers": [{"byteLength": 33948, "uri": "data:application/octet-stream;base64,"}], "accessors": [{"componentType": 5123, "type": "SCALAR", "bufferView": 0, "count": 2124, "max": [674], "min": [0]}, {"componentType": 5126, "type": "VEC3", "bufferView": 1, "byteOffset": 0, "count": 675, "max": [1.0281505584716797, 4.283094882965088, 1.0281505584716797], "min": [-1.0281505584716797, -0.02159547433257103, -1.0281505584716797]}, {"componentType": 5126, "type": "VEC3", "bufferView": 2, "byteOffset": 0, "count": 675, "max": [0.9933359026908875, 0.9517214298248291, 1.0], "min": [-0.9892258644104004, -0.9990562796592712, -1.0]}, {"componentType": 5126, "type": "VEC3", "bufferView": 3, "byteOffset": 0, "count": 675, "max": [1.0, 1.0, 1.0], "min": [1.0, 1.0, 1.0]}, {"componentType": 5126, "type": "VEC2", "bufferView": 4, "byteOffset": 0, "count": 675, "max": [1.0, 0.9991379976272583], "min": [0.0, 0.0]}], "materials": [{"pbrMetallicRoughness": {"baseColorFactor": [0.8, 0.8, 0.8, 1], "metallicFactor": 0, "roughnessFactor": 1}}], "meshes": [{"primitives": [{"mode": 4, "attributes": {"POSITION": 1, "NORMAL": 2, "COLOR_0": 3, "TEXCOORD_0": 4}, "material": 0, "indices": 0}]}]}