{"scene": 0, "scenes": [{"nodes": [0]}], "asset": {"version": "2.0", "generator": "gltf-fix-normals.py"}, "accessors": [{"componentType": 5123, "type": "SCALAR", "bufferView": 0, "count": 2124, "max": [674], "min": [0]}, {"componentType": 5126, "type": "VEC3", "bufferView": 1, "byteOffset": 0, "count": 675, "max": [0.9767429828643799, 3.968940019607544, 0.9767429828643799], "min": [-0.9767429828643799, -0.020515700802206993, -0.9767429828643799]}, {"componentType": 5126, "type": "VEC2", "bufferView": 2, "byteOffset": 0, "count": 675, "max": [1.0, 0.9991379976272583], "min": [0.0, 0.0]}, {"componentType": 5126, "type": "VEC3", "bufferView": 3, "byteOffset": 0, "count": 675, "max": [0.9927738308906555, 0.9333975911140442, 1.0], "min": [-0.9927735924720764, -0.9990562796592712, -1.0]}], "meshes": [{"name": "geometry_0", "extras": {}, "primitives": [{"attributes": {"POSITION": 1, "TEXCOORD_0": 2, "NORMAL": 3}, "indices": 0, "mode": 4, "material": 0}]}], "materials": [{"pbrMetallicRoughness": {"baseColorFactor": [0.8, 0.8, 0.8, 1], "metallicFactor": 0, "roughnessFactor": 1}}], "nodes": [{"mesh": 0}, {"children": [0]}], "buffers": [{"byteLength": 25848, "uri": "data:application/octet-stream;base64,"}], "bufferViews": [{"buffer": 0, "byteOffset": 0, "byteLength": 4248}, {"buffer": 0, "byteOffset": 4248, "byteLength": 8100}, {"buffer": 0, "byteOffset": 12348, "byteLength": 5400}, {"buffer": 0, "byteOffset": 17748, "byteLength": 8100}]}