{"asset": {"version": "2.0", "generator": "GLTFExporter"}, "scenes": [{"name": "AuxScene", "nodes": [1]}], "scene": 0, "nodes": [{"mesh": 0}, {"children": [0]}], "bufferViews": [{"buffer": 0, "byteOffset": 0, "byteLength": 4248}, {"buffer": 0, "byteOffset": 4248, "byteLength": 9696}, {"buffer": 0, "byteOffset": 13944, "byteLength": 9696}, {"buffer": 0, "byteOffset": 23640, "byteLength": 9696}, {"buffer": 0, "byteOffset": 33336, "byteLength": 6464}], "buffers": [{"byteLength": 39800, "uri": "data:application/octet-stream;base64,"}], "accessors": [{"componentType": 5123, "type": "SCALAR", "bufferView": 0, "count": 2124, "max": [807], "min": [0]}, {"componentType": 5126, "type": "VEC3", "bufferView": 1, "byteOffset": 0, "count": 808, "max": [0.8879481554031372, 2.880854606628418, 0.8879481554031372], "min": [-0.8879481554031372, -0.018650636076927185, -0.8879481554031372]}, {"componentType": 5126, "type": "VEC3", "bufferView": 2, "byteOffset": 0, "count": 808, "max": [0.9927738308906555, 0.9333973526954651, 0.9927736520767212], "min": [-0.9927735924720764, -0.9990562796592712, -0.9927736520767212]}, {"componentType": 5126, "type": "VEC3", "bufferView": 3, "byteOffset": 0, "count": 808, "max": [1.0, 1.0, 1.0], "min": [1.0, 1.0, 1.0]}, {"componentType": 5126, "type": "VEC2", "bufferView": 4, "byteOffset": 0, "count": 808, "max": [1.0, 0.9991379976272583], "min": [0.0, 0.0]}], "materials": [{"pbrMetallicRoughness": {"baseColorFactor": [0.8, 0.8, 0.8, 1], "metallicFactor": 0, "roughnessFactor": 1}}], "meshes": [{"primitives": [{"mode": 4, "attributes": {"POSITION": 1, "NORMAL": 2, "COLOR_0": 3, "TEXCOORD_0": 4}, "material": 0, "indices": 0}]}]}