{"asset": {"version": "2.0", "generator": "GLTFExporter"}, "scenes": [{"name": "AuxScene", "nodes": [1]}], "scene": 0, "nodes": [{"mesh": 0}, {"children": [0]}], "bufferViews": [{"buffer": 0, "byteOffset": 0, "byteLength": 3816}, {"buffer": 0, "byteOffset": 3816, "byteLength": 6432}, {"buffer": 0, "byteOffset": 10248, "byteLength": 6432}, {"buffer": 0, "byteOffset": 16680, "byteLength": 6432}, {"buffer": 0, "byteOffset": 23112, "byteLength": 4288}], "buffers": [{"byteLength": 27400, "uri": "data:application/octet-stream;base64,"}], "accessors": [{"componentType": 5123, "type": "SCALAR", "bufferView": 0, "count": 1908, "max": [535], "min": [0]}, {"componentType": 5126, "type": "VEC3", "bufferView": 1, "byteOffset": 0, "count": 536, "max": [1.100000023841858, 3.3384499549865723, 0.7553790211677551], "min": [-1.100000023841858, -0.019735800102353096, -1.100000023841858]}, {"componentType": 5126, "type": "VEC3", "bufferView": 2, "byteOffset": 0, "count": 536, "max": [0.9998754262924194, 1.0, 0.9998754262924194], "min": [-0.9998754262924194, -0.9991774559020996, -0.9998754262924194]}, {"componentType": 5126, "type": "VEC3", "bufferView": 3, "byteOffset": 0, "count": 536, "max": [1.0, 1.0, 1.0], "min": [1.0, 1.0, 1.0]}, {"componentType": 5126, "type": "VEC2", "bufferView": 4, "byteOffset": 0, "count": 536, "max": [1.0, 0.9700000286102295], "min": [0.0, 0.0]}], "materials": [{"pbrMetallicRoughness": {"baseColorFactor": [0.8, 0.8, 0.8, 1], "metallicFactor": 0, "roughnessFactor": 1}}], "meshes": [{"primitives": [{"mode": 4, "attributes": {"POSITION": 1, "NORMAL": 2, "COLOR_0": 3, "TEXCOORD_0": 4}, "material": 0, "indices": 0}]}]}