{"asset": {"version": "2.0", "generator": "GLTFExporter"}, "scenes": [{"name": "AuxScene", "nodes": [1]}], "scene": 0, "nodes": [{"mesh": 0}, {"children": [0]}], "bufferViews": [{"buffer": 0, "byteOffset": 0, "byteLength": 2856}, {"buffer": 0, "byteOffset": 2856, "byteLength": 4368}, {"buffer": 0, "byteOffset": 7224, "byteLength": 4368}, {"buffer": 0, "byteOffset": 11592, "byteLength": 4368}, {"buffer": 0, "byteOffset": 15960, "byteLength": 2912}], "buffers": [{"byteLength": 18872, "uri": "data:application/octet-stream;base64,"}], "accessors": [{"componentType": 5123, "type": "SCALAR", "bufferView": 0, "count": 1428, "max": [363], "min": [0]}, {"componentType": 5126, "type": "VEC3", "bufferView": 1, "byteOffset": 0, "count": 364, "max": [0.7553790211677551, 2.2684500217437744, 0.7553790211677551], "min": [-0.7553790211677551, -0.019735800102353096, -0.7553790211677551]}, {"componentType": 5126, "type": "VEC3", "bufferView": 2, "byteOffset": 0, "count": 364, "max": [0.9998804330825806, 0.9398313164710999, 0.9998803734779358], "min": [-0.9998804330825806, -0.9991774559020996, -0.9998804330825806]}, {"componentType": 5126, "type": "VEC3", "bufferView": 3, "byteOffset": 0, "count": 364, "max": [1.0, 1.0, 1.0], "min": [1.0, 1.0, 1.0]}, {"componentType": 5126, "type": "VEC2", "bufferView": 4, "byteOffset": 0, "count": 364, "max": [1.0, 0.9241780042648315], "min": [0.0, 0.0]}], "materials": [{"pbrMetallicRoughness": {"baseColorFactor": [0.8, 0.8, 0.8, 1], "metallicFactor": 0, "roughnessFactor": 1}}], "meshes": [{"primitives": [{"mode": 4, "attributes": {"POSITION": 1, "NORMAL": 2, "COLOR_0": 3, "TEXCOORD_0": 4}, "material": 0, "indices": 0}]}]}