{"asset": {"version": "2.0", "generator": "GLTFExporter"}, "scenes": [{"name": "AuxScene", "nodes": [1]}], "scene": 0, "nodes": [{"mesh": 0}, {"children": [0]}], "bufferViews": [{"buffer": 0, "byteOffset": 0, "byteLength": 3192}, {"buffer": 0, "byteOffset": 3192, "byteLength": 4068}, {"buffer": 0, "byteOffset": 7260, "byteLength": 4068}, {"buffer": 0, "byteOffset": 11328, "byteLength": 4068}, {"buffer": 0, "byteOffset": 15396, "byteLength": 2712}], "buffers": [{"byteLength": 18108, "uri": "data:application/octet-stream;base64,"}], "accessors": [{"componentType": 5123, "type": "SCALAR", "bufferView": 0, "count": 1596, "max": [338], "min": [0]}, {"componentType": 5126, "type": "VEC3", "bufferView": 1, "byteOffset": 0, "count": 339, "max": [0.9213449954986572, 3.39808988571167, 0.9213449954986572], "min": [-0.9213449954986572, 0.00693925004452467, -0.9213449954986572]}, {"componentType": 5126, "type": "VEC3", "bufferView": 2, "byteOffset": 0, "count": 339, "max": [0.9990239143371582, 0.9982250928878784, 0.9986252784729004], "min": [-0.9986252784729004, -0.9943127632141113, -0.9980065226554871]}, {"componentType": 5126, "type": "VEC3", "bufferView": 3, "byteOffset": 0, "count": 339, "max": [1.0, 1.0, 1.0], "min": [1.0, 1.0, 1.0]}, {"componentType": 5126, "type": "VEC2", "bufferView": 4, "byteOffset": 0, "count": 339, "max": [0.9886519908905029, 0.9789599776268005], "min": [0.012892000377178192, 0.013113999739289284]}], "materials": [{"pbrMetallicRoughness": {"baseColorFactor": [0.8, 0.8, 0.8, 1], "metallicFactor": 0, "roughnessFactor": 1}}], "meshes": [{"primitives": [{"mode": 4, "attributes": {"POSITION": 1, "NORMAL": 2, "COLOR_0": 3, "TEXCOORD_0": 4}, "material": 0, "indices": 0}]}]}