{"asset": {"version": "2.0", "generator": "GLTFExporter"}, "scenes": [{"name": "AuxScene", "nodes": [3]}], "scene": 0, "nodes": [{"extras": {"mapFilename": null}, "mesh": 0}, {"extras": {"mapFilename": null}, "mesh": 1}, {"extras": {"mapFilename": "woodcell1x512.jpg"}, "mesh": 2}, {"children": [0, 1, 2]}], "bufferViews": [{"buffer": 0, "byteOffset": 0, "byteLength": 96}, {"buffer": 0, "byteOffset": 96, "byteLength": 96}, {"buffer": 0, "byteOffset": 192, "byteLength": 96}, {"buffer": 0, "byteOffset": 288, "byteLength": 64}, {"buffer": 0, "byteOffset": 352, "byteLength": 72}, {"buffer": 0, "byteOffset": 424, "byteLength": 96}, {"buffer": 0, "byteOffset": 520, "byteLength": 96}, {"buffer": 0, "byteOffset": 616, "byteLength": 96}, {"buffer": 0, "byteOffset": 712, "byteLength": 64}, {"buffer": 0, "byteOffset": 776, "byteLength": 72}, {"buffer": 0, "byteOffset": 848, "byteLength": 456}, {"buffer": 0, "byteOffset": 1304, "byteLength": 456}, {"buffer": 0, "byteOffset": 1760, "byteLength": 456}, {"buffer": 0, "byteOffset": 2216, "byteLength": 304}, {"buffer": 0, "byteOffset": 2520, "byteLength": 120}], "buffers": [{"byteLength": 2640, "uri": "data:application/octet-stream;base64,"}], "accessors": [{"componentType": 5126, "type": "VEC3", "bufferView": 0, "byteOffset": 0, "count": 8, "max": [0.674983024597168, 0.04953239858150482, -3.8613200187683105], "min": [-0.674983024597168, -0.049532800912857056, -3.882740020751953]}, {"componentType": 5126, "type": "VEC3", "bufferView": 1, "byteOffset": 0, "count": 8, "max": [0.5773490071296692, 0.5773490071296692, 0.5773490071296692], "min": [-0.5773490071296692, -0.5773490071296692, -0.5773490071296692]}, {"componentType": 5126, "type": "VEC3", "bufferView": 2, "byteOffset": 0, "count": 8, "max": [1.0, 1.0, 1.0], "min": [1.0, 1.0, 1.0]}, {"componentType": 5126, "type": "VEC2", "bufferView": 3, "byteOffset": 0, "count": 8, "max": [0.0, 0.0], "min": [0.0, 0.0]}, {"componentType": 5123, "type": "SCALAR", "bufferView": 4, "byteOffset": 0, "count": 36, "max": [7.0], "min": [0.0]}, {"componentType": 5126, "type": "VEC3", "bufferView": 5, "byteOffset": 0, "count": 8, "max": [0.674983024597168, 0.049532800912857056, 3.8822999000549316], "min": [-0.674983024597168, -0.04953239858150482, 3.860879898071289]}, {"componentType": 5126, "type": "VEC3", "bufferView": 6, "byteOffset": 0, "count": 8, "max": [0.5773490071296692, 0.5773490071296692, 0.5773490071296692], "min": [-0.5773490071296692, -0.5773490071296692, -0.5773490071296692]}, {"componentType": 5126, "type": "VEC3", "bufferView": 7, "byteOffset": 0, "count": 8, "max": [1.0, 1.0, 1.0], "min": [1.0, 1.0, 1.0]}, {"componentType": 5126, "type": "VEC2", "bufferView": 8, "byteOffset": 0, "count": 8, "max": [0.0, 0.0], "min": [0.0, 0.0]}, {"componentType": 5123, "type": "SCALAR", "bufferView": 9, "byteOffset": 0, "count": 36, "max": [7.0], "min": [0.0]}, {"componentType": 5126, "type": "VEC3", "bufferView": 10, "byteOffset": 0, "count": 38, "max": [3.8594601154327393, 0.16234800219535828, 3.8594601154327393], "min": [-3.8594601154327393, -0.1511780023574829, -3.8594601154327393]}, {"componentType": 5126, "type": "VEC3", "bufferView": 11, "byteOffset": 0, "count": 38, "max": [0.6821190118789673, 0.794031023979187, 0.6821190118789673], "min": [-0.6821190118789673, -0.5773490071296692, -0.6821190118789673]}, {"componentType": 5126, "type": "VEC3", "bufferView": 12, "byteOffset": 0, "count": 38, "max": [1.0, 1.0, 1.0], "min": [1.0, 1.0, 1.0]}, {"componentType": 5126, "type": "VEC2", "bufferView": 13, "byteOffset": 0, "count": 38, "max": [1.0, 1.0], "min": [0.0, 0.0]}, {"componentType": 5123, "type": "SCALAR", "bufferView": 14, "byteOffset": 0, "count": 60, "max": [37.0], "min": [0.0]}], "materials": [{"pbrMetallicRoughness": {"baseColorFactor": [0.6392156862745098, 0.6392156862745098, 0.6392156862745098, 1], "metallicFactor": 0, "roughnessFactor": 1}, "name": "playerb"}, {"pbrMetallicRoughness": {"baseColorFactor": [0.6392156862745098, 0.6392156862745098, 0.6392156862745098, 1], "metallicFactor": 0, "roughnessFactor": 1}, "name": "playera"}, {"pbrMetallicRoughness": {"baseColorFactor": [0.6392156862745098, 0.6392156862745098, 0.6392156862745098, 1], "metallicFactor": 0, "roughnessFactor": 1, "baseColorTexture": {"index": 0}}, "name": "mainframe"}], "meshes": [{"primitives": [{"mode": 4, "attributes": {"POSITION": 0, "NORMAL": 1, "COLOR_0": 2, "TEXCOORD_0": 3}, "material": 0, "indices": 4}]}, {"primitives": [{"mode": 4, "attributes": {"POSITION": 5, "NORMAL": 6, "COLOR_0": 7, "TEXCOORD_0": 8}, "material": 1, "indices": 9}]}, {"primitives": [{"mode": 4, "attributes": {"POSITION": 10, "NORMAL": 11, "COLOR_0": 12, "TEXCOORD_0": 13}, "material": 2, "indices": 14}]}], "images": [{"uri": "woodcell1x512.jpg"}], "textures": [{"source": 0}]}