{"asset": {"version": "2.0", "generator": "GLTFExporter"}, "scenes": [{"name": "AuxScene", "nodes": [1]}], "scene": 0, "nodes": [{"extras": {"mapFilename": null}, "mesh": 0}, {"children": [0]}], "bufferViews": [{"buffer": 0, "byteOffset": 0, "byteLength": 1032}, {"buffer": 0, "byteOffset": 1032, "byteLength": 1056}, {"buffer": 0, "byteOffset": 2088, "byteLength": 1056}, {"buffer": 0, "byteOffset": 3144, "byteLength": 1056}], "buffers": [{"byteLength": 4200, "uri": "data:application/octet-stream;base64,"}], "accessors": [{"componentType": 5123, "type": "SCALAR", "bufferView": 0, "count": 516, "max": [87], "min": [0]}, {"componentType": 5126, "type": "VEC3", "bufferView": 1, "byteOffset": 0, "count": 88, "max": [0.6891639828681946, 0.28728100657463074, 0.6891639828681946], "min": [-0.6891639828681946, 0.0030821599066257477, -0.6891639828681946]}, {"componentType": 5126, "type": "VEC3", "bufferView": 2, "byteOffset": 0, "count": 88, "max": [0.9953309893608093, 0.9999690055847168, 0.9953309893608093], "min": [-0.9953309893608093, -0.70271897315979, -0.9953309893608093]}, {"componentType": 5126, "type": "VEC3", "bufferView": 3, "byteOffset": 0, "count": 88, "max": [1.0, 1.0, 1.0], "min": [1.0, 1.0, 1.0]}], "materials": [{"pbrMetallicRoughness": {"baseColorFactor": [0.6392156862745098, 0.6392156862745098, 0.6392156862745098, 1], "metallicFactor": 0, "roughnessFactor": 1}, "name": "base"}], "meshes": [{"primitives": [{"mode": 4, "attributes": {"POSITION": 1, "NORMAL": 2, "COLOR_0": 3}, "material": 0, "indices": 0}]}]}