{"asset": {"version": "2.0", "generator": "GLTFExporter"}, "scenes": [{"name": "AuxScene", "nodes": [1]}], "scene": 0, "nodes": [{"mesh": 0}, {"children": [0]}], "bufferViews": [{"buffer": 0, "byteOffset": 0, "byteLength": 7104}, {"buffer": 0, "byteOffset": 7104, "byteLength": 8004}, {"buffer": 0, "byteOffset": 15108, "byteLength": 8004}, {"buffer": 0, "byteOffset": 23112, "byteLength": 8004}, {"buffer": 0, "byteOffset": 31116, "byteLength": 5336}], "buffers": [{"byteLength": 36452, "uri": "data:application/octet-stream;base64,"}], "accessors": [{"componentType": 5123, "type": "SCALAR", "bufferView": 0, "count": 3552, "max": [666], "min": [0]}, {"componentType": 5126, "type": "VEC3", "bufferView": 1, "byteOffset": 0, "count": 667, "max": [0.8929219841957092, 3.171190023422241, 0.9007300138473511], "min": [-0.8929219841957092, 0.019437000155448914, -0.9007290005683899]}, {"componentType": 5126, "type": "VEC3", "bufferView": 2, "byteOffset": 0, "count": 667, "max": [0.9996640086174011, 0.9998469948768616, 0.999176025390625], "min": [-0.9996640086174011, -0.9890130162239075, -0.9995120167732239]}, {"componentType": 5126, "type": "VEC3", "bufferView": 3, "byteOffset": 0, "count": 667, "max": [1.0, 1.0, 1.0], "min": [1.0, 1.0, 1.0]}, {"componentType": 5126, "type": "VEC2", "bufferView": 4, "byteOffset": 0, "count": 667, "max": [0.9754019975662231, 0.979112982749939], "min": [0.02444400079548359, 0.013036999851465225]}], "materials": [{"pbrMetallicRoughness": {"baseColorFactor": [0.8, 0.8, 0.8, 1], "metallicFactor": 0, "roughnessFactor": 1}}], "meshes": [{"primitives": [{"mode": 4, "attributes": {"POSITION": 1, "NORMAL": 2, "COLOR_0": 3, "TEXCOORD_0": 4}, "material": 0, "indices": 0}]}]}