{"asset": {"version": "2.0", "generator": "GLTFExporter"}, "scenes": [{"name": "AuxScene", "nodes": [1]}], "scene": 0, "nodes": [{"mesh": 0}, {"children": [0]}], "bufferViews": [{"buffer": 0, "byteOffset": 0, "byteLength": 4656}, {"buffer": 0, "byteOffset": 4656, "byteLength": 5736}, {"buffer": 0, "byteOffset": 10392, "byteLength": 5736}, {"buffer": 0, "byteOffset": 16128, "byteLength": 5736}, {"buffer": 0, "byteOffset": 21864, "byteLength": 3824}], "buffers": [{"byteLength": 25688, "uri": "data:application/octet-stream;base64,"}], "accessors": [{"componentType": 5123, "type": "SCALAR", "bufferView": 0, "count": 2328, "max": [477], "min": [0]}, {"componentType": 5126, "type": "VEC3", "bufferView": 1, "byteOffset": 0, "count": 478, "max": [0.7549999952316284, 2.828000068664551, 0.7549999952316284], "min": [-0.7549999952316284, 0.0, -0.7549999952316284]}, {"componentType": 5126, "type": "VEC3", "bufferView": 2, "byteOffset": 0, "count": 478, "max": [0.9997643828392029, 0.9941589832305908, 0.9999999403953552], "min": [-0.9997643828392029, -0.9962782263755798, -0.9997643828392029]}, {"componentType": 5126, "type": "VEC3", "bufferView": 3, "byteOffset": 0, "count": 478, "max": [1.0, 1.0, 1.0], "min": [1.0, 1.0, 1.0]}, {"componentType": 5126, "type": "VEC2", "bufferView": 4, "byteOffset": 0, "count": 478, "max": [0.8125, 0.8125], "min": [0.0, 0.0]}], "materials": [{"pbrMetallicRoughness": {"baseColorFactor": [0.8, 0.8, 0.8, 1], "metallicFactor": 0, "roughnessFactor": 1}}], "meshes": [{"primitives": [{"mode": 4, "attributes": {"POSITION": 1, "NORMAL": 2, "COLOR_0": 3, "TEXCOORD_0": 4}, "material": 0, "indices": 0}]}]}