{"asset": {"version": "2.0", "generator": "GLTFExporter"}, "scenes": [{"name": "AuxScene", "nodes": [1]}], "scene": 0, "nodes": [{"mesh": 0}, {"children": [0]}], "bufferViews": [{"buffer": 0, "byteOffset": 0, "byteLength": 7752}, {"buffer": 0, "byteOffset": 7752, "byteLength": 8724}, {"buffer": 0, "byteOffset": 16476, "byteLength": 8724}, {"buffer": 0, "byteOffset": 25200, "byteLength": 8724}, {"buffer": 0, "byteOffset": 33924, "byteLength": 5816}], "buffers": [{"byteLength": 39740, "uri": "data:application/octet-stream;base64,"}], "accessors": [{"componentType": 5123, "type": "SCALAR", "bufferView": 0, "count": 3876, "max": [726], "min": [0]}, {"componentType": 5126, "type": "VEC3", "bufferView": 1, "byteOffset": 0, "count": 727, "max": [0.7685369849205017, 2.1429600715637207, 0.7685369849205017], "min": [-0.7685369849205017, 0.009808000177145004, -0.7685369849205017]}, {"componentType": 5126, "type": "VEC3", "bufferView": 2, "byteOffset": 0, "count": 727, "max": [0.9999690055847168, 0.994841992855072, 0.9999690055847168], "min": [-0.9999690055847168, -0.7580490112304688, -0.9999690055847168]}, {"componentType": 5126, "type": "VEC3", "bufferView": 3, "byteOffset": 0, "count": 727, "max": [1.0, 1.0, 1.0], "min": [1.0, 1.0, 1.0]}, {"componentType": 5126, "type": "VEC2", "bufferView": 4, "byteOffset": 0, "count": 727, "max": [1.001710057258606, 0.9957129955291748], "min": [0.003911000210791826, 0.001151000033132732]}], "materials": [{"pbrMetallicRoughness": {"baseColorFactor": [0.8, 0.8, 0.8, 1], "metallicFactor": 0, "roughnessFactor": 1}}], "meshes": [{"primitives": [{"mode": 4, "attributes": {"POSITION": 1, "NORMAL": 2, "COLOR_0": 3, "TEXCOORD_0": 4}, "material": 0, "indices": 0}]}]}