{"asset": {"version": "2.0", "generator": "GLTFExporter"}, "scenes": [{"name": "AuxScene", "nodes": [1]}], "scene": 0, "nodes": [{"mesh": 0}, {"children": [0]}], "bufferViews": [{"buffer": 0, "byteOffset": 0, "byteLength": 4224}, {"buffer": 0, "byteOffset": 4224, "byteLength": 4932}, {"buffer": 0, "byteOffset": 9156, "byteLength": 4932}, {"buffer": 0, "byteOffset": 14088, "byteLength": 4932}, {"buffer": 0, "byteOffset": 19020, "byteLength": 3288}], "buffers": [{"byteLength": 22308, "uri": "data:application/octet-stream;base64,"}], "accessors": [{"componentType": 5123, "type": "SCALAR", "bufferView": 0, "count": 2112, "max": [410], "min": [0]}, {"componentType": 5126, "type": "VEC3", "bufferView": 1, "byteOffset": 0, "count": 411, "max": [0.7549999952316284, 2.9700000286102295, 0.7549999952316284], "min": [-0.7549999952316284, 0.0, -0.7549999952316284]}, {"componentType": 5126, "type": "VEC3", "bufferView": 2, "byteOffset": 0, "count": 411, "max": [0.9990053176879883, 0.9952011108398438, 0.9996575117111206], "min": [-0.9993183612823486, -0.9994363784790039, -0.9959577322006226]}, {"componentType": 5126, "type": "VEC3", "bufferView": 3, "byteOffset": 0, "count": 411, "max": [1.0, 1.0, 1.0], "min": [1.0, 1.0, 1.0]}, {"componentType": 5126, "type": "VEC2", "bufferView": 4, "byteOffset": 0, "count": 411, "max": [0.8125, 0.8125], "min": [0.0, 0.0]}], "materials": [{"pbrMetallicRoughness": {"baseColorFactor": [0.8, 0.8, 0.8, 1], "metallicFactor": 0, "roughnessFactor": 1}}], "meshes": [{"primitives": [{"mode": 4, "attributes": {"POSITION": 1, "NORMAL": 2, "COLOR_0": 3, "TEXCOORD_0": 4}, "material": 0, "indices": 0}]}]}