{"asset": {"version": "2.0", "generator": "GLTFExporter"}, "scenes": [{"name": "AuxScene", "nodes": [1]}], "scene": 0, "nodes": [{"mesh": 0}, {"children": [0]}], "bufferViews": [{"buffer": 0, "byteOffset": 0, "byteLength": 3648}, {"buffer": 0, "byteOffset": 3648, "byteLength": 4776}, {"buffer": 0, "byteOffset": 8424, "byteLength": 4776}, {"buffer": 0, "byteOffset": 13200, "byteLength": 4776}, {"buffer": 0, "byteOffset": 17976, "byteLength": 3184}], "buffers": [{"byteLength": 21160, "uri": "data:application/octet-stream;base64,"}], "accessors": [{"componentType": 5123, "type": "SCALAR", "bufferView": 0, "count": 1824, "max": [397], "min": [0]}, {"componentType": 5126, "type": "VEC3", "bufferView": 1, "byteOffset": 0, "count": 398, "max": [1.100000023841858, 3.3380000591278076, 0.7549999952316284], "min": [-1.100000023841858, 0.0, -1.100000023841858]}, {"componentType": 5126, "type": "VEC3", "bufferView": 2, "byteOffset": 0, "count": 398, "max": [0.9992883205413818, 1.0, 0.9992883205413818], "min": [-0.9992883205413818, -0.9630075693130493, -0.9992883205413818]}, {"componentType": 5126, "type": "VEC3", "bufferView": 3, "byteOffset": 0, "count": 398, "max": [1.0, 1.0, 1.0], "min": [1.0, 1.0, 1.0]}, {"componentType": 5126, "type": "VEC2", "bufferView": 4, "byteOffset": 0, "count": 398, "max": [0.8125, 0.8125], "min": [0.0, 0.0]}], "materials": [{"pbrMetallicRoughness": {"baseColorFactor": [0.8, 0.8, 0.8, 1], "metallicFactor": 0, "roughnessFactor": 1}}], "meshes": [{"primitives": [{"mode": 4, "attributes": {"POSITION": 1, "NORMAL": 2, "COLOR_0": 3, "TEXCOORD_0": 4}, "material": 0, "indices": 0}]}]}