{"asset": {"version": "2.0", "generator": "GLTFExporter"}, "scenes": [{"name": "AuxScene", "nodes": [1]}], "scene": 0, "nodes": [{"mesh": 0}, {"children": [0]}], "bufferViews": [{"buffer": 0, "byteOffset": 0, "byteLength": 2892}, {"buffer": 0, "byteOffset": 2892, "byteLength": 3612}, {"buffer": 0, "byteOffset": 6504, "byteLength": 3612}, {"buffer": 0, "byteOffset": 10116, "byteLength": 3612}, {"buffer": 0, "byteOffset": 13728, "byteLength": 2408}], "buffers": [{"byteLength": 16136, "uri": "data:application/octet-stream;base64,"}], "accessors": [{"componentType": 5123, "type": "SCALAR", "bufferView": 0, "count": 1446, "max": [300], "min": [0]}, {"componentType": 5126, "type": "VEC3", "bufferView": 1, "byteOffset": 0, "count": 301, "max": [0.7947368621826172, 3.263157844543457, 0.7947368621826172], "min": [-0.7947368621826172, 0.0, -0.7947368621826172]}, {"componentType": 5126, "type": "VEC3", "bufferView": 2, "byteOffset": 0, "count": 301, "max": [0.9992883205413818, 0.8878940343856812, 0.9992883205413818], "min": [-0.9992883205413818, -0.5570866465568542, -0.9992883205413818]}, {"componentType": 5126, "type": "VEC3", "bufferView": 3, "byteOffset": 0, "count": 301, "max": [1.0, 1.0, 1.0], "min": [1.0, 1.0, 1.0]}, {"componentType": 5126, "type": "VEC2", "bufferView": 4, "byteOffset": 0, "count": 301, "max": [0.8125, 0.949999988079071], "min": [0.0, 0.0]}], "materials": [{"pbrMetallicRoughness": {"baseColorFactor": [0.8, 0.8, 0.8, 1], "metallicFactor": 0, "roughnessFactor": 1}}], "meshes": [{"primitives": [{"mode": 4, "attributes": {"POSITION": 1, "NORMAL": 2, "COLOR_0": 3, "TEXCOORD_0": 4}, "material": 0, "indices": 0}]}]}