{"asset": {"version": "2.0", "generator": "GLTFExporter"}, "scenes": [{"name": "AuxScene", "nodes": [1]}], "scene": 0, "nodes": [{"mesh": 0}, {"children": [0]}], "bufferViews": [{"buffer": 0, "byteOffset": 0, "byteLength": 8904}, {"buffer": 0, "byteOffset": 8904, "byteLength": 10500}, {"buffer": 0, "byteOffset": 19404, "byteLength": 10500}, {"buffer": 0, "byteOffset": 29904, "byteLength": 10500}, {"buffer": 0, "byteOffset": 40404, "byteLength": 7000}], "buffers": [{"byteLength": 47404, "uri": "data:application/octet-stream;base64,"}], "accessors": [{"componentType": 5123, "type": "SCALAR", "bufferView": 0, "count": 4452, "max": [874], "min": [0]}, {"componentType": 5126, "type": "VEC3", "bufferView": 1, "byteOffset": 0, "count": 875, "max": [0.9941909909248352, 4.629109859466553, 0.988910973072052], "min": [-0.994189977645874, 0.01177580002695322, -0.9994699954986572]}, {"componentType": 5126, "type": "VEC3", "bufferView": 2, "byteOffset": 0, "count": 875, "max": [0.9999952912330627, 0.9918337464332581, 0.9999952912330627], "min": [-0.9999952912330627, -0.9990230202674866, -0.9999952912330627]}, {"componentType": 5126, "type": "VEC3", "bufferView": 3, "byteOffset": 0, "count": 875, "max": [1.0, 1.0, 1.0], "min": [1.0, 1.0, 1.0]}, {"componentType": 5126, "type": "VEC2", "bufferView": 4, "byteOffset": 0, "count": 875, "max": [0.9958959817886353, 0.9863139986991882], "min": [0.006998000200837851, 0.013783999718725681]}], "materials": [{"pbrMetallicRoughness": {"baseColorFactor": [0.8, 0.8, 0.8, 1], "metallicFactor": 0, "roughnessFactor": 1}}], "meshes": [{"primitives": [{"mode": 4, "attributes": {"POSITION": 1, "NORMAL": 2, "COLOR_0": 3, "TEXCOORD_0": 4}, "material": 0, "indices": 0}]}]}