{"asset": {"version": "2.0", "generator": "GLTFExporter"}, "scenes": [{"name": "AuxScene", "nodes": [1]}], "scene": 0, "nodes": [{"mesh": 0}, {"children": [0]}], "bufferViews": [{"buffer": 0, "byteOffset": 0, "byteLength": 17196}, {"buffer": 0, "byteOffset": 17196, "byteLength": 28524}, {"buffer": 0, "byteOffset": 45720, "byteLength": 28524}, {"buffer": 0, "byteOffset": 74244, "byteLength": 28524}, {"buffer": 0, "byteOffset": 102768, "byteLength": 19016}], "buffers": [{"byteLength": 121784, "uri": "data:application/octet-stream;base64,"}], "accessors": [{"componentType": 5123, "type": "SCALAR", "bufferView": 0, "count": 8598, "max": [2376], "min": [0]}, {"componentType": 5126, "type": "VEC3", "bufferView": 1, "byteOffset": 0, "count": 2377, "max": [1.0751299858093262, 3.533519983291626, 0.89683997631073], "min": [-1.0751399993896484, 7.300000288523734e-05, -1.1501200199127197]}, {"componentType": 5126, "type": "VEC3", "bufferView": 2, "byteOffset": 0, "count": 2377, "max": [0.9999390244483948, 0.9975889921188354, 0.9997249841690063], "min": [-0.9999390244483948, -0.951475977897644, -0.9993289709091187]}, {"componentType": 5126, "type": "VEC3", "bufferView": 3, "byteOffset": 0, "count": 2377, "max": [1.0, 1.0, 1.0], "min": [1.0, 1.0, 1.0]}, {"componentType": 5126, "type": "VEC2", "bufferView": 4, "byteOffset": 0, "count": 2377, "max": [0.9968240261077881, 0.9968270063400269], "min": [0.0031759999692440033, 0.003172999946400523]}], "materials": [{"pbrMetallicRoughness": {"baseColorFactor": [0.8, 0.8, 0.8, 1], "metallicFactor": 0, "roughnessFactor": 1}}], "meshes": [{"primitives": [{"mode": 4, "attributes": {"POSITION": 1, "NORMAL": 2, "COLOR_0": 3, "TEXCOORD_0": 4}, "material": 0, "indices": 0}]}]}