{"asset": {"version": "2.0", "generator": "GLTFExporter"}, "scenes": [{"name": "AuxScene", "nodes": [1]}], "scene": 0, "nodes": [{"mesh": 0}, {"children": [0]}], "bufferViews": [{"buffer": 0, "byteOffset": 0, "byteLength": 6864}, {"buffer": 0, "byteOffset": 6864, "byteLength": 15312}, {"buffer": 0, "byteOffset": 22176, "byteLength": 15312}, {"buffer": 0, "byteOffset": 37488, "byteLength": 15312}, {"buffer": 0, "byteOffset": 52800, "byteLength": 10208}], "buffers": [{"byteLength": 63008, "uri": "data:application/octet-stream;base64,"}], "accessors": [{"componentType": 5123, "type": "SCALAR", "bufferView": 0, "count": 3432, "max": [1275], "min": [0]}, {"componentType": 5126, "type": "VEC3", "bufferView": 1, "byteOffset": 0, "count": 1276, "max": [0.9084330201148987, 2.4382998943328857, 0.9084330201148987], "min": [-0.9084330201148987, 0.011303800158202648, -0.9084320068359375]}, {"componentType": 5126, "type": "VEC3", "bufferView": 2, "byteOffset": 0, "count": 1276, "max": [1.0, 1.0, 1.0], "min": [-1.0, -1.0, -1.0]}, {"componentType": 5126, "type": "VEC3", "bufferView": 3, "byteOffset": 0, "count": 1276, "max": [1.0, 1.0, 1.0], "min": [1.0, 1.0, 1.0]}, {"componentType": 5126, "type": "VEC2", "bufferView": 4, "byteOffset": 0, "count": 1276, "max": [1.0, 1.0], "min": [0.0, -0.0023109999019652605]}], "materials": [{"pbrMetallicRoughness": {"baseColorFactor": [0.8, 0.8, 0.8, 1], "metallicFactor": 0, "roughnessFactor": 1}}], "meshes": [{"primitives": [{"mode": 4, "attributes": {"POSITION": 1, "NORMAL": 2, "COLOR_0": 3, "TEXCOORD_0": 4}, "material": 0, "indices": 0}]}]}