{"asset": {"version": "2.0", "generator": "GLTFExporter"}, "scenes": [{"name": "AuxScene", "nodes": [1]}], "scene": 0, "nodes": [{"mesh": 0}, {"children": [0]}], "bufferViews": [{"buffer": 0, "byteOffset": 0, "byteLength": 6168}, {"buffer": 0, "byteOffset": 6168, "byteLength": 8412}, {"buffer": 0, "byteOffset": 14580, "byteLength": 8412}, {"buffer": 0, "byteOffset": 22992, "byteLength": 8412}, {"buffer": 0, "byteOffset": 31404, "byteLength": 5608}], "buffers": [{"byteLength": 37012, "uri": "data:application/octet-stream;base64,"}], "accessors": [{"componentType": 5123, "type": "SCALAR", "bufferView": 0, "count": 3084, "max": [700], "min": [0]}, {"componentType": 5126, "type": "VEC3", "bufferView": 1, "byteOffset": 0, "count": 701, "max": [0.9276180267333984, 4.065800189971924, 0.7877079844474792], "min": [-0.9444779753684998, -0.0018909999635070562, -0.7877079844474792]}, {"componentType": 5126, "type": "VEC3", "bufferView": 2, "byteOffset": 0, "count": 701, "max": [0.9999390244483948, 0.9996950030326843, 0.9999390244483948], "min": [-0.9999390244483948, -0.9841910004615784, -0.9999390244483948]}, {"componentType": 5126, "type": "VEC3", "bufferView": 3, "byteOffset": 0, "count": 701, "max": [1.0, 1.0, 1.0], "min": [1.0, 1.0, 1.0]}, {"componentType": 5126, "type": "VEC2", "bufferView": 4, "byteOffset": 0, "count": 701, "max": [0.9950429797172546, 0.9969149827957153], "min": [0.0224239993840456, 0.0039160000160336494]}], "materials": [{"pbrMetallicRoughness": {"baseColorFactor": [0.8, 0.8, 0.8, 1], "metallicFactor": 0, "roughnessFactor": 1}}], "meshes": [{"primitives": [{"mode": 4, "attributes": {"POSITION": 1, "NORMAL": 2, "COLOR_0": 3, "TEXCOORD_0": 4}, "material": 0, "indices": 0}]}]}