{"asset": {"version": "2.0", "generator": "GLTFExporter"}, "scenes": [{"name": "AuxScene", "nodes": [1]}], "scene": 0, "nodes": [{"mesh": 0}, {"children": [0]}], "bufferViews": [{"buffer": 0, "byteOffset": 0, "byteLength": 9216}, {"buffer": 0, "byteOffset": 9216, "byteLength": 16200}, {"buffer": 0, "byteOffset": 25416, "byteLength": 16200}, {"buffer": 0, "byteOffset": 41616, "byteLength": 16200}, {"buffer": 0, "byteOffset": 57816, "byteLength": 10800}], "buffers": [{"byteLength": 68616, "uri": "data:application/octet-stream;base64,"}], "accessors": [{"componentType": 5123, "type": "SCALAR", "bufferView": 0, "count": 4608, "max": [1349], "min": [0]}, {"componentType": 5126, "type": "VEC3", "bufferView": 1, "byteOffset": 0, "count": 1350, "max": [0.7607349753379822, 2.9302399158477783, 0.7452489733695984], "min": [-0.7616130113601685, 0.021662700921297073, -0.7762479782104492]}, {"componentType": 5126, "type": "VEC3", "bufferView": 2, "byteOffset": 0, "count": 1350, "max": [0.9999390244483948, 0.9999390244483948, 0.9999390244483948], "min": [-0.9999390244483948, -0.9999690055847168, -0.9999390244483948]}, {"componentType": 5126, "type": "VEC3", "bufferView": 3, "byteOffset": 0, "count": 1350, "max": [1.0, 1.0, 1.0], "min": [1.0, 1.0, 1.0]}, {"componentType": 5126, "type": "VEC2", "bufferView": 4, "byteOffset": 0, "count": 1350, "max": [0.9940699934959412, 0.9861400127410889], "min": [0.011526600457727909, 0.0026330200489610434]}], "materials": [{"pbrMetallicRoughness": {"baseColorFactor": [0.8, 0.8, 0.8, 1], "metallicFactor": 0, "roughnessFactor": 1}}], "meshes": [{"primitives": [{"mode": 4, "attributes": {"POSITION": 1, "NORMAL": 2, "COLOR_0": 3, "TEXCOORD_0": 4}, "material": 0, "indices": 0}]}]}