{"asset": {"version": "2.0", "generator": "GLTFExporter"}, "scenes": [{"name": "AuxScene", "nodes": [1]}], "scene": 0, "nodes": [{"mesh": 0}, {"children": [0]}], "bufferViews": [{"buffer": 0, "byteOffset": 0, "byteLength": 1320}, {"buffer": 0, "byteOffset": 1320, "byteLength": 1812}, {"buffer": 0, "byteOffset": 3132, "byteLength": 1812}, {"buffer": 0, "byteOffset": 4944, "byteLength": 1812}, {"buffer": 0, "byteOffset": 6756, "byteLength": 1208}], "buffers": [{"byteLength": 7964, "uri": "data:application/octet-stream;base64,"}], "accessors": [{"componentType": 5123, "type": "SCALAR", "bufferView": 0, "count": 660, "max": [150], "min": [0]}, {"componentType": 5126, "type": "VEC3", "bufferView": 1, "byteOffset": 0, "count": 151, "max": [0.7963520288467407, 1.6985599994659424, 0.7963520288467407], "min": [-0.7963520288467407, 0.004323959816247225, -0.7963520288467407]}, {"componentType": 5126, "type": "VEC3", "bufferView": 2, "byteOffset": 0, "count": 151, "max": [0.9948909878730774, 0.9902145862579346, 0.9948910474777222], "min": [-0.9948910474777222, -0.9991981387138367, -0.9948910474777222]}, {"componentType": 5126, "type": "VEC3", "bufferView": 3, "byteOffset": 0, "count": 151, "max": [1.0, 1.0, 1.0], "min": [1.0, 1.0, 1.0]}, {"componentType": 5126, "type": "VEC2", "bufferView": 4, "byteOffset": 0, "count": 151, "max": [0.9642360210418701, 0.9998850226402283], "min": [0.00011500000255182385, 0.00011500000255182385]}], "materials": [{"pbrMetallicRoughness": {"baseColorFactor": [0.8, 0.8, 0.8, 1], "metallicFactor": 0, "roughnessFactor": 1}}], "meshes": [{"primitives": [{"mode": 4, "attributes": {"POSITION": 1, "NORMAL": 2, "COLOR_0": 3, "TEXCOORD_0": 4}, "material": 0, "indices": 0}]}]}