{"asset": {"version": "2.0", "generator": "GLTFExporter"}, "scenes": [{"name": "AuxScene", "nodes": [1]}], "scene": 0, "nodes": [{"mesh": 0}, {"children": [0]}], "bufferViews": [{"buffer": 0, "byteOffset": 0, "byteLength": 4584}, {"buffer": 0, "byteOffset": 4584, "byteLength": 5292}, {"buffer": 0, "byteOffset": 9876, "byteLength": 5292}, {"buffer": 0, "byteOffset": 15168, "byteLength": 5292}, {"buffer": 0, "byteOffset": 20460, "byteLength": 3528}], "buffers": [{"byteLength": 23988, "uri": "data:application/octet-stream;base64,"}], "accessors": [{"componentType": 5123, "type": "SCALAR", "bufferView": 0, "count": 2292, "max": [440], "min": [0]}, {"componentType": 5126, "type": "VEC3", "bufferView": 1, "byteOffset": 0, "count": 441, "max": [0.7522469758987427, 2.8213601112365723, 0.7511900067329407], "min": [-0.7522469758987427, 0.01340510044246912, -0.7533029913902283]}, {"componentType": 5126, "type": "VEC3", "bufferView": 2, "byteOffset": 0, "count": 441, "max": [0.9992325305938721, 0.9991095662117004, 0.999970018863678], "min": [-0.9992325305938721, -0.9988023638725281, -0.999970018863678]}, {"componentType": 5126, "type": "VEC3", "bufferView": 3, "byteOffset": 0, "count": 441, "max": [1.0, 1.0, 1.0], "min": [1.0, 1.0, 1.0]}, {"componentType": 5126, "type": "VEC2", "bufferView": 4, "byteOffset": 0, "count": 441, "max": [1.0024800300598145, 1.0071699619293213], "min": [0.008450999855995178, 0.007970999926328659]}], "materials": [{"pbrMetallicRoughness": {"baseColorFactor": [0.8, 0.8, 0.8, 1], "metallicFactor": 0, "roughnessFactor": 1}}], "meshes": [{"primitives": [{"mode": 4, "attributes": {"POSITION": 1, "NORMAL": 2, "COLOR_0": 3, "TEXCOORD_0": 4}, "material": 0, "indices": 0}]}]}