{"asset": {"version": "2.0", "generator": "GLTFExporter"}, "scenes": [{"name": "AuxScene", "nodes": [1]}], "scene": 0, "nodes": [{"mesh": 0}, {"children": [0]}], "bufferViews": [{"buffer": 0, "byteOffset": 0, "byteLength": 4392}, {"buffer": 0, "byteOffset": 4392, "byteLength": 5112}, {"buffer": 0, "byteOffset": 9504, "byteLength": 5112}, {"buffer": 0, "byteOffset": 14616, "byteLength": 5112}, {"buffer": 0, "byteOffset": 19728, "byteLength": 3408}], "buffers": [{"byteLength": 23136, "uri": "data:application/octet-stream;base64,"}], "accessors": [{"componentType": 5123, "type": "SCALAR", "bufferView": 0, "count": 2196, "max": [425], "min": [0]}, {"componentType": 5126, "type": "VEC3", "bufferView": 1, "byteOffset": 0, "count": 426, "max": [0.5997059941291809, 2.603369951248169, 0.5997059941291809], "min": [-0.5997059941291809, 0.0018785200081765652, -0.5997059941291809]}, {"componentType": 5126, "type": "VEC3", "bufferView": 2, "byteOffset": 0, "count": 426, "max": [0.9989259839057922, 0.8647855520248413, 0.9989259839057922], "min": [-0.9989259839057922, -0.9796078205108643, -0.9989259839057922]}, {"componentType": 5126, "type": "VEC3", "bufferView": 3, "byteOffset": 0, "count": 426, "max": [1.0, 1.0, 1.0], "min": [1.0, 1.0, 1.0]}, {"componentType": 5126, "type": "VEC2", "bufferView": 4, "byteOffset": 0, "count": 426, "max": [0.9740930199623108, 0.9998999834060669], "min": [-0.0015820000553503633, 0.02333799935877323]}], "materials": [{"pbrMetallicRoughness": {"baseColorFactor": [0.8, 0.8, 0.8, 1], "metallicFactor": 0, "roughnessFactor": 1}}], "meshes": [{"primitives": [{"mode": 4, "attributes": {"POSITION": 1, "NORMAL": 2, "COLOR_0": 3, "TEXCOORD_0": 4}, "material": 0, "indices": 0}]}]}