{"asset": {"version": "2.0", "generator": "GLTFExporter"}, "scenes": [{"name": "AuxScene", "nodes": [1]}], "scene": 0, "nodes": [{"mesh": 0}, {"children": [0]}], "bufferViews": [{"buffer": 0, "byteOffset": 0, "byteLength": 2868}, {"buffer": 0, "byteOffset": 2868, "byteLength": 3960}, {"buffer": 0, "byteOffset": 6828, "byteLength": 3960}, {"buffer": 0, "byteOffset": 10788, "byteLength": 3960}, {"buffer": 0, "byteOffset": 14748, "byteLength": 2640}], "buffers": [{"byteLength": 17388, "uri": "data:application/octet-stream;base64,"}], "accessors": [{"componentType": 5123, "type": "SCALAR", "bufferView": 0, "count": 1434, "max": [329], "min": [0]}, {"componentType": 5126, "type": "VEC3", "bufferView": 1, "byteOffset": 0, "count": 330, "max": [0.9052330255508423, 2.6266000270843506, 0.9052330255508423], "min": [-0.9052330255508423, 0.013472599908709526, -0.9052330255508423]}, {"componentType": 5126, "type": "VEC3", "bufferView": 2, "byteOffset": 0, "count": 330, "max": [0.9999806880950928, 1.0, 0.9999806880950928], "min": [-0.9999806880950928, -0.9939050078392029, -0.9999806880950928]}, {"componentType": 5126, "type": "VEC3", "bufferView": 3, "byteOffset": 0, "count": 330, "max": [1.0, 1.0, 1.0], "min": [1.0, 1.0, 1.0]}, {"componentType": 5126, "type": "VEC2", "bufferView": 4, "byteOffset": 0, "count": 330, "max": [0.9878559708595276, 0.9902909994125366], "min": [0.0006079999729990959, 0.0149940000846982]}], "materials": [{"pbrMetallicRoughness": {"baseColorFactor": [0.8, 0.8, 0.8, 1], "metallicFactor": 0, "roughnessFactor": 1}}], "meshes": [{"primitives": [{"mode": 4, "attributes": {"POSITION": 1, "NORMAL": 2, "COLOR_0": 3, "TEXCOORD_0": 4}, "material": 0, "indices": 0}]}]}