{"scene": 0, "scenes": [{"nodes": [0]}], "asset": {"version": "2.0", "generator": "gltf-fix-normals.py"}, "accessors": [{"componentType": 5123, "type": "SCALAR", "bufferView": 0, "count": 1242, "max": [377], "min": [0]}, {"componentType": 5126, "type": "VEC3", "bufferView": 1, "byteOffset": 0, "count": 378, "max": [0.6681550145149231, 2.1732499599456787, 0.6681550145149231], "min": [-0.6681550145149231, -2.9669600110082683e-08, -0.6681550145149231]}, {"componentType": 5126, "type": "VEC2", "bufferView": 2, "byteOffset": 0, "count": 378, "max": [1.0, 0.9664989709854126], "min": [0.0, 0.0]}, {"componentType": 5126, "type": "VEC3", "bufferView": 3, "byteOffset": 0, "count": 378, "max": [0.9987584948539734, 1.0, 0.9987584948539734], "min": [-0.9987584948539734, -0.9991774559020996, -0.9987586140632629]}], "meshes": [{"name": "geometry_0", "extras": {}, "primitives": [{"attributes": {"POSITION": 1, "TEXCOORD_0": 2, "NORMAL": 3}, "indices": 0, "mode": 4, "material": 0}]}], "materials": [{"pbrMetallicRoughness": {"baseColorFactor": [0.8, 0.8, 0.8, 1], "metallicFactor": 0, "roughnessFactor": 1}}], "nodes": [{"mesh": 0}, {"children": [0]}], "buffers": [{"byteLength": 14580, "uri": "data:application/octet-stream;base64,"}], "bufferViews": [{"buffer": 0, "byteOffset": 0, "byteLength": 2484}, {"buffer": 0, "byteOffset": 2484, "byteLength": 4536}, {"buffer": 0, "byteOffset": 7020, "byteLength": 3024}, {"buffer": 0, "byteOffset": 10044, "byteLength": 4536}]}