{"asset": {"version": "2.0", "generator": "GLTFExporter"}, "scenes": [{"name": "AuxScene", "nodes": [1]}], "scene": 0, "nodes": [{"mesh": 0}, {"children": [0]}], "bufferViews": [{"buffer": 0, "byteOffset": 0, "byteLength": 9504}, {"buffer": 0, "byteOffset": 9504, "byteLength": 11808}, {"buffer": 0, "byteOffset": 21312, "byteLength": 11808}, {"buffer": 0, "byteOffset": 33120, "byteLength": 11808}, {"buffer": 0, "byteOffset": 44928, "byteLength": 7872}], "buffers": [{"byteLength": 52800, "uri": "data:application/octet-stream;base64,"}], "accessors": [{"componentType": 5123, "type": "SCALAR", "bufferView": 0, "count": 4752, "max": [983], "min": [0]}, {"componentType": 5126, "type": "VEC3", "bufferView": 1, "byteOffset": 0, "count": 984, "max": [0.8649320006370544, 3.092859983444214, 0.9088540077209473], "min": [-0.8649320006370544, 0.003980000037699938, -0.9376400113105774]}, {"componentType": 5126, "type": "VEC3", "bufferView": 2, "byteOffset": 0, "count": 984, "max": [0.9998779892921448, 0.9992070198059082, 0.9969180226325989], "min": [-0.9998779892921448, -0.9996340274810791, -0.9987789988517761]}, {"componentType": 5126, "type": "VEC3", "bufferView": 3, "byteOffset": 0, "count": 984, "max": [1.0, 1.0, 1.0], "min": [1.0, 1.0, 1.0]}, {"componentType": 5126, "type": "VEC2", "bufferView": 4, "byteOffset": 0, "count": 984, "max": [0.9998610019683838, 0.955256998538971], "min": [0.00013899999612476677, 0.00013899999612476677]}], "materials": [{"pbrMetallicRoughness": {"baseColorFactor": [0.8, 0.8, 0.8, 1], "metallicFactor": 0, "roughnessFactor": 1}}], "meshes": [{"primitives": [{"mode": 4, "attributes": {"POSITION": 1, "NORMAL": 2, "COLOR_0": 3, "TEXCOORD_0": 4}, "material": 0, "indices": 0}]}]}