{"asset": {"version": "2.0", "generator": "GLTFExporter"}, "scenes": [{"name": "AuxScene", "nodes": [1]}], "scene": 0, "nodes": [{"mesh": 0}, {"children": [0]}], "bufferViews": [{"buffer": 0, "byteOffset": 0, "byteLength": 3048}, {"buffer": 0, "byteOffset": 3048, "byteLength": 3924}, {"buffer": 0, "byteOffset": 6972, "byteLength": 3924}, {"buffer": 0, "byteOffset": 10896, "byteLength": 3924}, {"buffer": 0, "byteOffset": 14820, "byteLength": 2616}], "buffers": [{"byteLength": 17436, "uri": "data:application/octet-stream;base64,"}], "accessors": [{"componentType": 5123, "type": "SCALAR", "bufferView": 0, "count": 1524, "max": [326], "min": [0]}, {"componentType": 5126, "type": "VEC3", "bufferView": 1, "byteOffset": 0, "count": 327, "max": [0.6393600106239319, 1.340749979019165, 0.6393600106239319], "min": [-0.6393600106239319, 0.020031599327921867, -0.6393600106239319]}, {"componentType": 5126, "type": "VEC3", "bufferView": 2, "byteOffset": 0, "count": 327, "max": [0.9913020133972168, 0.9997559785842896, 0.9999690055847168], "min": [-0.9913020133972168, -0.6856899857521057, -0.99822998046875]}, {"componentType": 5126, "type": "VEC3", "bufferView": 3, "byteOffset": 0, "count": 327, "max": [1.0, 1.0, 1.0], "min": [1.0, 1.0, 1.0]}, {"componentType": 5126, "type": "VEC2", "bufferView": 4, "byteOffset": 0, "count": 327, "max": [0.9702399969100952, 0.9653369784355164], "min": [0.049421001225709915, 0.07754799723625183]}], "materials": [{"pbrMetallicRoughness": {"baseColorFactor": [0.8, 0.8, 0.8, 1], "metallicFactor": 0, "roughnessFactor": 1}}], "meshes": [{"primitives": [{"mode": 4, "attributes": {"POSITION": 1, "NORMAL": 2, "COLOR_0": 3, "TEXCOORD_0": 4}, "material": 0, "indices": 0}]}]}