{"asset": {"version": "2.0", "generator": "GLTFExporter"}, "scenes": [{"name": "AuxScene", "nodes": [1]}], "scene": 0, "nodes": [{"mesh": 0}, {"children": [0]}], "bufferViews": [{"buffer": 0, "byteOffset": 0, "byteLength": 4584}, {"buffer": 0, "byteOffset": 4584, "byteLength": 5280}, {"buffer": 0, "byteOffset": 9864, "byteLength": 5280}, {"buffer": 0, "byteOffset": 15144, "byteLength": 5280}, {"buffer": 0, "byteOffset": 20424, "byteLength": 3520}], "buffers": [{"byteLength": 23944, "uri": "data:application/octet-stream;base64,"}], "accessors": [{"componentType": 5123, "type": "SCALAR", "bufferView": 0, "count": 2292, "max": [439], "min": [0]}, {"componentType": 5126, "type": "VEC3", "bufferView": 1, "byteOffset": 0, "count": 440, "max": [0.9071999788284302, 2.978260040283203, 0.9071999788284302], "min": [-0.9071999788284302, -0.007672070059925318, -0.9071990251541138]}, {"componentType": 5126, "type": "VEC3", "bufferView": 2, "byteOffset": 0, "count": 440, "max": [0.9835759401321411, 0.9419036507606506, 0.9835755228996277], "min": [-0.9835755228996277, -0.9988272786140442, -0.9835755228996277]}, {"componentType": 5126, "type": "VEC3", "bufferView": 3, "byteOffset": 0, "count": 440, "max": [1.0, 1.0, 1.0], "min": [1.0, 1.0, 1.0]}, {"componentType": 5126, "type": "VEC2", "bufferView": 4, "byteOffset": 0, "count": 440, "max": [0.9994490146636963, 0.9906719923019409], "min": [0.0016899999463930726, 0.007065999787300825]}], "materials": [{"pbrMetallicRoughness": {"baseColorFactor": [0.8, 0.8, 0.8, 1], "metallicFactor": 0, "roughnessFactor": 1}}], "meshes": [{"primitives": [{"mode": 4, "attributes": {"POSITION": 1, "NORMAL": 2, "COLOR_0": 3, "TEXCOORD_0": 4}, "material": 0, "indices": 0}]}]}