{"asset": {"version": "2.0", "generator": "GLTFExporter"}, "scenes": [{"name": "AuxScene", "nodes": [1]}], "scene": 0, "nodes": [{"extras": {"mapFilename": "connect4-red.png"}, "mesh": 0}, {"children": [0]}], "bufferViews": [{"buffer": 0, "byteOffset": 0, "byteLength": 744}, {"buffer": 0, "byteOffset": 744, "byteLength": 1560}, {"buffer": 0, "byteOffset": 2304, "byteLength": 1560}, {"buffer": 0, "byteOffset": 3864, "byteLength": 1560}, {"buffer": 0, "byteOffset": 5424, "byteLength": 1040}], "buffers": [{"byteLength": 6464, "uri": "data:application/octet-stream;base64,"}], "accessors": [{"componentType": 5123, "type": "SCALAR", "bufferView": 0, "count": 372, "max": [129], "min": [0]}, {"componentType": 5126, "type": "VEC3", "bufferView": 1, "byteOffset": 0, "count": 130, "max": [0.06712619960308075, 1.0, 1.0], "min": [-0.06105320155620575, -1.0, -1.0]}, {"componentType": 5126, "type": "VEC3", "bufferView": 2, "byteOffset": 0, "count": 130, "max": [0.6856899857521057, 0.727865993976593, 0.727865993976593], "min": [-0.6856899857521057, -0.727865993976593, -0.727865993976593]}, {"componentType": 5126, "type": "VEC3", "bufferView": 3, "byteOffset": 0, "count": 130, "max": [1.0, 1.0, 1.0], "min": [1.0, 1.0, 1.0]}, {"componentType": 5126, "type": "VEC2", "bufferView": 4, "byteOffset": 0, "count": 130, "max": [0.9320120215415955, 0.943045973777771], "min": [0.06798800081014633, 0.07822900265455246]}], "materials": [{"pbrMetallicRoughness": {"metallicFactor": 0, "roughnessFactor": 1, "baseColorTexture": {"index": 0}}, "name": "token-mat"}], "meshes": [{"primitives": [{"mode": 4, "attributes": {"POSITION": 1, "NORMAL": 2, "COLOR_0": 3, "TEXCOORD_0": 4}, "material": 0, "indices": 0}]}], "images": [{"uri": "connect4-red.png"}], "textures": [{"source": 0}]}