{"asset": {"version": "2.0", "generator": "GLTFExporter"}, "scenes": [{"name": "AuxScene", "nodes": [1]}], "scene": 0, "nodes": [{"extras": {"mapFilename": null}, "mesh": 0}, {"children": [0]}], "bufferViews": [{"buffer": 0, "byteOffset": 0, "byteLength": 384}, {"buffer": 0, "byteOffset": 384, "byteLength": 408}, {"buffer": 0, "byteOffset": 792, "byteLength": 408}, {"buffer": 0, "byteOffset": 1200, "byteLength": 408}], "buffers": [{"byteLength": 1608, "uri": "data:application/octet-stream;base64,"}], "accessors": [{"componentType": 5123, "type": "SCALAR", "bufferView": 0, "count": 192, "max": [33], "min": [0]}, {"componentType": 5126, "type": "VEC3", "bufferView": 1, "byteOffset": 0, "count": 34, "max": [1.4707800149917603, 1.0, 0.10000000149011612], "min": [-1.4707800149917603, -2.153369903564453, -0.10000000149011612]}, {"componentType": 5126, "type": "VEC3", "bufferView": 2, "byteOffset": 0, "count": 34, "max": [0.7686089873313904, 0.707082986831665, 1.0], "min": [-0.7686089873313904, -0.6644489765167236, -1.0]}, {"componentType": 5126, "type": "VEC3", "bufferView": 3, "byteOffset": 0, "count": 34, "max": [1.0, 1.0, 1.0], "min": [1.0, 1.0, 1.0]}], "materials": [{"pbrMetallicRoughness": {"baseColorFactor": [0, 0, 0, 1], "metallicFactor": 0, "roughnessFactor": 1}, "name": "mat-cell"}], "meshes": [{"primitives": [{"mode": 4, "attributes": {"POSITION": 1, "NORMAL": 2, "COLOR_0": 3}, "material": 0, "indices": 0}]}]}