{"asset": {"version": "2.0", "generator": "GLTFExporter"}, "scenes": [{"name": "AuxScene", "nodes": [1]}], "scene": 0, "nodes": [{"extras": {"mapFilename": null}, "mesh": 0}, {"children": [0]}], "bufferViews": [{"buffer": 0, "byteOffset": 0, "byteLength": 864}, {"buffer": 0, "byteOffset": 864, "byteLength": 864}, {"buffer": 0, "byteOffset": 1728, "byteLength": 864}, {"buffer": 0, "byteOffset": 2592, "byteLength": 864}], "buffers": [{"byteLength": 3456, "uri": "data:application/octet-stream;base64,"}], "accessors": [{"componentType": 5123, "type": "SCALAR", "bufferView": 0, "count": 432, "max": [71], "min": [0]}, {"componentType": 5126, "type": "VEC3", "bufferView": 1, "byteOffset": 0, "count": 72, "max": [7.450579886381092e-08, 1.0, 1.0], "min": [-0.10000000149011612, -1.0, -1.0]}, {"componentType": 5126, "type": "VEC3", "bufferView": 2, "byteOffset": 0, "count": 72, "max": [0.7298200130462646, 0.6835839748382568, 0.6835839748382568], "min": [-0.7298200130462646, -0.6835839748382568, -0.6835839748382568]}, {"componentType": 5126, "type": "VEC3", "bufferView": 3, "byteOffset": 0, "count": 72, "max": [1.0, 1.0, 1.0], "min": [1.0, 1.0, 1.0]}], "materials": [{"pbrMetallicRoughness": {"baseColorFactor": [0, 0.28627450980392155, 0.8, 1], "metallicFactor": 0, "roughnessFactor": 1}, "name": "mat-cell"}], "meshes": [{"primitives": [{"mode": 4, "attributes": {"POSITION": 1, "NORMAL": 2, "COLOR_0": 3}, "material": 0, "indices": 0}]}]}