{"asset": {"version": "2.0", "generator": "GLTFExporter"}, "scenes": [{"name": "AuxScene", "nodes": [1]}], "scene": 0, "nodes": [{"extras": {"mapFilename": null}, "mesh": 0}, {"children": [0]}], "bufferViews": [{"buffer": 0, "byteOffset": 0, "byteLength": 10752}, {"buffer": 0, "byteOffset": 10752, "byteLength": 10752}, {"buffer": 0, "byteOffset": 21504, "byteLength": 10752}, {"buffer": 0, "byteOffset": 32256, "byteLength": 10752}], "buffers": [{"byteLength": 43008, "uri": "data:application/octet-stream;base64,"}], "accessors": [{"componentType": 5123, "type": "SCALAR", "bufferView": 0, "count": 5376, "max": [895], "min": [0]}, {"componentType": 5126, "type": "VEC3", "bufferView": 1, "byteOffset": 0, "count": 896, "max": [0.040607500821352005, 0.8373630046844482, 0.8373630046844482], "min": [-0.11288899928331375, -0.8373630046844482, -0.8373630046844482]}, {"componentType": 5126, "type": "VEC3", "bufferView": 2, "byteOffset": 0, "count": 896, "max": [0.9988710284233093, 1.0, 1.0], "min": [-0.9863280057907104, -1.0, -1.0]}, {"componentType": 5126, "type": "VEC3", "bufferView": 3, "byteOffset": 0, "count": 896, "max": [1.0, 1.0, 1.0], "min": [1.0, 1.0, 1.0]}], "materials": [{"pbrMetallicRoughness": {"baseColorFactor": [0, 0.28627450980392155, 0.8, 1], "metallicFactor": 0, "roughnessFactor": 1}, "name": "mat-cell-ring"}], "meshes": [{"primitives": [{"mode": 4, "attributes": {"POSITION": 1, "NORMAL": 2, "COLOR_0": 3}, "material": 0, "indices": 0}]}]}