{"asset": {"version": "2.0", "generator": "GLTFExporter"}, "scenes": [{"name": "AuxScene", "nodes": [3]}], "scene": 0, "nodes": [{"extras": {"mapFilename": null}, "mesh": 0}, {"extras": {"mapFilename": null}, "mesh": 1}, {"extras": {"mapFilename": null}, "mesh": 2}, {"children": [0, 1, 2]}], "bufferViews": [{"buffer": 0, "byteOffset": 0, "byteLength": 96}, {"buffer": 0, "byteOffset": 96, "byteLength": 96}, {"buffer": 0, "byteOffset": 192, "byteLength": 96}, {"buffer": 0, "byteOffset": 288, "byteLength": 64}, {"buffer": 0, "byteOffset": 352, "byteLength": 24}, {"buffer": 0, "byteOffset": 376, "byteLength": 48}, {"buffer": 0, "byteOffset": 424, "byteLength": 48}, {"buffer": 0, "byteOffset": 472, "byteLength": 48}, {"buffer": 0, "byteOffset": 520, "byteLength": 32}, {"buffer": 0, "byteOffset": 552, "byteLength": 12}, {"buffer": 0, "byteOffset": 564, "byteLength": 168}, {"buffer": 0, "byteOffset": 732, "byteLength": 168}, {"buffer": 0, "byteOffset": 900, "byteLength": 168}, {"buffer": 0, "byteOffset": 1068, "byteLength": 112}, {"buffer": 0, "byteOffset": 1180, "byteLength": 72}], "buffers": [{"byteLength": 1252, "uri": "data:application/octet-stream;base64,"}], "accessors": [{"componentType": 5126, "type": "VEC3", "bufferView": 0, "byteOffset": 0, "count": 8, "max": [1.5663599967956543, -0.7997689843177795, 0.028445400297641754], "min": [-1.5663599967956543, -0.8997690081596375, 0.028445400297641754]}, {"componentType": 5126, "type": "VEC3", "bufferView": 1, "byteOffset": 0, "count": 8, "max": [0.0, 0.0, 1.0], "min": [0.0, 0.0, 1.0]}, {"componentType": 5126, "type": "VEC3", "bufferView": 2, "byteOffset": 0, "count": 8, "max": [1.0, 1.0, 1.0], "min": [1.0, 1.0, 1.0]}, {"componentType": 5126, "type": "VEC2", "bufferView": 3, "byteOffset": 0, "count": 8, "max": [0.0, 0.0], "min": [0.0, 0.0]}, {"componentType": 5123, "type": "SCALAR", "bufferView": 4, "byteOffset": 0, "count": 12, "max": [7.0], "min": [0.0]}, {"componentType": 5126, "type": "VEC3", "bufferView": 5, "byteOffset": 0, "count": 4, "max": [1.0663599967956543, 0.7997689843177795, 0.028445400297641754], "min": [-1.0663599967956543, -0.7997689843177795, 0.028445299714803696]}, {"componentType": 5126, "type": "VEC3", "bufferView": 6, "byteOffset": 0, "count": 4, "max": [0.0, 0.0, 1.0], "min": [0.0, 0.0, 1.0]}, {"componentType": 5126, "type": "VEC3", "bufferView": 7, "byteOffset": 0, "count": 4, "max": [1.0, 1.0, 1.0], "min": [1.0, 1.0, 1.0]}, {"componentType": 5126, "type": "VEC2", "bufferView": 8, "byteOffset": 0, "count": 4, "max": [0.9999560117721558, 0.9999129772186279], "min": [8.70000003487803e-05, 8.70000003487803e-05]}, {"componentType": 5123, "type": "SCALAR", "bufferView": 9, "byteOffset": 0, "count": 6, "max": [3.0], "min": [0.0]}, {"componentType": 5126, "type": "VEC3", "bufferView": 10, "byteOffset": 0, "count": 14, "max": [1.5663599967956543, 0.8997690081596375, 0.028445400297641754], "min": [-1.5663599967956543, -0.8997690081596375, 0.028445299714803696]}, {"componentType": 5126, "type": "VEC3", "bufferView": 11, "byteOffset": 0, "count": 14, "max": [0.0, 0.0, 1.0], "min": [0.0, 0.0, 1.0]}, {"componentType": 5126, "type": "VEC3", "bufferView": 12, "byteOffset": 0, "count": 14, "max": [1.0, 1.0, 1.0], "min": [1.0, 1.0, 1.0]}, {"componentType": 5126, "type": "VEC2", "bufferView": 13, "byteOffset": 0, "count": 14, "max": [0.0, 0.0], "min": [0.0, 0.0]}, {"componentType": 5123, "type": "SCALAR", "bufferView": 14, "byteOffset": 0, "count": 36, "max": [13.0], "min": [0.0]}], "materials": [{"pbrMetallicRoughness": {"baseColorFactor": [0.00784313725490196, 0.00784313725490196, 0.00784313725490196, 1], "metallicFactor": 0, "roughnessFactor": 1}, "name": "mat.screen.frame"}, {"pbrMetallicRoughness": {"baseColorFactor": [0.6392156862745098, 0.6392156862745098, 0.6392156862745098, 1], "metallicFactor": 0, "roughnessFactor": 1}, "name": "mat.screen"}], "meshes": [{"primitives": [{"mode": 4, "attributes": {"POSITION": 0, "NORMAL": 1, "COLOR_0": 2, "TEXCOORD_0": 3}, "material": 0, "indices": 4}]}, {"primitives": [{"mode": 4, "attributes": {"POSITION": 5, "NORMAL": 6, "COLOR_0": 7, "TEXCOORD_0": 8}, "material": 1, "indices": 9}]}, {"primitives": [{"mode": 4, "attributes": {"POSITION": 10, "NORMAL": 11, "COLOR_0": 12, "TEXCOORD_0": 13}, "material": 0, "indices": 14}]}]}