{"asset": {"version": "2.0", "generator": "GLTFExporter"}, "scenes": [{"name": "AuxScene", "nodes": [1]}], "scene": 0, "nodes": [{"mesh": 0}, {"children": [0]}], "bufferViews": [{"buffer": 0, "byteOffset": 0, "byteLength": 6630}, {"buffer": 0, "byteOffset": 6632, "byteLength": 11568}, {"buffer": 0, "byteOffset": 18200, "byteLength": 11568}, {"buffer": 0, "byteOffset": 29768, "byteLength": 11568}, {"buffer": 0, "byteOffset": 41336, "byteLength": 7712}], "buffers": [{"byteLength": 49048, "uri": "data:application/octet-stream;base64,"}], "accessors": [{"componentType": 5123, "type": "SCALAR", "bufferView": 0, "count": 3315, "max": [963], "min": [0]}, {"componentType": 5126, "type": "VEC3", "bufferView": 1, "byteOffset": 0, "count": 964, "max": [0.7790120244026184, 3.094789981842041, 0.9668020009994507], "min": [-0.7790120244026184, 0.010758399963378906, -0.7790120244026184]}, {"componentType": 5126, "type": "VEC3", "bufferView": 2, "byteOffset": 0, "count": 964, "max": [0.999874472618103, 0.9980484843254089, 0.9999659061431885], "min": [-0.999874472618103, -0.9988610148429871, -0.9999964237213135]}, {"componentType": 5126, "type": "VEC3", "bufferView": 3, "byteOffset": 0, "count": 964, "max": [1.0, 1.0, 1.0], "min": [1.0, 1.0, 1.0]}, {"componentType": 5126, "type": "VEC2", "bufferView": 4, "byteOffset": 0, "count": 964, "max": [1.0, 0.9868249893188477], "min": [0.0, 0.0]}], "materials": [{"pbrMetallicRoughness": {"baseColorFactor": [0.8, 0.8, 0.8, 1], "metallicFactor": 0, "roughnessFactor": 1}}], "meshes": [{"primitives": [{"mode": 4, "attributes": {"POSITION": 1, "NORMAL": 2, "COLOR_0": 3, "TEXCOORD_0": 4}, "material": 0, "indices": 0}]}]}