{"asset": {"version": "2.0", "generator": "GLTFExporter"}, "scenes": [{"name": "AuxScene", "nodes": [1]}], "scene": 0, "nodes": [{"mesh": 0}, {"children": [0]}], "bufferViews": [{"buffer": 0, "byteOffset": 0, "byteLength": 4872}, {"buffer": 0, "byteOffset": 4872, "byteLength": 8700}, {"buffer": 0, "byteOffset": 13572, "byteLength": 8700}, {"buffer": 0, "byteOffset": 22272, "byteLength": 8700}, {"buffer": 0, "byteOffset": 30972, "byteLength": 5800}], "buffers": [{"byteLength": 36772, "uri": "data:application/octet-stream;base64,"}], "accessors": [{"componentType": 5123, "type": "SCALAR", "bufferView": 0, "count": 2436, "max": [724], "min": [0]}, {"componentType": 5126, "type": "VEC3", "bufferView": 1, "byteOffset": 0, "count": 725, "max": [1.100000023841858, 2.827589988708496, 0.764805018901825], "min": [-1.100000023841858, 0.0170655008405447, -1.100000023841858]}, {"componentType": 5126, "type": "VEC3", "bufferView": 2, "byteOffset": 0, "count": 725, "max": [0.9998949766159058, 1.0, 0.998554527759552], "min": [-0.9998949766159058, -0.9989170432090759, -0.9985545873641968]}, {"componentType": 5126, "type": "VEC3", "bufferView": 3, "byteOffset": 0, "count": 725, "max": [1.0, 1.0, 1.0], "min": [1.0, 1.0, 1.0]}, {"componentType": 5126, "type": "VEC2", "bufferView": 4, "byteOffset": 0, "count": 725, "max": [1.0, 0.961696982383728], "min": [0.0, 0.0]}], "materials": [{"pbrMetallicRoughness": {"baseColorFactor": [0.8, 0.8, 0.8, 1], "metallicFactor": 0, "roughnessFactor": 1}}], "meshes": [{"primitives": [{"mode": 4, "attributes": {"POSITION": 1, "NORMAL": 2, "COLOR_0": 3, "TEXCOORD_0": 4}, "material": 0, "indices": 0}]}]}