{"asset": {"version": "2.0", "generator": "GLTFExporter"}, "scenes": [{"name": "AuxScene", "nodes": [1]}], "scene": 0, "nodes": [{"mesh": 0}, {"children": [0]}], "bufferViews": [{"buffer": 0, "byteOffset": 0, "byteLength": 3720}, {"buffer": 0, "byteOffset": 3720, "byteLength": 7404}, {"buffer": 0, "byteOffset": 11124, "byteLength": 7404}, {"buffer": 0, "byteOffset": 18528, "byteLength": 7404}, {"buffer": 0, "byteOffset": 25932, "byteLength": 4936}], "buffers": [{"byteLength": 30868, "uri": "data:application/octet-stream;base64,"}], "accessors": [{"componentType": 5123, "type": "SCALAR", "bufferView": 0, "count": 1860, "max": [616], "min": [0]}, {"componentType": 5126, "type": "VEC3", "bufferView": 1, "byteOffset": 0, "count": 617, "max": [0.5648049712181091, 2.4275898933410645, 0.5648049712181091], "min": [-0.5648049712181091, 0.08299999684095383, -0.5648049712181091]}, {"componentType": 5126, "type": "VEC3", "bufferView": 2, "byteOffset": 0, "count": 617, "max": [1.0, 0.9963372349739075, 1.0], "min": [-1.0, -0.9998915195465088, -1.0]}, {"componentType": 5126, "type": "VEC3", "bufferView": 3, "byteOffset": 0, "count": 617, "max": [1.0, 1.0, 1.0], "min": [1.0, 1.0, 1.0]}, {"componentType": 5126, "type": "VEC2", "bufferView": 4, "byteOffset": 0, "count": 617, "max": [1.0, 0.961696982383728], "min": [0.0008410000009462237, 0.0]}], "materials": [{"pbrMetallicRoughness": {"baseColorFactor": [0.8, 0.8, 0.8, 1], "metallicFactor": 0, "roughnessFactor": 1}}], "meshes": [{"primitives": [{"mode": 4, "attributes": {"POSITION": 1, "NORMAL": 2, "COLOR_0": 3, "TEXCOORD_0": 4}, "material": 0, "indices": 0}]}]}