{"asset": {"version": "2.0", "generator": "GLTFExporter"}, "scenes": [{"name": "AuxScene", "nodes": [1]}], "scene": 0, "nodes": [{"mesh": 0}, {"children": [0]}], "bufferViews": [{"buffer": 0, "byteOffset": 0, "byteLength": 3720}, {"buffer": 0, "byteOffset": 3720, "byteLength": 6420}, {"buffer": 0, "byteOffset": 10140, "byteLength": 6420}, {"buffer": 0, "byteOffset": 16560, "byteLength": 6420}, {"buffer": 0, "byteOffset": 22980, "byteLength": 4280}], "buffers": [{"byteLength": 27260, "uri": "data:application/octet-stream;base64,"}], "accessors": [{"componentType": 5123, "type": "SCALAR", "bufferView": 0, "count": 1860, "max": [534], "min": [0]}, {"componentType": 5126, "type": "VEC3", "bufferView": 1, "byteOffset": 0, "count": 535, "max": [0.764805018901825, 1.6275899410247803, 0.764805018901825], "min": [-0.764805018901825, 0.0170655008405447, -0.764805018901825]}, {"componentType": 5126, "type": "VEC3", "bufferView": 2, "byteOffset": 0, "count": 535, "max": [0.9998949766159058, 0.9963372349739075, 0.9943206310272217], "min": [-0.9998949766159058, -0.9989170432090759, -0.9943207502365112]}, {"componentType": 5126, "type": "VEC3", "bufferView": 3, "byteOffset": 0, "count": 535, "max": [1.0, 1.0, 1.0], "min": [1.0, 1.0, 1.0]}, {"componentType": 5126, "type": "VEC2", "bufferView": 4, "byteOffset": 0, "count": 535, "max": [1.0, 0.961696982383728], "min": [0.0008410000009462237, 0.0]}], "materials": [{"pbrMetallicRoughness": {"baseColorFactor": [0.8, 0.8, 0.8, 1], "metallicFactor": 0, "roughnessFactor": 1}}], "meshes": [{"primitives": [{"mode": 4, "attributes": {"POSITION": 1, "NORMAL": 2, "COLOR_0": 3, "TEXCOORD_0": 4}, "material": 0, "indices": 0}]}]}