{"asset": {"version": "2.0", "generator": "GLTFExporter"}, "scenes": [{"name": "AuxScene", "nodes": [1]}], "scene": 0, "nodes": [{"mesh": 0}, {"children": [0]}], "bufferViews": [{"buffer": 0, "byteOffset": 0, "byteLength": 3360}, {"buffer": 0, "byteOffset": 3360, "byteLength": 3876}, {"buffer": 0, "byteOffset": 7236, "byteLength": 3876}, {"buffer": 0, "byteOffset": 11112, "byteLength": 3876}, {"buffer": 0, "byteOffset": 14988, "byteLength": 2584}], "buffers": [{"byteLength": 17572, "uri": "data:application/octet-stream;base64,"}], "accessors": [{"componentType": 5123, "type": "SCALAR", "bufferView": 0, "count": 1680, "max": [322], "min": [0]}, {"componentType": 5126, "type": "VEC3", "bufferView": 1, "byteOffset": 0, "count": 323, "max": [0.7122641801834106, 2.368867874145508, 0.7122641801834106], "min": [-0.7122641801834106, 0.0, -0.7122641801834106]}, {"componentType": 5126, "type": "VEC3", "bufferView": 2, "byteOffset": 0, "count": 323, "max": [0.9999926686286926, 1.0, 0.9999926686286926], "min": [-0.9999926686286926, -0.9910739064216614, -0.9999926686286926]}, {"componentType": 5126, "type": "VEC3", "bufferView": 3, "byteOffset": 0, "count": 323, "max": [1.0, 1.0, 1.0], "min": [1.0, 1.0, 1.0]}, {"componentType": 5126, "type": "VEC2", "bufferView": 4, "byteOffset": 0, "count": 323, "max": [0.9955999851226807, 0.9940599799156189], "min": [0.0, 0.0]}], "materials": [{"pbrMetallicRoughness": {"baseColorFactor": [0.8, 0.8, 0.8, 1], "metallicFactor": 0, "roughnessFactor": 1}}], "meshes": [{"primitives": [{"mode": 4, "attributes": {"POSITION": 1, "NORMAL": 2, "COLOR_0": 3, "TEXCOORD_0": 4}, "material": 0, "indices": 0}]}]}