{"scene": 0, "scenes": [{"nodes": [0]}], "asset": {"version": "2.0", "generator": "gltf-fix-normals.py"}, "accessors": [{"componentType": 5123, "type": "SCALAR", "bufferView": 0, "count": 1716, "max": [483], "min": [0]}, {"componentType": 5126, "type": "VEC3", "bufferView": 1, "byteOffset": 0, "count": 484, "max": [0.9265090227127075, 3.25177001953125, 0.9265080094337463], "min": [-0.9265080094337463, -0.0054006800055503845, -0.9265080094337463]}, {"componentType": 5126, "type": "VEC2", "bufferView": 2, "byteOffset": 0, "count": 484, "max": [1.0, 0.9808599948883057], "min": [0.0, 0.0]}, {"componentType": 5126, "type": "VEC3", "bufferView": 3, "byteOffset": 0, "count": 484, "max": [0.997128963470459, 0.9986040592193604, 0.9971290230751038], "min": [-0.9971290826797485, -0.9994480013847351, -0.9971290230751038]}], "meshes": [{"name": "geometry_0", "extras": {}, "primitives": [{"attributes": {"POSITION": 1, "TEXCOORD_0": 2, "NORMAL": 3}, "indices": 0, "mode": 4, "material": 0}]}], "materials": [{"pbrMetallicRoughness": {"baseColorFactor": [0.8, 0.8, 0.8, 1], "metallicFactor": 0, "roughnessFactor": 1}}], "nodes": [{"mesh": 0}, {"children": [0]}], "buffers": [{"byteLength": 18920, "uri": "data:application/octet-stream;base64,"}], "bufferViews": [{"buffer": 0, "byteOffset": 0, "byteLength": 3432}, {"buffer": 0, "byteOffset": 3432, "byteLength": 5808}, {"buffer": 0, "byteOffset": 9240, "byteLength": 3872}, {"buffer": 0, "byteOffset": 13112, "byteLength": 5808}]}