{"asset": {"version": "2.0", "generator": "GLTFExporter"}, "scenes": [{"name": "AuxScene", "nodes": [1]}], "scene": 0, "nodes": [{"mesh": 0}, {"children": [0]}], "bufferViews": [{"buffer": 0, "byteOffset": 0, "byteLength": 8412}, {"buffer": 0, "byteOffset": 8412, "byteLength": 10740}, {"buffer": 0, "byteOffset": 19152, "byteLength": 10740}, {"buffer": 0, "byteOffset": 29892, "byteLength": 10740}, {"buffer": 0, "byteOffset": 40632, "byteLength": 7160}], "buffers": [{"byteLength": 47792, "uri": "data:application/octet-stream;base64,"}], "accessors": [{"componentType": 5123, "type": "SCALAR", "bufferView": 0, "count": 4206, "max": [894], "min": [0]}, {"componentType": 5126, "type": "VEC3", "bufferView": 1, "byteOffset": 0, "count": 895, "max": [0.8586549758911133, 2.355870008468628, 0.8914759755134583], "min": [-0.8586549758911133, -0.014065000228583813, -0.8586549758911133]}, {"componentType": 5126, "type": "VEC3", "bufferView": 2, "byteOffset": 0, "count": 895, "max": [0.9998170137405396, 0.9950860142707825, 0.9984130263328552], "min": [-0.9998170137405396, -0.9999690055847168, -0.9970089793205261]}, {"componentType": 5126, "type": "VEC3", "bufferView": 3, "byteOffset": 0, "count": 895, "max": [1.0, 1.0, 1.0], "min": [1.0, 1.0, 1.0]}, {"componentType": 5126, "type": "VEC2", "bufferView": 4, "byteOffset": 0, "count": 895, "max": [0.9962040185928345, 0.9942929744720459], "min": [0.003370000049471855, 0.01233499962836504]}], "materials": [{"pbrMetallicRoughness": {"baseColorFactor": [0.8, 0.8, 0.8, 1], "metallicFactor": 0, "roughnessFactor": 1}}], "meshes": [{"primitives": [{"mode": 4, "attributes": {"POSITION": 1, "NORMAL": 2, "COLOR_0": 3, "TEXCOORD_0": 4}, "material": 0, "indices": 0}]}]}