{"asset": {"version": "2.0", "generator": "GLTFExporter"}, "scenes": [{"name": "AuxScene", "nodes": [1]}], "scene": 0, "nodes": [{"mesh": 0}, {"children": [0]}], "bufferViews": [{"buffer": 0, "byteOffset": 0, "byteLength": 3300}, {"buffer": 0, "byteOffset": 3300, "byteLength": 4512}, {"buffer": 0, "byteOffset": 7812, "byteLength": 4512}, {"buffer": 0, "byteOffset": 12324, "byteLength": 4512}, {"buffer": 0, "byteOffset": 16836, "byteLength": 3008}], "buffers": [{"byteLength": 19844, "uri": "data:application/octet-stream;base64,"}], "accessors": [{"componentType": 5123, "type": "SCALAR", "bufferView": 0, "count": 1650, "max": [375], "min": [0]}, {"componentType": 5126, "type": "VEC3", "bufferView": 1, "byteOffset": 0, "count": 376, "max": [1.0183500051498413, 4.004049777984619, 1.234529972076416], "min": [-1.0183500051498413, 0.03311200067400932, -1.0378799438476562]}, {"componentType": 5126, "type": "VEC3", "bufferView": 2, "byteOffset": 0, "count": 376, "max": [0.9991850852966309, 0.9883859753608704, 1.0], "min": [-0.9991850852966309, -0.9778762459754944, -0.9999995827674866]}, {"componentType": 5126, "type": "VEC3", "bufferView": 3, "byteOffset": 0, "count": 376, "max": [1.0, 1.0, 1.0], "min": [1.0, 1.0, 1.0]}, {"componentType": 5126, "type": "VEC2", "bufferView": 4, "byteOffset": 0, "count": 376, "max": [0.9962760210037231, 0.9896690249443054], "min": [0.01880200020968914, 0.011851999908685684]}], "materials": [{"pbrMetallicRoughness": {"baseColorFactor": [0.8, 0.8, 0.8, 1], "metallicFactor": 0, "roughnessFactor": 1}}], "meshes": [{"primitives": [{"mode": 4, "attributes": {"POSITION": 1, "NORMAL": 2, "COLOR_0": 3, "TEXCOORD_0": 4}, "material": 0, "indices": 0}]}]}