{"asset": {"version": "2.0", "generator": "GLTFExporter"}, "scenes": [{"name": "AuxScene", "nodes": [1]}], "scene": 0, "nodes": [{"mesh": 0}, {"children": [0]}], "bufferViews": [{"buffer": 0, "byteOffset": 0, "byteLength": 8148}, {"buffer": 0, "byteOffset": 8148, "byteLength": 10428}, {"buffer": 0, "byteOffset": 18576, "byteLength": 10428}, {"buffer": 0, "byteOffset": 29004, "byteLength": 10428}, {"buffer": 0, "byteOffset": 39432, "byteLength": 6952}], "buffers": [{"byteLength": 46384, "uri": "data:application/octet-stream;base64,"}], "accessors": [{"componentType": 5123, "type": "SCALAR", "bufferView": 0, "count": 4074, "max": [868], "min": [0]}, {"componentType": 5126, "type": "VEC3", "bufferView": 1, "byteOffset": 0, "count": 869, "max": [0.8833230137825012, 3.3371200561523438, 0.8833230137825012], "min": [-0.8833230137825012, 0.0018758800579234958, -0.8833230137825012]}, {"componentType": 5126, "type": "VEC3", "bufferView": 2, "byteOffset": 0, "count": 869, "max": [0.9995045065879822, 1.0, 0.9992721080780029], "min": [-0.9995045065879822, -0.9959815144538879, -0.9992721080780029]}, {"componentType": 5126, "type": "VEC3", "bufferView": 3, "byteOffset": 0, "count": 869, "max": [1.0, 1.0, 1.0], "min": [1.0, 1.0, 1.0]}, {"componentType": 5126, "type": "VEC2", "bufferView": 4, "byteOffset": 0, "count": 869, "max": [0.9977380037307739, 0.9887340068817139], "min": [0.0014509999891743064, 0.009823000058531761]}], "materials": [{"pbrMetallicRoughness": {"baseColorFactor": [0.8, 0.8, 0.8, 1], "metallicFactor": 0, "roughnessFactor": 1}}], "meshes": [{"primitives": [{"mode": 4, "attributes": {"POSITION": 1, "NORMAL": 2, "COLOR_0": 3, "TEXCOORD_0": 4}, "material": 0, "indices": 0}]}]}