{"asset": {"version": "2.0", "generator": "GLTFExporter"}, "scenes": [{"name": "AuxScene", "nodes": [5]}], "scene": 0, "nodes": [{"extras": {"mapFilename": null}, "mesh": 0}, {"extras": {"mapFilename": null}, "mesh": 1}, {"extras": {"mapFilename": null}, "mesh": 2}, {"extras": {"mapFilename": null}, "mesh": 3}, {"extras": {"mapFilename": null}, "mesh": 4}, {"children": [0, 1, 2, 3, 4]}], "bufferViews": [{"buffer": 0, "byteOffset": 0, "byteLength": 744}, {"buffer": 0, "byteOffset": 744, "byteLength": 744}, {"buffer": 0, "byteOffset": 1488, "byteLength": 744}, {"buffer": 0, "byteOffset": 2232, "byteLength": 496}, {"buffer": 0, "byteOffset": 2728, "byteLength": 360}, {"buffer": 0, "byteOffset": 3088, "byteLength": 48}, {"buffer": 0, "byteOffset": 3136, "byteLength": 48}, {"buffer": 0, "byteOffset": 3184, "byteLength": 48}, {"buffer": 0, "byteOffset": 3232, "byteLength": 32}, {"buffer": 0, "byteOffset": 3264, "byteLength": 12}, {"buffer": 0, "byteOffset": 3276, "byteLength": 1596}, {"buffer": 0, "byteOffset": 4872, "byteLength": 1596}, {"buffer": 0, "byteOffset": 6468, "byteLength": 1596}, {"buffer": 0, "byteOffset": 8064, "byteLength": 1064}, {"buffer": 0, "byteOffset": 9128, "byteLength": 1188}, {"buffer": 0, "byteOffset": 10316, "byteLength": 768}, {"buffer": 0, "byteOffset": 11084, "byteLength": 768}, {"buffer": 0, "byteOffset": 11852, "byteLength": 768}, {"buffer": 0, "byteOffset": 12620, "byteLength": 512}, {"buffer": 0, "byteOffset": 13132, "byteLength": 552}, {"buffer": 0, "byteOffset": 13684, "byteLength": 768}, {"buffer": 0, "byteOffset": 14452, "byteLength": 768}, {"buffer": 0, "byteOffset": 15220, "byteLength": 768}, {"buffer": 0, "byteOffset": 15988, "byteLength": 512}, {"buffer": 0, "byteOffset": 16500, "byteLength": 552}], "buffers": [{"byteLength": 17052, "uri": "data:application/octet-stream;base64,"}], "accessors": [{"componentType": 5126, "type": "VEC3", "bufferView": 0, "byteOffset": 0, "count": 62, "max": [1.0257099866867065, 0.5393649935722351, 1.0257099866867065], "min": [-1.0257099866867065, 0.41715899109840393, -1.0257099866867065]}, {"componentType": 5126, "type": "VEC3", "bufferView": 1, "byteOffset": 0, "count": 62, "max": [0.9899290204048157, 0.46855100989341736, 0.9899290204048157], "min": [-0.9899290204048157, 0.14148400723934174, -0.9899290204048157]}, {"componentType": 5126, "type": "VEC3", "bufferView": 2, "byteOffset": 0, "count": 62, "max": [1.0, 1.0, 1.0], "min": [1.0, 1.0, 1.0]}, {"componentType": 5126, "type": "VEC2", "bufferView": 3, "byteOffset": 0, "count": 62, "max": [0.9118880033493042, 0.9466390013694763], "min": [0.026760999113321304, 0.1421779990196228]}, {"componentType": 5123, "type": "SCALAR", "bufferView": 4, "byteOffset": 0, "count": 180, "max": [61.0], "min": [0.0]}, {"componentType": 5126, "type": "VEC3", "bufferView": 5, "byteOffset": 0, "count": 4, "max": [-0.5343919992446899, 0.5775520205497742, -0.680154025554657], "min": [-0.7071059942245483, 0.5393649935722351, -0.8314700126647949]}, {"componentType": 5126, "type": "VEC3", "bufferView": 6, "byteOffset": 0, "count": 4, "max": [-0.22397500276565552, 0.9151279926300049, -0.28507301211357117], "min": [-0.6246529817581177, 0.46855100989341736, -0.7345190048217773]}, {"componentType": 5126, "type": "VEC3", "bufferView": 7, "byteOffset": 0, "count": 4, "max": [1.0, 1.0, 1.0], "min": [1.0, 1.0, 1.0]}, {"componentType": 5126, "type": "VEC2", "bufferView": 8, "byteOffset": 0, "count": 4, "max": [0.23280400037765503, 0.9157350063323975], "min": [0.14644700288772583, 0.8400769829750061]}, {"componentType": 5123, "type": "SCALAR", "bufferView": 9, "byteOffset": 0, "count": 6, "max": [3.0], "min": [0.0]}, {"componentType": 5126, "type": "VEC3", "bufferView": 10, "byteOffset": 0, "count": 133, "max": [1.0355900526046753, 0.5393649935722351, 1.0355900526046753], "min": [-1.0355900526046753, -0.0016347799682989717, -1.0355900526046753]}, {"componentType": 5126, "type": "VEC3", "bufferView": 11, "byteOffset": 0, "count": 133, "max": [0.9999690055847168, 0.46855100989341736, 1.0], "min": [-0.9999690055847168, -0.907010018825531, -0.9999690055847168]}, {"componentType": 5126, "type": "VEC3", "bufferView": 12, "byteOffset": 0, "count": 133, "max": [1.0, 1.0, 1.0], "min": [1.0, 1.0, 1.0]}, {"componentType": 5126, "type": "VEC2", "bufferView": 13, "byteOffset": 0, "count": 133, "max": [0.9796299934387207, 0.9434859752655029], "min": [0.041423000395298004, 0.045680999755859375]}, {"componentType": 5123, "type": "SCALAR", "bufferView": 14, "byteOffset": 0, "count": 594, "max": [132.0], "min": [0.0]}, {"componentType": 5126, "type": "VEC3", "bufferView": 15, "byteOffset": 0, "count": 64, "max": [1.0, 0.5775520205497742, 1.0], "min": [-1.0, 0.5393649935722351, -1.0]}, {"componentType": 5126, "type": "VEC3", "bufferView": 16, "byteOffset": 0, "count": 64, "max": [0.8834189772605896, 0.9151279926300049, 0.8834189772605896], "min": [-0.8834189772605896, 0.46855100989341736, -0.8834189772605896]}, {"componentType": 5126, "type": "VEC3", "bufferView": 17, "byteOffset": 0, "count": 64, "max": [1.0, 1.0, 1.0], "min": [1.0, 1.0, 1.0]}, {"componentType": 5126, "type": "VEC2", "bufferView": 18, "byteOffset": 0, "count": 64, "max": [1.0, 1.0], "min": [0.0, 0.0]}, {"componentType": 5123, "type": "SCALAR", "bufferView": 19, "byteOffset": 0, "count": 276, "max": [63.0], "min": [0.0]}, {"componentType": 5126, "type": "VEC3", "bufferView": 20, "byteOffset": 0, "count": 64, "max": [1.0, 0.04130759835243225, 1.0], "min": [-1.0, -0.0016347799682989717, -1.0]}, {"componentType": 5126, "type": "VEC3", "bufferView": 21, "byteOffset": 0, "count": 64, "max": [0.8917509913444519, -0.4524979889392853, 0.8917509913444519], "min": [-0.8917509913444519, -0.907010018825531, -0.8917509913444519]}, {"componentType": 5126, "type": "VEC3", "bufferView": 22, "byteOffset": 0, "count": 64, "max": [1.0, 1.0, 1.0], "min": [1.0, 1.0, 1.0]}, {"componentType": 5126, "type": "VEC2", "bufferView": 23, "byteOffset": 0, "count": 64, "max": [0.9796299934387207, 0.8058159947395325], "min": [0.1309880018234253, 0.045680999755859375]}, {"componentType": 5123, "type": "SCALAR", "bufferView": 24, "byteOffset": 0, "count": 276, "max": [63.0], "min": [0.0]}], "materials": [{"pbrMetallicRoughness": {"baseColorFactor": [0.6392156862745098, 0.6392156862745098, 0.6392156862745098, 1], "metallicFactor": 0, "roughnessFactor": 1}, "name": "pieceborders"}, {"pbrMetallicRoughness": {"baseColorFactor": [0.6392156862745098, 0.6392156862745098, 0.6392156862745098, 1], "metallicFactor": 0, "roughnessFactor": 1}, "name": "piecetop"}], "meshes": [{"primitives": [{"mode": 4, "attributes": {"POSITION": 0, "NORMAL": 1, "COLOR_0": 2, "TEXCOORD_0": 3}, "material": 0, "indices": 4}]}, {"primitives": [{"mode": 4, "attributes": {"POSITION": 5, "NORMAL": 6, "COLOR_0": 7, "TEXCOORD_0": 8}, "material": 1, "indices": 9}]}, {"primitives": [{"mode": 4, "attributes": {"POSITION": 10, "NORMAL": 11, "COLOR_0": 12, "TEXCOORD_0": 13}, "material": 0, "indices": 14}]}, {"primitives": [{"mode": 4, "attributes": {"POSITION": 15, "NORMAL": 16, "COLOR_0": 17, "TEXCOORD_0": 18}, "material": 1, "indices": 19}]}, {"primitives": [{"mode": 4, "attributes": {"POSITION": 20, "NORMAL": 21, "COLOR_0": 22, "TEXCOORD_0": 23}, "material": 0, "indices": 24}]}]}