{"asset": {"version": "2.0", "generator": "GLTFExporter"}, "scenes": [{"name": "AuxScene", "nodes": [4]}], "scene": 0, "nodes": [{"extras": {"mapFilename": null}, "mesh": 0}, {"extras": {"mapFilename": "wood.jpg"}, "mesh": 1}, {"extras": {"mapFilename": null}, "mesh": 2}, {"extras": {"mapFilename": "wood.jpg"}, "mesh": 3}, {"children": [0, 1, 2, 3]}], "bufferViews": [{"buffer": 0, "byteOffset": 0, "byteLength": 144}, {"buffer": 0, "byteOffset": 144, "byteLength": 144}, {"buffer": 0, "byteOffset": 288, "byteLength": 144}, {"buffer": 0, "byteOffset": 432, "byteLength": 96}, {"buffer": 0, "byteOffset": 528, "byteLength": 36}, {"buffer": 0, "byteOffset": 564, "byteLength": 168}, {"buffer": 0, "byteOffset": 732, "byteLength": 168}, {"buffer": 0, "byteOffset": 900, "byteLength": 168}, {"buffer": 0, "byteOffset": 1068, "byteLength": 112}, {"buffer": 0, "byteOffset": 1180, "byteLength": 48}, {"buffer": 0, "byteOffset": 1228, "byteLength": 624}, {"buffer": 0, "byteOffset": 1852, "byteLength": 624}, {"buffer": 0, "byteOffset": 2476, "byteLength": 624}, {"buffer": 0, "byteOffset": 3100, "byteLength": 416}, {"buffer": 0, "byteOffset": 3516, "byteLength": 276}, {"buffer": 0, "byteOffset": 3792, "byteLength": 3576}, {"buffer": 0, "byteOffset": 7368, "byteLength": 3576}, {"buffer": 0, "byteOffset": 10944, "byteLength": 3576}, {"buffer": 0, "byteOffset": 14520, "byteLength": 2384}, {"buffer": 0, "byteOffset": 16904, "byteLength": 1560}], "buffers": [{"byteLength": 18464, "uri": "data:application/octet-stream;base64,"}], "accessors": [{"componentType": 5126, "type": "VEC3", "bufferView": 0, "byteOffset": 0, "count": 12, "max": [0.7995089888572693, 0.25540000200271606, 0.43400999903678894], "min": [-0.6881700158119202, 0.25540000200271606, -0.5994870066642761]}, {"componentType": 5126, "type": "VEC3", "bufferView": 1, "byteOffset": 0, "count": 12, "max": [0.4004330039024353, 0.9844970107078552, 0.24765799939632416], "min": [-0.4004330039024353, 0.903469979763031, -0.42704498767852783]}, {"componentType": 5126, "type": "VEC3", "bufferView": 2, "byteOffset": 0, "count": 12, "max": [1.0, 1.0, 1.0], "min": [1.0, 1.0, 1.0]}, {"componentType": 5126, "type": "VEC2", "bufferView": 3, "byteOffset": 0, "count": 12, "max": [0.32922399044036865, 0.868399977684021], "min": [0.17793500423431396, 0.2377910017967224]}, {"componentType": 5123, "type": "SCALAR", "bufferView": 4, "byteOffset": 0, "count": 18, "max": [11.0], "min": [0.0]}, {"componentType": 5126, "type": "VEC3", "bufferView": 5, "byteOffset": 0, "count": 14, "max": [0.8487930297851562, 0.25540000200271606, 0.24123799800872803], "min": [-0.6134740114212036, 0.00039978299173526466, -0.7706829905509949]}, {"componentType": 5126, "type": "VEC3", "bufferView": 6, "byteOffset": 0, "count": 14, "max": [0.9292579889297485, 0.9155550003051758, 0.5601980090141296], "min": [-0.9131140112876892, -0.7058929800987244, -0.8573560118675232]}, {"componentType": 5126, "type": "VEC3", "bufferView": 7, "byteOffset": 0, "count": 14, "max": [1.0, 1.0, 1.0], "min": [1.0, 1.0, 1.0]}, {"componentType": 5126, "type": "VEC2", "bufferView": 8, "byteOffset": 0, "count": 14, "max": [0.7542750239372253, 0.8853409886360168], "min": [0.379381000995636, 0.5001999735832214]}, {"componentType": 5123, "type": "SCALAR", "bufferView": 9, "byteOffset": 0, "count": 24, "max": [13.0], "min": [0.0]}, {"componentType": 5126, "type": "VEC3", "bufferView": 10, "byteOffset": 0, "count": 52, "max": [0.8330749869346619, 0.25540000200271606, 0.7123299837112427], "min": [-0.785273015499115, 0.25540000200271606, -0.7712429761886597]}, {"componentType": 5126, "type": "VEC3", "bufferView": 11, "byteOffset": 0, "count": 52, "max": [0.43024998903274536, 0.9844970107078552, 0.3887749910354614], "min": [-0.43024998903274536, 0.8991360068321228, -0.42704498767852783]}, {"componentType": 5126, "type": "VEC3", "bufferView": 12, "byteOffset": 0, "count": 52, "max": [1.0, 1.0, 1.0], "min": [1.0, 1.0, 1.0]}, {"componentType": 5126, "type": "VEC2", "bufferView": 13, "byteOffset": 0, "count": 52, "max": [0.3326379954814911, 0.9732000231742859], "min": [0.16806000471115112, 0.06796900182962418]}, {"componentType": 5123, "type": "SCALAR", "bufferView": 14, "byteOffset": 0, "count": 138, "max": [51.0], "min": [0.0]}, {"componentType": 5126, "type": "VEC3", "bufferView": 15, "byteOffset": 0, "count": 298, "max": [0.8487930297851562, 0.25540000200271606, 0.7273359894752502], "min": [-0.8009920120239258, 0.0003997710009571165, -0.7864890098571777]}, {"componentType": 5126, "type": "VEC3", "bufferView": 16, "byteOffset": 0, "count": 298, "max": [0.9292579889297485, 0.9844970107078552, 0.9248629808425903], "min": [-0.9292579889297485, -0.7058929800987244, -0.9292579889297485]}, {"componentType": 5126, "type": "VEC3", "bufferView": 17, "byteOffset": 0, "count": 298, "max": [1.0, 1.0, 1.0], "min": [1.0, 1.0, 1.0]}, {"componentType": 5126, "type": "VEC2", "bufferView": 18, "byteOffset": 0, "count": 298, "max": [0.9243969917297363, 0.8932440280914307], "min": [0.0995040014386177, 0.13633200526237488]}, {"componentType": 5123, "type": "SCALAR", "bufferView": 19, "byteOffset": 0, "count": 780, "max": [297.0], "min": [0.0]}], "materials": [{"pbrMetallicRoughness": {"baseColorFactor": [0.8, 0.8, 0.8, 1], "metallicFactor": 0, "roughnessFactor": 1}, "name": "face"}, {"pbrMetallicRoughness": {"baseColorFactor": [0.6392156862745098, 0.6392156862745098, 0.6392156862745098, 1], "metallicFactor": 0, "roughnessFactor": 1, "baseColorTexture": {"index": 0}}, "name": "wood"}], "meshes": [{"primitives": [{"mode": 4, "attributes": {"POSITION": 0, "NORMAL": 1, "COLOR_0": 2, "TEXCOORD_0": 3}, "material": 0, "indices": 4}]}, {"primitives": [{"mode": 4, "attributes": {"POSITION": 5, "NORMAL": 6, "COLOR_0": 7, "TEXCOORD_0": 8}, "material": 1, "indices": 9}]}, {"primitives": [{"mode": 4, "attributes": {"POSITION": 10, "NORMAL": 11, "COLOR_0": 12, "TEXCOORD_0": 13}, "material": 0, "indices": 14}]}, {"primitives": [{"mode": 4, "attributes": {"POSITION": 15, "NORMAL": 16, "COLOR_0": 17, "TEXCOORD_0": 18}, "material": 1, "indices": 19}]}], "images": [{"uri": "wood.jpg"}], "textures": [{"source": 0}]}