{"asset": {"version": "2.0", "generator": "GLTFExporter"}, "scenes": [{"name": "AuxScene", "nodes": [4]}], "scene": 0, "nodes": [{"extras": {"mapFilename": null}, "mesh": 0}, {"extras": {"mapFilename": "wood.jpg"}, "mesh": 1}, {"extras": {"mapFilename": null}, "mesh": 2}, {"extras": {"mapFilename": "wood.jpg"}, "mesh": 3}, {"children": [0, 1, 2, 3]}], "bufferViews": [{"buffer": 0, "byteOffset": 0, "byteLength": 348}, {"buffer": 0, "byteOffset": 348, "byteLength": 348}, {"buffer": 0, "byteOffset": 696, "byteLength": 348}, {"buffer": 0, "byteOffset": 1044, "byteLength": 232}, {"buffer": 0, "byteOffset": 1276, "byteLength": 114}, {"buffer": 0, "byteOffset": 1392, "byteLength": 1488}, {"buffer": 0, "byteOffset": 2880, "byteLength": 1488}, {"buffer": 0, "byteOffset": 4368, "byteLength": 1488}, {"buffer": 0, "byteOffset": 5856, "byteLength": 992}, {"buffer": 0, "byteOffset": 6848, "byteLength": 600}, {"buffer": 0, "byteOffset": 7448, "byteLength": 672}, {"buffer": 0, "byteOffset": 8120, "byteLength": 672}, {"buffer": 0, "byteOffset": 8792, "byteLength": 672}, {"buffer": 0, "byteOffset": 9464, "byteLength": 448}, {"buffer": 0, "byteOffset": 9912, "byteLength": 270}, {"buffer": 0, "byteOffset": 10184, "byteLength": 3168}, {"buffer": 0, "byteOffset": 13352, "byteLength": 3168}, {"buffer": 0, "byteOffset": 16520, "byteLength": 3168}, {"buffer": 0, "byteOffset": 19688, "byteLength": 2112}, {"buffer": 0, "byteOffset": 21800, "byteLength": 1368}], "buffers": [{"byteLength": 23168, "uri": "data:application/octet-stream;base64,"}], "accessors": [{"componentType": 5126, "type": "VEC3", "bufferView": 0, "byteOffset": 0, "count": 29, "max": [0.7038819789886475, 0.26325300335884094, 0.6714940071105957], "min": [-0.7283030152320862, 0.26325300335884094, -0.7523499727249146]}, {"componentType": 5126, "type": "VEC3", "bufferView": 1, "byteOffset": 0, "count": 29, "max": [0.4151740074157715, 0.9647819995880127, 0.395550012588501], "min": [-0.4151740074157715, 0.9045990109443665, -0.39112499356269836]}, {"componentType": 5126, "type": "VEC3", "bufferView": 2, "byteOffset": 0, "count": 29, "max": [1.0, 1.0, 1.0], "min": [1.0, 1.0, 1.0]}, {"componentType": 5126, "type": "VEC2", "bufferView": 3, "byteOffset": 0, "count": 29, "max": [0.4887070059776306, 0.9296799898147583], "min": [0.34891200065612793, 0.09579099714756012]}, {"componentType": 5123, "type": "SCALAR", "bufferView": 4, "byteOffset": 0, "count": 57, "max": [28.0], "min": [0.0]}, {"componentType": 5126, "type": "VEC3", "bufferView": 5, "byteOffset": 0, "count": 124, "max": [0.7191219925880432, 0.26325300335884094, 0.7045300006866455], "min": [-0.7435430288314819, 0.008253009989857674, -0.7776439785957336]}, {"componentType": 5126, "type": "VEC3", "bufferView": 6, "byteOffset": 0, "count": 124, "max": [0.9280679821968079, 0.963621973991394, 0.925137996673584], "min": [-0.9281589984893799, -0.7057710289955139, -0.9280369877815247]}, {"componentType": 5126, "type": "VEC3", "bufferView": 7, "byteOffset": 0, "count": 124, "max": [1.0, 1.0, 1.0], "min": [1.0, 1.0, 1.0]}, {"componentType": 5126, "type": "VEC2", "bufferView": 8, "byteOffset": 0, "count": 124, "max": [0.9087820053100586, 0.8888220191001892], "min": [0.08918300271034241, 0.14773499965667725]}, {"componentType": 5123, "type": "SCALAR", "bufferView": 9, "byteOffset": 0, "count": 300, "max": [123.0], "min": [0.0]}, {"componentType": 5126, "type": "VEC3", "bufferView": 10, "byteOffset": 0, "count": 56, "max": [0.6983579993247986, 0.26325300335884094, 0.6894009709358215], "min": [-0.7283030152320862, 0.26325300335884094, -0.7624509930610657]}, {"componentType": 5126, "type": "VEC3", "bufferView": 11, "byteOffset": 0, "count": 56, "max": [0.4139229953289032, 0.9903870224952698, 0.4104430079460144], "min": [-0.4151740074157715, 0.9045990109443665, -0.4116950035095215]}, {"componentType": 5126, "type": "VEC3", "bufferView": 12, "byteOffset": 0, "count": 56, "max": [1.0, 1.0, 1.0], "min": [1.0, 1.0, 1.0]}, {"componentType": 5126, "type": "VEC2", "bufferView": 13, "byteOffset": 0, "count": 56, "max": [0.48816800117492676, 0.9355959892272949], "min": [0.34891200065612793, 0.08530399948358536]}, {"componentType": 5123, "type": "SCALAR", "bufferView": 14, "byteOffset": 0, "count": 135, "max": [55.0], "min": [0.0]}, {"componentType": 5126, "type": "VEC3", "bufferView": 15, "byteOffset": 0, "count": 264, "max": [0.7191219925880432, 0.26325300335884094, 0.7045300006866455], "min": [-0.7435430288314819, 0.008253009989857674, -0.7776439785957336]}, {"componentType": 5126, "type": "VEC3", "bufferView": 16, "byteOffset": 0, "count": 264, "max": [0.9280679821968079, 0.9903870224952698, 0.925137996673584], "min": [-0.9281589984893799, -0.7057710289955139, -0.9280369877815247]}, {"componentType": 5126, "type": "VEC3", "bufferView": 17, "byteOffset": 0, "count": 264, "max": [1.0, 1.0, 1.0], "min": [1.0, 1.0, 1.0]}, {"componentType": 5126, "type": "VEC2", "bufferView": 18, "byteOffset": 0, "count": 264, "max": [0.9087820053100586, 0.8888220191001892], "min": [0.08918300271034241, 0.14773499965667725]}, {"componentType": 5123, "type": "SCALAR", "bufferView": 19, "byteOffset": 0, "count": 684, "max": [263.0], "min": [0.0]}], "materials": [{"pbrMetallicRoughness": {"baseColorFactor": [0.8, 0.8, 0.8, 1], "metallicFactor": 0, "roughnessFactor": 1}, "name": "face"}, {"pbrMetallicRoughness": {"baseColorFactor": [0.6392156862745098, 0.6392156862745098, 0.6392156862745098, 1], "metallicFactor": 0, "roughnessFactor": 1, "baseColorTexture": {"index": 0}}, "name": "wood"}], "meshes": [{"primitives": [{"mode": 4, "attributes": {"POSITION": 0, "NORMAL": 1, "COLOR_0": 2, "TEXCOORD_0": 3}, "material": 0, "indices": 4}]}, {"primitives": [{"mode": 4, "attributes": {"POSITION": 5, "NORMAL": 6, "COLOR_0": 7, "TEXCOORD_0": 8}, "material": 1, "indices": 9}]}, {"primitives": [{"mode": 4, "attributes": {"POSITION": 10, "NORMAL": 11, "COLOR_0": 12, "TEXCOORD_0": 13}, "material": 0, "indices": 14}]}, {"primitives": [{"mode": 4, "attributes": {"POSITION": 15, "NORMAL": 16, "COLOR_0": 17, "TEXCOORD_0": 18}, "material": 1, "indices": 19}]}], "images": [{"uri": "wood.jpg"}], "textures": [{"source": 0}]}