{"asset": {"version": "2.0", "generator": "GLTFExporter"}, "scenes": [{"name": "AuxScene", "nodes": [4]}], "scene": 0, "nodes": [{"extras": {"mapFilename": null}, "mesh": 0}, {"extras": {"mapFilename": "wood.jpg"}, "mesh": 1}, {"extras": {"mapFilename": null}, "mesh": 2}, {"extras": {"mapFilename": "wood.jpg"}, "mesh": 3}, {"children": [0, 1, 2, 3]}], "bufferViews": [{"buffer": 0, "byteOffset": 0, "byteLength": 36}, {"buffer": 0, "byteOffset": 36, "byteLength": 36}, {"buffer": 0, "byteOffset": 72, "byteLength": 36}, {"buffer": 0, "byteOffset": 108, "byteLength": 24}, {"buffer": 0, "byteOffset": 132, "byteLength": 6}, {"buffer": 0, "byteOffset": 140, "byteLength": 360}, {"buffer": 0, "byteOffset": 500, "byteLength": 360}, {"buffer": 0, "byteOffset": 860, "byteLength": 360}, {"buffer": 0, "byteOffset": 1220, "byteLength": 240}, {"buffer": 0, "byteOffset": 1460, "byteLength": 108}, {"buffer": 0, "byteOffset": 1568, "byteLength": 624}, {"buffer": 0, "byteOffset": 2192, "byteLength": 624}, {"buffer": 0, "byteOffset": 2816, "byteLength": 624}, {"buffer": 0, "byteOffset": 3440, "byteLength": 416}, {"buffer": 0, "byteOffset": 3856, "byteLength": 294}, {"buffer": 0, "byteOffset": 4152, "byteLength": 3204}, {"buffer": 0, "byteOffset": 7356, "byteLength": 3204}, {"buffer": 0, "byteOffset": 10560, "byteLength": 3204}, {"buffer": 0, "byteOffset": 13764, "byteLength": 2136}, {"buffer": 0, "byteOffset": 15900, "byteLength": 1440}], "buffers": [{"byteLength": 17340, "uri": "data:application/octet-stream;base64,"}], "accessors": [{"componentType": 5126, "type": "VEC3", "bufferView": 0, "byteOffset": 0, "count": 3, "max": [0.5589879751205444, 0.27346399426460266, -0.3624759912490845], "min": [-0.5184199810028076, 0.27346399426460266, -0.624002993106842]}, {"componentType": 5126, "type": "VEC3", "bufferView": 1, "byteOffset": 0, "count": 3, "max": [0.4073610007762909, 0.9137849807739258, 0.15671299397945404], "min": [-0.4073610007762909, 0.8996859788894653, -0.05371300131082535]}, {"componentType": 5126, "type": "VEC3", "bufferView": 2, "byteOffset": 0, "count": 3, "max": [1.0, 1.0, 1.0], "min": [1.0, 1.0, 1.0]}, {"componentType": 5126, "type": "VEC2", "bufferView": 3, "byteOffset": 0, "count": 3, "max": [0.8066740036010742, 0.8456609845161438], "min": [0.7020400166511536, 0.6961899995803833]}, {"componentType": 5123, "type": "SCALAR", "bufferView": 4, "byteOffset": 0, "count": 3, "max": [2.0], "min": [0.0]}, {"componentType": 5126, "type": "VEC3", "bufferView": 5, "byteOffset": 0, "count": 30, "max": [0.5740330219268799, 0.27346399426460266, 0.3082450032234192], "min": [-0.4940420091152191, 0.0030076398979872465, -0.7228999733924866]}, {"componentType": 5126, "type": "VEC3", "bufferView": 6, "byteOffset": 0, "count": 30, "max": [0.9238560199737549, 0.9833369851112366, 0.6358839869499207], "min": [-0.8415480256080627, -0.7034209966659546, -0.9204080104827881]}, {"componentType": 5126, "type": "VEC3", "bufferView": 7, "byteOffset": 0, "count": 30, "max": [1.0, 1.0, 1.0], "min": [1.0, 1.0, 1.0]}, {"componentType": 5126, "type": "VEC2", "bufferView": 8, "byteOffset": 0, "count": 30, "max": [0.8036450147628784, 0.9182109832763672], "min": [0.20923200249671936, 0.3170680105686188]}, {"componentType": 5123, "type": "SCALAR", "bufferView": 9, "byteOffset": 0, "count": 54, "max": [29.0], "min": [0.0]}, {"componentType": 5126, "type": "VEC3", "bufferView": 10, "byteOffset": 0, "count": 52, "max": [0.626865029335022, 0.27346399426460266, 0.6300569772720337], "min": [-0.5862979888916016, 0.27346399426460266, -0.7078520059585571]}, {"componentType": 5126, "type": "VEC3", "bufferView": 11, "byteOffset": 0, "count": 52, "max": [0.40983301401138306, 0.984404981136322, 0.41102299094200134], "min": [-0.4103519916534424, 0.8996859788894653, -0.41117599606513977]}, {"componentType": 5126, "type": "VEC3", "bufferView": 12, "byteOffset": 0, "count": 52, "max": [1.0, 1.0, 1.0], "min": [1.0, 1.0, 1.0]}, {"componentType": 5126, "type": "VEC2", "bufferView": 13, "byteOffset": 0, "count": 52, "max": [0.8132659792900085, 0.8935819864273071], "min": [0.6954479813575745, 0.12893100082874298]}, {"componentType": 5123, "type": "SCALAR", "bufferView": 14, "byteOffset": 0, "count": 147, "max": [51.0], "min": [0.0]}, {"componentType": 5126, "type": "VEC3", "bufferView": 15, "byteOffset": 0, "count": 267, "max": [0.641910970211029, 0.27346399426460266, 0.6450570225715637], "min": [-0.6013399958610535, 0.0030076398979872465, -0.7228999733924866]}, {"componentType": 5126, "type": "VEC3", "bufferView": 16, "byteOffset": 0, "count": 267, "max": [0.9238560199737549, 0.984404981136322, 0.9238870143890381], "min": [-0.9238560199737549, -0.707053005695343, -0.9238560199737549]}, {"componentType": 5126, "type": "VEC3", "bufferView": 17, "byteOffset": 0, "count": 267, "max": [1.0, 1.0, 1.0], "min": [1.0, 1.0, 1.0]}, {"componentType": 5126, "type": "VEC2", "bufferView": 18, "byteOffset": 0, "count": 267, "max": [0.8973230123519897, 0.9182109832763672], "min": [0.13580000400543213, 0.12071099877357483]}, {"componentType": 5123, "type": "SCALAR", "bufferView": 19, "byteOffset": 0, "count": 720, "max": [266.0], "min": [0.0]}], "materials": [{"pbrMetallicRoughness": {"baseColorFactor": [0.8, 0.8, 0.8, 1], "metallicFactor": 0, "roughnessFactor": 1}, "name": "face"}, {"pbrMetallicRoughness": {"baseColorFactor": [0.6392156862745098, 0.6392156862745098, 0.6392156862745098, 1], "metallicFactor": 0, "roughnessFactor": 1, "baseColorTexture": {"index": 0}}, "name": "wood"}], "meshes": [{"primitives": [{"mode": 4, "attributes": {"POSITION": 0, "NORMAL": 1, "COLOR_0": 2, "TEXCOORD_0": 3}, "material": 0, "indices": 4}]}, {"primitives": [{"mode": 4, "attributes": {"POSITION": 5, "NORMAL": 6, "COLOR_0": 7, "TEXCOORD_0": 8}, "material": 1, "indices": 9}]}, {"primitives": [{"mode": 4, "attributes": {"POSITION": 10, "NORMAL": 11, "COLOR_0": 12, "TEXCOORD_0": 13}, "material": 0, "indices": 14}]}, {"primitives": [{"mode": 4, "attributes": {"POSITION": 15, "NORMAL": 16, "COLOR_0": 17, "TEXCOORD_0": 18}, "material": 1, "indices": 19}]}], "images": [{"uri": "wood.jpg"}], "textures": [{"source": 0}]}