{"asset": {"version": "2.0", "generator": "GLTFExporter"}, "scenes": [{"name": "AuxScene", "nodes": [4]}], "scene": 0, "nodes": [{"extras": {"mapFilename": null}, "mesh": 0}, {"extras": {"mapFilename": "wood.jpg"}, "mesh": 1}, {"extras": {"mapFilename": null}, "mesh": 2}, {"extras": {"mapFilename": "wood.jpg"}, "mesh": 3}, {"children": [0, 1, 2, 3]}], "bufferViews": [{"buffer": 0, "byteOffset": 0, "byteLength": 156}, {"buffer": 0, "byteOffset": 156, "byteLength": 156}, {"buffer": 0, "byteOffset": 312, "byteLength": 156}, {"buffer": 0, "byteOffset": 468, "byteLength": 104}, {"buffer": 0, "byteOffset": 572, "byteLength": 36}, {"buffer": 0, "byteOffset": 608, "byteLength": 264}, {"buffer": 0, "byteOffset": 872, "byteLength": 264}, {"buffer": 0, "byteOffset": 1136, "byteLength": 264}, {"buffer": 0, "byteOffset": 1400, "byteLength": 176}, {"buffer": 0, "byteOffset": 1576, "byteLength": 72}, {"buffer": 0, "byteOffset": 1648, "byteLength": 552}, {"buffer": 0, "byteOffset": 2200, "byteLength": 552}, {"buffer": 0, "byteOffset": 2752, "byteLength": 552}, {"buffer": 0, "byteOffset": 3304, "byteLength": 368}, {"buffer": 0, "byteOffset": 3672, "byteLength": 240}, {"buffer": 0, "byteOffset": 3912, "byteLength": 3072}, {"buffer": 0, "byteOffset": 6984, "byteLength": 3072}, {"buffer": 0, "byteOffset": 10056, "byteLength": 3072}, {"buffer": 0, "byteOffset": 13128, "byteLength": 2048}, {"buffer": 0, "byteOffset": 15176, "byteLength": 1356}], "buffers": [{"byteLength": 16532, "uri": "data:application/octet-stream;base64,"}], "accessors": [{"componentType": 5126, "type": "VEC3", "bufferView": 0, "byteOffset": 0, "count": 13, "max": [0.6160849928855896, 0.25728699564933777, 0.6786379814147949], "min": [-0.7746059894561768, 0.25728699564933777, -0.7283599972724915]}, {"componentType": 5126, "type": "VEC3", "bufferView": 1, "byteOffset": 0, "count": 13, "max": [0.40849000215530396, 0.9971920251846313, 0.40330201387405396], "min": [-0.4065369963645935, 0.8970609903335571, -0.4205150008201599]}, {"componentType": 5126, "type": "VEC3", "bufferView": 2, "byteOffset": 0, "count": 13, "max": [1.0, 1.0, 1.0], "min": [1.0, 1.0, 1.0]}, {"componentType": 5126, "type": "VEC2", "bufferView": 3, "byteOffset": 0, "count": 13, "max": [0.6553159952163696, 0.9153329730033875], "min": [0.5212140083312988, 0.1012910008430481]}, {"componentType": 5123, "type": "SCALAR", "bufferView": 4, "byteOffset": 0, "count": 18, "max": [12.0], "min": [0.0]}, {"componentType": 5126, "type": "VEC3", "bufferView": 5, "byteOffset": 0, "count": 22, "max": [0.5976700186729431, 0.25728699564933777, 0.10329999774694443], "min": [-0.8207989931106567, 0.002287050010636449, -0.7370110154151917]}, {"componentType": 5126, "type": "VEC3", "bufferView": 6, "byteOffset": 0, "count": 22, "max": [0.908719003200531, 0.9592580199241638, -0.02877900004386902], "min": [-0.9254429936408997, -0.696677029132843, -0.8737750053405762]}, {"componentType": 5126, "type": "VEC3", "bufferView": 7, "byteOffset": 0, "count": 22, "max": [1.0, 1.0, 1.0], "min": [1.0, 1.0, 1.0]}, {"componentType": 5126, "type": "VEC2", "bufferView": 8, "byteOffset": 0, "count": 22, "max": [0.7252960205078125, 0.8475520014762878], "min": [0.16592900454998016, 0.4483500123023987]}, {"componentType": 5123, "type": "SCALAR", "bufferView": 9, "byteOffset": 0, "count": 36, "max": [21.0], "min": [0.0]}, {"componentType": 5126, "type": "VEC3", "bufferView": 10, "byteOffset": 0, "count": 46, "max": [0.6160849928855896, 0.25728699564933777, 0.6786379814147949], "min": [-0.805683970451355, 0.25728699564933777, -0.7313780188560486]}, {"componentType": 5126, "type": "VEC3", "bufferView": 11, "byteOffset": 0, "count": 46, "max": [0.40849000215530396, 0.9971920251846313, 0.9238560199737549], "min": [-0.41273200511932373, 0.3826720118522644, -0.4173409938812256]}, {"componentType": 5126, "type": "VEC3", "bufferView": 12, "byteOffset": 0, "count": 46, "max": [1.0, 1.0, 1.0], "min": [1.0, 1.0, 1.0]}, {"componentType": 5126, "type": "VEC2", "bufferView": 13, "byteOffset": 0, "count": 46, "max": [0.6553159952163696, 0.917078971862793], "min": [0.5182179808616638, 0.1012910008430481]}, {"componentType": 5123, "type": "SCALAR", "bufferView": 14, "byteOffset": 0, "count": 120, "max": [45.0], "min": [0.0]}, {"componentType": 5126, "type": "VEC3", "bufferView": 15, "byteOffset": 0, "count": 256, "max": [0.6310849785804749, 0.25728699564933777, 0.693638026714325], "min": [-0.8207989931106567, 0.002287050010636449, -0.7466750144958496]}, {"componentType": 5126, "type": "VEC3", "bufferView": 16, "byteOffset": 0, "count": 256, "max": [0.9244970083236694, 0.9971920251846313, 0.9258710145950317], "min": [-0.9280369877815247, -0.707082986831665, -0.9285560250282288]}, {"componentType": 5126, "type": "VEC3", "bufferView": 17, "byteOffset": 0, "count": 256, "max": [1.0, 1.0, 1.0], "min": [1.0, 1.0, 1.0]}, {"componentType": 5126, "type": "VEC2", "bufferView": 18, "byteOffset": 0, "count": 256, "max": [0.8268020153045654, 0.8733369708061218], "min": [0.16592900454998016, 0.15318100154399872]}, {"componentType": 5123, "type": "SCALAR", "bufferView": 19, "byteOffset": 0, "count": 678, "max": [255.0], "min": [0.0]}], "materials": [{"pbrMetallicRoughness": {"baseColorFactor": [0.8, 0.8, 0.8, 1], "metallicFactor": 0, "roughnessFactor": 1}, "name": "face"}, {"pbrMetallicRoughness": {"baseColorFactor": [0.6392156862745098, 0.6392156862745098, 0.6392156862745098, 1], "metallicFactor": 0, "roughnessFactor": 1, "baseColorTexture": {"index": 0}}, "name": "wood"}], "meshes": [{"primitives": [{"mode": 4, "attributes": {"POSITION": 0, "NORMAL": 1, "COLOR_0": 2, "TEXCOORD_0": 3}, "material": 0, "indices": 4}]}, {"primitives": [{"mode": 4, "attributes": {"POSITION": 5, "NORMAL": 6, "COLOR_0": 7, "TEXCOORD_0": 8}, "material": 1, "indices": 9}]}, {"primitives": [{"mode": 4, "attributes": {"POSITION": 10, "NORMAL": 11, "COLOR_0": 12, "TEXCOORD_0": 13}, "material": 0, "indices": 14}]}, {"primitives": [{"mode": 4, "attributes": {"POSITION": 15, "NORMAL": 16, "COLOR_0": 17, "TEXCOORD_0": 18}, "material": 1, "indices": 19}]}], "images": [{"uri": "wood.jpg"}], "textures": [{"source": 0}]}