{"asset": {"version": "2.0", "generator": "GLTFExporter"}, "scenes": [{"name": "AuxScene", "nodes": [1]}], "scene": 0, "nodes": [{"mesh": 0}, {"children": [0]}], "bufferViews": [{"buffer": 0, "byteOffset": 0, "byteLength": 5508}, {"buffer": 0, "byteOffset": 5508, "byteLength": 8268}, {"buffer": 0, "byteOffset": 13776, "byteLength": 8268}, {"buffer": 0, "byteOffset": 22044, "byteLength": 8268}, {"buffer": 0, "byteOffset": 30312, "byteLength": 5512}], "buffers": [{"byteLength": 35824, "uri": "data:application/octet-stream;base64,"}], "accessors": [{"componentType": 5123, "type": "SCALAR", "bufferView": 0, "count": 2754, "max": [688], "min": [0]}, {"componentType": 5126, "type": "VEC3", "bufferView": 1, "byteOffset": 0, "count": 689, "max": [0.8633229732513428, 3.394160032272339, 1.0430500507354736], "min": [-0.863323986530304, -0.005963440053164959, -1.119789958000183]}, {"componentType": 5126, "type": "VEC3", "bufferView": 2, "byteOffset": 0, "count": 689, "max": [0.9994274973869324, 0.9890438318252563, 0.9853963255882263], "min": [-0.9994274973869324, -0.9987616539001465, -0.9999109506607056]}, {"componentType": 5126, "type": "VEC3", "bufferView": 3, "byteOffset": 0, "count": 689, "max": [1.0, 1.0, 1.0], "min": [1.0, 1.0, 1.0]}, {"componentType": 5126, "type": "VEC2", "bufferView": 4, "byteOffset": 0, "count": 689, "max": [0.9954439997673035, 0.9953609704971313], "min": [0.00633700005710125, 0.0030360000673681498]}], "materials": [{"pbrMetallicRoughness": {"baseColorFactor": [0.8, 0.8, 0.8, 1], "metallicFactor": 0, "roughnessFactor": 1}}], "meshes": [{"primitives": [{"mode": 4, "attributes": {"POSITION": 1, "NORMAL": 2, "COLOR_0": 3, "TEXCOORD_0": 4}, "material": 0, "indices": 0}]}]}