{"asset": {"version": "2.0", "generator": "GLTFExporter"}, "scenes": [{"name": "AuxScene", "nodes": [1]}], "scene": 0, "nodes": [{"extras": {"mapFilename": "goat-texture.jpg"}, "mesh": 0}, {"children": [0]}], "bufferViews": [{"buffer": 0, "byteOffset": 0, "byteLength": 9576}, {"buffer": 0, "byteOffset": 9576, "byteLength": 11064}, {"buffer": 0, "byteOffset": 20640, "byteLength": 11064}, {"buffer": 0, "byteOffset": 31704, "byteLength": 11064}, {"buffer": 0, "byteOffset": 42768, "byteLength": 7376}], "buffers": [{"byteLength": 50144, "uri": "data:application/octet-stream;base64,"}], "accessors": [{"componentType": 5123, "type": "SCALAR", "bufferView": 0, "count": 4788, "max": [921], "min": [0]}, {"componentType": 5126, "type": "VEC3", "bufferView": 1, "byteOffset": 0, "count": 922, "max": [0.40083199739456177, 2.072999954223633, 1.8346099853515625], "min": [-0.41286900639533997, -0.041057899594306946, -0.9694939851760864]}, {"componentType": 5126, "type": "VEC3", "bufferView": 2, "byteOffset": 0, "count": 922, "max": [1.0, 0.9986569881439209, 0.997406005859375], "min": [-0.9989619851112366, -0.9979550242424011, -0.9981080293655396]}, {"componentType": 5126, "type": "VEC3", "bufferView": 3, "byteOffset": 0, "count": 922, "max": [1.0, 1.0, 1.0], "min": [1.0, 1.0, 1.0]}, {"componentType": 5126, "type": "VEC2", "bufferView": 4, "byteOffset": 0, "count": 922, "max": [0.9874849915504456, 0.9736490249633789], "min": [0.016804000362753868, 0.0030720001086592674]}], "materials": [{"pbrMetallicRoughness": {"metallicFactor": 0, "roughnessFactor": 1, "baseColorTexture": {"index": 0}}, "name": "Material"}], "meshes": [{"primitives": [{"mode": 4, "attributes": {"POSITION": 1, "NORMAL": 2, "COLOR_0": 3, "TEXCOORD_0": 4}, "material": 0, "indices": 0}]}], "images": [{"uri": "goat-texture.jpg"}], "textures": [{"source": 0}]}