{"asset": {"version": "2.0", "generator": "GLTFExporter"}, "scenes": [{"name": "AuxScene", "nodes": [1]}], "scene": 0, "nodes": [{"extras": {"mapFilename": "lamb-texture.jpg"}, "mesh": 0}, {"children": [0]}], "bufferViews": [{"buffer": 0, "byteOffset": 0, "byteLength": 8064}, {"buffer": 0, "byteOffset": 8064, "byteLength": 9288}, {"buffer": 0, "byteOffset": 17352, "byteLength": 9288}, {"buffer": 0, "byteOffset": 26640, "byteLength": 9288}, {"buffer": 0, "byteOffset": 35928, "byteLength": 6192}], "buffers": [{"byteLength": 42120, "uri": "data:application/octet-stream;base64,"}], "accessors": [{"componentType": 5123, "type": "SCALAR", "bufferView": 0, "count": 4032, "max": [773], "min": [0]}, {"componentType": 5126, "type": "VEC3", "bufferView": 1, "byteOffset": 0, "count": 774, "max": [0.5377910137176514, 2.0952000617980957, 1.6164900064468384], "min": [-0.5385299921035767, -0.04195139929652214, -0.8203830122947693]}, {"componentType": 5126, "type": "VEC3", "bufferView": 2, "byteOffset": 0, "count": 774, "max": [0.9993289709091187, 0.9999079704284668, 0.9997860193252563], "min": [-0.9995729923248291, -0.9998469948768616, -0.9997249841690063]}, {"componentType": 5126, "type": "VEC3", "bufferView": 3, "byteOffset": 0, "count": 774, "max": [1.0, 1.0, 1.0], "min": [1.0, 1.0, 1.0]}, {"componentType": 5126, "type": "VEC2", "bufferView": 4, "byteOffset": 0, "count": 774, "max": [0.9874849915504456, 0.9769300222396851], "min": [0.016804000362753868, 0.0030720001086592674]}], "materials": [{"pbrMetallicRoughness": {"metallicFactor": 0, "roughnessFactor": 1, "baseColorTexture": {"index": 0}}, "name": "Material"}], "meshes": [{"primitives": [{"mode": 4, "attributes": {"POSITION": 1, "NORMAL": 2, "COLOR_0": 3, "TEXCOORD_0": 4}, "material": 0, "indices": 0}]}], "images": [{"uri": "lamb-texture.jpg"}], "textures": [{"source": 0}]}