{"asset": {"version": "2.0", "generator": "GLTFExporter"}, "scenes": [{"name": "AuxScene", "nodes": [2]}], "scene": 0, "nodes": [{"extras": {"mapFilename": null}, "mesh": 0}, {"extras": {"mapFilename": null}, "mesh": 1}, {"children": [0, 1]}], "bufferViews": [{"buffer": 0, "byteOffset": 0, "byteLength": 2676}, {"buffer": 0, "byteOffset": 2676, "byteLength": 2676}, {"buffer": 0, "byteOffset": 5352, "byteLength": 2676}, {"buffer": 0, "byteOffset": 8028, "byteLength": 2736}, {"buffer": 0, "byteOffset": 10764, "byteLength": 768}, {"buffer": 0, "byteOffset": 11532, "byteLength": 768}, {"buffer": 0, "byteOffset": 12300, "byteLength": 768}, {"buffer": 0, "byteOffset": 13068, "byteLength": 744}], "buffers": [{"byteLength": 13812, "uri": "data:application/octet-stream;base64,"}], "accessors": [{"componentType": 5126, "type": "VEC3", "bufferView": 0, "byteOffset": 0, "count": 223, "max": [0.6816909909248352, 1.8408900499343872, 1.0], "min": [-0.6816909909248352, 0.6380460262298584, -0.8791149854660034]}, {"componentType": 5126, "type": "VEC3", "bufferView": 1, "byteOffset": 0, "count": 223, "max": [1.0, 0.9993590116500854, 0.9212319850921631], "min": [-0.9998469948768616, -0.9980159997940063, -0.9831539988517761]}, {"componentType": 5126, "type": "VEC3", "bufferView": 2, "byteOffset": 0, "count": 223, "max": [1.0, 1.0, 1.0], "min": [1.0, 1.0, 1.0]}, {"componentType": 5123, "type": "SCALAR", "bufferView": 3, "byteOffset": 0, "count": 1368, "max": [222.0], "min": [0.0]}, {"componentType": 5126, "type": "VEC3", "bufferView": 4, "byteOffset": 0, "count": 64, "max": [1.2128900289535522, 0.6036499738693237, 1.2128900289535522], "min": [-1.2128900289535522, 0.015190999954938889, -1.2128900289535522]}, {"componentType": 5126, "type": "VEC3", "bufferView": 5, "byteOffset": 0, "count": 64, "max": [0.8158820271492004, 0.5782039761543274, 0.8158820271492004], "min": [-0.8158820271492004, -0.7813959717750549, -0.8158820271492004]}, {"componentType": 5126, "type": "VEC3", "bufferView": 6, "byteOffset": 0, "count": 64, "max": [1.0, 1.0, 1.0], "min": [1.0, 1.0, 1.0]}, {"componentType": 5123, "type": "SCALAR", "bufferView": 7, "byteOffset": 0, "count": 372, "max": [63.0], "min": [0.0]}], "materials": [{"pbrMetallicRoughness": {"baseColorFactor": [0.023529411764705882, 0.023529411764705882, 0.023529411764705882, 1], "metallicFactor": 0, "roughnessFactor": 1}, "name": "Material"}, {"pbrMetallicRoughness": {"baseColorFactor": [0.7176470588235294, 0.7176470588235294, 0.7176470588235294, 1], "metallicFactor": 0, "roughnessFactor": 1}, "name": "Material.001"}], "meshes": [{"primitives": [{"mode": 4, "attributes": {"POSITION": 0, "NORMAL": 1, "COLOR_0": 2}, "material": 0, "indices": 3}]}, {"primitives": [{"mode": 4, "attributes": {"POSITION": 4, "NORMAL": 5, "COLOR_0": 6}, "material": 1, "indices": 7}]}]}