{"asset": {"version": "2.0", "generator": "GLTFExporter"}, "scenes": [{"name": "AuxScene", "nodes": [1]}], "scene": 0, "nodes": [{"extras": {"mapFilename": "woodcell2x512.jpg"}, "mesh": 0}, {"children": [0]}], "bufferViews": [{"buffer": 0, "byteOffset": 0, "byteLength": 5760}, {"buffer": 0, "byteOffset": 5760, "byteLength": 6168}, {"buffer": 0, "byteOffset": 11928, "byteLength": 6168}, {"buffer": 0, "byteOffset": 18096, "byteLength": 6168}, {"buffer": 0, "byteOffset": 24264, "byteLength": 4112}], "buffers": [{"byteLength": 28376, "uri": "data:application/octet-stream;base64,"}], "accessors": [{"componentType": 5123, "type": "SCALAR", "bufferView": 0, "count": 2880, "max": [513], "min": [0]}, {"componentType": 5126, "type": "VEC3", "bufferView": 1, "byteOffset": 0, "count": 514, "max": [0.8231760263442993, 1.317199945449829, 0.8231750130653381], "min": [-0.8231760263442993, -0.008660909719765186, -0.8231760263442993]}, {"componentType": 5126, "type": "VEC3", "bufferView": 2, "byteOffset": 0, "count": 514, "max": [0.9894099831581116, 1.0, 0.9894099831581116], "min": [-0.9894099831581116, -1.0, -0.9894099831581116]}, {"componentType": 5126, "type": "VEC3", "bufferView": 3, "byteOffset": 0, "count": 514, "max": [1.0, 1.0, 1.0], "min": [1.0, 1.0, 1.0]}, {"componentType": 5126, "type": "VEC2", "bufferView": 4, "byteOffset": 0, "count": 514, "max": [0.9867839813232422, 0.9839910268783569], "min": [0.020076999440789223, 0.2947880029678345]}], "materials": [{"pbrMetallicRoughness": {"baseColorFactor": [0.8, 0.8, 0.8, 1], "metallicFactor": 0, "roughnessFactor": 1, "baseColorTexture": {"index": 0}}, "name": "mouton"}], "meshes": [{"primitives": [{"mode": 4, "attributes": {"POSITION": 1, "NORMAL": 2, "COLOR_0": 3, "TEXCOORD_0": 4}, "material": 0, "indices": 0}]}], "images": [{"uri": "woodcell2x512.jpg"}], "textures": [{"source": 0}]}