{"asset": {"version": "2.0", "generator": "GLTFExporter"}, "scenes": [{"name": "AuxScene", "nodes": [1]}], "scene": 0, "nodes": [{"extras": {"mapFilename": "pulijudam-board-wood.jpg"}, "mesh": 0}, {"children": [0]}], "bufferViews": [{"buffer": 0, "byteOffset": 0, "byteLength": 9516}, {"buffer": 0, "byteOffset": 9516, "byteLength": 14472}, {"buffer": 0, "byteOffset": 23988, "byteLength": 14472}, {"buffer": 0, "byteOffset": 38460, "byteLength": 14472}, {"buffer": 0, "byteOffset": 52932, "byteLength": 9648}], "buffers": [{"byteLength": 62580, "uri": "data:application/octet-stream;base64,"}], "accessors": [{"componentType": 5123, "type": "SCALAR", "bufferView": 0, "count": 4758, "max": [1205], "min": [0]}, {"componentType": 5126, "type": "VEC3", "bufferView": 1, "byteOffset": 0, "count": 1206, "max": [4.285669803619385, -0.02392840012907982, 2.682149887084961], "min": [-4.2924299240112305, -0.4100950062274933, -3.627429962158203]}, {"componentType": 5126, "type": "VEC3", "bufferView": 2, "byteOffset": 0, "count": 1206, "max": [0.987945020198822, 1.0, 0.9879760146141052], "min": [-0.9880369901657104, -0.9976199865341187, -0.9880369901657104]}, {"componentType": 5126, "type": "VEC3", "bufferView": 3, "byteOffset": 0, "count": 1206, "max": [1.0, 1.0, 1.0], "min": [1.0, 1.0, 1.0]}, {"componentType": 5126, "type": "VEC2", "bufferView": 4, "byteOffset": 0, "count": 1206, "max": [0.9999849796295166, 0.9345059990882874], "min": [1.4999999621068127e-05, 1.4999999621068127e-05]}], "materials": [{"pbrMetallicRoughness": {"baseColorFactor": [0.8, 0.8, 0.8, 1], "metallicFactor": 0, "roughnessFactor": 1, "baseColorTexture": {"index": 0}}, "name": "boardmat"}], "meshes": [{"primitives": [{"mode": 4, "attributes": {"POSITION": 1, "NORMAL": 2, "COLOR_0": 3, "TEXCOORD_0": 4}, "material": 0, "indices": 0}]}], "images": [{"uri": "pulijudam-board-wood.jpg"}], "textures": [{"source": 0}]}