{"asset": {"version": "2.0", "generator": "GLTFExporter"}, "scenes": [{"name": "AuxScene", "nodes": [2]}], "scene": 0, "nodes": [{"extras": {"mapFilename": null}, "mesh": 0}, {"extras": {"mapFilename": null}, "mesh": 1}, {"children": [0, 1]}], "bufferViews": [{"buffer": 0, "byteOffset": 0, "byteLength": 768}, {"buffer": 0, "byteOffset": 768, "byteLength": 768}, {"buffer": 0, "byteOffset": 1536, "byteLength": 768}, {"buffer": 0, "byteOffset": 2304, "byteLength": 744}, {"buffer": 0, "byteOffset": 3048, "byteLength": 96}, {"buffer": 0, "byteOffset": 3144, "byteLength": 96}, {"buffer": 0, "byteOffset": 3240, "byteLength": 96}, {"buffer": 0, "byteOffset": 3336, "byteLength": 72}], "buffers": [{"byteLength": 3408, "uri": "data:application/octet-stream;base64,"}], "accessors": [{"componentType": 5126, "type": "VEC3", "bufferView": 0, "byteOffset": 0, "count": 64, "max": [0.36740198731422424, 0.14986200630664825, 0.36740198731422424], "min": [-0.36740198731422424, 0.1098179966211319, -0.36740198731422424]}, {"componentType": 5126, "type": "VEC3", "bufferView": 1, "byteOffset": 0, "count": 64, "max": [0.727865993976593, 0.6856899857521057, 0.727865993976593], "min": [-0.727865993976593, -0.6856899857521057, -0.727865993976593]}, {"componentType": 5126, "type": "VEC3", "bufferView": 2, "byteOffset": 0, "count": 64, "max": [1.0, 1.0, 1.0], "min": [1.0, 1.0, 1.0]}, {"componentType": 5123, "type": "SCALAR", "bufferView": 3, "byteOffset": 0, "count": 372, "max": [63.0], "min": [0.0]}, {"componentType": 5126, "type": "VEC3", "bufferView": 4, "byteOffset": 0, "count": 8, "max": [1.0, -0.04250510036945343, 1.0], "min": [-1.0, -0.10605400055646896, -1.0]}, {"componentType": 5126, "type": "VEC3", "bufferView": 5, "byteOffset": 0, "count": 8, "max": [0.5773490071296692, 0.5773490071296692, 0.5773490071296692], "min": [-0.5773490071296692, -0.5773490071296692, -0.5773490071296692]}, {"componentType": 5126, "type": "VEC3", "bufferView": 6, "byteOffset": 0, "count": 8, "max": [1.0, 1.0, 1.0], "min": [1.0, 1.0, 1.0]}, {"componentType": 5123, "type": "SCALAR", "bufferView": 7, "byteOffset": 0, "count": 36, "max": [7.0], "min": [0.0]}], "materials": [{"pbrMetallicRoughness": {"baseColorFactor": [0.6392156862745098, 0.6392156862745098, 0.6392156862745098, 1], "metallicFactor": 0, "roughnessFactor": 1}, "name": "ring"}, {"pbrMetallicRoughness": {"baseColorFactor": [0.6392156862745098, 0.6392156862745098, 0.6392156862745098, 1], "metallicFactor": 0, "roughnessFactor": 1}, "name": "square"}], "meshes": [{"primitives": [{"mode": 4, "attributes": {"POSITION": 0, "NORMAL": 1, "COLOR_0": 2}, "material": 0, "indices": 3}]}, {"primitives": [{"mode": 4, "attributes": {"POSITION": 4, "NORMAL": 5, "COLOR_0": 6}, "material": 1, "indices": 7}]}]}