{"asset": {"version": "2.0", "generator": "GLTFExporter"}, "scenes": [{"name": "AuxScene", "nodes": [1]}], "scene": 0, "nodes": [{"extras": {"mapFilename": "tiger-textures.jpg"}, "mesh": 0}, {"children": [0]}], "bufferViews": [{"buffer": 0, "byteOffset": 0, "byteLength": 15696}, {"buffer": 0, "byteOffset": 15696, "byteLength": 18012}, {"buffer": 0, "byteOffset": 33708, "byteLength": 18012}, {"buffer": 0, "byteOffset": 51720, "byteLength": 18012}, {"buffer": 0, "byteOffset": 69732, "byteLength": 12008}], "buffers": [{"byteLength": 81740, "uri": "data:application/octet-stream;base64,"}], "accessors": [{"componentType": 5123, "type": "SCALAR", "bufferView": 0, "count": 7848, "max": [1500], "min": [0]}, {"componentType": 5126, "type": "VEC3", "bufferView": 1, "byteOffset": 0, "count": 1501, "max": [0.3419570028781891, 2.0337600708007812, 2.1153199672698975], "min": [-0.3805660009384155, 0.0036616299767047167, -1.546839952468872]}, {"componentType": 5126, "type": "VEC3", "bufferView": 2, "byteOffset": 0, "count": 1501, "max": [0.9992070198059082, 0.9998779892921448, 0.99822998046875], "min": [-0.9992070198059082, -0.9999690055847168, -0.9994810223579407]}, {"componentType": 5126, "type": "VEC3", "bufferView": 3, "byteOffset": 0, "count": 1501, "max": [1.0, 1.0, 1.0], "min": [1.0, 1.0, 1.0]}, {"componentType": 5126, "type": "VEC2", "bufferView": 4, "byteOffset": 0, "count": 1501, "max": [0.9767230153083801, 0.9941250085830688], "min": [9.100000170292333e-05, 9.100000170292333e-05]}], "materials": [{"pbrMetallicRoughness": {"metallicFactor": 0, "roughnessFactor": 1, "baseColorTexture": {"index": 0}}, "name": "Material.001"}], "meshes": [{"primitives": [{"mode": 4, "attributes": {"POSITION": 1, "NORMAL": 2, "COLOR_0": 3, "TEXCOORD_0": 4}, "material": 0, "indices": 0}]}], "images": [{"uri": "tiger-textures.jpg"}], "textures": [{"source": 0}]}