{"asset": {"version": "2.0", "generator": "GLTFExporter"}, "scenes": [{"name": "AuxScene", "nodes": [2]}], "scene": 0, "nodes": [{"extras": {"mapFilename": null}, "mesh": 0}, {"extras": {"mapFilename": "tigernail-uvs.jpg"}, "mesh": 1}, {"children": [0, 1]}], "bufferViews": [{"buffer": 0, "byteOffset": 0, "byteLength": 768}, {"buffer": 0, "byteOffset": 768, "byteLength": 768}, {"buffer": 0, "byteOffset": 1536, "byteLength": 768}, {"buffer": 0, "byteOffset": 2304, "byteLength": 512}, {"buffer": 0, "byteOffset": 2816, "byteLength": 744}, {"buffer": 0, "byteOffset": 3560, "byteLength": 5148}, {"buffer": 0, "byteOffset": 8708, "byteLength": 5148}, {"buffer": 0, "byteOffset": 13856, "byteLength": 5148}, {"buffer": 0, "byteOffset": 19004, "byteLength": 3432}, {"buffer": 0, "byteOffset": 22436, "byteLength": 4224}], "buffers": [{"byteLength": 26660, "uri": "data:application/octet-stream;base64,"}], "accessors": [{"componentType": 5126, "type": "VEC3", "bufferView": 0, "byteOffset": 0, "count": 64, "max": [1.2128900289535522, 0.6036499738693237, 1.2128900289535522], "min": [-1.2128900289535522, 0.015190999954938889, -1.2128900289535522]}, {"componentType": 5126, "type": "VEC3", "bufferView": 1, "byteOffset": 0, "count": 64, "max": [0.8158820271492004, 0.5782039761543274, 0.8158820271492004], "min": [-0.8158820271492004, -0.7813959717750549, -0.8158820271492004]}, {"componentType": 5126, "type": "VEC3", "bufferView": 2, "byteOffset": 0, "count": 64, "max": [1.0, 1.0, 1.0], "min": [1.0, 1.0, 1.0]}, {"componentType": 5126, "type": "VEC2", "bufferView": 3, "byteOffset": 0, "count": 64, "max": [0.0, 0.0], "min": [0.0, 0.0]}, {"componentType": 5123, "type": "SCALAR", "bufferView": 4, "byteOffset": 0, "count": 372, "max": [63.0], "min": [0.0]}, {"componentType": 5126, "type": "VEC3", "bufferView": 5, "byteOffset": 0, "count": 429, "max": [0.48654600977897644, 3.1999599933624268, 1.1736600399017334], "min": [-0.48654600977897644, 0.5927600264549255, -0.980970025062561]}, {"componentType": 5126, "type": "VEC3", "bufferView": 6, "byteOffset": 0, "count": 429, "max": [0.9958800077438354, 0.9828180074691772, 0.9959719777107239], "min": [-0.9972839951515198, -1.0, -0.9982600212097168]}, {"componentType": 5126, "type": "VEC3", "bufferView": 7, "byteOffset": 0, "count": 429, "max": [1.0, 1.0, 1.0], "min": [1.0, 1.0, 1.0]}, {"componentType": 5126, "type": "VEC2", "bufferView": 8, "byteOffset": 0, "count": 429, "max": [0.9959740042686462, 0.9728909730911255], "min": [-0.003826000029221177, 0.005007999949157238]}, {"componentType": 5123, "type": "SCALAR", "bufferView": 9, "byteOffset": 0, "count": 2112, "max": [428.0], "min": [0.0]}], "materials": [{"pbrMetallicRoughness": {"baseColorFactor": [0.023529411764705882, 0.023529411764705882, 0.023529411764705882, 1], "metallicFactor": 0, "roughnessFactor": 1}, "name": "Material"}, {"pbrMetallicRoughness": {"baseColorFactor": [0.6392156862745098, 0.6392156862745098, 0.6392156862745098, 1], "metallicFactor": 0, "roughnessFactor": 1, "baseColorTexture": {"index": 0}}, "name": "tigertooth"}], "meshes": [{"primitives": [{"mode": 4, "attributes": {"POSITION": 0, "NORMAL": 1, "COLOR_0": 2, "TEXCOORD_0": 3}, "material": 0, "indices": 4}]}, {"primitives": [{"mode": 4, "attributes": {"POSITION": 5, "NORMAL": 6, "COLOR_0": 7, "TEXCOORD_0": 8}, "material": 1, "indices": 9}]}], "images": [{"uri": "tigernail-uvs.jpg"}], "textures": [{"source": 0}]}