{"asset": {"version": "2.0", "generator": "GLTFExporter"}, "scenes": [{"name": "AuxScene", "nodes": [1]}], "scene": 0, "nodes": [{"extras": {"mapFilename": null}, "mesh": 0}, {"children": [0]}], "bufferViews": [{"buffer": 0, "byteOffset": 0, "byteLength": 3888}, {"buffer": 0, "byteOffset": 3888, "byteLength": 4092}, {"buffer": 0, "byteOffset": 7980, "byteLength": 4092}, {"buffer": 0, "byteOffset": 12072, "byteLength": 4092}], "buffers": [{"byteLength": 16164, "uri": "data:application/octet-stream;base64,"}], "accessors": [{"componentType": 5123, "type": "SCALAR", "bufferView": 0, "count": 1944, "max": [340], "min": [0]}, {"componentType": 5126, "type": "VEC3", "bufferView": 1, "byteOffset": 0, "count": 341, "max": [0.362870991230011, 1.9274699687957764, 2.1429901123046875], "min": [-0.4089139997959137, -0.0051802401430904865, -1.7563999891281128]}, {"componentType": 5126, "type": "VEC3", "bufferView": 2, "byteOffset": 0, "count": 341, "max": [0.9977110028266907, 0.9988399744033813, 1.0], "min": [-0.9989320039749146, -0.9996029734611511, -0.9943850040435791]}, {"componentType": 5126, "type": "VEC3", "bufferView": 3, "byteOffset": 0, "count": 341, "max": [1.0, 1.0, 1.0], "min": [1.0, 1.0, 1.0]}], "materials": [{"pbrMetallicRoughness": {"baseColorFactor": [0.6392156862745098, 0.1607843137254902, 0, 1], "metallicFactor": 0, "roughnessFactor": 1}, "name": "Material.001"}], "meshes": [{"primitives": [{"mode": 4, "attributes": {"POSITION": 1, "NORMAL": 2, "COLOR_0": 3}, "material": 0, "indices": 0}]}]}