{"asset": {"version": "2.0", "generator": "GLTFExporter"}, "scenes": [{"name": "AuxScene", "nodes": [1]}], "scene": 0, "nodes": [{"mesh": 0}, {"children": [0]}], "bufferViews": [{"buffer": 0, "byteOffset": 0, "byteLength": 4800}, {"buffer": 0, "byteOffset": 4800, "byteLength": 5544}, {"buffer": 0, "byteOffset": 10344, "byteLength": 5544}, {"buffer": 0, "byteOffset": 15888, "byteLength": 5544}, {"buffer": 0, "byteOffset": 21432, "byteLength": 3696}], "buffers": [{"byteLength": 25128, "uri": "data:application/octet-stream;base64,"}], "accessors": [{"componentType": 5123, "type": "SCALAR", "bufferView": 0, "count": 2400, "max": [461], "min": [0]}, {"componentType": 5126, "type": "VEC3", "bufferView": 1, "byteOffset": 0, "count": 462, "max": [0.7549999952316284, 3.2699999809265137, 0.7549999952316284], "min": [-0.7549999952316284, 0.0, -0.7549999952316284]}, {"componentType": 5126, "type": "VEC3", "bufferView": 2, "byteOffset": 0, "count": 462, "max": [0.9993744492530823, 0.9970201253890991, 0.9999979734420776], "min": [-0.9993744492530823, -0.9745616912841797, -0.9999979734420776]}, {"componentType": 5126, "type": "VEC3", "bufferView": 3, "byteOffset": 0, "count": 462, "max": [1.0, 1.0, 1.0], "min": [1.0, 1.0, 1.0]}, {"componentType": 5126, "type": "VEC2", "bufferView": 4, "byteOffset": 0, "count": 462, "max": [0.8125, 0.8125], "min": [0.0, 0.0]}], "materials": [{"pbrMetallicRoughness": {"baseColorFactor": [0.8, 0.8, 0.8, 1], "metallicFactor": 0, "roughnessFactor": 1}}], "meshes": [{"primitives": [{"mode": 4, "attributes": {"POSITION": 1, "NORMAL": 2, "COLOR_0": 3, "TEXCOORD_0": 4}, "material": 0, "indices": 0}]}]}