{"asset": {"version": "2.0", "generator": "GLTFExporter"}, "scenes": [{"name": "AuxScene", "nodes": [1]}], "scene": 0, "nodes": [{"mesh": 0}, {"children": [0]}], "bufferViews": [{"buffer": 0, "byteOffset": 0, "byteLength": 8448}, {"buffer": 0, "byteOffset": 8448, "byteLength": 11340}, {"buffer": 0, "byteOffset": 19788, "byteLength": 11340}, {"buffer": 0, "byteOffset": 31128, "byteLength": 11340}, {"buffer": 0, "byteOffset": 42468, "byteLength": 7560}], "buffers": [{"byteLength": 50028, "uri": "data:application/octet-stream;base64,"}], "accessors": [{"componentType": 5123, "type": "SCALAR", "bufferView": 0, "count": 4224, "max": [944], "min": [0]}, {"componentType": 5126, "type": "VEC3", "bufferView": 1, "byteOffset": 0, "count": 945, "max": [0.7708359956741333, 2.761850118637085, 0.7708359956741333], "min": [-0.7708359956741333, 0.02334499917924404, -0.7708359956741333]}, {"componentType": 5126, "type": "VEC3", "bufferView": 2, "byteOffset": 0, "count": 945, "max": [0.9973750114440918, 1.0, 0.9999690055847168], "min": [-0.9973750114440918, -1.0, -1.0]}, {"componentType": 5126, "type": "VEC3", "bufferView": 3, "byteOffset": 0, "count": 945, "max": [1.0, 1.0, 1.0], "min": [1.0, 1.0, 1.0]}, {"componentType": 5126, "type": "VEC2", "bufferView": 4, "byteOffset": 0, "count": 945, "max": [0.9931319952011108, 0.9971820116043091], "min": [0.003587000072002411, 0.0023769999388605356]}], "materials": [{"pbrMetallicRoughness": {"baseColorFactor": [0.8, 0.8, 0.8, 1], "metallicFactor": 0, "roughnessFactor": 1}}], "meshes": [{"primitives": [{"mode": 4, "attributes": {"POSITION": 1, "NORMAL": 2, "COLOR_0": 3, "TEXCOORD_0": 4}, "material": 0, "indices": 0}]}]}