{"asset": {"version": "2.0", "generator": "GLTFExporter"}, "scenes": [{"name": "AuxScene", "nodes": [1]}], "scene": 0, "nodes": [{"extras": {"mapFilename": null}, "mesh": 0}, {"children": [0]}], "bufferViews": [{"buffer": 0, "byteOffset": 0, "byteLength": 264}, {"buffer": 0, "byteOffset": 264, "byteLength": 288}, {"buffer": 0, "byteOffset": 552, "byteLength": 288}, {"buffer": 0, "byteOffset": 840, "byteLength": 288}], "buffers": [{"byteLength": 1128, "uri": "data:application/octet-stream;base64,"}], "accessors": [{"componentType": 5123, "type": "SCALAR", "bufferView": 0, "count": 132, "max": [23], "min": [0]}, {"componentType": 5126, "type": "VEC3", "bufferView": 1, "byteOffset": 0, "count": 24, "max": [1.1574900150299072, 0.07501690089702606, 1.777649998664856], "min": [-1.1574900150299072, -0.061452001333236694, -1.8072500228881836]}, {"componentType": 5126, "type": "VEC3", "bufferView": 2, "byteOffset": 0, "count": 24, "max": [0.7504810094833374, 0.9887080192565918, 0.6427810192108154], "min": [-0.7504810094833374, -0.9107030034065247, -0.869288980960846]}, {"componentType": 5126, "type": "VEC3", "bufferView": 3, "byteOffset": 0, "count": 24, "max": [1.0, 1.0, 1.0], "min": [1.0, 1.0, 1.0]}], "materials": [{"pbrMetallicRoughness": {"baseColorFactor": [0.6392156862745098, 0.6392156862745098, 0.6392156862745098, 1], "metallicFactor": 0, "roughnessFactor": 1}, "name": "mat.arrow"}], "meshes": [{"primitives": [{"mode": 4, "attributes": {"POSITION": 1, "NORMAL": 2, "COLOR_0": 3}, "material": 0, "indices": 0}]}]}