{"asset": {"version": "2.0", "generator": "GLTFExporter"}, "scenes": [{"name": "AuxScene", "nodes": [1]}], "scene": 0, "nodes": [{"extras": {"mapFilename": "grass2.jpg"}, "mesh": 0}, {"children": [0]}], "bufferViews": [{"buffer": 0, "byteOffset": 0, "byteLength": 744}, {"buffer": 0, "byteOffset": 744, "byteLength": 2304}, {"buffer": 0, "byteOffset": 3048, "byteLength": 2304}, {"buffer": 0, "byteOffset": 5352, "byteLength": 2304}, {"buffer": 0, "byteOffset": 7656, "byteLength": 1536}], "buffers": [{"byteLength": 9192, "uri": "data:application/octet-stream;base64,"}], "accessors": [{"componentType": 5123, "type": "SCALAR", "bufferView": 0, "count": 372, "max": [191], "min": [0]}, {"componentType": 5126, "type": "VEC3", "bufferView": 1, "byteOffset": 0, "count": 192, "max": [1.0, 0.012316199950873852, 1.0], "min": [-1.0, -0.012316199950873852, -1.0]}, {"componentType": 5126, "type": "VEC3", "bufferView": 2, "byteOffset": 0, "count": 192, "max": [0.727865993976593, 0.6856899857521057, 0.727865993976593], "min": [-0.727865993976593, -0.6856899857521057, -0.727865993976593]}, {"componentType": 5126, "type": "VEC3", "bufferView": 3, "byteOffset": 0, "count": 192, "max": [1.0, 1.0, 1.0], "min": [1.0, 1.0, 1.0]}, {"componentType": 5126, "type": "VEC2", "bufferView": 4, "byteOffset": 0, "count": 192, "max": [1.0, 1.0], "min": [0.0, 0.0]}], "materials": [{"pbrMetallicRoughness": {"baseColorFactor": [0.8, 0.8, 0.8, 1], "metallicFactor": 0, "roughnessFactor": 1, "baseColorTexture": {"index": 0}}, "name": "ocean"}], "meshes": [{"primitives": [{"mode": 4, "attributes": {"POSITION": 1, "NORMAL": 2, "COLOR_0": 3, "TEXCOORD_0": 4}, "material": 0, "indices": 0}]}], "images": [{"uri": "grass2.jpg"}], "textures": [{"source": 0}]}