{"asset": {"version": "2.0", "generator": "GLTFExporter"}, "scenes": [{"name": "AuxScene", "nodes": [1]}], "scene": 0, "nodes": [{"extras": {"mapFilename": "teama-text.jpg"}, "mesh": 0}, {"children": [0]}], "bufferViews": [{"buffer": 0, "byteOffset": 0, "byteLength": 4032}, {"buffer": 0, "byteOffset": 4032, "byteLength": 6192}, {"buffer": 0, "byteOffset": 10224, "byteLength": 6192}, {"buffer": 0, "byteOffset": 16416, "byteLength": 6192}, {"buffer": 0, "byteOffset": 22608, "byteLength": 4128}], "buffers": [{"byteLength": 26736, "uri": "data:application/octet-stream;base64,"}], "accessors": [{"componentType": 5123, "type": "SCALAR", "bufferView": 0, "count": 2016, "max": [515], "min": [0]}, {"componentType": 5126, "type": "VEC3", "bufferView": 1, "byteOffset": 0, "count": 516, "max": [1.3261899948120117, 7.421380043029785, 0.7072820067405701], "min": [-1.3965200185775757, -0.021529199555516243, -0.677901029586792]}, {"componentType": 5126, "type": "VEC3", "bufferView": 2, "byteOffset": 0, "count": 516, "max": [0.9983829855918884, 0.9875789880752563, 0.9993900060653687], "min": [-0.9996950030326843, -0.9963679909706116, -0.999114990234375]}, {"componentType": 5126, "type": "VEC3", "bufferView": 3, "byteOffset": 0, "count": 516, "max": [1.0, 1.0, 1.0], "min": [1.0, 1.0, 1.0]}, {"componentType": 5126, "type": "VEC2", "bufferView": 4, "byteOffset": 0, "count": 516, "max": [0.9966999888420105, 0.994700014591217], "min": [0.0005729999975301325, 0.0036069999914616346]}], "materials": [{"pbrMetallicRoughness": {"baseColorFactor": [0.6392156862745098, 0.6392156862745098, 0.6392156862745098, 1], "metallicFactor": 0, "roughnessFactor": 1, "baseColorTexture": {"index": 0}}, "alphaMode": "BLEND", "name": "mat.short"}], "meshes": [{"primitives": [{"mode": 4, "attributes": {"POSITION": 1, "NORMAL": 2, "COLOR_0": 3, "TEXCOORD_0": 4}, "material": 0, "indices": 0}]}], "images": [{"uri": "teama-text.jpg"}], "textures": [{"source": 0}]}