{"asset": {"version": "2.0", "generator": "GLTFExporter"}, "scenes": [{"name": "AuxScene", "nodes": [1]}], "scene": 0, "nodes": [{"extras": {"mapFilename": "ballUVslayout.jpg"}, "mesh": 0}, {"children": [0]}], "bufferViews": [{"buffer": 0, "byteOffset": 0, "byteLength": 2880}, {"buffer": 0, "byteOffset": 2880, "byteLength": 3696}, {"buffer": 0, "byteOffset": 6576, "byteLength": 3696}, {"buffer": 0, "byteOffset": 10272, "byteLength": 3696}, {"buffer": 0, "byteOffset": 13968, "byteLength": 2464}], "buffers": [{"byteLength": 16432, "uri": "data:application/octet-stream;base64,"}], "accessors": [{"componentType": 5123, "type": "SCALAR", "bufferView": 0, "count": 1440, "max": [307], "min": [0]}, {"componentType": 5126, "type": "VEC3", "bufferView": 1, "byteOffset": 0, "count": 308, "max": [0.690388023853302, 1.419409990310669, 1.173840045928955], "min": [-0.690388023853302, 0.03863479942083359, -1.173840045928955]}, {"componentType": 5126, "type": "VEC3", "bufferView": 2, "byteOffset": 0, "count": 308, "max": [1.0, 1.0, 1.0], "min": [-1.0, -1.0, -1.0]}, {"componentType": 5126, "type": "VEC3", "bufferView": 3, "byteOffset": 0, "count": 308, "max": [1.0, 1.0, 1.0], "min": [1.0, 1.0, 1.0]}, {"componentType": 5126, "type": "VEC2", "bufferView": 4, "byteOffset": 0, "count": 308, "max": [0.9933990240097046, 0.9618380069732666], "min": [0.006599000189453363, 0.057888999581336975]}], "materials": [{"pbrMetallicRoughness": {"baseColorFactor": [0.6392156862745098, 0.6392156862745098, 0.6392156862745098, 1], "metallicFactor": 0, "roughnessFactor": 1, "baseColorTexture": {"index": 0}}, "name": "Material"}], "meshes": [{"primitives": [{"mode": 4, "attributes": {"POSITION": 1, "NORMAL": 2, "COLOR_0": 3, "TEXCOORD_0": 4}, "material": 0, "indices": 0}]}], "images": [{"uri": "ballUVslayout.jpg"}], "textures": [{"source": 0}]}