{"asset": {"version": "2.0", "generator": "GLTFExporter"}, "scenes": [{"name": "AuxScene", "nodes": [8]}], "scene": 0, "nodes": [{"extras": {"mapFilename": null}, "mesh": 0}, {"extras": {"mapFilename": null}, "mesh": 1}, {"extras": {"mapFilename": null}, "mesh": 2}, {"extras": {"mapFilename": null}, "mesh": 3}, {"extras": {"mapFilename": null}, "mesh": 4}, {"extras": {"mapFilename": null}, "mesh": 5}, {"extras": {"mapFilename": null}, "mesh": 6}, {"extras": {"mapFilename": null}, "mesh": 7}, {"children": [0, 1, 2, 3, 4, 5, 6, 7]}], "bufferViews": [{"buffer": 0, "byteOffset": 0, "byteLength": 480}, {"buffer": 0, "byteOffset": 480, "byteLength": 480}, {"buffer": 0, "byteOffset": 960, "byteLength": 480}, {"buffer": 0, "byteOffset": 1440, "byteLength": 320}, {"buffer": 0, "byteOffset": 1760, "byteLength": 168}, {"buffer": 0, "byteOffset": 1928, "byteLength": 384}, {"buffer": 0, "byteOffset": 2312, "byteLength": 384}, {"buffer": 0, "byteOffset": 2696, "byteLength": 384}, {"buffer": 0, "byteOffset": 3080, "byteLength": 256}, {"buffer": 0, "byteOffset": 3336, "byteLength": 180}, {"buffer": 0, "byteOffset": 3516, "byteLength": 576}, {"buffer": 0, "byteOffset": 4092, "byteLength": 576}, {"buffer": 0, "byteOffset": 4668, "byteLength": 576}, {"buffer": 0, "byteOffset": 5244, "byteLength": 384}, {"buffer": 0, "byteOffset": 5628, "byteLength": 216}, {"buffer": 0, "byteOffset": 5844, "byteLength": 1152}, {"buffer": 0, "byteOffset": 6996, "byteLength": 1152}, {"buffer": 0, "byteOffset": 8148, "byteLength": 1152}, {"buffer": 0, "byteOffset": 9300, "byteLength": 768}, {"buffer": 0, "byteOffset": 10068, "byteLength": 384}, {"buffer": 0, "byteOffset": 10452, "byteLength": 1152}, {"buffer": 0, "byteOffset": 11604, "byteLength": 1152}, {"buffer": 0, "byteOffset": 12756, "byteLength": 1152}, {"buffer": 0, "byteOffset": 13908, "byteLength": 768}, {"buffer": 0, "byteOffset": 14676, "byteLength": 384}, {"buffer": 0, "byteOffset": 15060, "byteLength": 768}, {"buffer": 0, "byteOffset": 15828, "byteLength": 768}, {"buffer": 0, "byteOffset": 16596, "byteLength": 768}, {"buffer": 0, "byteOffset": 17364, "byteLength": 512}, {"buffer": 0, "byteOffset": 17876, "byteLength": 384}, {"buffer": 0, "byteOffset": 18260, "byteLength": 768}, {"buffer": 0, "byteOffset": 19028, "byteLength": 768}, {"buffer": 0, "byteOffset": 19796, "byteLength": 768}, {"buffer": 0, "byteOffset": 20564, "byteLength": 512}, {"buffer": 0, "byteOffset": 21076, "byteLength": 384}, {"buffer": 0, "byteOffset": 21460, "byteLength": 1536}, {"buffer": 0, "byteOffset": 22996, "byteLength": 1536}, {"buffer": 0, "byteOffset": 24532, "byteLength": 1536}, {"buffer": 0, "byteOffset": 26068, "byteLength": 1024}, {"buffer": 0, "byteOffset": 27092, "byteLength": 1152}], "buffers": [{"byteLength": 28244, "uri": "data:application/octet-stream;base64,"}], "accessors": [{"componentType": 5126, "type": "VEC3", "bufferView": 0, "byteOffset": 0, "count": 40, "max": [10.93850040435791, 1.0224900245666504, 13.421199798583984], "min": [-10.333800315856934, 0.15043699741363525, -13.512999534606934]}, {"componentType": 5126, "type": "VEC3", "bufferView": 1, "byteOffset": 0, "count": 40, "max": [0.13141299784183502, 0.9984130263328552, 0.11169800162315369], "min": [-0.13251100480556488, 0.9910579919815063, -0.11227799952030182]}, {"componentType": 5126, "type": "VEC3", "bufferView": 2, "byteOffset": 0, "count": 40, "max": [1.0, 1.0, 1.0], "min": [1.0, 1.0, 1.0]}, {"componentType": 5126, "type": "VEC2", "bufferView": 3, "byteOffset": 0, "count": 40, "max": [0.0, 0.0], "min": [0.0, 0.0]}, {"componentType": 5123, "type": "SCALAR", "bufferView": 4, "byteOffset": 0, "count": 84, "max": [39.0], "min": [0.0]}, {"componentType": 5126, "type": "VEC3", "bufferView": 5, "byteOffset": 0, "count": 32, "max": [4.382840156555176, 0.15043699741363525, 5.704060077667236], "min": [-4.382840156555176, 0.15043699741363525, -5.7548298835754395]}, {"componentType": 5126, "type": "VEC3", "bufferView": 6, "byteOffset": 0, "count": 32, "max": [0.06756799668073654, 0.9984130263328552, 0.05734400078654289], "min": [-0.06756799668073654, 0.9975280165672302, -0.05761900171637535]}, {"componentType": 5126, "type": "VEC3", "bufferView": 7, "byteOffset": 0, "count": 32, "max": [1.0, 1.0, 1.0], "min": [1.0, 1.0, 1.0]}, {"componentType": 5126, "type": "VEC2", "bufferView": 8, "byteOffset": 0, "count": 32, "max": [0.0, 0.0], "min": [0.0, 0.0]}, {"componentType": 5123, "type": "SCALAR", "bufferView": 9, "byteOffset": 0, "count": 90, "max": [31.0], "min": [0.0]}, {"componentType": 5126, "type": "VEC3", "bufferView": 10, "byteOffset": 0, "count": 48, "max": [10.93850040435791, 1.0224900245666504, 13.410499572753906], "min": [-10.93850040435791, 0.15043699741363525, -13.512999534606934]}, {"componentType": 5126, "type": "VEC3", "bufferView": 11, "byteOffset": 0, "count": 48, "max": [0.13254199922084808, 0.9984130263328552, 0.11169800162315369], "min": [-0.13254199922084808, 0.9910579919815063, -0.11136200278997421]}, {"componentType": 5126, "type": "VEC3", "bufferView": 12, "byteOffset": 0, "count": 48, "max": [1.0, 1.0, 1.0], "min": [1.0, 1.0, 1.0]}, {"componentType": 5126, "type": "VEC2", "bufferView": 13, "byteOffset": 0, "count": 48, "max": [0.0, 0.0], "min": [0.0, 0.0]}, {"componentType": 5123, "type": "SCALAR", "bufferView": 14, "byteOffset": 0, "count": 108, "max": [47.0], "min": [0.0]}, {"componentType": 5126, "type": "VEC3", "bufferView": 15, "byteOffset": 0, "count": 96, "max": [6.813419818878174, 0.9957669973373413, 8.57470989227295], "min": [-6.813419818878174, 0.842244029045105, -8.64074993133545]}, {"componentType": 5126, "type": "VEC3", "bufferView": 16, "byteOffset": 0, "count": 96, "max": [0.9517499804496765, 0.3212380111217499, 0.9635609984397888], "min": [-0.9517499804496765, -0.6932889819145203, -0.9634079933166504]}, {"componentType": 5126, "type": "VEC3", "bufferView": 17, "byteOffset": 0, "count": 96, "max": [1.0, 1.0, 1.0], "min": [1.0, 1.0, 1.0]}, {"componentType": 5126, "type": "VEC2", "bufferView": 18, "byteOffset": 0, "count": 96, "max": [0.9994500279426575, 1.001960039138794], "min": [0.5772500038146973, 0.9547100067138672]}, {"componentType": 5123, "type": "SCALAR", "bufferView": 19, "byteOffset": 0, "count": 192, "max": [95.0], "min": [0.0]}, {"componentType": 5126, "type": "VEC3", "bufferView": 20, "byteOffset": 0, "count": 96, "max": [9.641010284423828, 1.9855600595474243, 11.79069995880127], "min": [-9.641010284423828, 0.9957659840583801, -11.873900413513184]}, {"componentType": 5126, "type": "VEC3", "bufferView": 21, "byteOffset": 0, "count": 96, "max": [0.9517499804496765, 0.9627670049667358, 0.9635609984397888], "min": [-0.9517499804496765, 0.2674340009689331, -0.9634079933166504]}, {"componentType": 5126, "type": "VEC3", "bufferView": 22, "byteOffset": 0, "count": 96, "max": [1.0, 1.0, 1.0], "min": [1.0, 1.0, 1.0]}, {"componentType": 5126, "type": "VEC2", "bufferView": 23, "byteOffset": 0, "count": 96, "max": [0.6291019916534424, 0.9965019822120667], "min": [0.00484299985691905, 0.6090909838676453]}, {"componentType": 5123, "type": "SCALAR", "bufferView": 24, "byteOffset": 0, "count": 192, "max": [95.0], "min": [0.0]}, {"componentType": 5126, "type": "VEC3", "bufferView": 25, "byteOffset": 0, "count": 64, "max": [9.56742000579834, 2.1152501106262207, 11.71310043334961], "min": [-9.56742000579834, 1.9029500484466553, -11.795900344848633]}, {"componentType": 5126, "type": "VEC3", "bufferView": 26, "byteOffset": 0, "count": 64, "max": [0.9838560223579407, 0.18265299499034882, 0.9887080192565918], "min": [-0.9831539988517761, -0.8363289833068848, -0.9894099831581116]}, {"componentType": 5126, "type": "VEC3", "bufferView": 27, "byteOffset": 0, "count": 64, "max": [1.0, 1.0, 1.0], "min": [1.0, 1.0, 1.0]}, {"componentType": 5126, "type": "VEC2", "bufferView": 28, "byteOffset": 0, "count": 64, "max": [0.0, 0.0], "min": [0.0, 0.0]}, {"componentType": 5123, "type": "SCALAR", "bufferView": 29, "byteOffset": 0, "count": 192, "max": [63.0], "min": [0.0]}, {"componentType": 5126, "type": "VEC3", "bufferView": 30, "byteOffset": 0, "count": 64, "max": [13.035699844360352, 3.421449899673462, 15.540800094604492], "min": [-12.949799537658691, 2.1152501106262207, -15.802300453186035]}, {"componentType": 5126, "type": "VEC3", "bufferView": 31, "byteOffset": 0, "count": 64, "max": [0.9838560223579407, 0.9595630168914795, 0.9887080192565918], "min": [-0.9831539988517761, 0.14496299624443054, -0.9894099831581116]}, {"componentType": 5126, "type": "VEC3", "bufferView": 32, "byteOffset": 0, "count": 64, "max": [1.0, 1.0, 1.0], "min": [1.0, 1.0, 1.0]}, {"componentType": 5126, "type": "VEC2", "bufferView": 33, "byteOffset": 0, "count": 64, "max": [0.0, 0.0], "min": [0.0, 0.0]}, {"componentType": 5123, "type": "SCALAR", "bufferView": 34, "byteOffset": 0, "count": 192, "max": [63.0], "min": [0.0]}, {"componentType": 5126, "type": "VEC3", "bufferView": 35, "byteOffset": 0, "count": 128, "max": [12.842100143432617, 5.262290000915527, 15.369000434875488], "min": [-12.842100143432617, 4.815690040588379, -15.471199989318848]}, {"componentType": 5126, "type": "VEC3", "bufferView": 36, "byteOffset": 0, "count": 128, "max": [1.0, 6.0999998822808266e-05, 1.0], "min": [-0.9999690055847168, -0.7854549884796143, -1.0]}, {"componentType": 5126, "type": "VEC3", "bufferView": 37, "byteOffset": 0, "count": 128, "max": [1.0, 1.0, 1.0], "min": [1.0, 1.0, 1.0]}, {"componentType": 5126, "type": "VEC2", "bufferView": 38, "byteOffset": 0, "count": 128, "max": [0.0, 0.0], "min": [0.0, 0.0]}, {"componentType": 5123, "type": "SCALAR", "bufferView": 39, "byteOffset": 0, "count": 576, "max": [127.0], "min": [0.0]}], "materials": [{"pbrMetallicRoughness": {"baseColorFactor": [0.011764705882352941, 0.011764705882352941, 0.011764705882352941, 1], "metallicFactor": 0, "roughnessFactor": 1}, "name": "Material.004"}, {"pbrMetallicRoughness": {"baseColorFactor": [0.2, 0.2, 0.2, 1], "metallicFactor": 0, "roughnessFactor": 1}, "name": "Material.003"}], "meshes": [{"primitives": [{"mode": 4, "attributes": {"POSITION": 0, "NORMAL": 1, "COLOR_0": 2, "TEXCOORD_0": 3}, "material": 0, "indices": 4}]}, {"primitives": [{"mode": 4, "attributes": {"POSITION": 5, "NORMAL": 6, "COLOR_0": 7, "TEXCOORD_0": 8}, "material": 1, "indices": 9}]}, {"primitives": [{"mode": 4, "attributes": {"POSITION": 10, "NORMAL": 11, "COLOR_0": 12, "TEXCOORD_0": 13}, "material": 0, "indices": 14}]}, {"primitives": [{"mode": 4, "attributes": {"POSITION": 15, "NORMAL": 16, "COLOR_0": 17, "TEXCOORD_0": 18}, "material": 1, "indices": 19}]}, {"primitives": [{"mode": 4, "attributes": {"POSITION": 20, "NORMAL": 21, "COLOR_0": 22, "TEXCOORD_0": 23}, "material": 0, "indices": 24}]}, {"primitives": [{"mode": 4, "attributes": {"POSITION": 25, "NORMAL": 26, "COLOR_0": 27, "TEXCOORD_0": 28}, "material": 1, "indices": 29}]}, {"primitives": [{"mode": 4, "attributes": {"POSITION": 30, "NORMAL": 31, "COLOR_0": 32, "TEXCOORD_0": 33}, "material": 0, "indices": 34}]}, {"primitives": [{"mode": 4, "attributes": {"POSITION": 35, "NORMAL": 36, "COLOR_0": 37, "TEXCOORD_0": 38}, "material": 1, "indices": 39}]}]}