{"asset": {"version": "2.0", "generator": "GLTFExporter"}, "scenes": [{"name": "AuxScene", "nodes": [36]}], "scene": 0, "nodes": [{"extras": {"mapFilename": null}, "mesh": 0}, {"extras": {"mapFilename": "pubs.jpg"}, "mesh": 1}, {"extras": {"mapFilename": null}, "mesh": 2}, {"extras": {"mapFilename": "pubs.jpg"}, "mesh": 3}, {"extras": {"mapFilename": null}, "mesh": 4}, {"extras": {"mapFilename": "pubs.jpg"}, "mesh": 5}, {"extras": {"mapFilename": null}, "mesh": 6}, {"extras": {"mapFilename": "pubs.jpg"}, "mesh": 7}, {"extras": {"mapFilename": null}, "mesh": 8}, {"extras": {"mapFilename": null}, "mesh": 9}, {"extras": {"mapFilename": "pubs.jpg"}, "mesh": 10}, {"extras": {"mapFilename": null}, "mesh": 11}, {"extras": {"mapFilename": "pubs.jpg"}, "mesh": 12}, {"extras": {"mapFilename": null}, "mesh": 13}, {"extras": {"mapFilename": "pubs.jpg"}, "mesh": 14}, {"extras": {"mapFilename": null}, "mesh": 15}, {"extras": {"mapFilename": "pubs.jpg"}, "mesh": 16}, {"extras": {"mapFilename": null}, "mesh": 17}, {"extras": {"mapFilename": null}, "mesh": 18}, {"extras": {"mapFilename": "pubs.jpg"}, "mesh": 19}, {"extras": {"mapFilename": null}, "mesh": 20}, {"extras": {"mapFilename": "pubs.jpg"}, "mesh": 21}, {"extras": {"mapFilename": "pubs.jpg"}, "mesh": 22}, {"extras": {"mapFilename": null}, "mesh": 23}, {"extras": {"mapFilename": "pubs.jpg"}, "mesh": 24}, {"extras": {"mapFilename": null}, "mesh": 25}, {"extras": {"mapFilename": null}, "mesh": 26}, {"extras": {"mapFilename": null}, "mesh": 27}, {"extras": {"mapFilename": "pubs.jpg"}, "mesh": 28}, {"extras": {"mapFilename": null}, "mesh": 29}, {"extras": {"mapFilename": "pubs.jpg"}, "mesh": 30}, {"extras": {"mapFilename": null}, "mesh": 31}, {"extras": {"mapFilename": null}, "mesh": 32}, {"extras": {"mapFilename": null}, "mesh": 33}, {"extras": {"mapFilename": null}, "mesh": 34}, {"extras": {"mapFilename": null}, "mesh": 35}, {"children": [0, 1, 2, 3, 4, 5, 6, 7, 8, 9, 10, 11, 12, 13, 14, 15, 16, 17, 18, 19, 20, 21, 22, 23, 24, 25, 26, 27, 28, 29, 30, 31, 32, 33, 34, 35]}], "bufferViews": [{"buffer": 0, "byteOffset": 0, "byteLength": 48}, {"buffer": 0, "byteOffset": 48, "byteLength": 48}, {"buffer": 0, "byteOffset": 96, "byteLength": 48}, {"buffer": 0, "byteOffset": 144, "byteLength": 32}, {"buffer": 0, "byteOffset": 176, "byteLength": 12}, {"buffer": 0, "byteOffset": 188, "byteLength": 216}, {"buffer": 0, "byteOffset": 404, "byteLength": 216}, {"buffer": 0, "byteOffset": 620, "byteLength": 216}, {"buffer": 0, "byteOffset": 836, "byteLength": 144}, {"buffer": 0, "byteOffset": 980, "byteLength": 72}, {"buffer": 0, "byteOffset": 1052, "byteLength": 96}, {"buffer": 0, "byteOffset": 1148, "byteLength": 96}, {"buffer": 0, "byteOffset": 1244, "byteLength": 96}, {"buffer": 0, "byteOffset": 1340, "byteLength": 64}, {"buffer": 0, "byteOffset": 1404, "byteLength": 24}, {"buffer": 0, "byteOffset": 1428, "byteLength": 168}, {"buffer": 0, "byteOffset": 1596, "byteLength": 168}, {"buffer": 0, "byteOffset": 1764, "byteLength": 168}, {"buffer": 0, "byteOffset": 1932, "byteLength": 112}, {"buffer": 0, "byteOffset": 2044, "byteLength": 72}, {"buffer": 0, "byteOffset": 2116, "byteLength": 96}, {"buffer": 0, "byteOffset": 2212, "byteLength": 96}, {"buffer": 0, "byteOffset": 2308, "byteLength": 96}, {"buffer": 0, "byteOffset": 2404, "byteLength": 64}, {"buffer": 0, "byteOffset": 2468, "byteLength": 24}, {"buffer": 0, "byteOffset": 2492, "byteLength": 216}, {"buffer": 0, "byteOffset": 2708, "byteLength": 216}, {"buffer": 0, "byteOffset": 2924, "byteLength": 216}, {"buffer": 0, "byteOffset": 3140, "byteLength": 144}, {"buffer": 0, "byteOffset": 3284, "byteLength": 72}, {"buffer": 0, "byteOffset": 3356, "byteLength": 96}, {"buffer": 0, "byteOffset": 3452, "byteLength": 96}, {"buffer": 0, "byteOffset": 3548, "byteLength": 96}, {"buffer": 0, "byteOffset": 3644, "byteLength": 64}, {"buffer": 0, "byteOffset": 3708, "byteLength": 24}, {"buffer": 0, "byteOffset": 3732, "byteLength": 168}, {"buffer": 0, "byteOffset": 3900, "byteLength": 168}, {"buffer": 0, "byteOffset": 4068, "byteLength": 168}, {"buffer": 0, "byteOffset": 4236, "byteLength": 112}, {"buffer": 0, "byteOffset": 4348, "byteLength": 72}, {"buffer": 0, "byteOffset": 4420, "byteLength": 132}, {"buffer": 0, "byteOffset": 4552, "byteLength": 132}, {"buffer": 0, "byteOffset": 4684, "byteLength": 132}, {"buffer": 0, "byteOffset": 4816, "byteLength": 88}, {"buffer": 0, "byteOffset": 4904, "byteLength": 36}, {"buffer": 0, "byteOffset": 4940, "byteLength": 48}, {"buffer": 0, "byteOffset": 4988, "byteLength": 48}, {"buffer": 0, "byteOffset": 5036, "byteLength": 48}, {"buffer": 0, "byteOffset": 5084, "byteLength": 32}, {"buffer": 0, "byteOffset": 5116, "byteLength": 12}, {"buffer": 0, "byteOffset": 5128, "byteLength": 216}, {"buffer": 0, "byteOffset": 5344, "byteLength": 216}, {"buffer": 0, "byteOffset": 5560, "byteLength": 216}, {"buffer": 0, "byteOffset": 5776, "byteLength": 144}, {"buffer": 0, "byteOffset": 5920, "byteLength": 72}, {"buffer": 0, "byteOffset": 5992, "byteLength": 96}, {"buffer": 0, "byteOffset": 6088, "byteLength": 96}, {"buffer": 0, "byteOffset": 6184, "byteLength": 96}, {"buffer": 0, "byteOffset": 6280, "byteLength": 64}, {"buffer": 0, "byteOffset": 6344, "byteLength": 24}, {"buffer": 0, "byteOffset": 6368, "byteLength": 168}, {"buffer": 0, "byteOffset": 6536, "byteLength": 168}, {"buffer": 0, "byteOffset": 6704, "byteLength": 168}, {"buffer": 0, "byteOffset": 6872, "byteLength": 112}, {"buffer": 0, "byteOffset": 6984, "byteLength": 72}, {"buffer": 0, "byteOffset": 7056, "byteLength": 96}, {"buffer": 0, "byteOffset": 7152, "byteLength": 96}, {"buffer": 0, "byteOffset": 7248, "byteLength": 96}, {"buffer": 0, "byteOffset": 7344, "byteLength": 64}, {"buffer": 0, "byteOffset": 7408, "byteLength": 24}, {"buffer": 0, "byteOffset": 7432, "byteLength": 216}, {"buffer": 0, "byteOffset": 7648, "byteLength": 216}, {"buffer": 0, "byteOffset": 7864, "byteLength": 216}, {"buffer": 0, "byteOffset": 8080, "byteLength": 144}, {"buffer": 0, "byteOffset": 8224, "byteLength": 72}, {"buffer": 0, "byteOffset": 8296, "byteLength": 96}, {"buffer": 0, "byteOffset": 8392, "byteLength": 96}, {"buffer": 0, "byteOffset": 8488, "byteLength": 96}, {"buffer": 0, "byteOffset": 8584, "byteLength": 64}, {"buffer": 0, "byteOffset": 8648, "byteLength": 24}, {"buffer": 0, "byteOffset": 8672, "byteLength": 168}, {"buffer": 0, "byteOffset": 8840, "byteLength": 168}, {"buffer": 0, "byteOffset": 9008, "byteLength": 168}, {"buffer": 0, "byteOffset": 9176, "byteLength": 112}, {"buffer": 0, "byteOffset": 9288, "byteLength": 72}, {"buffer": 0, "byteOffset": 9360, "byteLength": 132}, {"buffer": 0, "byteOffset": 9492, "byteLength": 132}, {"buffer": 0, "byteOffset": 9624, "byteLength": 132}, {"buffer": 0, "byteOffset": 9756, "byteLength": 88}, {"buffer": 0, "byteOffset": 9844, "byteLength": 36}, {"buffer": 0, "byteOffset": 9880, "byteLength": 96}, {"buffer": 0, "byteOffset": 9976, "byteLength": 96}, {"buffer": 0, "byteOffset": 10072, "byteLength": 96}, {"buffer": 0, "byteOffset": 10168, "byteLength": 64}, {"buffer": 0, "byteOffset": 10232, "byteLength": 24}, {"buffer": 0, "byteOffset": 10256, "byteLength": 1488}, {"buffer": 0, "byteOffset": 11744, "byteLength": 1488}, {"buffer": 0, "byteOffset": 13232, "byteLength": 1488}, {"buffer": 0, "byteOffset": 14720, "byteLength": 992}, {"buffer": 0, "byteOffset": 15712, "byteLength": 576}, {"buffer": 0, "byteOffset": 16288, "byteLength": 96}, {"buffer": 0, "byteOffset": 16384, "byteLength": 96}, {"buffer": 0, "byteOffset": 16480, "byteLength": 96}, {"buffer": 0, "byteOffset": 16576, "byteLength": 64}, {"buffer": 0, "byteOffset": 16640, "byteLength": 24}, {"buffer": 0, "byteOffset": 16664, "byteLength": 1488}, {"buffer": 0, "byteOffset": 18152, "byteLength": 1488}, {"buffer": 0, "byteOffset": 19640, "byteLength": 1488}, {"buffer": 0, "byteOffset": 21128, "byteLength": 992}, {"buffer": 0, "byteOffset": 22120, "byteLength": 576}, {"buffer": 0, "byteOffset": 22696, "byteLength": 192}, {"buffer": 0, "byteOffset": 22888, "byteLength": 192}, {"buffer": 0, "byteOffset": 23080, "byteLength": 192}, {"buffer": 0, "byteOffset": 23272, "byteLength": 128}, {"buffer": 0, "byteOffset": 23400, "byteLength": 48}, {"buffer": 0, "byteOffset": 23448, "byteLength": 576}, {"buffer": 0, "byteOffset": 24024, "byteLength": 576}, {"buffer": 0, "byteOffset": 24600, "byteLength": 576}, {"buffer": 0, "byteOffset": 25176, "byteLength": 384}, {"buffer": 0, "byteOffset": 25560, "byteLength": 480}, {"buffer": 0, "byteOffset": 26040, "byteLength": 192}, {"buffer": 0, "byteOffset": 26232, "byteLength": 192}, {"buffer": 0, "byteOffset": 26424, "byteLength": 192}, {"buffer": 0, "byteOffset": 26616, "byteLength": 128}, {"buffer": 0, "byteOffset": 26744, "byteLength": 48}, {"buffer": 0, "byteOffset": 26792, "byteLength": 576}, {"buffer": 0, "byteOffset": 27368, "byteLength": 576}, {"buffer": 0, "byteOffset": 27944, "byteLength": 576}, {"buffer": 0, "byteOffset": 28520, "byteLength": 384}, {"buffer": 0, "byteOffset": 28904, "byteLength": 480}, {"buffer": 0, "byteOffset": 29384, "byteLength": 384}, {"buffer": 0, "byteOffset": 29768, "byteLength": 384}, {"buffer": 0, "byteOffset": 30152, "byteLength": 384}, {"buffer": 0, "byteOffset": 30536, "byteLength": 256}, {"buffer": 0, "byteOffset": 30792, "byteLength": 360}, {"buffer": 0, "byteOffset": 31152, "byteLength": 384}, {"buffer": 0, "byteOffset": 31536, "byteLength": 384}, {"buffer": 0, "byteOffset": 31920, "byteLength": 384}, {"buffer": 0, "byteOffset": 32304, "byteLength": 256}, {"buffer": 0, "byteOffset": 32560, "byteLength": 360}, {"buffer": 0, "byteOffset": 32920, "byteLength": 192}, {"buffer": 0, "byteOffset": 33112, "byteLength": 192}, {"buffer": 0, "byteOffset": 33304, "byteLength": 192}, {"buffer": 0, "byteOffset": 33496, "byteLength": 128}, {"buffer": 0, "byteOffset": 33624, "byteLength": 48}, {"buffer": 0, "byteOffset": 33672, "byteLength": 576}, {"buffer": 0, "byteOffset": 34248, "byteLength": 576}, {"buffer": 0, "byteOffset": 34824, "byteLength": 576}, {"buffer": 0, "byteOffset": 35400, "byteLength": 384}, {"buffer": 0, "byteOffset": 35784, "byteLength": 480}, {"buffer": 0, "byteOffset": 36264, "byteLength": 192}, {"buffer": 0, "byteOffset": 36456, "byteLength": 192}, {"buffer": 0, "byteOffset": 36648, "byteLength": 192}, {"buffer": 0, "byteOffset": 36840, "byteLength": 128}, {"buffer": 0, "byteOffset": 36968, "byteLength": 48}, {"buffer": 0, "byteOffset": 37016, "byteLength": 576}, {"buffer": 0, "byteOffset": 37592, "byteLength": 576}, {"buffer": 0, "byteOffset": 38168, "byteLength": 576}, {"buffer": 0, "byteOffset": 38744, "byteLength": 384}, {"buffer": 0, "byteOffset": 39128, "byteLength": 480}, {"buffer": 0, "byteOffset": 39608, "byteLength": 144}, {"buffer": 0, "byteOffset": 39752, "byteLength": 144}, {"buffer": 0, "byteOffset": 39896, "byteLength": 144}, {"buffer": 0, "byteOffset": 40040, "byteLength": 96}, {"buffer": 0, "byteOffset": 40136, "byteLength": 120}, {"buffer": 0, "byteOffset": 40256, "byteLength": 144}, {"buffer": 0, "byteOffset": 40400, "byteLength": 144}, {"buffer": 0, "byteOffset": 40544, "byteLength": 144}, {"buffer": 0, "byteOffset": 40688, "byteLength": 96}, {"buffer": 0, "byteOffset": 40784, "byteLength": 120}, {"buffer": 0, "byteOffset": 40904, "byteLength": 144}, {"buffer": 0, "byteOffset": 41048, "byteLength": 144}, {"buffer": 0, "byteOffset": 41192, "byteLength": 144}, {"buffer": 0, "byteOffset": 41336, "byteLength": 96}, {"buffer": 0, "byteOffset": 41432, "byteLength": 120}, {"buffer": 0, "byteOffset": 41552, "byteLength": 144}, {"buffer": 0, "byteOffset": 41696, "byteLength": 144}, {"buffer": 0, "byteOffset": 41840, "byteLength": 144}, {"buffer": 0, "byteOffset": 41984, "byteLength": 96}, {"buffer": 0, "byteOffset": 42080, "byteLength": 120}], "buffers": [{"byteLength": 42200, "uri": "data:application/octet-stream;base64,"}], "accessors": [{"componentType": 5126, "type": "VEC3", "bufferView": 0, "byteOffset": 0, "count": 4, "max": [2.803489923477173, 0.4431850016117096, 4.957870006561279], "min": [2.3805201053619385, 0.13934199512004852, 4.929510116577148]}, {"componentType": 5126, "type": "VEC3", "bufferView": 1, "byteOffset": 0, "count": 4, "max": [0.5823850035667419, 0.7392190098762512, 0.7392190098762512], "min": [0.0, -0.6734210252761841, 0.5474410057067871]}, {"componentType": 5126, "type": "VEC3", "bufferView": 2, "byteOffset": 0, "count": 4, "max": [1.0, 1.0, 1.0], "min": [1.0, 1.0, 1.0]}, {"componentType": 5126, "type": "VEC2", "bufferView": 3, "byteOffset": 0, "count": 4, "max": [0.48030298948287964, 0.98403400182724], "min": [0.0026539999525994062, 0.528033971786499]}, {"componentType": 5123, "type": "SCALAR", "bufferView": 4, "byteOffset": 0, "count": 6, "max": [3.0], "min": [0.0]}, {"componentType": 5126, "type": "VEC3", "bufferView": 5, "byteOffset": 0, "count": 18, "max": [2.3805201053619385, 0.4431850016117096, 4.957870006561279], "min": [-2.383539915084839, 0.13934199512004852, 4.929510116577148]}, {"componentType": 5126, "type": "VEC3", "bufferView": 6, "byteOffset": 0, "count": 18, "max": [0.0, 0.7392190098762512, 0.7392190098762512], "min": [0.0, -0.6734210252761841, 0.6734210252761841]}, {"componentType": 5126, "type": "VEC3", "bufferView": 7, "byteOffset": 0, "count": 18, "max": [1.0, 1.0, 1.0], "min": [1.0, 1.0, 1.0]}, {"componentType": 5126, "type": "VEC2", "bufferView": 8, "byteOffset": 0, "count": 18, "max": [0.9876049757003784, 0.9855650067329407], "min": [0.0026539999525994062, 0.02878599986433983]}, {"componentType": 5123, "type": "SCALAR", "bufferView": 9, "byteOffset": 0, "count": 36, "max": [17.0], "min": [0.0]}, {"componentType": 5126, "type": "VEC3", "bufferView": 10, "byteOffset": 0, "count": 8, "max": [2.803489923477173, 0.4431850016117096, 4.957870006561279], "min": [-2.821660041809082, 0.13934199512004852, 4.882870197296143]}, {"componentType": 5126, "type": "VEC3", "bufferView": 11, "byteOffset": 0, "count": 8, "max": [0.5725880265235901, 0.7392190098762512, 0.7392190098762512], "min": [-0.5823850035667419, -0.6734210252761841, -0.7392190098762512]}, {"componentType": 5126, "type": "VEC3", "bufferView": 12, "byteOffset": 0, "count": 8, "max": [1.0, 1.0, 1.0], "min": [1.0, 1.0, 1.0]}, {"componentType": 5126, "type": "VEC2", "bufferView": 13, "byteOffset": 0, "count": 8, "max": [0.9579570293426514, 0.9874020218849182], "min": [0.0, 0.0]}, {"componentType": 5123, "type": "SCALAR", "bufferView": 14, "byteOffset": 0, "count": 12, "max": [7.0], "min": [0.0]}, {"componentType": 5126, "type": "VEC3", "bufferView": 15, "byteOffset": 0, "count": 14, "max": [2.3805201053619385, 0.13934199512004852, 4.957870006561279], "min": [-2.383539915084839, 0.13934199512004852, 4.882870197296143]}, {"componentType": 5126, "type": "VEC3", "bufferView": 16, "byteOffset": 0, "count": 14, "max": [0.0, -0.6734210252761841, 0.7392190098762512], "min": [0.0, -0.6734210252761841, -0.7392190098762512]}, {"componentType": 5126, "type": "VEC3", "bufferView": 17, "byteOffset": 0, "count": 14, "max": [1.0, 1.0, 1.0], "min": [1.0, 1.0, 1.0]}, {"componentType": 5126, "type": "VEC2", "bufferView": 18, "byteOffset": 0, "count": 14, "max": [0.0, 0.0], "min": [0.0, 0.0]}, {"componentType": 5123, "type": "SCALAR", "bufferView": 19, "byteOffset": 0, "count": 36, "max": [13.0], "min": [0.0]}, {"componentType": 5126, "type": "VEC3", "bufferView": 20, "byteOffset": 0, "count": 8, "max": [-2.383539915084839, 0.4431850016117096, 4.957870006561279], "min": [-2.821660041809082, 0.13934199512004852, 4.882870197296143]}, {"componentType": 5126, "type": "VEC3", "bufferView": 21, "byteOffset": 0, "count": 8, "max": [0.0, 0.7392190098762512, 0.7392190098762512], "min": [-0.5823850035667419, -0.6734210252761841, -0.7392190098762512]}, {"componentType": 5126, "type": "VEC3", "bufferView": 22, "byteOffset": 0, "count": 8, "max": [1.0, 1.0, 1.0], "min": [1.0, 1.0, 1.0]}, {"componentType": 5126, "type": "VEC2", "bufferView": 23, "byteOffset": 0, "count": 8, "max": [0.5120019912719727, 0.46998998522758484], "min": [0.0, 0.0]}, {"componentType": 5123, "type": "SCALAR", "bufferView": 24, "byteOffset": 0, "count": 12, "max": [7.0], "min": [0.0]}, {"componentType": 5126, "type": "VEC3", "bufferView": 25, "byteOffset": 0, "count": 18, "max": [2.3805201053619385, 0.4431850016117096, 4.911230087280273], "min": [-2.383539915084839, 0.13934199512004852, 4.882870197296143]}, {"componentType": 5126, "type": "VEC3", "bufferView": 26, "byteOffset": 0, "count": 18, "max": [0.0, 0.7392190098762512, -0.6734210252761841], "min": [0.0, -0.6734210252761841, -0.7392190098762512]}, {"componentType": 5126, "type": "VEC3", "bufferView": 27, "byteOffset": 0, "count": 18, "max": [1.0, 1.0, 1.0], "min": [1.0, 1.0, 1.0]}, {"componentType": 5126, "type": "VEC2", "bufferView": 28, "byteOffset": 0, "count": 18, "max": [0.9692260026931763, 0.9876070022583008], "min": [0.009057999588549137, 0.014909000135958195]}, {"componentType": 5123, "type": "SCALAR", "bufferView": 29, "byteOffset": 0, "count": 36, "max": [17.0], "min": [0.0]}, {"componentType": 5126, "type": "VEC3", "bufferView": 30, "byteOffset": 0, "count": 8, "max": [2.803489923477173, 0.4431850016117096, 4.929510116577148], "min": [2.3805201053619385, 0.13934199512004852, 4.882870197296143]}, {"componentType": 5126, "type": "VEC3", "bufferView": 31, "byteOffset": 0, "count": 8, "max": [0.5823850035667419, 0.7392190098762512, 0.6734210252761841], "min": [0.0, -0.6734210252761841, -0.7392190098762512]}, {"componentType": 5126, "type": "VEC3", "bufferView": 32, "byteOffset": 0, "count": 8, "max": [1.0, 1.0, 1.0], "min": [1.0, 1.0, 1.0]}, {"componentType": 5126, "type": "VEC2", "bufferView": 33, "byteOffset": 0, "count": 8, "max": [0.9692260026931763, 0.46998998522758484], "min": [0.0, 0.0]}, {"componentType": 5123, "type": "SCALAR", "bufferView": 34, "byteOffset": 0, "count": 12, "max": [7.0], "min": [0.0]}, {"componentType": 5126, "type": "VEC3", "bufferView": 35, "byteOffset": 0, "count": 14, "max": [2.3805201053619385, 0.4431850016117096, 4.929510116577148], "min": [-2.383539915084839, 0.4431850016117096, 4.911230087280273]}, {"componentType": 5126, "type": "VEC3", "bufferView": 36, "byteOffset": 0, "count": 14, "max": [0.0, 0.7392190098762512, 0.6734210252761841], "min": [0.0, 0.7392190098762512, -0.6734210252761841]}, {"componentType": 5126, "type": "VEC3", "bufferView": 37, "byteOffset": 0, "count": 14, "max": [1.0, 1.0, 1.0], "min": [1.0, 1.0, 1.0]}, {"componentType": 5126, "type": "VEC2", "bufferView": 38, "byteOffset": 0, "count": 14, "max": [0.0, 0.0], "min": [0.0, 0.0]}, {"componentType": 5123, "type": "SCALAR", "bufferView": 39, "byteOffset": 0, "count": 36, "max": [13.0], "min": [0.0]}, {"componentType": 5126, "type": "VEC3", "bufferView": 40, "byteOffset": 0, "count": 11, "max": [2.803489923477173, 0.4431850016117096, 4.957870006561279], "min": [-2.821660041809082, 0.13934199512004852, 4.882870197296143]}, {"componentType": 5126, "type": "VEC3", "bufferView": 41, "byteOffset": 0, "count": 11, "max": [0.5823850035667419, 0.7392190098762512, 0.6734210252761841], "min": [-0.5823850035667419, -0.5521100163459778, -0.6734210252761841]}, {"componentType": 5126, "type": "VEC3", "bufferView": 42, "byteOffset": 0, "count": 11, "max": [1.0, 1.0, 1.0], "min": [1.0, 1.0, 1.0]}, {"componentType": 5126, "type": "VEC2", "bufferView": 43, "byteOffset": 0, "count": 11, "max": [0.5120019912719727, 0.98403400182724], "min": [0.0, 0.0]}, {"componentType": 5123, "type": "SCALAR", "bufferView": 44, "byteOffset": 0, "count": 18, "max": [10.0], "min": [0.0]}, {"componentType": 5126, "type": "VEC3", "bufferView": 45, "byteOffset": 0, "count": 4, "max": [-2.3805201053619385, 0.4431850016117096, -4.9273600578308105], "min": [-2.803489923477173, 0.13934199512004852, -4.955719947814941]}, {"componentType": 5126, "type": "VEC3", "bufferView": 46, "byteOffset": 0, "count": 4, "max": [0.0, 0.7392190098762512, -0.5474410057067871], "min": [-0.5823850035667419, -0.6734210252761841, -0.7392190098762512]}, {"componentType": 5126, "type": "VEC3", "bufferView": 47, "byteOffset": 0, "count": 4, "max": [1.0, 1.0, 1.0], "min": [1.0, 1.0, 1.0]}, {"componentType": 5126, "type": "VEC2", "bufferView": 48, "byteOffset": 0, "count": 4, "max": [0.48030298948287964, 0.98403400182724], "min": [0.0026539999525994062, 0.528033971786499]}, {"componentType": 5123, "type": "SCALAR", "bufferView": 49, "byteOffset": 0, "count": 6, "max": [3.0], "min": [0.0]}, {"componentType": 5126, "type": "VEC3", "bufferView": 50, "byteOffset": 0, "count": 18, "max": [2.383539915084839, 0.4431850016117096, -4.927350044250488], "min": [-2.3805201053619385, 0.13934199512004852, -4.955719947814941]}, {"componentType": 5126, "type": "VEC3", "bufferView": 51, "byteOffset": 0, "count": 18, "max": [0.0, 0.7392190098762512, -0.6734210252761841], "min": [0.0, -0.6734210252761841, -0.7392190098762512]}, {"componentType": 5126, "type": "VEC3", "bufferView": 52, "byteOffset": 0, "count": 18, "max": [1.0, 1.0, 1.0], "min": [1.0, 1.0, 1.0]}, {"componentType": 5126, "type": "VEC2", "bufferView": 53, "byteOffset": 0, "count": 18, "max": [0.9876049757003784, 0.9855650067329407], "min": [0.0026539999525994062, 0.02878599986433983]}, {"componentType": 5123, "type": "SCALAR", "bufferView": 54, "byteOffset": 0, "count": 36, "max": [17.0], "min": [0.0]}, {"componentType": 5126, "type": "VEC3", "bufferView": 55, "byteOffset": 0, "count": 8, "max": [2.821660041809082, 0.4431850016117096, -4.880710124969482], "min": [-2.803489923477173, 0.13934199512004852, -4.955719947814941]}, {"componentType": 5126, "type": "VEC3", "bufferView": 56, "byteOffset": 0, "count": 8, "max": [0.5823850035667419, 0.7392190098762512, 0.7392190098762512], "min": [-0.5725880265235901, -0.6734210252761841, -0.7392190098762512]}, {"componentType": 5126, "type": "VEC3", "bufferView": 57, "byteOffset": 0, "count": 8, "max": [1.0, 1.0, 1.0], "min": [1.0, 1.0, 1.0]}, {"componentType": 5126, "type": "VEC2", "bufferView": 58, "byteOffset": 0, "count": 8, "max": [0.9579570293426514, 0.9874020218849182], "min": [0.0, 0.0]}, {"componentType": 5123, "type": "SCALAR", "bufferView": 59, "byteOffset": 0, "count": 12, "max": [7.0], "min": [0.0]}, {"componentType": 5126, "type": "VEC3", "bufferView": 60, "byteOffset": 0, "count": 14, "max": [2.383539915084839, 0.13934199512004852, -4.880710124969482], "min": [-2.3805201053619385, 0.13934199512004852, -4.955719947814941]}, {"componentType": 5126, "type": "VEC3", "bufferView": 61, "byteOffset": 0, "count": 14, "max": [0.0, -0.6734210252761841, 0.7392190098762512], "min": [0.0, -0.6734210252761841, -0.7392190098762512]}, {"componentType": 5126, "type": "VEC3", "bufferView": 62, "byteOffset": 0, "count": 14, "max": [1.0, 1.0, 1.0], "min": [1.0, 1.0, 1.0]}, {"componentType": 5126, "type": "VEC2", "bufferView": 63, "byteOffset": 0, "count": 14, "max": [0.0, 0.0], "min": [0.0, 0.0]}, {"componentType": 5123, "type": "SCALAR", "bufferView": 64, "byteOffset": 0, "count": 36, "max": [13.0], "min": [0.0]}, {"componentType": 5126, "type": "VEC3", "bufferView": 65, "byteOffset": 0, "count": 8, "max": [2.821660041809082, 0.4431850016117096, -4.880710124969482], "min": [2.383539915084839, 0.13934199512004852, -4.955719947814941]}, {"componentType": 5126, "type": "VEC3", "bufferView": 66, "byteOffset": 0, "count": 8, "max": [0.5823850035667419, 0.7392190098762512, 0.7392190098762512], "min": [0.0, -0.6734210252761841, -0.7392190098762512]}, {"componentType": 5126, "type": "VEC3", "bufferView": 67, "byteOffset": 0, "count": 8, "max": [1.0, 1.0, 1.0], "min": [1.0, 1.0, 1.0]}, {"componentType": 5126, "type": "VEC2", "bufferView": 68, "byteOffset": 0, "count": 8, "max": [0.5120019912719727, 0.46998998522758484], "min": [0.0, 0.0]}, {"componentType": 5123, "type": "SCALAR", "bufferView": 69, "byteOffset": 0, "count": 12, "max": [7.0], "min": [0.0]}, {"componentType": 5126, "type": "VEC3", "bufferView": 70, "byteOffset": 0, "count": 18, "max": [2.383539915084839, 0.4431850016117096, -4.880710124969482], "min": [-2.3805201053619385, 0.13934199512004852, -4.909070014953613]}, {"componentType": 5126, "type": "VEC3", "bufferView": 71, "byteOffset": 0, "count": 18, "max": [0.0, 0.7392190098762512, 0.7392190098762512], "min": [0.0, -0.6734210252761841, 0.6734210252761841]}, {"componentType": 5126, "type": "VEC3", "bufferView": 72, "byteOffset": 0, "count": 18, "max": [1.0, 1.0, 1.0], "min": [1.0, 1.0, 1.0]}, {"componentType": 5126, "type": "VEC2", "bufferView": 73, "byteOffset": 0, "count": 18, "max": [0.9692260026931763, 0.9876070022583008], "min": [0.009057999588549137, 0.014909000135958195]}, {"componentType": 5123, "type": "SCALAR", "bufferView": 74, "byteOffset": 0, "count": 36, "max": [17.0], "min": [0.0]}, {"componentType": 5126, "type": "VEC3", "bufferView": 75, "byteOffset": 0, "count": 8, "max": [-2.3805201053619385, 0.4431850016117096, -4.880710124969482], "min": [-2.803489923477173, 0.13934199512004852, -4.9273600578308105]}, {"componentType": 5126, "type": "VEC3", "bufferView": 76, "byteOffset": 0, "count": 8, "max": [0.0, 0.7392190098762512, 0.7392190098762512], "min": [-0.5823850035667419, -0.6734210252761841, -0.6734210252761841]}, {"componentType": 5126, "type": "VEC3", "bufferView": 77, "byteOffset": 0, "count": 8, "max": [1.0, 1.0, 1.0], "min": [1.0, 1.0, 1.0]}, {"componentType": 5126, "type": "VEC2", "bufferView": 78, "byteOffset": 0, "count": 8, "max": [0.9692260026931763, 0.46998998522758484], "min": [0.0, 0.0]}, {"componentType": 5123, "type": "SCALAR", "bufferView": 79, "byteOffset": 0, "count": 12, "max": [7.0], "min": [0.0]}, {"componentType": 5126, "type": "VEC3", "bufferView": 80, "byteOffset": 0, "count": 14, "max": [2.383539915084839, 0.4431850016117096, -4.909070014953613], "min": [-2.3805201053619385, 0.4431850016117096, -4.9273600578308105]}, {"componentType": 5126, "type": "VEC3", "bufferView": 81, "byteOffset": 0, "count": 14, "max": [0.0, 0.7392190098762512, 0.6734210252761841], "min": [0.0, 0.7392190098762512, -0.6734210252761841]}, {"componentType": 5126, "type": "VEC3", "bufferView": 82, "byteOffset": 0, "count": 14, "max": [1.0, 1.0, 1.0], "min": [1.0, 1.0, 1.0]}, {"componentType": 5126, "type": "VEC2", "bufferView": 83, "byteOffset": 0, "count": 14, "max": [0.0, 0.0], "min": [0.0, 0.0]}, {"componentType": 5123, "type": "SCALAR", "bufferView": 84, "byteOffset": 0, "count": 36, "max": [13.0], "min": [0.0]}, {"componentType": 5126, "type": "VEC3", "bufferView": 85, "byteOffset": 0, "count": 11, "max": [2.821660041809082, 0.4431850016117096, -4.880710124969482], "min": [-2.803489923477173, 0.13934199512004852, -4.955719947814941]}, {"componentType": 5126, "type": "VEC3", "bufferView": 86, "byteOffset": 0, "count": 11, "max": [0.5823850035667419, 0.7392190098762512, 0.6734210252761841], "min": [-0.5823850035667419, -0.552079975605011, -0.6734210252761841]}, {"componentType": 5126, "type": "VEC3", "bufferView": 87, "byteOffset": 0, "count": 11, "max": [1.0, 1.0, 1.0], "min": [1.0, 1.0, 1.0]}, {"componentType": 5126, "type": "VEC2", "bufferView": 88, "byteOffset": 0, "count": 11, "max": [0.5120019912719727, 0.98403400182724], "min": [0.0, 0.0]}, {"componentType": 5123, "type": "SCALAR", "bufferView": 89, "byteOffset": 0, "count": 18, "max": [10.0], "min": [0.0]}, {"componentType": 5126, "type": "VEC3", "bufferView": 90, "byteOffset": 0, "count": 8, "max": [-2.9625000953674316, 0.4431850016117096, 4.764050006866455], "min": [-3.0374999046325684, 0.13934199512004852, -4.764050006866455]}, {"componentType": 5126, "type": "VEC3", "bufferView": 91, "byteOffset": 0, "count": 8, "max": [0.6060370206832886, 0.6009089946746826, 0.5823850035667419], "min": [-0.6060370206832886, -0.552079975605011, -0.5823850035667419]}, {"componentType": 5126, "type": "VEC3", "bufferView": 92, "byteOffset": 0, "count": 8, "max": [1.0, 1.0, 1.0], "min": [1.0, 1.0, 1.0]}, {"componentType": 5126, "type": "VEC2", "bufferView": 93, "byteOffset": 0, "count": 8, "max": [0.0, 0.0], "min": [0.0, 0.0]}, {"componentType": 5123, "type": "SCALAR", "bufferView": 94, "byteOffset": 0, "count": 12, "max": [7.0], "min": [0.0]}, {"componentType": 5126, "type": "VEC3", "bufferView": 95, "byteOffset": 0, "count": 124, "max": [-2.9625000953674316, 0.4431850016117096, 4.764050006866455], "min": [-3.0374999046325684, 0.13934199512004852, -4.764050006866455]}, {"componentType": 5126, "type": "VEC3", "bufferView": 96, "byteOffset": 0, "count": 124, "max": [0.7392190098762512, 0.7392190098762512, 0.5823850035667419], "min": [-0.7392190098762512, -0.6734210252761841, -0.5823850035667419]}, {"componentType": 5126, "type": "VEC3", "bufferView": 97, "byteOffset": 0, "count": 124, "max": [1.0, 1.0, 1.0], "min": [1.0, 1.0, 1.0]}, {"componentType": 5126, "type": "VEC2", "bufferView": 98, "byteOffset": 0, "count": 124, "max": [0.9876049757003784, 0.9876070022583008], "min": [0.0, 0.0]}, {"componentType": 5123, "type": "SCALAR", "bufferView": 99, "byteOffset": 0, "count": 288, "max": [123.0], "min": [0.0]}, {"componentType": 5126, "type": "VEC3", "bufferView": 100, "byteOffset": 0, "count": 8, "max": [3.0374999046325684, 0.4431850016117096, 4.764050006866455], "min": [2.9625000953674316, 0.13934199512004852, -4.764050006866455]}, {"componentType": 5126, "type": "VEC3", "bufferView": 101, "byteOffset": 0, "count": 8, "max": [0.6060370206832886, 0.6009089946746826, 0.5823850035667419], "min": [-0.6060370206832886, -0.552079975605011, -0.5823850035667419]}, {"componentType": 5126, "type": "VEC3", "bufferView": 102, "byteOffset": 0, "count": 8, "max": [1.0, 1.0, 1.0], "min": [1.0, 1.0, 1.0]}, {"componentType": 5126, "type": "VEC2", "bufferView": 103, "byteOffset": 0, "count": 8, "max": [0.0, 0.0], "min": [0.0, 0.0]}, {"componentType": 5123, "type": "SCALAR", "bufferView": 104, "byteOffset": 0, "count": 12, "max": [7.0], "min": [0.0]}, {"componentType": 5126, "type": "VEC3", "bufferView": 105, "byteOffset": 0, "count": 124, "max": [3.0374999046325684, 0.4431850016117096, 4.764050006866455], "min": [2.9625000953674316, 0.13934199512004852, -4.764050006866455]}, {"componentType": 5126, "type": "VEC3", "bufferView": 106, "byteOffset": 0, "count": 124, "max": [0.7392190098762512, 0.7392190098762512, 0.5823850035667419], "min": [-0.7392190098762512, -0.6734210252761841, -0.5823850035667419]}, {"componentType": 5126, "type": "VEC3", "bufferView": 107, "byteOffset": 0, "count": 124, "max": [1.0, 1.0, 1.0], "min": [1.0, 1.0, 1.0]}, {"componentType": 5126, "type": "VEC2", "bufferView": 108, "byteOffset": 0, "count": 124, "max": [0.9876049757003784, 0.9876070022583008], "min": [0.0, 0.0]}, {"componentType": 5123, "type": "SCALAR", "bufferView": 109, "byteOffset": 0, "count": 288, "max": [123.0], "min": [0.0]}, {"componentType": 5126, "type": "VEC3", "bufferView": 110, "byteOffset": 0, "count": 16, "max": [-0.34290701150894165, 0.4695509970188141, 4.050149917602539], "min": [-0.4390980005264282, 0.16457299888134003, 3.9539599418640137]}, {"componentType": 5126, "type": "VEC3", "bufferView": 111, "byteOffset": 0, "count": 16, "max": [0.6012759804725647, 0.526199996471405, 0.6012759804725647], "min": [-0.6012759804725647, -0.5773490071296692, -0.6012759804725647]}, {"componentType": 5126, "type": "VEC3", "bufferView": 112, "byteOffset": 0, "count": 16, "max": [1.0, 1.0, 1.0], "min": [1.0, 1.0, 1.0]}, {"componentType": 5126, "type": "VEC2", "bufferView": 113, "byteOffset": 0, "count": 16, "max": [0.8047630190849304, 0.9999560117721558], "min": [0.19709399342536926, 0.0019330000504851341]}, {"componentType": 5123, "type": "SCALAR", "bufferView": 114, "byteOffset": 0, "count": 24, "max": [15.0], "min": [0.0]}, {"componentType": 5126, "type": "VEC3", "bufferView": 115, "byteOffset": 0, "count": 48, "max": [-0.34290701150894165, 1.692770004272461, 4.050149917602539], "min": [-0.4390980005264282, 0.16457299888134003, 3.9539599418640137]}, {"componentType": 5126, "type": "VEC3", "bufferView": 116, "byteOffset": 0, "count": 48, "max": [0.7461779713630676, 0.9561750292778015, 0.7461779713630676], "min": [-0.7461779713630676, -0.6657000184059143, -0.7461779713630676]}, {"componentType": 5126, "type": "VEC3", "bufferView": 117, "byteOffset": 0, "count": 48, "max": [1.0, 1.0, 1.0], "min": [1.0, 1.0, 1.0]}, {"componentType": 5126, "type": "VEC2", "bufferView": 118, "byteOffset": 0, "count": 48, "max": [0.0, 0.0], "min": [0.0, 0.0]}, {"componentType": 5123, "type": "SCALAR", "bufferView": 119, "byteOffset": 0, "count": 240, "max": [47.0], "min": [0.0]}, {"componentType": 5126, "type": "VEC3", "bufferView": 120, "byteOffset": 0, "count": 16, "max": [0.46113699674606323, 0.4695509970188141, 4.050149917602539], "min": [0.36494600772857666, 0.16457299888134003, 3.9539599418640137]}, {"componentType": 5126, "type": "VEC3", "bufferView": 121, "byteOffset": 0, "count": 16, "max": [0.6012759804725647, 0.526199996471405, 0.6012759804725647], "min": [-0.6012759804725647, -0.5773490071296692, -0.6012759804725647]}, {"componentType": 5126, "type": "VEC3", "bufferView": 122, "byteOffset": 0, "count": 16, "max": [1.0, 1.0, 1.0], "min": [1.0, 1.0, 1.0]}, {"componentType": 5126, "type": "VEC2", "bufferView": 123, "byteOffset": 0, "count": 16, "max": [0.8047630190849304, 0.9999560117721558], "min": [0.19709399342536926, 0.0019330000504851341]}, {"componentType": 5123, "type": "SCALAR", "bufferView": 124, "byteOffset": 0, "count": 24, "max": [15.0], "min": [0.0]}, {"componentType": 5126, "type": "VEC3", "bufferView": 125, "byteOffset": 0, "count": 48, "max": [0.46113699674606323, 1.692770004272461, 4.050149917602539], "min": [0.36494600772857666, 0.16457299888134003, 3.9539599418640137]}, {"componentType": 5126, "type": "VEC3", "bufferView": 126, "byteOffset": 0, "count": 48, "max": [0.7461779713630676, 0.9561750292778015, 0.7461779713630676], "min": [-0.7461779713630676, -0.6657000184059143, -0.7461779713630676]}, {"componentType": 5126, "type": "VEC3", "bufferView": 127, "byteOffset": 0, "count": 48, "max": [1.0, 1.0, 1.0], "min": [1.0, 1.0, 1.0]}, {"componentType": 5126, "type": "VEC2", "bufferView": 128, "byteOffset": 0, "count": 48, "max": [0.0, 0.0], "min": [0.0, 0.0]}, {"componentType": 5123, "type": "SCALAR", "bufferView": 129, "byteOffset": 0, "count": 240, "max": [47.0], "min": [0.0]}, {"componentType": 5126, "type": "VEC3", "bufferView": 130, "byteOffset": 0, "count": 32, "max": [0.3993290066719055, 0.7167999744415283, 4.013969898223877], "min": [-0.386678010225296, 0.6916379928588867, 3.9888100624084473]}, {"componentType": 5126, "type": "VEC3", "bufferView": 131, "byteOffset": 0, "count": 32, "max": [0.6657000184059143, 0.7461779713630676, 0.7462080121040344], "min": [-0.6657000184059143, -0.7461779713630676, -0.7461779713630676]}, {"componentType": 5126, "type": "VEC3", "bufferView": 132, "byteOffset": 0, "count": 32, "max": [1.0, 1.0, 1.0], "min": [1.0, 1.0, 1.0]}, {"componentType": 5126, "type": "VEC2", "bufferView": 133, "byteOffset": 0, "count": 32, "max": [0.0, 0.0], "min": [0.0, 0.0]}, {"componentType": 5123, "type": "SCALAR", "bufferView": 134, "byteOffset": 0, "count": 180, "max": [31.0], "min": [0.0]}, {"componentType": 5126, "type": "VEC3", "bufferView": 135, "byteOffset": 0, "count": 32, "max": [0.3993290066719055, 0.7167999744415283, -4.004069805145264], "min": [-0.386678010225296, 0.6916379928588867, -4.029230117797852]}, {"componentType": 5126, "type": "VEC3", "bufferView": 136, "byteOffset": 0, "count": 32, "max": [0.6657000184059143, 0.7461779713630676, 0.7462080121040344], "min": [-0.6657000184059143, -0.7461779713630676, -0.7461779713630676]}, {"componentType": 5126, "type": "VEC3", "bufferView": 137, "byteOffset": 0, "count": 32, "max": [1.0, 1.0, 1.0], "min": [1.0, 1.0, 1.0]}, {"componentType": 5126, "type": "VEC2", "bufferView": 138, "byteOffset": 0, "count": 32, "max": [0.0, 0.0], "min": [0.0, 0.0]}, {"componentType": 5123, "type": "SCALAR", "bufferView": 139, "byteOffset": 0, "count": 180, "max": [31.0], "min": [0.0]}, {"componentType": 5126, "type": "VEC3", "bufferView": 140, "byteOffset": 0, "count": 16, "max": [0.46113699674606323, 0.4695509970188141, -3.9678900241851807], "min": [0.36494600772857666, 0.16457299888134003, -4.064080238342285]}, {"componentType": 5126, "type": "VEC3", "bufferView": 141, "byteOffset": 0, "count": 16, "max": [0.6012759804725647, 0.526199996471405, 0.6012759804725647], "min": [-0.6012759804725647, -0.5773490071296692, -0.6012759804725647]}, {"componentType": 5126, "type": "VEC3", "bufferView": 142, "byteOffset": 0, "count": 16, "max": [1.0, 1.0, 1.0], "min": [1.0, 1.0, 1.0]}, {"componentType": 5126, "type": "VEC2", "bufferView": 143, "byteOffset": 0, "count": 16, "max": [0.8047630190849304, 0.9999560117721558], "min": [0.19709399342536926, 0.0019330000504851341]}, {"componentType": 5123, "type": "SCALAR", "bufferView": 144, "byteOffset": 0, "count": 24, "max": [15.0], "min": [0.0]}, {"componentType": 5126, "type": "VEC3", "bufferView": 145, "byteOffset": 0, "count": 48, "max": [0.46113699674606323, 1.692770004272461, -3.9678900241851807], "min": [0.36494600772857666, 0.16457299888134003, -4.064080238342285]}, {"componentType": 5126, "type": "VEC3", "bufferView": 146, "byteOffset": 0, "count": 48, "max": [0.7461779713630676, 0.9561750292778015, 0.7461779713630676], "min": [-0.7461779713630676, -0.6657000184059143, -0.7461779713630676]}, {"componentType": 5126, "type": "VEC3", "bufferView": 147, "byteOffset": 0, "count": 48, "max": [1.0, 1.0, 1.0], "min": [1.0, 1.0, 1.0]}, {"componentType": 5126, "type": "VEC2", "bufferView": 148, "byteOffset": 0, "count": 48, "max": [0.0, 0.0], "min": [0.0, 0.0]}, {"componentType": 5123, "type": "SCALAR", "bufferView": 149, "byteOffset": 0, "count": 240, "max": [47.0], "min": [0.0]}, {"componentType": 5126, "type": "VEC3", "bufferView": 150, "byteOffset": 0, "count": 16, "max": [-0.34290701150894165, 0.4695509970188141, -3.9678900241851807], "min": [-0.4390980005264282, 0.16457299888134003, -4.064080238342285]}, {"componentType": 5126, "type": "VEC3", "bufferView": 151, "byteOffset": 0, "count": 16, "max": [0.6012759804725647, 0.526199996471405, 0.6012759804725647], "min": [-0.6012759804725647, -0.5773490071296692, -0.6012759804725647]}, {"componentType": 5126, "type": "VEC3", "bufferView": 152, "byteOffset": 0, "count": 16, "max": [1.0, 1.0, 1.0], "min": [1.0, 1.0, 1.0]}, {"componentType": 5126, "type": "VEC2", "bufferView": 153, "byteOffset": 0, "count": 16, "max": [0.8047630190849304, 0.9999560117721558], "min": [0.19709399342536926, 0.0019330000504851341]}, {"componentType": 5123, "type": "SCALAR", "bufferView": 154, "byteOffset": 0, "count": 24, "max": [15.0], "min": [0.0]}, {"componentType": 5126, "type": "VEC3", "bufferView": 155, "byteOffset": 0, "count": 48, "max": [-0.34290701150894165, 1.692770004272461, -3.9678900241851807], "min": [-0.4390980005264282, 0.16457299888134003, -4.064080238342285]}, {"componentType": 5126, "type": "VEC3", "bufferView": 156, "byteOffset": 0, "count": 48, "max": [0.7461779713630676, 0.9561750292778015, 0.7461779713630676], "min": [-0.7461779713630676, -0.6657000184059143, -0.7461779713630676]}, {"componentType": 5126, "type": "VEC3", "bufferView": 157, "byteOffset": 0, "count": 48, "max": [1.0, 1.0, 1.0], "min": [1.0, 1.0, 1.0]}, {"componentType": 5126, "type": "VEC2", "bufferView": 158, "byteOffset": 0, "count": 48, "max": [0.0, 0.0], "min": [0.0, 0.0]}, {"componentType": 5123, "type": "SCALAR", "bufferView": 159, "byteOffset": 0, "count": 240, "max": [47.0], "min": [0.0]}, {"componentType": 5126, "type": "VEC3", "bufferView": 160, "byteOffset": 0, "count": 12, "max": [-1.9893300533294678, 0.5356940031051636, -4.00777006149292], "min": [-2.003380060195923, 0.12782299518585205, -4.023990154266357]}, {"componentType": 5126, "type": "VEC3", "bufferView": 161, "byteOffset": 0, "count": 12, "max": [0.6862390041351318, 0.6099730134010315, 0.7923830151557922], "min": [-0.6862390041351318, -0.6099730134010315, -0.7923830151557922]}, {"componentType": 5126, "type": "VEC3", "bufferView": 162, "byteOffset": 0, "count": 12, "max": [1.0, 1.0, 1.0], "min": [1.0, 1.0, 1.0]}, {"componentType": 5126, "type": "VEC2", "bufferView": 163, "byteOffset": 0, "count": 12, "max": [0.0, 0.0], "min": [0.0, 0.0]}, {"componentType": 5123, "type": "SCALAR", "bufferView": 164, "byteOffset": 0, "count": 60, "max": [11.0], "min": [0.0]}, {"componentType": 5126, "type": "VEC3", "bufferView": 165, "byteOffset": 0, "count": 12, "max": [2.001800060272217, 0.5356940031051636, -4.00777006149292], "min": [1.9877500534057617, 0.12782299518585205, -4.023990154266357]}, {"componentType": 5126, "type": "VEC3", "bufferView": 166, "byteOffset": 0, "count": 12, "max": [0.6862390041351318, 0.6099730134010315, 0.7923830151557922], "min": [-0.6862390041351318, -0.6099730134010315, -0.7923830151557922]}, {"componentType": 5126, "type": "VEC3", "bufferView": 167, "byteOffset": 0, "count": 12, "max": [1.0, 1.0, 1.0], "min": [1.0, 1.0, 1.0]}, {"componentType": 5126, "type": "VEC2", "bufferView": 168, "byteOffset": 0, "count": 12, "max": [0.0, 0.0], "min": [0.0, 0.0]}, {"componentType": 5123, "type": "SCALAR", "bufferView": 169, "byteOffset": 0, "count": 60, "max": [11.0], "min": [0.0]}, {"componentType": 5126, "type": "VEC3", "bufferView": 170, "byteOffset": 0, "count": 12, "max": [-1.999690055847168, 0.5356940031051636, 4.021920204162598], "min": [-2.013730049133301, 0.12782299518585205, 4.00570011138916]}, {"componentType": 5126, "type": "VEC3", "bufferView": 171, "byteOffset": 0, "count": 12, "max": [0.6862390041351318, 0.6099730134010315, 0.7923830151557922], "min": [-0.6862390041351318, -0.6099730134010315, -0.7923830151557922]}, {"componentType": 5126, "type": "VEC3", "bufferView": 172, "byteOffset": 0, "count": 12, "max": [1.0, 1.0, 1.0], "min": [1.0, 1.0, 1.0]}, {"componentType": 5126, "type": "VEC2", "bufferView": 173, "byteOffset": 0, "count": 12, "max": [0.0, 0.0], "min": [0.0, 0.0]}, {"componentType": 5123, "type": "SCALAR", "bufferView": 174, "byteOffset": 0, "count": 60, "max": [11.0], "min": [0.0]}, {"componentType": 5126, "type": "VEC3", "bufferView": 175, "byteOffset": 0, "count": 12, "max": [1.9988000392913818, 0.5356940031051636, 4.021920204162598], "min": [1.984760046005249, 0.12782299518585205, 4.00570011138916]}, {"componentType": 5126, "type": "VEC3", "bufferView": 176, "byteOffset": 0, "count": 12, "max": [0.6862390041351318, 0.6099730134010315, 0.7923830151557922], "min": [-0.6862390041351318, -0.6099730134010315, -0.7923830151557922]}, {"componentType": 5126, "type": "VEC3", "bufferView": 177, "byteOffset": 0, "count": 12, "max": [1.0, 1.0, 1.0], "min": [1.0, 1.0, 1.0]}, {"componentType": 5126, "type": "VEC2", "bufferView": 178, "byteOffset": 0, "count": 12, "max": [0.0, 0.0], "min": [0.0, 0.0]}, {"componentType": 5123, "type": "SCALAR", "bufferView": 179, "byteOffset": 0, "count": 60, "max": [11.0], "min": [0.0]}], "materials": [{"pbrMetallicRoughness": {"baseColorFactor": [0, 0, 0, 1], "metallicFactor": 0, "roughnessFactor": 1}, "name": "mat.pub.large"}, {"pbrMetallicRoughness": {"baseColorFactor": [0.6392156862745098, 0.6392156862745098, 0.6392156862745098, 1], "metallicFactor": 0, "roughnessFactor": 1, "baseColorTexture": {"index": 0}}, "name": "mat.pub.large.panels"}, {"pbrMetallicRoughness": {"baseColorFactor": [0, 0, 0, 1], "metallicFactor": 0, "roughnessFactor": 1}, "name": "mat.pub.large"}, {"pbrMetallicRoughness": {"baseColorFactor": [0.6392156862745098, 0.6392156862745098, 0.6392156862745098, 1], "metallicFactor": 0, "roughnessFactor": 1, "baseColorTexture": {"index": 0}}, "name": "mat.pub.large.panels"}, {"pbrMetallicRoughness": {"baseColorFactor": [0, 0, 0, 1], "metallicFactor": 0, "roughnessFactor": 1}, "name": "mat.pub.large"}, {"pbrMetallicRoughness": {"baseColorFactor": [0.6392156862745098, 0.6392156862745098, 0.6392156862745098, 1], "metallicFactor": 0, "roughnessFactor": 1, "baseColorTexture": {"index": 0}}, "name": "mat.pub.large.panels"}, {"pbrMetallicRoughness": {"baseColorFactor": [0, 0, 0, 1], "metallicFactor": 0, "roughnessFactor": 1}, "name": "mat.pub.large"}, {"pbrMetallicRoughness": {"baseColorFactor": [0.6392156862745098, 0.6392156862745098, 0.6392156862745098, 1], "metallicFactor": 0, "roughnessFactor": 1, "baseColorTexture": {"index": 0}}, "name": "mat.pub.large.panels"}, {"pbrMetallicRoughness": {"baseColorFactor": [0.6392156862745098, 0.6392156862745098, 0.6392156862745098, 1], "metallicFactor": 0, "roughnessFactor": 1}, "name": "poteaux.pub"}, {"pbrMetallicRoughness": {"baseColorFactor": [0.6392156862745098, 0.6392156862745098, 0.6392156862745098, 1], "metallicFactor": 0, "roughnessFactor": 1}, "name": "poteaux.base"}, {"pbrMetallicRoughness": {"baseColorFactor": [0.6392156862745098, 0.6392156862745098, 0.6392156862745098, 1], "metallicFactor": 0, "roughnessFactor": 1, "baseColorTexture": {"index": 0}}, "name": "poteaux.pub"}, {"pbrMetallicRoughness": {"baseColorFactor": [0.6392156862745098, 0.6392156862745098, 0.6392156862745098, 1], "metallicFactor": 0, "roughnessFactor": 1}, "name": "poteaux.base"}, {"pbrMetallicRoughness": {"metallicFactor": 0, "roughnessFactor": 1, "baseColorTexture": {"index": 0}}, "name": "default"}, {"pbrMetallicRoughness": {"metallicFactor": 0, "roughnessFactor": 1}, "name": "default"}, {"pbrMetallicRoughness": {"baseColorFactor": [0.6392156862745098, 0.6392156862745098, 0.6392156862745098, 1], "metallicFactor": 0, "roughnessFactor": 1, "baseColorTexture": {"index": 0}}, "name": "poteaux.pub"}, {"pbrMetallicRoughness": {"baseColorFactor": [0.6392156862745098, 0.6392156862745098, 0.6392156862745098, 1], "metallicFactor": 0, "roughnessFactor": 1}, "name": "poteaux.base"}, {"pbrMetallicRoughness": {"baseColorFactor": [0.6392156862745098, 0.6392156862745098, 0.6392156862745098, 1], "metallicFactor": 0, "roughnessFactor": 1, "baseColorTexture": {"index": 0}}, "name": "poteaux.pub"}, {"pbrMetallicRoughness": {"baseColorFactor": [0.6392156862745098, 0.6392156862745098, 0.6392156862745098, 1], "metallicFactor": 0, "roughnessFactor": 1}, "name": "poteaux.base"}, {"pbrMetallicRoughness": {"metallicFactor": 0, "roughnessFactor": 1}, "name": "default"}, {"pbrMetallicRoughness": {"metallicFactor": 0, "roughnessFactor": 1, "baseColorTexture": {"index": 0}}, "name": "default"}, {"pbrMetallicRoughness": {"metallicFactor": 0, "roughnessFactor": 1}, "name": "default"}, {"pbrMetallicRoughness": {"metallicFactor": 0, "roughnessFactor": 1, "baseColorTexture": {"index": 0}}, "name": "default"}], "meshes": [{"primitives": [{"mode": 4, "attributes": {"POSITION": 0, "NORMAL": 1, "COLOR_0": 2, "TEXCOORD_0": 3}, "material": 0, "indices": 4}]}, {"primitives": [{"mode": 4, "attributes": {"POSITION": 5, "NORMAL": 6, "COLOR_0": 7, "TEXCOORD_0": 8}, "material": 1, "indices": 9}]}, {"primitives": [{"mode": 4, "attributes": {"POSITION": 10, "NORMAL": 11, "COLOR_0": 12, "TEXCOORD_0": 13}, "material": 0, "indices": 14}]}, {"primitives": [{"mode": 4, "attributes": {"POSITION": 15, "NORMAL": 16, "COLOR_0": 17, "TEXCOORD_0": 18}, "material": 1, "indices": 19}]}, {"primitives": [{"mode": 4, "attributes": {"POSITION": 20, "NORMAL": 21, "COLOR_0": 22, "TEXCOORD_0": 23}, "material": 0, "indices": 24}]}, {"primitives": [{"mode": 4, "attributes": {"POSITION": 25, "NORMAL": 26, "COLOR_0": 27, "TEXCOORD_0": 28}, "material": 1, "indices": 29}]}, {"primitives": [{"mode": 4, "attributes": {"POSITION": 30, "NORMAL": 31, "COLOR_0": 32, "TEXCOORD_0": 33}, "material": 0, "indices": 34}]}, {"primitives": [{"mode": 4, "attributes": {"POSITION": 35, "NORMAL": 36, "COLOR_0": 37, "TEXCOORD_0": 38}, "material": 1, "indices": 39}]}, {"primitives": [{"mode": 4, "attributes": {"POSITION": 40, "NORMAL": 41, "COLOR_0": 42, "TEXCOORD_0": 43}, "material": 0, "indices": 44}]}, {"primitives": [{"mode": 4, "attributes": {"POSITION": 45, "NORMAL": 46, "COLOR_0": 47, "TEXCOORD_0": 48}, "material": 2, "indices": 49}]}, {"primitives": [{"mode": 4, "attributes": {"POSITION": 50, "NORMAL": 51, "COLOR_0": 52, "TEXCOORD_0": 53}, "material": 3, "indices": 54}]}, {"primitives": [{"mode": 4, "attributes": {"POSITION": 55, "NORMAL": 56, "COLOR_0": 57, "TEXCOORD_0": 58}, "material": 2, "indices": 59}]}, {"primitives": [{"mode": 4, "attributes": {"POSITION": 60, "NORMAL": 61, "COLOR_0": 62, "TEXCOORD_0": 63}, "material": 3, "indices": 64}]}, {"primitives": [{"mode": 4, "attributes": {"POSITION": 65, "NORMAL": 66, "COLOR_0": 67, "TEXCOORD_0": 68}, "material": 2, "indices": 69}]}, {"primitives": [{"mode": 4, "attributes": {"POSITION": 70, "NORMAL": 71, "COLOR_0": 72, "TEXCOORD_0": 73}, "material": 3, "indices": 74}]}, {"primitives": [{"mode": 4, "attributes": {"POSITION": 75, "NORMAL": 76, "COLOR_0": 77, "TEXCOORD_0": 78}, "material": 2, "indices": 79}]}, {"primitives": [{"mode": 4, "attributes": {"POSITION": 80, "NORMAL": 81, "COLOR_0": 82, "TEXCOORD_0": 83}, "material": 3, "indices": 84}]}, {"primitives": [{"mode": 4, "attributes": {"POSITION": 85, "NORMAL": 86, "COLOR_0": 87, "TEXCOORD_0": 88}, "material": 2, "indices": 89}]}, {"primitives": [{"mode": 4, "attributes": {"POSITION": 90, "NORMAL": 91, "COLOR_0": 92, "TEXCOORD_0": 93}, "material": 4, "indices": 94}]}, {"primitives": [{"mode": 4, "attributes": {"POSITION": 95, "NORMAL": 96, "COLOR_0": 97, "TEXCOORD_0": 98}, "material": 5, "indices": 99}]}, {"primitives": [{"mode": 4, "attributes": {"POSITION": 100, "NORMAL": 101, "COLOR_0": 102, "TEXCOORD_0": 103}, "material": 6, "indices": 104}]}, {"primitives": [{"mode": 4, "attributes": {"POSITION": 105, "NORMAL": 106, "COLOR_0": 107, "TEXCOORD_0": 108}, "material": 7, "indices": 109}]}, {"primitives": [{"mode": 4, "attributes": {"POSITION": 110, "NORMAL": 111, "COLOR_0": 112, "TEXCOORD_0": 113}, "material": 8, "indices": 114}]}, {"primitives": [{"mode": 4, "attributes": {"POSITION": 115, "NORMAL": 116, "COLOR_0": 117, "TEXCOORD_0": 118}, "material": 9, "indices": 119}]}, {"primitives": [{"mode": 4, "attributes": {"POSITION": 120, "NORMAL": 121, "COLOR_0": 122, "TEXCOORD_0": 123}, "material": 10, "indices": 124}]}, {"primitives": [{"mode": 4, "attributes": {"POSITION": 125, "NORMAL": 126, "COLOR_0": 127, "TEXCOORD_0": 128}, "material": 11, "indices": 129}]}, {"primitives": [{"mode": 4, "attributes": {"POSITION": 130, "NORMAL": 131, "COLOR_0": 132, "TEXCOORD_0": 133}, "material": 12, "indices": 134}]}, {"primitives": [{"mode": 4, "attributes": {"POSITION": 135, "NORMAL": 136, "COLOR_0": 137, "TEXCOORD_0": 138}, "material": 13, "indices": 139}]}, {"primitives": [{"mode": 4, "attributes": {"POSITION": 140, "NORMAL": 141, "COLOR_0": 142, "TEXCOORD_0": 143}, "material": 14, "indices": 144}]}, {"primitives": [{"mode": 4, "attributes": {"POSITION": 145, "NORMAL": 146, "COLOR_0": 147, "TEXCOORD_0": 148}, "material": 15, "indices": 149}]}, {"primitives": [{"mode": 4, "attributes": {"POSITION": 150, "NORMAL": 151, "COLOR_0": 152, "TEXCOORD_0": 153}, "material": 16, "indices": 154}]}, {"primitives": [{"mode": 4, "attributes": {"POSITION": 155, "NORMAL": 156, "COLOR_0": 157, "TEXCOORD_0": 158}, "material": 17, "indices": 159}]}, {"primitives": [{"mode": 4, "attributes": {"POSITION": 160, "NORMAL": 161, "COLOR_0": 162, "TEXCOORD_0": 163}, "material": 18, "indices": 164}]}, {"primitives": [{"mode": 4, "attributes": {"POSITION": 165, "NORMAL": 166, "COLOR_0": 167, "TEXCOORD_0": 168}, "material": 19, "indices": 169}]}, {"primitives": [{"mode": 4, "attributes": {"POSITION": 170, "NORMAL": 171, "COLOR_0": 172, "TEXCOORD_0": 173}, "material": 20, "indices": 174}]}, {"primitives": [{"mode": 4, "attributes": {"POSITION": 175, "NORMAL": 176, "COLOR_0": 177, "TEXCOORD_0": 178}, "material": 21, "indices": 179}]}], "images": [{"uri": "pubs.jpg"}], "textures": [{"source": 0}]}