{"asset": {"version": "2.0", "generator": "GLTFExporter"}, "scenes": [{"name": "AuxScene", "nodes": [3]}], "scene": 0, "nodes": [{"extras": {"mapFilename": null}, "mesh": 0}, {"extras": {"mapFilename": null}, "mesh": 1}, {"extras": {"mapFilename": null}, "mesh": 2}, {"children": [0, 1, 2]}], "bufferViews": [{"buffer": 0, "byteOffset": 0, "byteLength": 768}, {"buffer": 0, "byteOffset": 768, "byteLength": 768}, {"buffer": 0, "byteOffset": 1536, "byteLength": 768}, {"buffer": 0, "byteOffset": 2304, "byteLength": 512}, {"buffer": 0, "byteOffset": 2816, "byteLength": 384}, {"buffer": 0, "byteOffset": 3200, "byteLength": 1152}, {"buffer": 0, "byteOffset": 4352, "byteLength": 1152}, {"buffer": 0, "byteOffset": 5504, "byteLength": 1152}, {"buffer": 0, "byteOffset": 6656, "byteLength": 768}, {"buffer": 0, "byteOffset": 7424, "byteLength": 384}, {"buffer": 0, "byteOffset": 7808, "byteLength": 768}, {"buffer": 0, "byteOffset": 8576, "byteLength": 768}, {"buffer": 0, "byteOffset": 9344, "byteLength": 768}, {"buffer": 0, "byteOffset": 10112, "byteLength": 512}, {"buffer": 0, "byteOffset": 10624, "byteLength": 384}], "buffers": [{"byteLength": 11008, "uri": "data:application/octet-stream;base64,"}], "accessors": [{"componentType": 5126, "type": "VEC3", "bufferView": 0, "byteOffset": 0, "count": 64, "max": [6.959690093994141, 0.5430589914321899, 8.756970405578613], "min": [-6.961730003356934, 0.22336900234222412, -8.787220001220703]}, {"componentType": 5126, "type": "VEC3", "bufferView": 1, "byteOffset": 0, "count": 64, "max": [0.13403700292110443, 0.9942629933357239, 0.11169800162315369], "min": [-0.13403700292110443, 0.9908139705657959, -0.11227799952030182]}, {"componentType": 5126, "type": "VEC3", "bufferView": 2, "byteOffset": 0, "count": 64, "max": [1.0, 1.0, 1.0], "min": [1.0, 1.0, 1.0]}, {"componentType": 5126, "type": "VEC2", "bufferView": 3, "byteOffset": 0, "count": 64, "max": [0.0, 0.0], "min": [0.0, 0.0]}, {"componentType": 5123, "type": "SCALAR", "bufferView": 4, "byteOffset": 0, "count": 192, "max": [63.0], "min": [0.0]}, {"componentType": 5126, "type": "VEC3", "bufferView": 5, "byteOffset": 0, "count": 96, "max": [9.142560005187988, 1.8448899984359741, 11.221599578857422], "min": [-9.142560005187988, 1.098479986190796, -11.3016996383667]}, {"componentType": 5126, "type": "VEC3", "bufferView": 6, "byteOffset": 0, "count": 96, "max": [0.32364898920059204, 0.9627670049667358, 0.28141099214553833], "min": [-0.32364898920059204, 0.9448840022087097, -0.28281500935554504]}, {"componentType": 5126, "type": "VEC3", "bufferView": 7, "byteOffset": 0, "count": 96, "max": [1.0, 1.0, 1.0], "min": [1.0, 1.0, 1.0]}, {"componentType": 5126, "type": "VEC2", "bufferView": 8, "byteOffset": 0, "count": 96, "max": [0.6290510296821594, 0.8996490240097046], "min": [0.004991000052541494, 0.8027960062026978]}, {"componentType": 5123, "type": "SCALAR", "bufferView": 9, "byteOffset": 0, "count": 192, "max": [95.0], "min": [0.0]}, {"componentType": 5126, "type": "VEC3", "bufferView": 10, "byteOffset": 0, "count": 64, "max": [12.34529972076416, 3.196000099182129, 14.776200294494629], "min": [-12.279800415039062, 2.2646899223327637, -15.002699851989746]}, {"componentType": 5126, "type": "VEC3", "bufferView": 11, "byteOffset": 0, "count": 64, "max": [0.3491930067539215, 0.9595630168914795, 0.28931498527526855], "min": [-0.3421739935874939, 0.9340490102767944, -0.3008210062980652]}, {"componentType": 5126, "type": "VEC3", "bufferView": 12, "byteOffset": 0, "count": 64, "max": [1.0, 1.0, 1.0], "min": [1.0, 1.0, 1.0]}, {"componentType": 5126, "type": "VEC2", "bufferView": 13, "byteOffset": 0, "count": 64, "max": [0.0, 0.0], "min": [0.0, 0.0]}, {"componentType": 5123, "type": "SCALAR", "bufferView": 14, "byteOffset": 0, "count": 192, "max": [63.0], "min": [0.0]}], "materials": [{"pbrMetallicRoughness": {"metallicFactor": 0, "roughnessFactor": 1}, "name": "undefined_dummy_0"}, {"pbrMetallicRoughness": {"baseColorFactor": [0.6392156862745098, 0.6392156862745098, 0.6392156862745098, 1], "metallicFactor": 0, "roughnessFactor": 1}, "name": "Material.002"}], "meshes": [{"primitives": [{"mode": 4, "attributes": {"POSITION": 0, "NORMAL": 1, "COLOR_0": 2, "TEXCOORD_0": 3}, "material": 0, "indices": 4}]}, {"primitives": [{"mode": 4, "attributes": {"POSITION": 5, "NORMAL": 6, "COLOR_0": 7, "TEXCOORD_0": 8}, "material": 1, "indices": 9}]}, {"primitives": [{"mode": 4, "attributes": {"POSITION": 10, "NORMAL": 11, "COLOR_0": 12, "TEXCOORD_0": 13}, "material": 0, "indices": 14}]}]}