{"asset": {"version": "2.0", "generator": "GLTFExporter"}, "scenes": [{"name": "AuxScene", "nodes": [1]}], "scene": 0, "nodes": [{"mesh": 0}, {"children": [0]}], "bufferViews": [{"buffer": 0, "byteOffset": 0, "byteLength": 7440}, {"buffer": 0, "byteOffset": 7440, "byteLength": 9204}, {"buffer": 0, "byteOffset": 16644, "byteLength": 9204}, {"buffer": 0, "byteOffset": 25848, "byteLength": 9204}, {"buffer": 0, "byteOffset": 35052, "byteLength": 6136}], "buffers": [{"byteLength": 41188, "uri": "data:application/octet-stream;base64,"}], "accessors": [{"componentType": 5123, "type": "SCALAR", "bufferView": 0, "count": 3720, "max": [766], "min": [0]}, {"componentType": 5126, "type": "VEC3", "bufferView": 1, "byteOffset": 0, "count": 767, "max": [0.9265090227127075, 3.25177001953125, 0.9265080094337463], "min": [-0.9265090227127075, -0.005401129834353924, -0.9265090227127075]}, {"componentType": 5126, "type": "VEC3", "bufferView": 2, "byteOffset": 0, "count": 767, "max": [0.9998781681060791, 0.9999088048934937, 0.9998626708984375], "min": [-0.9998781085014343, -0.999800980091095, -0.997128963470459]}, {"componentType": 5126, "type": "VEC3", "bufferView": 3, "byteOffset": 0, "count": 767, "max": [1.0, 1.0, 1.0], "min": [1.0, 1.0, 1.0]}, {"componentType": 5126, "type": "VEC2", "bufferView": 4, "byteOffset": 0, "count": 767, "max": [1.0000499486923218, 0.9900019764900208], "min": [0.0059910002164542675, 0.021933000534772873]}], "materials": [{"pbrMetallicRoughness": {"baseColorFactor": [0.8, 0.8, 0.8, 1], "metallicFactor": 0, "roughnessFactor": 1}}], "meshes": [{"primitives": [{"mode": 4, "attributes": {"POSITION": 1, "NORMAL": 2, "COLOR_0": 3, "TEXCOORD_0": 4}, "material": 0, "indices": 0}]}]}