{"asset": {"version": "2.0", "generator": "GLTFExporter"}, "scenes": [{"name": "AuxScene", "nodes": [1]}], "scene": 0, "nodes": [{"mesh": 0}, {"children": [0]}], "bufferViews": [{"buffer": 0, "byteOffset": 0, "byteLength": 2088}, {"buffer": 0, "byteOffset": 2088, "byteLength": 2640}, {"buffer": 0, "byteOffset": 4728, "byteLength": 2640}, {"buffer": 0, "byteOffset": 7368, "byteLength": 2640}, {"buffer": 0, "byteOffset": 10008, "byteLength": 1760}], "buffers": [{"byteLength": 11768, "uri": "data:application/octet-stream;base64,"}], "accessors": [{"componentType": 5123, "type": "SCALAR", "bufferView": 0, "count": 1044, "max": [219], "min": [0]}, {"componentType": 5126, "type": "VEC3", "bufferView": 1, "byteOffset": 0, "count": 220, "max": [0.9572870135307312, 1.4478199481964111, 0.9572870135307312], "min": [-0.9572870135307312, 0.007956620305776596, -0.9572870135307312]}, {"componentType": 5126, "type": "VEC3", "bufferView": 2, "byteOffset": 0, "count": 220, "max": [0.9838520288467407, 0.9215050339698792, 0.9838520884513855], "min": [-0.9838520288467407, -0.9945554733276367, -0.9838520884513855]}, {"componentType": 5126, "type": "VEC3", "bufferView": 3, "byteOffset": 0, "count": 220, "max": [1.0, 1.0, 1.0], "min": [1.0, 1.0, 1.0]}, {"componentType": 5126, "type": "VEC2", "bufferView": 4, "byteOffset": 0, "count": 220, "max": [0.9882280230522156, 0.990011990070343], "min": [0.01358299981802702, 0.012834999710321426]}], "materials": [{"pbrMetallicRoughness": {"baseColorFactor": [0.8, 0.8, 0.8, 1], "metallicFactor": 0, "roughnessFactor": 1}}], "meshes": [{"primitives": [{"mode": 4, "attributes": {"POSITION": 1, "NORMAL": 2, "COLOR_0": 3, "TEXCOORD_0": 4}, "material": 0, "indices": 0}]}]}