{"asset": {"version": "2.0", "generator": "GLTFExporter"}, "scenes": [{"name": "AuxScene", "nodes": [1]}], "scene": 0, "nodes": [{"mesh": 0}, {"children": [0]}], "bufferViews": [{"buffer": 0, "byteOffset": 0, "byteLength": 5652}, {"buffer": 0, "byteOffset": 5652, "byteLength": 9720}, {"buffer": 0, "byteOffset": 15372, "byteLength": 9720}, {"buffer": 0, "byteOffset": 25092, "byteLength": 9720}, {"buffer": 0, "byteOffset": 34812, "byteLength": 6480}], "buffers": [{"byteLength": 41292, "uri": "data:application/octet-stream;base64,"}], "accessors": [{"componentType": 5123, "type": "SCALAR", "bufferView": 0, "count": 2826, "max": [809], "min": [0]}, {"componentType": 5126, "type": "VEC3", "bufferView": 1, "byteOffset": 0, "count": 810, "max": [0.7064300179481506, 2.436572790145874, 0.9446091055870056], "min": [-0.7064309120178223, 0.009755999781191349, -0.8102745413780212]}, {"componentType": 5126, "type": "VEC3", "bufferView": 2, "byteOffset": 0, "count": 810, "max": [0.9999594688415527, 0.9968706965446472, 0.9999402761459351], "min": [-0.9999594688415527, -0.9994235038757324, -0.9968445897102356]}, {"componentType": 5126, "type": "VEC3", "bufferView": 3, "byteOffset": 0, "count": 810, "max": [1.0, 1.0, 1.0], "min": [1.0, 1.0, 1.0]}, {"componentType": 5126, "type": "VEC2", "bufferView": 4, "byteOffset": 0, "count": 810, "max": [0.9919270277023315, 1.0237900018692017], "min": [0.0, 0.0]}], "materials": [{"pbrMetallicRoughness": {"baseColorFactor": [0.8, 0.8, 0.8, 1], "metallicFactor": 0, "roughnessFactor": 1}}], "meshes": [{"primitives": [{"mode": 4, "attributes": {"POSITION": 1, "NORMAL": 2, "COLOR_0": 3, "TEXCOORD_0": 4}, "material": 0, "indices": 0}]}]}