{"asset": {"version": "2.0", "generator": "GLTFExporter"}, "scenes": [{"name": "AuxScene", "nodes": [1]}], "scene": 0, "nodes": [{"mesh": 0}, {"children": [0]}], "bufferViews": [{"buffer": 0, "byteOffset": 0, "byteLength": 7080}, {"buffer": 0, "byteOffset": 7080, "byteLength": 8388}, {"buffer": 0, "byteOffset": 15468, "byteLength": 8388}, {"buffer": 0, "byteOffset": 23856, "byteLength": 8388}, {"buffer": 0, "byteOffset": 32244, "byteLength": 5592}], "buffers": [{"byteLength": 37836, "uri": "data:application/octet-stream;base64,"}], "accessors": [{"componentType": 5123, "type": "SCALAR", "bufferView": 0, "count": 3540, "max": [698], "min": [0]}, {"componentType": 5126, "type": "VEC3", "bufferView": 1, "byteOffset": 0, "count": 699, "max": [0.7668690085411072, 3.9827799797058105, 0.7668690085411072], "min": [-0.7668690085411072, 0.005855000112205744, -0.7668690085411072]}, {"componentType": 5126, "type": "VEC3", "bufferView": 2, "byteOffset": 0, "count": 699, "max": [0.999176025390625, 0.8924530148506165, 0.999176025390625], "min": [-0.999176025390625, -0.8422499895095825, -0.9999390244483948]}, {"componentType": 5126, "type": "VEC3", "bufferView": 3, "byteOffset": 0, "count": 699, "max": [1.0, 1.0, 1.0], "min": [1.0, 1.0, 1.0]}, {"componentType": 5126, "type": "VEC2", "bufferView": 4, "byteOffset": 0, "count": 699, "max": [0.9961090087890625, 0.9927380084991455], "min": [0.004747000057250261, 0.0013160000089555979]}], "materials": [{"pbrMetallicRoughness": {"baseColorFactor": [0.8, 0.8, 0.8, 1], "metallicFactor": 0, "roughnessFactor": 1}}], "meshes": [{"primitives": [{"mode": 4, "attributes": {"POSITION": 1, "NORMAL": 2, "COLOR_0": 3, "TEXCOORD_0": 4}, "material": 0, "indices": 0}]}]}