{"asset": {"version": "2.0", "generator": "GLTFExporter"}, "scenes": [{"name": "AuxScene", "nodes": [1]}], "scene": 0, "nodes": [{"mesh": 0}, {"children": [0]}], "bufferViews": [{"buffer": 0, "byteOffset": 0, "byteLength": 4392}, {"buffer": 0, "byteOffset": 4392, "byteLength": 9840}, {"buffer": 0, "byteOffset": 14232, "byteLength": 9840}, {"buffer": 0, "byteOffset": 24072, "byteLength": 9840}, {"buffer": 0, "byteOffset": 33912, "byteLength": 6560}], "buffers": [{"byteLength": 40472, "uri": "data:application/octet-stream;base64,"}], "accessors": [{"componentType": 5123, "type": "SCALAR", "bufferView": 0, "count": 2196, "max": [819], "min": [0]}, {"componentType": 5126, "type": "VEC3", "bufferView": 1, "byteOffset": 0, "count": 820, "max": [1.100000023841858, 3.6517701148986816, 0.9265080094337463], "min": [-1.100000023841858, -0.0054006800055503845, -1.100000023841858]}, {"componentType": 5126, "type": "VEC3", "bufferView": 2, "byteOffset": 0, "count": 820, "max": [0.9971143007278442, 0.999299168586731, 0.9971143007278442], "min": [-0.9971142411231995, -0.9994480013847351, -0.9971142411231995]}, {"componentType": 5126, "type": "VEC3", "bufferView": 3, "byteOffset": 0, "count": 820, "max": [1.0, 1.0, 1.0], "min": [1.0, 1.0, 1.0]}, {"componentType": 5126, "type": "VEC2", "bufferView": 4, "byteOffset": 0, "count": 820, "max": [1.0, 0.9808599948883057], "min": [0.0, 0.0]}], "materials": [{"pbrMetallicRoughness": {"baseColorFactor": [0.8, 0.8, 0.8, 1], "metallicFactor": 0, "roughnessFactor": 1}}], "meshes": [{"primitives": [{"mode": 4, "attributes": {"POSITION": 1, "NORMAL": 2, "COLOR_0": 3, "TEXCOORD_0": 4}, "material": 0, "indices": 0}]}]}