{"asset": {"version": "2.0", "generator": "GLTFExporter"}, "scenes": [{"name": "AuxScene", "nodes": [1]}], "scene": 0, "nodes": [{"mesh": 0}, {"children": [0]}], "bufferViews": [{"buffer": 0, "byteOffset": 0, "byteLength": 3432}, {"buffer": 0, "byteOffset": 3432, "byteLength": 5808}, {"buffer": 0, "byteOffset": 9240, "byteLength": 5808}, {"buffer": 0, "byteOffset": 15048, "byteLength": 5808}, {"buffer": 0, "byteOffset": 20856, "byteLength": 3872}], "buffers": [{"byteLength": 24728, "uri": "data:application/octet-stream;base64,"}], "accessors": [{"componentType": 5123, "type": "SCALAR", "bufferView": 0, "count": 1716, "max": [483], "min": [0]}, {"componentType": 5126, "type": "VEC3", "bufferView": 1, "byteOffset": 0, "count": 484, "max": [1.0070749521255493, 3.5345325469970703, 1.0070738792419434], "min": [-1.0070738792419434, -0.0058703045360744, -1.0070738792419434]}, {"componentType": 5126, "type": "VEC3", "bufferView": 2, "byteOffset": 0, "count": 484, "max": [0.997128963470459, 0.9986040592193604, 0.997128963470459], "min": [-0.9971290230751038, -0.9994480013847351, -0.9971290230751038]}, {"componentType": 5126, "type": "VEC3", "bufferView": 3, "byteOffset": 0, "count": 484, "max": [1.0, 1.0, 1.0], "min": [1.0, 1.0, 1.0]}, {"componentType": 5126, "type": "VEC2", "bufferView": 4, "byteOffset": 0, "count": 484, "max": [1.0, 0.9808599948883057], "min": [0.0, 0.0]}], "materials": [{"pbrMetallicRoughness": {"baseColorFactor": [0.8, 0.8, 0.8, 1], "metallicFactor": 0, "roughnessFactor": 1}}], "meshes": [{"primitives": [{"mode": 4, "attributes": {"POSITION": 1, "NORMAL": 2, "COLOR_0": 3, "TEXCOORD_0": 4}, "material": 0, "indices": 0}]}]}