{"asset": {"version": "2.0", "generator": "GLTFExporter"}, "scenes": [{"name": "AuxScene", "nodes": [1]}], "scene": 0, "nodes": [{"mesh": 0}, {"children": [0]}], "bufferViews": [{"buffer": 0, "byteOffset": 0, "byteLength": 15096}, {"buffer": 0, "byteOffset": 15096, "byteLength": 16884}, {"buffer": 0, "byteOffset": 31980, "byteLength": 16884}, {"buffer": 0, "byteOffset": 48864, "byteLength": 16884}, {"buffer": 0, "byteOffset": 65748, "byteLength": 11256}], "buffers": [{"byteLength": 77004, "uri": "data:application/octet-stream;base64,"}], "accessors": [{"componentType": 5123, "type": "SCALAR", "bufferView": 0, "count": 7548, "max": [1406], "min": [0]}, {"componentType": 5126, "type": "VEC3", "bufferView": 1, "byteOffset": 0, "count": 1407, "max": [0.8261250257492065, 3.5095698833465576, 0.8261250257492065], "min": [-0.8261250257492065, -0.0005150000215508044, -0.8261250257492065]}, {"componentType": 5126, "type": "VEC3", "bufferView": 2, "byteOffset": 0, "count": 1407, "max": [1.0, 0.9618520140647888, 0.9999690055847168], "min": [-1.0, -0.8295239806175232, -0.9999690055847168]}, {"componentType": 5126, "type": "VEC3", "bufferView": 3, "byteOffset": 0, "count": 1407, "max": [1.0, 1.0, 1.0], "min": [1.0, 1.0, 1.0]}, {"componentType": 5126, "type": "VEC2", "bufferView": 4, "byteOffset": 0, "count": 1407, "max": [0.9934710264205933, 0.990742027759552], "min": [0.005646000150591135, 0.0068060001358389854]}], "materials": [{"pbrMetallicRoughness": {"baseColorFactor": [0.8, 0.8, 0.8, 1], "metallicFactor": 0, "roughnessFactor": 1}}], "meshes": [{"primitives": [{"mode": 4, "attributes": {"POSITION": 1, "NORMAL": 2, "COLOR_0": 3, "TEXCOORD_0": 4}, "material": 0, "indices": 0}]}]}