{"asset": {"version": "2.0", "generator": "GLTFExporter"}, "scenes": [{"name": "AuxScene", "nodes": [1]}], "scene": 0, "nodes": [{"mesh": 0}, {"children": [0]}], "bufferViews": [{"buffer": 0, "byteOffset": 0, "byteLength": 7512}, {"buffer": 0, "byteOffset": 7512, "byteLength": 12468}, {"buffer": 0, "byteOffset": 19980, "byteLength": 12468}, {"buffer": 0, "byteOffset": 32448, "byteLength": 12468}, {"buffer": 0, "byteOffset": 44916, "byteLength": 8312}], "buffers": [{"byteLength": 53228, "uri": "data:application/octet-stream;base64,"}], "accessors": [{"componentType": 5123, "type": "SCALAR", "bufferView": 0, "count": 3756, "max": [1038], "min": [0]}, {"componentType": 5126, "type": "VEC3", "bufferView": 1, "byteOffset": 0, "count": 1039, "max": [0.7729989886283875, 3.1430699825286865, 1.0098199844360352], "min": [-0.7732509970664978, 0.002729180036112666, -0.9145470261573792]}, {"componentType": 5126, "type": "VEC3", "bufferView": 2, "byteOffset": 0, "count": 1039, "max": [0.999634325504303, 0.9999680519104004, 0.9999842643737793], "min": [-0.999634325504303, -0.9999998807907104, -0.999805748462677]}, {"componentType": 5126, "type": "VEC3", "bufferView": 3, "byteOffset": 0, "count": 1039, "max": [1.0, 1.0, 1.0], "min": [1.0, 1.0, 1.0]}, {"componentType": 5126, "type": "VEC2", "bufferView": 4, "byteOffset": 0, "count": 1039, "max": [0.9966930150985718, 0.991752028465271], "min": [0.004356000106781721, 0.009944000281393528]}], "materials": [{"pbrMetallicRoughness": {"baseColorFactor": [0.8, 0.8, 0.8, 1], "metallicFactor": 0, "roughnessFactor": 1}}], "meshes": [{"primitives": [{"mode": 4, "attributes": {"POSITION": 1, "NORMAL": 2, "COLOR_0": 3, "TEXCOORD_0": 4}, "material": 0, "indices": 0}]}]}