{"asset": {"version": "2.0", "generator": "GLTFExporter"}, "scenes": [{"name": "AuxScene", "nodes": [1]}], "scene": 0, "nodes": [{"extras": {"mapFilename": "ukuku-textures.jpg"}, "mesh": 0}, {"children": [0]}], "bufferViews": [{"buffer": 0, "byteOffset": 0, "byteLength": 19968}, {"buffer": 0, "byteOffset": 19968, "byteLength": 21780}, {"buffer": 0, "byteOffset": 41748, "byteLength": 21780}, {"buffer": 0, "byteOffset": 63528, "byteLength": 21780}, {"buffer": 0, "byteOffset": 85308, "byteLength": 14520}], "buffers": [{"byteLength": 99828, "uri": "data:application/octet-stream;base64,"}], "accessors": [{"componentType": 5123, "type": "SCALAR", "bufferView": 0, "count": 9984, "max": [1814], "min": [0]}, {"componentType": 5126, "type": "VEC3", "bufferView": 1, "byteOffset": 0, "count": 1815, "max": [0.9762120246887207, 0.997409999370575, 0.9762120246887207], "min": [-0.9762120246887207, 0.005692690145224333, -0.9762120246887207]}, {"componentType": 5126, "type": "VEC3", "bufferView": 2, "byteOffset": 0, "count": 1815, "max": [1.0, 1.0, 1.0], "min": [-1.0, -1.0, -1.0]}, {"componentType": 5126, "type": "VEC3", "bufferView": 3, "byteOffset": 0, "count": 1815, "max": [1.0, 1.0, 1.0], "min": [1.0, 1.0, 1.0]}, {"componentType": 5126, "type": "VEC2", "bufferView": 4, "byteOffset": 0, "count": 1815, "max": [0.9899160265922546, 0.9843639731407166], "min": [0.03505299985408783, -0.0014779999619349837]}], "materials": [{"pbrMetallicRoughness": {"baseColorFactor": [0.8, 0.8, 0.8, 1], "metallicFactor": 0, "roughnessFactor": 1, "baseColorTexture": {"index": 0}}, "name": "Material.001"}], "meshes": [{"primitives": [{"mode": 4, "attributes": {"POSITION": 1, "NORMAL": 2, "COLOR_0": 3, "TEXCOORD_0": 4}, "material": 0, "indices": 0}]}], "images": [{"uri": "ukuku-textures.jpg"}], "textures": [{"source": 0}]}