{"asset":{"version":"2.0","generator":"GLTFExporter"},"scenes":[{"name":"AuxScene","nodes":[1]}],"scene":0,"nodes":[{"extras":{"mapFilename":null},"mesh":0},{"children":[0]}],"bufferViews":[{"buffer":0,"byteOffset":0,"byteLength":102384,"target":34962,"byteStride":12},{"buffer":0,"byteOffset":102384,"byteLength":102384,"target":34962,"byteStride":12},{"buffer":0,"byteOffset":204768,"byteLength":102384,"target":34962,"byteStride":12},{"buffer":0,"byteOffset":307152,"byteLength":68256,"target":34962,"byteStride":8}],"buffers":[{"byteLength":375408,"uri":"data:application/octet-stream;base64,"}],"accessors":[{"bufferView":0,"componentType":5126,"count":8532,"max":[4.710237979888916,0.6758073568344116,4.817033290863037],"min":[-4.710240840911865,-0.6758130192756653,-4.817037582397461],"type":"VEC3"},{"bufferView":1,"componentType":5126,"count":8532,"max":[1,1,1],"min":[-1,-1,-1],"type":"VEC3"},{"bufferView":2,"componentType":5126,"count":8532,"max":[1,1,1],"min":[1,1,1],"type":"VEC3"},{"bufferView":3,"componentType":5126,"count":8532,"max":[0.9999979734420776,0.9972530007362366],"min":[-0.0000019999999949504854,0.011541999876499176],"type":"VEC2"}],"materials":[{"pbrMetallicRoughness":{"baseColorFactor":[0.8,0.8,0.8,1],"metallicFactor":0,"roughnessFactor":1},"name":"Material"}],"meshes":[{"primitives":[{"mode":4,"attributes":{"POSITION":0,"NORMAL":1,"COLOR_0":2,"TEXCOORD_0":3},"material":0}]}]}