{"asset": {"version": "2.0", "generator": "GLTFExporter"}, "scenes": [{"name": "AuxScene", "nodes": [1]}], "scene": 0, "nodes": [{"extras": {"mapFilename": null}, "mesh": 0}, {"children": [0]}], "bufferViews": [{"buffer": 0, "byteOffset": 0, "byteLength": 1896}, {"buffer": 0, "byteOffset": 1896, "byteLength": 2748}, {"buffer": 0, "byteOffset": 4644, "byteLength": 2748}, {"buffer": 0, "byteOffset": 7392, "byteLength": 2748}, {"buffer": 0, "byteOffset": 10140, "byteLength": 1832}], "buffers": [{"byteLength": 11972, "uri": "data:application/octet-stream;base64,"}], "accessors": [{"componentType": 5123, "type": "SCALAR", "bufferView": 0, "count": 948, "max": [228], "min": [0]}, {"componentType": 5126, "type": "VEC3", "bufferView": 1, "byteOffset": 0, "count": 229, "max": [1.0, 0.1138399988412857, 1.0], "min": [-1.0, -0.1138409972190857, -1.0]}, {"componentType": 5126, "type": "VEC3", "bufferView": 2, "byteOffset": 0, "count": 229, "max": [1.0, 0.9576399922370911, 1.0], "min": [-1.0, -0.9559919834136963, -1.0]}, {"componentType": 5126, "type": "VEC3", "bufferView": 3, "byteOffset": 0, "count": 229, "max": [1.0, 1.0, 1.0], "min": [1.0, 1.0, 1.0]}, {"componentType": 5126, "type": "VEC2", "bufferView": 4, "byteOffset": 0, "count": 229, "max": [0.9999979734420776, 0.9972530007362366], "min": [-1.9999999949504854e-06, 0.011541999876499176]}], "materials": [{"pbrMetallicRoughness": {"baseColorFactor": [0.8, 0.8, 0.8, 1], "metallicFactor": 0, "roughnessFactor": 1}, "name": "Material"}], "meshes": [{"primitives": [{"mode": 4, "attributes": {"POSITION": 1, "NORMAL": 2, "COLOR_0": 3, "TEXCOORD_0": 4}, "material": 0, "indices": 0}]}]}