{"asset":{"version":"2.0","generator":"GLTFExporter"},"scenes":[{"name":"AuxScene","nodes":[2]}],"scene":0,"nodes":[{"extras":{"mapFilename":null},"mesh":0},{"extras":{"mapFilename":null},"mesh":1},{"children":[0,1]}],"bufferViews":[{"buffer":0,"byteOffset":0,"byteLength":57024,"target":34962,"byteStride":12},{"buffer":0,"byteOffset":57024,"byteLength":57024,"target":34962,"byteStride":12},{"buffer":0,"byteOffset":114048,"byteLength":57024,"target":34962,"byteStride":12},{"buffer":0,"byteOffset":171072,"byteLength":3888,"target":34962,"byteStride":12},{"buffer":0,"byteOffset":174960,"byteLength":3888,"target":34962,"byteStride":12},{"buffer":0,"byteOffset":178848,"byteLength":3888,"target":34962,"byteStride":12}],"buffers":[{"byteLength":182736,"uri":"data:application/octet-stream;base64,"}],"accessors":[{"bufferView":0,"componentType":5126,"count":4752,"max":[2.991406202316284,0.5186668634414673,2.991406202316284],"min":[-2.991406202316284,0.06290239840745926,-2.991406202316284],"type":"VEC3"},{"bufferView":1,"componentType":5126,"count":4752,"max":[0.9234299659729004,0.998119056224823,0.9234299659729004],"min":[-0.9234300851821899,-0.9979954957962036,-0.9234299659729004],"type":"VEC3"},{"bufferView":2,"componentType":5126,"count":4752,"max":[1,1,1],"min":[1,1,1],"type":"VEC3"},{"bufferView":3,"componentType":5126,"count":324,"max":[1.6270376443862915,-0.024482300505042076,1.6270389556884766],"min":[-1.6270374059677124,-0.10040733963251114,-1.6270370483398438],"type":"VEC3"},{"bufferView":4,"componentType":5126,"count":324,"max":[0.9676498174667358,1,0.9812825918197632],"min":[-0.967650830745697,-1,-0.9812828302383423],"type":"VEC3"},{"bufferView":5,"componentType":5126,"count":324,"max":[1,1,1],"min":[1,1,1],"type":"VEC3"}],"materials":[{"pbrMetallicRoughness":{"baseColorFactor":[0.6392156862745098,0.6392156862745098,0.6392156862745098,1],"metallicFactor":0,"roughnessFactor":1},"name":"ring"},{"pbrMetallicRoughness":{"baseColorFactor":[0.6392156862745098,0.6392156862745098,0.6392156862745098,1],"metallicFactor":0,"roughnessFactor":1},"name":"square"}],"meshes":[{"primitives":[{"mode":4,"attributes":{"POSITION":0,"NORMAL":1,"COLOR_0":2},"material":0}]},{"primitives":[{"mode":4,"attributes":{"POSITION":3,"NORMAL":4,"COLOR_0":5},"material":1}]}]}