{"asset": {"version": "2.0", "generator": "GLTFExporter"}, "scenes": [{"name": "AuxScene", "nodes": [1]}], "scene": 0, "nodes": [{"mesh": 0}, {"children": [0]}], "bufferViews": [{"buffer": 0, "byteOffset": 0, "byteLength": 6600}, {"buffer": 0, "byteOffset": 6600, "byteLength": 8772}, {"buffer": 0, "byteOffset": 15372, "byteLength": 8772}, {"buffer": 0, "byteOffset": 24144, "byteLength": 8772}, {"buffer": 0, "byteOffset": 32916, "byteLength": 5848}], "buffers": [{"byteLength": 38764, "uri": "data:application/octet-stream;base64,"}], "accessors": [{"componentType": 5123, "type": "SCALAR", "bufferView": 0, "count": 3300, "max": [730], "min": [0]}, {"componentType": 5126, "type": "VEC3", "bufferView": 1, "byteOffset": 0, "count": 731, "max": [0.936809778213501, 3.1945433616638184, 0.9368108510971069], "min": [-0.936809778213501, 0.014745651744306087, -0.936809778213501]}, {"componentType": 5126, "type": "VEC3", "bufferView": 2, "byteOffset": 0, "count": 731, "max": [0.9991387724876404, 0.9818778038024902, 0.9991387724876404], "min": [-0.9991387724876404, -0.9988780617713928, -0.9991387724876404]}, {"componentType": 5126, "type": "VEC3", "bufferView": 3, "byteOffset": 0, "count": 731, "max": [1.0, 1.0, 1.0], "min": [1.0, 1.0, 1.0]}, {"componentType": 5126, "type": "VEC2", "bufferView": 4, "byteOffset": 0, "count": 731, "max": [0.9925580024719238, 0.9948779940605164], "min": [0.014171999879181385, 0.006244999822229147]}], "materials": [{"pbrMetallicRoughness": {"baseColorFactor": [0.8, 0.8, 0.8, 1], "metallicFactor": 0, "roughnessFactor": 1}}], "meshes": [{"primitives": [{"mode": 4, "attributes": {"POSITION": 1, "NORMAL": 2, "COLOR_0": 3, "TEXCOORD_0": 4}, "material": 0, "indices": 0}]}]}