{"asset": {"version": "2.0", "generator": "GLTFExporter"}, "scenes": [{"name": "AuxScene", "nodes": [1]}], "scene": 0, "nodes": [{"mesh": 0}, {"children": [0]}], "bufferViews": [{"buffer": 0, "byteOffset": 0, "byteLength": 12288}, {"buffer": 0, "byteOffset": 12288, "byteLength": 15012}, {"buffer": 0, "byteOffset": 27300, "byteLength": 15012}, {"buffer": 0, "byteOffset": 42312, "byteLength": 15012}, {"buffer": 0, "byteOffset": 57324, "byteLength": 10008}], "buffers": [{"byteLength": 67332, "uri": "data:application/octet-stream;base64,"}], "accessors": [{"componentType": 5123, "type": "SCALAR", "bufferView": 0, "count": 6144, "max": [1250], "min": [0]}, {"componentType": 5126, "type": "VEC3", "bufferView": 1, "byteOffset": 0, "count": 1251, "max": [0.8663049936294556, 3.458359956741333, 1.056879997253418], "min": [-0.8663049936294556, 0.0037479999009519815, -0.8966749906539917]}, {"componentType": 5126, "type": "VEC3", "bufferView": 2, "byteOffset": 0, "count": 1251, "max": [0.9985659718513489, 0.9998170137405396, 0.9998779892921448], "min": [-0.9985659718513489, -0.9999690055847168, -0.9990230202674866]}, {"componentType": 5126, "type": "VEC3", "bufferView": 3, "byteOffset": 0, "count": 1251, "max": [1.0, 1.0, 1.0], "min": [1.0, 1.0, 1.0]}, {"componentType": 5126, "type": "VEC2", "bufferView": 4, "byteOffset": 0, "count": 1251, "max": [0.9879329800605774, 0.9889280200004578], "min": [-0.0002099999983329326, 0.0034570000134408474]}], "materials": [{"pbrMetallicRoughness": {"baseColorFactor": [0.8, 0.8, 0.8, 1], "metallicFactor": 0, "roughnessFactor": 1}}], "meshes": [{"primitives": [{"mode": 4, "attributes": {"POSITION": 1, "NORMAL": 2, "COLOR_0": 3, "TEXCOORD_0": 4}, "material": 0, "indices": 0}]}]}