{"scene": 0, "scenes": [{"nodes": [0]}], "asset": {"version": "2.0", "generator": "gltf-fix-normals.py"}, "accessors": [{"componentType": 5123, "type": "SCALAR", "bufferView": 0, "count": 1428, "max": [363], "min": [0]}, {"componentType": 5126, "type": "VEC3", "bufferView": 1, "byteOffset": 0, "count": 364, "max": [0.7553790211677551, 2.9384500980377197, 0.7553790211677551], "min": [-0.7553790211677551, -0.019735800102353096, -0.7553790211677551]}, {"componentType": 5126, "type": "VEC2", "bufferView": 2, "byteOffset": 0, "count": 364, "max": [1.0, 0.9241780042648315], "min": [0.0, 0.0]}, {"componentType": 5126, "type": "VEC3", "bufferView": 3, "byteOffset": 0, "count": 364, "max": [0.9998754262924194, 0.9398303031921387, 0.9998754262924194], "min": [-0.9998754262924194, -0.9991774559020996, -0.9998754262924194]}], "meshes": [{"name": "geometry_0", "extras": {}, "primitives": [{"attributes": {"POSITION": 1, "TEXCOORD_0": 2, "NORMAL": 3}, "indices": 0, "mode": 4, "material": 0}]}], "materials": [{"pbrMetallicRoughness": {"baseColorFactor": [0.8, 0.8, 0.8, 1], "metallicFactor": 0, "roughnessFactor": 1}}], "nodes": [{"mesh": 0}, {"children": [0]}], "buffers": [{"byteLength": 14504, "uri": "data:application/octet-stream;base64,"}], "bufferViews": [{"buffer": 0, "byteOffset": 0, "byteLength": 2856}, {"buffer": 0, "byteOffset": 2856, "byteLength": 4368}, {"buffer": 0, "byteOffset": 7224, "byteLength": 2912}, {"buffer": 0, "byteOffset": 10136, "byteLength": 4368}]}