{"asset": {"version": "2.0", "generator": "GLTFExporter"}, "scenes": [{"name": "AuxScene", "nodes": [1]}], "scene": 0, "nodes": [{"mesh": 0}, {"children": [0]}], "bufferViews": [{"buffer": 0, "byteOffset": 0, "byteLength": 3648}, {"buffer": 0, "byteOffset": 3648, "byteLength": 6192}, {"buffer": 0, "byteOffset": 9840, "byteLength": 6192}, {"buffer": 0, "byteOffset": 16032, "byteLength": 6192}, {"buffer": 0, "byteOffset": 22224, "byteLength": 4128}], "buffers": [{"byteLength": 26352, "uri": "data:application/octet-stream;base64,"}], "accessors": [{"componentType": 5123, "type": "SCALAR", "bufferView": 0, "count": 1824, "max": [515], "min": [0]}, {"componentType": 5126, "type": "VEC3", "bufferView": 1, "byteOffset": 0, "count": 516, "max": [0.823432981967926, 1.5691699981689453, 0.823432981967926], "min": [-0.823432981967926, 0.004641570150852203, -0.823432981967926]}, {"componentType": 5126, "type": "VEC3", "bufferView": 2, "byteOffset": 0, "count": 516, "max": [1.0, 0.9920349717140198, 1.0], "min": [-1.0, -1.0, -0.9999690055847168]}, {"componentType": 5126, "type": "VEC3", "bufferView": 3, "byteOffset": 0, "count": 516, "max": [1.0, 1.0, 1.0], "min": [1.0, 1.0, 1.0]}, {"componentType": 5126, "type": "VEC2", "bufferView": 4, "byteOffset": 0, "count": 516, "max": [0.9886860251426697, 0.9922879934310913], "min": [0.012733999639749527, 0.014840999618172646]}], "materials": [{"pbrMetallicRoughness": {"baseColorFactor": [0.8, 0.8, 0.8, 1], "metallicFactor": 0, "roughnessFactor": 1}}], "meshes": [{"primitives": [{"mode": 4, "attributes": {"POSITION": 1, "NORMAL": 2, "COLOR_0": 3, "TEXCOORD_0": 4}, "material": 0, "indices": 0}]}]}