{"asset": {"version": "2.0", "generator": "GLTFExporter"}, "scenes": [{"name": "AuxScene", "nodes": [1]}], "scene": 0, "nodes": [{"mesh": 0}, {"children": [0]}], "bufferViews": [{"buffer": 0, "byteOffset": 0, "byteLength": 2484}, {"buffer": 0, "byteOffset": 2484, "byteLength": 4536}, {"buffer": 0, "byteOffset": 7020, "byteLength": 4536}, {"buffer": 0, "byteOffset": 11556, "byteLength": 4536}, {"buffer": 0, "byteOffset": 16092, "byteLength": 3024}], "buffers": [{"byteLength": 19116, "uri": "data:application/octet-stream;base64,"}], "accessors": [{"componentType": 5123, "type": "SCALAR", "bufferView": 0, "count": 1242, "max": [377], "min": [0]}, {"componentType": 5126, "type": "VEC3", "bufferView": 1, "byteOffset": 0, "count": 378, "max": [0.6681550145149231, 2.450000047683716, 0.6681550145149231], "min": [-0.6681550145149231, -2.9669600110082683e-08, -0.6681550145149231]}, {"componentType": 5126, "type": "VEC3", "bufferView": 2, "byteOffset": 0, "count": 378, "max": [0.9987584948539734, 1.0, 0.9987584948539734], "min": [-0.9987584948539734, -0.9991774559020996, -0.9987586140632629]}, {"componentType": 5126, "type": "VEC3", "bufferView": 3, "byteOffset": 0, "count": 378, "max": [1.0, 1.0, 1.0], "min": [1.0, 1.0, 1.0]}, {"componentType": 5126, "type": "VEC2", "bufferView": 4, "byteOffset": 0, "count": 378, "max": [1.0, 0.9664989709854126], "min": [0.0, 0.0]}], "materials": [{"pbrMetallicRoughness": {"baseColorFactor": [0.8, 0.8, 0.8, 1], "metallicFactor": 0, "roughnessFactor": 1}}], "meshes": [{"primitives": [{"mode": 4, "attributes": {"POSITION": 1, "NORMAL": 2, "COLOR_0": 3, "TEXCOORD_0": 4}, "material": 0, "indices": 0}]}]}