{"asset": {"version": "2.0", "generator": "GLTFExporter"}, "scenes": [{"name": "AuxScene", "nodes": [1]}], "scene": 0, "nodes": [{"mesh": 0}, {"children": [0]}], "bufferViews": [{"buffer": 0, "byteOffset": 0, "byteLength": 2838}, {"buffer": 0, "byteOffset": 2840, "byteLength": 5376}, {"buffer": 0, "byteOffset": 8216, "byteLength": 5376}, {"buffer": 0, "byteOffset": 13592, "byteLength": 5376}, {"buffer": 0, "byteOffset": 18968, "byteLength": 3584}], "buffers": [{"byteLength": 22552, "uri": "data:application/octet-stream;base64,"}], "accessors": [{"componentType": 5123, "type": "SCALAR", "bufferView": 0, "count": 1419, "max": [447], "min": [0]}, {"componentType": 5126, "type": "VEC3", "bufferView": 1, "byteOffset": 0, "count": 448, "max": [0.6681550145149231, 2.799999952316284, 0.6681550145149231], "min": [-0.6681550145149231, -2.9669600110082683e-08, -0.6681550145149231]}, {"componentType": 5126, "type": "VEC3", "bufferView": 2, "byteOffset": 0, "count": 448, "max": [0.9987584948539734, 1.0, 0.9987584948539734], "min": [-0.9987584948539734, -1.0, -1.0]}, {"componentType": 5126, "type": "VEC3", "bufferView": 3, "byteOffset": 0, "count": 448, "max": [1.0, 1.0, 1.0], "min": [1.0, 1.0, 1.0]}, {"componentType": 5126, "type": "VEC2", "bufferView": 4, "byteOffset": 0, "count": 448, "max": [1.0, 0.9664989709854126], "min": [0.0, 0.0]}], "materials": [{"pbrMetallicRoughness": {"baseColorFactor": [0.8, 0.8, 0.8, 1], "metallicFactor": 0, "roughnessFactor": 1}}], "meshes": [{"primitives": [{"mode": 4, "attributes": {"POSITION": 1, "NORMAL": 2, "COLOR_0": 3, "TEXCOORD_0": 4}, "material": 0, "indices": 0}]}]}