{"asset": {"version": "2.0", "generator": "GLTFExporter"}, "scenes": [{"name": "AuxScene", "nodes": [1]}], "scene": 0, "nodes": [{"mesh": 0}, {"children": [0]}], "bufferViews": [{"buffer": 0, "byteOffset": 0, "byteLength": 3936}, {"buffer": 0, "byteOffset": 3936, "byteLength": 4848}, {"buffer": 0, "byteOffset": 8784, "byteLength": 4848}, {"buffer": 0, "byteOffset": 13632, "byteLength": 4848}, {"buffer": 0, "byteOffset": 18480, "byteLength": 3232}], "buffers": [{"byteLength": 21712, "uri": "data:application/octet-stream;base64,"}], "accessors": [{"componentType": 5123, "type": "SCALAR", "bufferView": 0, "count": 1968, "max": [403], "min": [0]}, {"componentType": 5126, "type": "VEC3", "bufferView": 1, "byteOffset": 0, "count": 404, "max": [0.6679999828338623, 2.6730000972747803, 0.6679999828338623], "min": [-0.6679999828338623, 0.0, -0.6679999828338623]}, {"componentType": 5126, "type": "VEC3", "bufferView": 2, "byteOffset": 0, "count": 404, "max": [0.999958872795105, 1.0, 0.999958872795105], "min": [-0.999958872795105, -0.6132514476776123, -0.999958872795105]}, {"componentType": 5126, "type": "VEC3", "bufferView": 3, "byteOffset": 0, "count": 404, "max": [1.0, 1.0, 1.0], "min": [1.0, 1.0, 1.0]}, {"componentType": 5126, "type": "VEC2", "bufferView": 4, "byteOffset": 0, "count": 404, "max": [0.9955999851226807, 0.9940599799156189], "min": [0.0, 0.0]}], "materials": [{"pbrMetallicRoughness": {"baseColorFactor": [0.8, 0.8, 0.8, 1], "metallicFactor": 0, "roughnessFactor": 1}}], "meshes": [{"primitives": [{"mode": 4, "attributes": {"POSITION": 1, "NORMAL": 2, "COLOR_0": 3, "TEXCOORD_0": 4}, "material": 0, "indices": 0}]}]}