{"asset": {"version": "2.0", "generator": "GLTFExporter"}, "scenes": [{"name": "AuxScene", "nodes": [1]}], "scene": 0, "nodes": [{"mesh": 0}, {"children": [0]}], "bufferViews": [{"buffer": 0, "byteOffset": 0, "byteLength": 8148}, {"buffer": 0, "byteOffset": 8148, "byteLength": 9240}, {"buffer": 0, "byteOffset": 17388, "byteLength": 9240}, {"buffer": 0, "byteOffset": 26628, "byteLength": 9240}, {"buffer": 0, "byteOffset": 35868, "byteLength": 6160}], "buffers": [{"byteLength": 42028, "uri": "data:application/octet-stream;base64,"}], "accessors": [{"componentType": 5123, "type": "SCALAR", "bufferView": 0, "count": 4074, "max": [769], "min": [0]}, {"componentType": 5126, "type": "VEC3", "bufferView": 1, "byteOffset": 0, "count": 770, "max": [0.7729830145835876, 3.145709991455078, 0.7874150276184082], "min": [-0.7729830145835876, -0.0025220001116394997, -0.7729830145835876]}, {"componentType": 5126, "type": "VEC3", "bufferView": 2, "byteOffset": 0, "count": 770, "max": [0.9989929795265198, 0.9994199872016907, 0.9999079704284668], "min": [-0.9989929795265198, -0.9999079704284668, -0.9997559785842896]}, {"componentType": 5126, "type": "VEC3", "bufferView": 3, "byteOffset": 0, "count": 770, "max": [1.0, 1.0, 1.0], "min": [1.0, 1.0, 1.0]}, {"componentType": 5126, "type": "VEC2", "bufferView": 4, "byteOffset": 0, "count": 770, "max": [0.9890689849853516, 0.9898030161857605], "min": [0.002785000018775463, 0.003936000168323517]}], "materials": [{"pbrMetallicRoughness": {"baseColorFactor": [0.8, 0.8, 0.8, 1], "metallicFactor": 0, "roughnessFactor": 1}}], "meshes": [{"primitives": [{"mode": 4, "attributes": {"POSITION": 1, "NORMAL": 2, "COLOR_0": 3, "TEXCOORD_0": 4}, "material": 0, "indices": 0}]}]}