{"asset": {"version": "2.0", "generator": "GLTFExporter"}, "scenes": [{"name": "AuxScene", "nodes": [1]}], "scene": 0, "nodes": [{"mesh": 0}, {"children": [0]}], "bufferViews": [{"buffer": 0, "byteOffset": 0, "byteLength": 5904}, {"buffer": 0, "byteOffset": 5904, "byteLength": 8328}, {"buffer": 0, "byteOffset": 14232, "byteLength": 8328}, {"buffer": 0, "byteOffset": 22560, "byteLength": 8328}, {"buffer": 0, "byteOffset": 30888, "byteLength": 5552}], "buffers": [{"byteLength": 36440, "uri": "data:application/octet-stream;base64,"}], "accessors": [{"componentType": 5123, "type": "SCALAR", "bufferView": 0, "count": 2952, "max": [693], "min": [0]}, {"componentType": 5126, "type": "VEC3", "bufferView": 1, "byteOffset": 0, "count": 694, "max": [0.7553790211677551, 2.9384500980377197, 0.7553790211677551], "min": [-0.7553790211677551, -0.019736099988222122, -0.7553790211677551]}, {"componentType": 5126, "type": "VEC3", "bufferView": 2, "byteOffset": 0, "count": 694, "max": [0.9999690055847168, 0.9856560230255127, 0.9999690055847168], "min": [-0.9999690055847168, -0.8174690008163452, -0.9999690055847168]}, {"componentType": 5126, "type": "VEC3", "bufferView": 3, "byteOffset": 0, "count": 694, "max": [1.0, 1.0, 1.0], "min": [1.0, 1.0, 1.0]}, {"componentType": 5126, "type": "VEC2", "bufferView": 4, "byteOffset": 0, "count": 694, "max": [0.973583996295929, 0.9699069857597351], "min": [0.01881139911711216, 0.015835300087928772]}], "materials": [{"pbrMetallicRoughness": {"baseColorFactor": [0.8, 0.8, 0.8, 1], "metallicFactor": 0, "roughnessFactor": 1}}], "meshes": [{"primitives": [{"mode": 4, "attributes": {"POSITION": 1, "NORMAL": 2, "COLOR_0": 3, "TEXCOORD_0": 4}, "material": 0, "indices": 0}]}]}