{"asset": {"version": "2.0", "generator": "GLTFExporter"}, "scenes": [{"name": "AuxScene", "nodes": [1]}], "scene": 0, "nodes": [{"mesh": 0}, {"children": [0]}], "bufferViews": [{"buffer": 0, "byteOffset": 0, "byteLength": 3984}, {"buffer": 0, "byteOffset": 3984, "byteLength": 13368}, {"buffer": 0, "byteOffset": 17352, "byteLength": 13368}, {"buffer": 0, "byteOffset": 30720, "byteLength": 13368}, {"buffer": 0, "byteOffset": 44088, "byteLength": 8912}], "buffers": [{"byteLength": 53000, "uri": "data:application/octet-stream;base64,"}], "accessors": [{"componentType": 5123, "type": "SCALAR", "bufferView": 0, "count": 1992, "max": [1113], "min": [0]}, {"componentType": 5126, "type": "VEC3", "bufferView": 1, "byteOffset": 0, "count": 1114, "max": [0.7691429853439331, 2.5344200134277344, 0.7691419720649719], "min": [-0.7691429853439331, 0.013318999670445919, -0.7691429853439331]}, {"componentType": 5126, "type": "VEC3", "bufferView": 2, "byteOffset": 0, "count": 1114, "max": [1.0, 1.0, 1.0], "min": [-1.0, -1.0, -0.9997950196266174]}, {"componentType": 5126, "type": "VEC3", "bufferView": 3, "byteOffset": 0, "count": 1114, "max": [1.0, 1.0, 1.0], "min": [1.0, 1.0, 1.0]}, {"componentType": 5126, "type": "VEC2", "bufferView": 4, "byteOffset": 0, "count": 1114, "max": [0.9919220209121704, 0.9918190240859985], "min": [0.011003999970853329, 0.003777999896556139]}], "materials": [{"pbrMetallicRoughness": {"baseColorFactor": [0.8, 0.8, 0.8, 1], "metallicFactor": 0, "roughnessFactor": 1}}], "meshes": [{"primitives": [{"mode": 4, "attributes": {"POSITION": 1, "NORMAL": 2, "COLOR_0": 3, "TEXCOORD_0": 4}, "material": 0, "indices": 0}]}]}