{"asset": {"version": "2.0", "generator": "GLTFExporter"}, "scenes": [{"name": "AuxScene", "nodes": [1]}], "scene": 0, "nodes": [{"mesh": 0}, {"children": [0]}], "bufferViews": [{"buffer": 0, "byteOffset": 0, "byteLength": 8328}, {"buffer": 0, "byteOffset": 8328, "byteLength": 10776}, {"buffer": 0, "byteOffset": 19104, "byteLength": 10776}, {"buffer": 0, "byteOffset": 29880, "byteLength": 10776}, {"buffer": 0, "byteOffset": 40656, "byteLength": 7184}], "buffers": [{"byteLength": 47840, "uri": "data:application/octet-stream;base64,"}], "accessors": [{"componentType": 5123, "type": "SCALAR", "bufferView": 0, "count": 4164, "max": [897], "min": [0]}, {"componentType": 5126, "type": "VEC3", "bufferView": 1, "byteOffset": 0, "count": 898, "max": [1.0, 4.345749855041504, 1.0], "min": [-1.0, 0.007344199810177088, -1.0]}, {"componentType": 5126, "type": "VEC3", "bufferView": 2, "byteOffset": 0, "count": 898, "max": [0.9999932050704956, 0.9804474711418152, 0.9999932050704956], "min": [-0.9999932050704956, -0.9927785396575928, -0.9999932050704956]}, {"componentType": 5126, "type": "VEC3", "bufferView": 3, "byteOffset": 0, "count": 898, "max": [1.0, 1.0, 1.0], "min": [1.0, 1.0, 1.0]}, {"componentType": 5126, "type": "VEC2", "bufferView": 4, "byteOffset": 0, "count": 898, "max": [0.9960100054740906, 0.9862819910049438], "min": [0.003636999987065792, 0.006407999899238348]}], "materials": [{"pbrMetallicRoughness": {"baseColorFactor": [0.8, 0.8, 0.8, 1], "metallicFactor": 0, "roughnessFactor": 1}}], "meshes": [{"primitives": [{"mode": 4, "attributes": {"POSITION": 1, "NORMAL": 2, "COLOR_0": 3, "TEXCOORD_0": 4}, "material": 0, "indices": 0}]}]}