{"asset": {"version": "2.0", "generator": "GLTFExporter"}, "scenes": [{"name": "AuxScene", "nodes": [4]}], "scene": 0, "nodes": [{"extras": {"mapFilename": null}, "mesh": 0}, {"extras": {"mapFilename": null}, "mesh": 1}, {"extras": {"mapFilename": null}, "mesh": 2}, {"extras": {"mapFilename": null}, "mesh": 3}, {"children": [0, 1, 2, 3]}], "bufferViews": [{"buffer": 0, "byteOffset": 0, "byteLength": 744}, {"buffer": 0, "byteOffset": 744, "byteLength": 744}, {"buffer": 0, "byteOffset": 1488, "byteLength": 744}, {"buffer": 0, "byteOffset": 2232, "byteLength": 496}, {"buffer": 0, "byteOffset": 2728, "byteLength": 360}, {"buffer": 0, "byteOffset": 3088, "byteLength": 48}, {"buffer": 0, "byteOffset": 3136, "byteLength": 48}, {"buffer": 0, "byteOffset": 3184, "byteLength": 48}, {"buffer": 0, "byteOffset": 3232, "byteLength": 32}, {"buffer": 0, "byteOffset": 3264, "byteLength": 12}, {"buffer": 0, "byteOffset": 3276, "byteLength": 1572}, {"buffer": 0, "byteOffset": 4848, "byteLength": 1572}, {"buffer": 0, "byteOffset": 6420, "byteLength": 1572}, {"buffer": 0, "byteOffset": 7992, "byteLength": 1048}, {"buffer": 0, "byteOffset": 9040, "byteLength": 1356}, {"buffer": 0, "byteOffset": 10396, "byteLength": 768}, {"buffer": 0, "byteOffset": 11164, "byteLength": 768}, {"buffer": 0, "byteOffset": 11932, "byteLength": 768}, {"buffer": 0, "byteOffset": 12700, "byteLength": 512}, {"buffer": 0, "byteOffset": 13212, "byteLength": 552}], "buffers": [{"byteLength": 13764, "uri": "data:application/octet-stream;base64,"}], "accessors": [{"componentType": 5126, "type": "VEC3", "bufferView": 0, "byteOffset": 0, "count": 62, "max": [1.0471400022506714, 0.7229769825935364, 1.0471400022506714], "min": [-1.0471400022506714, 0.5519710183143616, -1.0471400022506714]}, {"componentType": 5126, "type": "VEC3", "bufferView": 1, "byteOffset": 0, "count": 62, "max": [0.9841610193252563, 0.5515919923782349, 0.9841610193252563], "min": [-0.9841610193252563, 0.17722100019454956, -0.9841610193252563]}, {"componentType": 5126, "type": "VEC3", "bufferView": 2, "byteOffset": 0, "count": 62, "max": [1.0, 1.0, 1.0], "min": [1.0, 1.0, 1.0]}, {"componentType": 5126, "type": "VEC2", "bufferView": 3, "byteOffset": 0, "count": 62, "max": [1.0, 1.0], "min": [0.0, 0.19682000577449799]}, {"componentType": 5123, "type": "SCALAR", "bufferView": 4, "byteOffset": 0, "count": 180, "max": [61.0], "min": [0.0]}, {"componentType": 5126, "type": "VEC3", "bufferView": 5, "byteOffset": 0, "count": 4, "max": [-0.5343919992446899, 0.7519109845161438, -0.680154025554657], "min": [-0.7071059942245483, 0.7229769825935364, -0.8314700126647949]}, {"componentType": 5126, "type": "VEC3", "bufferView": 6, "byteOffset": 0, "count": 4, "max": [-0.18701699376106262, 0.941618025302887, -0.23801399767398834], "min": [-0.5897700190544128, 0.5515919923782349, -0.6935030221939087]}, {"componentType": 5126, "type": "VEC3", "bufferView": 7, "byteOffset": 0, "count": 4, "max": [1.0, 1.0, 1.0], "min": [1.0, 1.0, 1.0]}, {"componentType": 5126, "type": "VEC2", "bufferView": 8, "byteOffset": 0, "count": 4, "max": [0.23280400037765503, 0.9157350063323975], "min": [0.14644700288772583, 0.8400769829750061]}, {"componentType": 5123, "type": "SCALAR", "bufferView": 9, "byteOffset": 0, "count": 6, "max": [3.0], "min": [0.0]}, {"componentType": 5126, "type": "VEC3", "bufferView": 10, "byteOffset": 0, "count": 131, "max": [1.063730001449585, 0.7229769825935364, 1.063730001449585], "min": [-1.063730001449585, 0.010581700131297112, -1.063730001449585]}, {"componentType": 5126, "type": "VEC3", "bufferView": 11, "byteOffset": 0, "count": 131, "max": [1.0, 0.5515919923782349, 1.0], "min": [-1.0, -0.777550995349884, -0.9999690055847168]}, {"componentType": 5126, "type": "VEC3", "bufferView": 12, "byteOffset": 0, "count": 131, "max": [1.0, 1.0, 1.0], "min": [1.0, 1.0, 1.0]}, {"componentType": 5126, "type": "VEC2", "bufferView": 13, "byteOffset": 0, "count": 131, "max": [1.0, 0.9624180197715759], "min": [0.0, 0.0]}, {"componentType": 5123, "type": "SCALAR", "bufferView": 14, "byteOffset": 0, "count": 678, "max": [130.0], "min": [0.0]}, {"componentType": 5126, "type": "VEC3", "bufferView": 15, "byteOffset": 0, "count": 64, "max": [1.0, 0.7519109845161438, 1.0], "min": [-1.0, 0.7229769825935364, -1.0]}, {"componentType": 5126, "type": "VEC3", "bufferView": 16, "byteOffset": 0, "count": 64, "max": [0.8340709805488586, 0.941618025302887, 0.8340709805488586], "min": [-0.8340709805488586, 0.5515919923782349, -0.8340709805488586]}, {"componentType": 5126, "type": "VEC3", "bufferView": 17, "byteOffset": 0, "count": 64, "max": [1.0, 1.0, 1.0], "min": [1.0, 1.0, 1.0]}, {"componentType": 5126, "type": "VEC2", "bufferView": 18, "byteOffset": 0, "count": 64, "max": [1.0, 1.0], "min": [0.0, 0.0]}, {"componentType": 5123, "type": "SCALAR", "bufferView": 19, "byteOffset": 0, "count": 276, "max": [63.0], "min": [0.0]}], "materials": [{"pbrMetallicRoughness": {"baseColorFactor": [0.6392156862745098, 0.6392156862745098, 0.6392156862745098, 1], "metallicFactor": 0, "roughnessFactor": 1}, "name": "pieceborders"}, {"pbrMetallicRoughness": {"baseColorFactor": [0.6392156862745098, 0.6392156862745098, 0.6392156862745098, 1], "metallicFactor": 0, "roughnessFactor": 1}, "name": "piecetop"}], "meshes": [{"primitives": [{"mode": 4, "attributes": {"POSITION": 0, "NORMAL": 1, "COLOR_0": 2, "TEXCOORD_0": 3}, "material": 0, "indices": 4}]}, {"primitives": [{"mode": 4, "attributes": {"POSITION": 5, "NORMAL": 6, "COLOR_0": 7, "TEXCOORD_0": 8}, "material": 1, "indices": 9}]}, {"primitives": [{"mode": 4, "attributes": {"POSITION": 10, "NORMAL": 11, "COLOR_0": 12, "TEXCOORD_0": 13}, "material": 0, "indices": 14}]}, {"primitives": [{"mode": 4, "attributes": {"POSITION": 15, "NORMAL": 16, "COLOR_0": 17, "TEXCOORD_0": 18}, "material": 1, "indices": 19}]}]}