{"asset": {"version": "2.0", "generator": "GLTFExporter"}, "scenes": [{"name": "AuxScene", "nodes": [1]}], "scene": 0, "nodes": [{"extras": {"mapFilename": null}, "mesh": 0}, {"children": [0]}], "bufferViews": [{"buffer": 0, "byteOffset": 0, "byteLength": 6096}, {"buffer": 0, "byteOffset": 6096, "byteLength": 7560}, {"buffer": 0, "byteOffset": 13656, "byteLength": 7560}, {"buffer": 0, "byteOffset": 21216, "byteLength": 7560}, {"buffer": 0, "byteOffset": 28776, "byteLength": 5040}], "buffers": [{"byteLength": 33816, "uri": "data:application/octet-stream;base64,"}], "accessors": [{"componentType": 5123, "type": "SCALAR", "bufferView": 0, "count": 3048, "max": [629], "min": [0]}, {"componentType": 5126, "type": "VEC3", "bufferView": 1, "byteOffset": 0, "count": 630, "max": [0.7686840295791626, 2.3359100818634033, 0.9734370112419128], "min": [-0.768684983253479, 0.0061097401194274426, -0.692887008190155]}, {"componentType": 5126, "type": "VEC3", "bufferView": 2, "byteOffset": 0, "count": 630, "max": [1.0, 0.9915159940719604, 0.9999690055847168], "min": [-1.0, -0.9964290261268616, -0.9999690055847168]}, {"componentType": 5126, "type": "VEC3", "bufferView": 3, "byteOffset": 0, "count": 630, "max": [1.0, 1.0, 1.0], "min": [1.0, 1.0, 1.0]}, {"componentType": 5126, "type": "VEC2", "bufferView": 4, "byteOffset": 0, "count": 630, "max": [0.9877960085868835, 0.9912310242652893], "min": [0.01400499977171421, 0.007942999713122845]}], "materials": [{"pbrMetallicRoughness": {"metallicFactor": 0, "roughnessFactor": 1}, "name": "default"}], "meshes": [{"primitives": [{"mode": 4, "attributes": {"POSITION": 1, "NORMAL": 2, "COLOR_0": 3, "TEXCOORD_0": 4}, "material": 0, "indices": 0}]}]}