{"asset": {"version": "2.0", "generator": "GLTFExporter"}, "scenes": [{"name": "AuxScene", "nodes": [1]}], "scene": 0, "nodes": [{"mesh": 0}, {"children": [0]}], "bufferViews": [{"buffer": 0, "byteOffset": 0, "byteLength": 3120}, {"buffer": 0, "byteOffset": 3120, "byteLength": 3912}, {"buffer": 0, "byteOffset": 7032, "byteLength": 3912}, {"buffer": 0, "byteOffset": 10944, "byteLength": 3912}, {"buffer": 0, "byteOffset": 14856, "byteLength": 2608}], "buffers": [{"byteLength": 17464, "uri": "data:application/octet-stream;base64,"}], "accessors": [{"componentType": 5123, "type": "SCALAR", "bufferView": 0, "count": 1560, "max": [325], "min": [0]}, {"componentType": 5126, "type": "VEC3", "bufferView": 1, "byteOffset": 0, "count": 326, "max": [0.7549999952316284, 2.700000047683716, 0.7549999952316284], "min": [-0.7549999952316284, 0.0, -0.7549999952316284]}, {"componentType": 5126, "type": "VEC3", "bufferView": 2, "byteOffset": 0, "count": 326, "max": [1.0, 0.984838604927063, 1.0], "min": [-1.0, -0.842461347579956, -1.0]}, {"componentType": 5126, "type": "VEC3", "bufferView": 3, "byteOffset": 0, "count": 326, "max": [1.0, 1.0, 1.0], "min": [1.0, 1.0, 1.0]}, {"componentType": 5126, "type": "VEC2", "bufferView": 4, "byteOffset": 0, "count": 326, "max": [0.8125, 0.8125], "min": [0.0, 0.0]}], "materials": [{"pbrMetallicRoughness": {"baseColorFactor": [0.8, 0.8, 0.8, 1], "metallicFactor": 0, "roughnessFactor": 1}}], "meshes": [{"primitives": [{"mode": 4, "attributes": {"POSITION": 1, "NORMAL": 2, "COLOR_0": 3, "TEXCOORD_0": 4}, "material": 0, "indices": 0}]}]}