{"asset": {"version": "2.0", "generator": "GLTFExporter"}, "scenes": [{"name": "AuxScene", "nodes": [1]}], "scene": 0, "nodes": [{"mesh": 0}, {"children": [0]}], "bufferViews": [{"buffer": 0, "byteOffset": 0, "byteLength": 5376}, {"buffer": 0, "byteOffset": 5376, "byteLength": 6156}, {"buffer": 0, "byteOffset": 11532, "byteLength": 6156}, {"buffer": 0, "byteOffset": 17688, "byteLength": 6156}, {"buffer": 0, "byteOffset": 23844, "byteLength": 4104}], "buffers": [{"byteLength": 27948, "uri": "data:application/octet-stream;base64,"}], "accessors": [{"componentType": 5123, "type": "SCALAR", "bufferView": 0, "count": 2688, "max": [512], "min": [0]}, {"componentType": 5126, "type": "VEC3", "bufferView": 1, "byteOffset": 0, "count": 513, "max": [0.7549999952316284, 3.002000093460083, 0.875], "min": [-0.7549999952316284, 0.0, -0.7549999952316284]}, {"componentType": 5126, "type": "VEC3", "bufferView": 2, "byteOffset": 0, "count": 513, "max": [1.0, 0.9986792802810669, 0.9999900460243225], "min": [-1.0, -0.9989307522773743, -0.9987788200378418]}, {"componentType": 5126, "type": "VEC3", "bufferView": 3, "byteOffset": 0, "count": 513, "max": [1.0, 1.0, 1.0], "min": [1.0, 1.0, 1.0]}, {"componentType": 5126, "type": "VEC2", "bufferView": 4, "byteOffset": 0, "count": 513, "max": [0.8125, 0.8125], "min": [0.0, 0.0]}], "materials": [{"pbrMetallicRoughness": {"baseColorFactor": [0.8, 0.8, 0.8, 1], "metallicFactor": 0, "roughnessFactor": 1}}], "meshes": [{"primitives": [{"mode": 4, "attributes": {"POSITION": 1, "NORMAL": 2, "COLOR_0": 3, "TEXCOORD_0": 4}, "material": 0, "indices": 0}]}]}