{"asset": {"version": "2.0", "generator": "GLTFExporter"}, "scenes": [{"name": "AuxScene", "nodes": [1]}], "scene": 0, "nodes": [{"mesh": 0}, {"children": [0]}], "bufferViews": [{"buffer": 0, "byteOffset": 0, "byteLength": 4704}, {"buffer": 0, "byteOffset": 4704, "byteLength": 5748}, {"buffer": 0, "byteOffset": 10452, "byteLength": 5748}, {"buffer": 0, "byteOffset": 16200, "byteLength": 5748}, {"buffer": 0, "byteOffset": 21948, "byteLength": 3832}], "buffers": [{"byteLength": 25780, "uri": "data:application/octet-stream;base64,"}], "accessors": [{"componentType": 5123, "type": "SCALAR", "bufferView": 0, "count": 2352, "max": [478], "min": [0]}, {"componentType": 5126, "type": "VEC3", "bufferView": 1, "byteOffset": 0, "count": 479, "max": [0.6863636374473572, 2.7409090995788574, 0.6863636374473572], "min": [-0.6863636374473572, 0.0, -0.6863636374473572]}, {"componentType": 5126, "type": "VEC3", "bufferView": 2, "byteOffset": 0, "count": 479, "max": [0.9999691247940063, 1.0, 0.9999691247940063], "min": [-0.9999691247940063, -0.9972781538963318, -0.9999691247940063]}, {"componentType": 5126, "type": "VEC3", "bufferView": 3, "byteOffset": 0, "count": 479, "max": [1.0, 1.0, 1.0], "min": [1.0, 1.0, 1.0]}, {"componentType": 5126, "type": "VEC2", "bufferView": 4, "byteOffset": 0, "count": 479, "max": [0.9955999851226807, 0.9940599799156189], "min": [0.0, 0.0]}], "materials": [{"pbrMetallicRoughness": {"baseColorFactor": [0.8, 0.8, 0.8, 1], "metallicFactor": 0, "roughnessFactor": 1}}], "meshes": [{"primitives": [{"mode": 4, "attributes": {"POSITION": 1, "NORMAL": 2, "COLOR_0": 3, "TEXCOORD_0": 4}, "material": 0, "indices": 0}]}]}