{"asset": {"version": "2.0", "generator": "GLTFExporter"}, "scenes": [{"name": "AuxScene", "nodes": [1]}], "scene": 0, "nodes": [{"mesh": 0}, {"children": [0]}], "bufferViews": [{"buffer": 0, "byteOffset": 0, "byteLength": 6144}, {"buffer": 0, "byteOffset": 6144, "byteLength": 7356}, {"buffer": 0, "byteOffset": 13500, "byteLength": 7356}, {"buffer": 0, "byteOffset": 20856, "byteLength": 7356}, {"buffer": 0, "byteOffset": 28212, "byteLength": 4904}], "buffers": [{"byteLength": 33116, "uri": "data:application/octet-stream;base64,"}], "accessors": [{"componentType": 5123, "type": "SCALAR", "bufferView": 0, "count": 3072, "max": [612], "min": [0]}, {"componentType": 5126, "type": "VEC3", "bufferView": 1, "byteOffset": 0, "count": 613, "max": [1.1080000400543213, 2.7809998989105225, 0.7549999952316284], "min": [-1.1080000400543213, 0.0, -0.7549999952316284]}, {"componentType": 5126, "type": "VEC3", "bufferView": 2, "byteOffset": 0, "count": 613, "max": [0.9985941052436829, 0.9682019948959351, 0.9999998807907104], "min": [-0.9985941052436829, -0.9715670347213745, -0.9999998807907104]}, {"componentType": 5126, "type": "VEC3", "bufferView": 3, "byteOffset": 0, "count": 613, "max": [1.0, 1.0, 1.0], "min": [1.0, 1.0, 1.0]}, {"componentType": 5126, "type": "VEC2", "bufferView": 4, "byteOffset": 0, "count": 613, "max": [0.8125, 0.8125], "min": [0.0, 0.0]}], "materials": [{"pbrMetallicRoughness": {"baseColorFactor": [0.8, 0.8, 0.8, 1], "metallicFactor": 0, "roughnessFactor": 1}}], "meshes": [{"primitives": [{"mode": 4, "attributes": {"POSITION": 1, "NORMAL": 2, "COLOR_0": 3, "TEXCOORD_0": 4}, "material": 0, "indices": 0}]}]}