{"asset": {"version": "2.0", "generator": "GLTFExporter"}, "scenes": [{"name": "AuxScene", "nodes": [1]}], "scene": 0, "nodes": [{"mesh": 0}, {"children": [0]}], "bufferViews": [{"buffer": 0, "byteOffset": 0, "byteLength": 4416}, {"buffer": 0, "byteOffset": 4416, "byteLength": 4944}, {"buffer": 0, "byteOffset": 9360, "byteLength": 4944}, {"buffer": 0, "byteOffset": 14304, "byteLength": 4944}, {"buffer": 0, "byteOffset": 19248, "byteLength": 3296}], "buffers": [{"byteLength": 22544, "uri": "data:application/octet-stream;base64,"}], "accessors": [{"componentType": 5123, "type": "SCALAR", "bufferView": 0, "count": 2208, "max": [411], "min": [0]}, {"componentType": 5126, "type": "VEC3", "bufferView": 1, "byteOffset": 0, "count": 412, "max": [0.7549999952316284, 3.0999999046325684, 0.8299999833106995], "min": [-0.7549999952316284, 0.0, -0.9879999756813049]}, {"componentType": 5126, "type": "VEC3", "bufferView": 2, "byteOffset": 0, "count": 412, "max": [0.9999845623970032, 0.9994447231292725, 0.9981763958930969], "min": [-0.9999845623970032, -0.9989993572235107, -0.988338828086853]}, {"componentType": 5126, "type": "VEC3", "bufferView": 3, "byteOffset": 0, "count": 412, "max": [1.0, 1.0, 1.0], "min": [1.0, 1.0, 1.0]}, {"componentType": 5126, "type": "VEC2", "bufferView": 4, "byteOffset": 0, "count": 412, "max": [0.8125, 0.8105469942092896], "min": [0.0, 0.0]}], "materials": [{"pbrMetallicRoughness": {"baseColorFactor": [0.8, 0.8, 0.8, 1], "metallicFactor": 0, "roughnessFactor": 1}}], "meshes": [{"primitives": [{"mode": 4, "attributes": {"POSITION": 1, "NORMAL": 2, "COLOR_0": 3, "TEXCOORD_0": 4}, "material": 0, "indices": 0}]}]}